<?xml version="1.0" standalone="no"?>
<!DOCTYPE svg PUBLIC "-//W3C//DTD SVG 1.1//EN" "http://www.w3.org/Graphics/SVG/1.1/DTD/svg11.dtd" >
<svg xmlns="http://www.w3.org/2000/svg">
<metadata></metadata>
<defs>
<font id="serifalight" horiz-adv-x="1024" >
<font-face units-per-em="2048" ascent="1638" descent="-410" />
<missing-glyph horiz-adv-x="512" />
<glyph unicode="&#xfb01;" d="M37 0v78h174v766h-174v78h174v112q0 145 82 235.5t268 90.5q139 0 224 -69.5t85 -215.5h-114q0 92 -50.5 143.5t-146.5 51.5q-74 0 -122 -21.5t-75.5 -55.5t-38 -78t-10.5 -89v-104h555v-844h123v-78h-368v78h143v766h-453v-766h164v-78h-440z" />
<glyph unicode="&#xfb02;" d="M37 0v78h174v766h-174v78h174v77q0 186 89 273.5t292 87.5q31 0 67.5 -3t73.5 -8.5t69 -10.5t54 -9v-1251h133v-78h-399v78h164v1169q-84 23 -156 23q-147 0 -216 -62.5t-69 -214.5v-71h226v-78h-226v-766h164v-78h-440z" />
<glyph horiz-adv-x="2048" />
<glyph horiz-adv-x="2048" />
<glyph unicode="&#xd;" horiz-adv-x="512" />
<glyph unicode=" "  horiz-adv-x="512" />
<glyph unicode="&#x09;" horiz-adv-x="512" />
<glyph unicode="&#xa0;" horiz-adv-x="512" />
<glyph unicode="!" horiz-adv-x="681" d="M268 1339h144l-29 -1040h-86zM276 0v127h127v-127h-127z" />
<glyph unicode="&#x22;" horiz-adv-x="796" d="M231 944v395h103v-395h-103zM463 944v395h102v-395h-102z" />
<glyph unicode="#" d="M10 438v90h248l45 299h-235v91h247l64 421h104l-63 -421h285l63 421h104l-63 -421h205v-91h-217l-45 -299h204v-90h-219l-65 -438h-105l66 438h-285l-65 -438h-105l66 438h-234zM362 528h285l45 299h-284z" />
<glyph unicode="$" d="M74 0v430h94q2 -145 80 -245.5t221 -114.5v557l-137 49q-53 18 -100.5 43.5t-82 62.5t-54 85t-19.5 112q0 92 30.5 162.5t84 119t125 74t153.5 25.5v166h90v-166q86 -10 148.5 -52t115.5 -128h6v159h91v-430h-95q-2 156 -71.5 245t-194.5 116v-545l88 -33 q70 -23 125 -49.5t94 -66t59.5 -96t20.5 -138.5q0 -84 -32.5 -150.5t-86 -112.5t-123 -71.5t-145.5 -27.5v-187h-90v187q-102 12 -175 55t-126 135h-4v-170h-90zM190 995q0 -57 27 -97t68 -67.5t90 -45t94 -31.5v516q-55 0 -106.5 -18.5t-89 -54.5t-60.5 -87t-23 -115z M559 70q55 4 104.5 22.5t86 51t59 79.5t22.5 111q0 70 -19 111.5t-53 68.5t-77 42t-90 32l-33 10v-528z" />
<glyph unicode="%" horiz-adv-x="1593" d="M164 1012q0 63 11 125.5t39 111.5t75 80t119 31t118.5 -31t74.5 -80t39 -111.5t11 -125.5q0 -66 -11 -128.5t-39 -111.5t-75 -78.5t-118 -29.5q-72 0 -119 29.5t-75 78.5t-39 111.5t-11 128.5zM266 1012q0 -45 5 -94.5t20.5 -90.5t43 -67.5t73.5 -26.5q45 0 72.5 26.5 t43 67.5t20.5 90.5t5 94.5t-5 94t-20.5 90t-43 67.5t-72.5 26.5t-73 -26.5t-43.5 -67.5t-20.5 -90t-5 -94zM381 -37l739 1413h86l-737 -1413h-88zM942 328q0 63 11.5 125.5t39 111.5t74.5 80t119 31t119 -31t74.5 -80t39 -111.5t11.5 -125.5q0 -66 -11.5 -128.5t-39 -111.5 t-75 -78.5t-118.5 -29.5q-72 0 -119 29.5t-74.5 78.5t-39 111.5t-11.5 128.5zM1044 328q0 -45 5.5 -94.5t20.5 -90.5t43 -67.5t73 -26.5t72.5 26.5t43 67.5t20.5 90.5t5 94.5t-5 94t-20.5 90t-43 67.5t-72.5 26.5t-73 -26.5t-43 -67.5t-20.5 -90t-5.5 -94z" />
<glyph unicode="&#x26;" horiz-adv-x="1593" d="M119 356q0 70 24.5 130.5t67.5 109.5t98.5 86t116.5 61q-35 35 -69.5 72t-62.5 78t-46.5 86t-18.5 98q0 72 30 125t79 88t111.5 52.5t125.5 17.5q66 0 125.5 -17.5t105.5 -51.5t73.5 -86t27.5 -122q0 -72 -25.5 -127t-67.5 -98t-96 -78t-114 -61l391 -387q55 78 83 170 t28 192h-160v90h453v-90h-178q-10 -242 -146 -436l164 -168h209v-90h-285l-168 176q-84 -102 -196.5 -149t-245.5 -47q-88 0 -167 23.5t-138.5 69.5t-94 116.5t-34.5 166.5zM233 352q0 -68 27 -120t71 -87.5t102.5 -55t121.5 -19.5q51 0 103.5 11t101.5 32.5t91 54.5t71 76 l-424 428q-53 -25 -100.5 -53.5t-84.5 -67.5t-58.5 -87t-21.5 -112zM344 1073q0 -43 19.5 -82t47 -74.5t60.5 -66.5t61 -57q43 25 88.5 50t84 58t63.5 75t25 99q0 49 -17.5 85t-47.5 60.5t-70 37t-85 12.5t-87 -13.5t-73.5 -39t-50 -62.5t-18.5 -82z" />
<glyph unicode="'" horiz-adv-x="569" d="M233 944v395h103v-395h-103z" />
<glyph unicode="(" horiz-adv-x="569" d="M113 616q0 113 21.5 229t61.5 226.5t96 214t124 193.5h94q-135 -193 -209 -410t-74 -453t74 -450.5t209 -411.5h-94q-137 193 -220 410t-83 452z" />
<glyph unicode=")" horiz-adv-x="569" d="M59 -246q135 193 209 410t74 452q0 236 -73.5 451t-209.5 412h95q137 -193 220 -410t83 -453q0 -113 -21.5 -228.5t-61.5 -226t-96.5 -215t-123.5 -192.5h-95z" />
<glyph unicode="*" horiz-adv-x="909" d="M135 1069l37 115l250 -115l-25 270h121l-31 -272l254 107l33 -115l-270 -53l180 -211l-100 -68l-129 242l-146 -238l-94 74l188 201z" />
<glyph unicode="+" horiz-adv-x="1228" d="M98 467v102h465v467h103v-467h464v-102h-464v-467h-103v467h-465z" />
<glyph unicode="," horiz-adv-x="512" d="M166 -256l96 256h-67v139h143v-139l-90 -256h-82z" />
<glyph unicode="-" horiz-adv-x="681" d="M98 500v102h486v-102h-486z" />
<glyph unicode="." horiz-adv-x="512" d="M184 0v139h144v-139h-144z" />
<glyph unicode="/" horiz-adv-x="681" d="M25 -20l524 1380h108l-524 -1380h-108z" />
<glyph unicode="0" d="M78 690q0 113 14 231.5t60.5 216t132.5 160t227 62.5t227 -62.5t132.5 -160t60.5 -216t14 -231.5q0 -76 -6 -158.5t-22.5 -161.5t-46 -149.5t-78 -124t-118 -85t-163.5 -31.5t-163.5 31.5t-118 85t-78 124t-46 149.5t-22.5 161.5t-6 158.5zM193 690q0 -51 3 -116.5 t14 -135t32.5 -135t57.5 -118t87 -84t125 -31.5q72 0 124 31.5t88 84t57.5 118t32.5 135t14 135t3 116.5t-3 113.5t-14 127t-32.5 126t-57.5 108.5t-88 76t-124 29q-74 0 -125 -29t-87 -76t-57.5 -108.5t-32.5 -126t-14 -127t-3 -113.5z" />
<glyph unicode="1" d="M139 940v127q82 61 168 131t156 141h123v-1249h205v-90h-533v90h213v1122q-74 -80 -158 -146.5t-174 -125.5z" />
<glyph unicode="2" d="M72 0v150l311 301q92 88 168 163.5t130 142t85 124t31 108.5q0 137 -73 209t-214 72q-68 0 -121 -25.5t-90 -71t-56.5 -104.5t-21.5 -127h-115q0 94 32 172t88.5 132t133 84t166.5 30q82 0 152 -22.5t122 -67.5t81.5 -110.5t29.5 -151.5q0 -59 -19.5 -116.5t-62.5 -120 t-109.5 -135.5t-158.5 -165l-387 -381h657v213h103v-303h-862z" />
<glyph unicode="3" d="M90 371h115q0 -156 82 -228.5t231 -72.5q57 0 109.5 21.5t91.5 58t61.5 88t22.5 110.5q0 82 -30 137.5t-80 88t-115.5 46t-137.5 13.5v90q72 -2 135.5 11.5t111.5 45t76 86t28 133.5q0 135 -78 203t-207 68t-206 -81t-85 -212h-115q2 92 35 162.5t88.5 120t130 75 t162.5 25.5q182 0 285.5 -96.5t103.5 -282.5q0 -61 -22.5 -113.5t-61.5 -90.5t-91 -63.5t-109 -35.5v-4q143 -25 220 -105t77 -229q0 -92 -35 -159.5t-93.5 -111.5t-134 -66.5t-159.5 -22.5q-90 0 -164 25.5t-128 75.5t-84 122.5t-30 167.5z" />
<glyph unicode="4" d="M41 385v135l604 819h148v-864h188v-90h-188v-295h184v-90h-504v90h205v295h-637zM131 475h547v737h-4z" />
<glyph unicode="5" d="M119 350h114q0 -63 23 -114.5t62.5 -88t93 -57t116.5 -20.5q78 0 137.5 28.5t99.5 76.5t60.5 110.5t20.5 132.5q0 74 -19.5 137t-58.5 108.5t-95.5 71t-129.5 25.5q-104 0 -182 -51.5t-111 -155.5h-115l21 786h745v-90h-629l-26 -567l4 -4q41 82 126 127t177 45 q100 0 176 -33t127 -90t78 -136t27 -171q0 -98 -33 -179t-90.5 -139.5t-137 -90t-174.5 -31.5q-84 0 -158.5 24.5t-130 71.5t-87 115.5t-31.5 158.5z" />
<glyph unicode="6" d="M78 553q0 131 17.5 273.5t68.5 261t145 195.5t248 77q80 0 147.5 -24.5t114.5 -68.5t73 -108.5t23 -144.5h-114q0 45 -15.5 90t-46 82t-77 60.5t-109.5 23.5q-76 0 -131 -32t-94 -84t-63.5 -118.5t-40 -137.5t-21.5 -139.5t-10 -123.5h4q45 115 130 165t185 50 q106 0 186 -32t131.5 -88t77 -134t25.5 -170q0 -98 -30 -181t-85 -141.5t-133 -91t-172 -32.5q-139 0 -224 51t-131 132t-62.5 183.5t-16.5 206.5zM193 418q0 -76 22.5 -139.5t64.5 -109.5t101 -72.5t131 -26.5q76 0 132 27.5t95 75.5t58.5 112.5t19.5 140.5 q0 74 -18.5 134.5t-56 105.5t-95 69.5t-135.5 24.5t-138.5 -27.5t-100.5 -76t-60 -109.5t-20 -129z" />
<glyph unicode="7" d="M66 999v340h886v-139q-63 -102 -132.5 -244.5t-141.5 -302t-141.5 -328.5t-133.5 -325h-127q61 160 137 338t154 347t151 316.5t128 247.5h-678v-250h-102z" />
<glyph unicode="8" d="M90 354q0 137 79 228.5t212 107.5v2q-135 29 -205 108t-70 220q0 88 36 152.5t93.5 105.5t130 61.5t146.5 20.5q86 0 159.5 -19.5t128 -61.5t86.5 -106.5t32 -152.5q0 -123 -72 -214t-193 -112v-4q133 -35 207 -115.5t74 -220.5q0 -98 -36 -169.5t-94.5 -116.5 t-135 -66.5t-156.5 -21.5q-94 0 -172 24.5t-133 71.5t-86 117.5t-31 160.5zM205 369q0 -74 23.5 -130.5t64.5 -93t97 -56t122 -19.5q72 0 129 24.5t97 65.5t60.5 95t20.5 114q0 68 -23.5 119t-64.5 86.5t-97 53t-122 17.5t-121 -17.5t-97 -52t-65.5 -86.5t-23.5 -120z M221 1001q0 -68 22.5 -117.5t62.5 -82.5t93.5 -49.5t112.5 -16.5q133 0 212 68.5t79 204.5q0 131 -82 196.5t-209 65.5t-209 -71t-82 -198z" />
<glyph unicode="9" d="M92 913q0 98 30 181.5t85 141.5t132 91t173 33q137 0 223 -51.5t132 -132t62.5 -183t16.5 -207.5q0 -131 -17.5 -273t-68.5 -261t-145 -195.5t-248 -76.5q-80 0 -147.5 24.5t-114.5 68.5t-73 108.5t-23 144.5h114q0 -45 15.5 -90.5t46 -82t77 -60t109.5 -23.5 q76 0 131 31.5t94 84t63.5 119t40 137t21.5 139t10 124.5h-4q-45 -115 -130 -165.5t-185 -50.5q-109 0 -187.5 32t-130 88.5t-77 134t-25.5 169.5zM207 913q0 -74 18.5 -134t56 -105t95 -69.5t135.5 -24.5t138.5 27.5t100.5 75.5t60 109.5t20 129.5q0 76 -22.5 139 t-64.5 109.5t-101 73t-131 26.5q-76 0 -133 -28t-95 -76t-57.5 -112.5t-19.5 -140.5z" />
<glyph unicode=":" horiz-adv-x="512" d="M184 0v139h144v-139h-144zM184 782v140h144v-140h-144z" />
<glyph unicode=";" horiz-adv-x="512" d="M166 -256l96 256h-67v139h143v-139l-90 -256h-82zM195 782v140h143v-140h-143z" />
<glyph unicode="&#x3c;" horiz-adv-x="1228" d="M94 463v110l1041 480v-113l-914 -422l914 -422v-112z" />
<glyph unicode="=" horiz-adv-x="1228" d="M98 268v103h1032v-103h-1032zM98 666v102h1032v-102h-1032z" />
<glyph unicode="&#x3e;" horiz-adv-x="1228" d="M94 -16v112l914 422l-914 422v113l1041 -480v-110z" />
<glyph unicode="?" horiz-adv-x="909" d="M66 991q10 176 102 272.5t291 96.5q78 0 147.5 -20.5t122.5 -64.5t84 -111.5t31 -159.5q0 -84 -30 -141.5t-75 -103.5t-97 -87t-95 -93.5t-69.5 -121t-22.5 -168.5h-115q0 119 27.5 197.5t69.5 132t91.5 91.5t91.5 76.5t69.5 87t27.5 121.5q0 121 -66.5 198t-201.5 77 q-127 0 -195 -77t-74 -202h-114zM334 0v127h127v-127h-127z" />
<glyph unicode="@" horiz-adv-x="1638" d="M162 676q0 141 55 266t148.5 217t218.5 146.5t264 54.5q131 0 245.5 -43t199.5 -120t134.5 -181.5t49.5 -229.5q0 -109 -39 -205t-99.5 -167.5t-136.5 -113.5t-149 -42q-119 0 -125 121h-6q-45 -45 -107.5 -83t-136.5 -38q-59 0 -105.5 21.5t-79 58.5t-50 86t-17.5 106 q0 98 33 195.5t92 176.5t142 127t186 48q63 0 116.5 -35.5t85.5 -119.5l47 122h101l-182 -548q-10 -29 -14.5 -57.5t-2.5 -49.5q2 -35 55 -41q51 0 102.5 42t93.5 106.5t67.5 143.5t25.5 153q0 111 -43 198.5t-115.5 150t-167 95.5t-196.5 33q-127 0 -234.5 -48t-186.5 -131 t-123 -194t-44 -235q0 -123 46 -230.5t127 -188.5t188.5 -127t230.5 -46q156 0 282 64.5t210 184.5h96q-86 -160 -228.5 -249.5t-359.5 -89.5q-154 0 -282 55t-220 149.5t-142 221t-50 270.5zM541 541q0 -86 47 -139.5t117 -53.5q68 0 125 47t100 117t67.5 148.5t24.5 142.5 q0 33 -13.5 66.5t-35 59t-49 42t-54.5 16.5q-74 0 -134 -45t-103 -111.5t-67.5 -144t-24.5 -145.5z" />
<glyph unicode="A" horiz-adv-x="1478" d="M25 0v90h122l519 1249h149l508 -1249h123v-90h-457v90h205l-154 381h-618l-156 -381h205v-90h-446zM459 561h547l-271 672z" />
<glyph unicode="B" horiz-adv-x="1251" d="M53 0v90h185v1159h-185v90h449q57 0 124.5 -2t133 -11t126 -28.5t107.5 -57.5t75 -95.5t28 -140.5q0 -129 -75 -206t-192 -110v-4q145 -10 224.5 -91t79.5 -224q0 -92 -30 -155.5t-79 -104.5t-114.5 -62.5t-135 -32t-140.5 -12.5t-132 -2h-449zM352 90h180q72 0 155 4 t153.5 31t118 83t47.5 161q0 98 -35 151t-87.5 78t-113.5 29t-117 4h-301v-541zM352 721h180q76 0 153 4t140.5 30.5t103.5 84t40 164.5q0 92 -37 142t-97.5 72.5t-136 26.5t-151.5 4h-195v-528z" />
<glyph unicode="C" horiz-adv-x="1366" d="M92 659q0 154 40 283t120 222t199.5 144.5t277.5 51.5q129 0 235.5 -48t178.5 -155h4v182h102v-481h-104q-8 102 -35 180t-78 129.5t-130 77t-189 25.5q-139 0 -233.5 -55.5t-153 -143.5t-83 -198.5t-24.5 -223.5q0 -115 32 -220t93.5 -185t151.5 -127t209 -47 q180 0 290.5 96t128.5 276h127q-10 -119 -55 -205.5t-118.5 -144t-171 -85t-210.5 -27.5q-152 0 -264.5 55t-188 148t-113.5 216t-38 260z" />
<glyph unicode="D" horiz-adv-x="1366" d="M49 0v90h184v1159h-184v90h479q164 0 299.5 -33.5t232.5 -111.5t151.5 -203t54.5 -305q0 -190 -50.5 -321.5t-145.5 -212t-231.5 -116.5t-310.5 -36h-479zM348 90h160q154 0 271.5 31t197.5 101.5t121 184t41 279.5q0 160 -44 267.5t-126 173t-199 94t-262 28.5h-160 v-1159z" />
<glyph unicode="E" horiz-adv-x="1251" d="M41 0v90h184v1159h-184v90h1059v-417h-103v327h-657v-528h346v201h102v-504h-102v213h-346v-541h670v328h102v-418h-1071z" />
<glyph unicode="F" horiz-adv-x="1138" d="M45 0v90h184v1159h-184v90h1026v-397h-102v307h-625v-528h340v203h102v-504h-102v211h-340v-541h236v-90h-535z" />
<glyph unicode="G" horiz-adv-x="1478" d="M92 655q0 145 42 274.5t124 224.5t198.5 150.5t268.5 55.5q61 0 124.5 -14.5t120 -42t104.5 -68.5t81 -96h4v200h103v-479h-103q-2 199 -117.5 304.5t-308.5 105.5q-139 0 -237.5 -51.5t-160 -136.5t-89 -196.5t-27.5 -230.5q0 -123 34 -230.5t99.5 -186t161.5 -123.5 t221 -45q117 0 201 36.5t136 102t74 159.5q18 78 18 169q0 17 -1 34h-221v91h510v-91h-174v-571h-115v209h-4q-43 -72 -96 -117t-114.5 -69.5t-131 -33.5t-149.5 -9q-137 0 -245 60t-181.5 156.5t-111.5 217.5t-38 241z" />
<glyph unicode="H" horiz-adv-x="1478" d="M57 0v90h185v1159h-185v90h504v-90h-205v-528h766v528h-204v90h503v-90h-184v-1159h176v-90h-495v90h204v541h-766v-541h205v-90h-504z" />
<glyph unicode="I" horiz-adv-x="569" d="M43 0v90h184v1159h-184v90h483v-90h-184v-1159h184v-90h-483z" />
<glyph unicode="J" horiz-adv-x="909" d="M10 418h115v-29q0 -51 5 -99q7 -63 31.5 -112t72 -78.5t124.5 -29.5q94 0 141.5 48t66.5 120q17 69 17 148v8q-1 83 -1 155v700h-215v90h473v-90h-144v-700q0 -102 -3 -203.5t-33.5 -182.5t-100.5 -132t-203 -51q-98 0 -167.5 33.5t-112.5 92t-58 138.5q-11 53 -11 112 q0 30 3 62z" />
<glyph unicode="K" horiz-adv-x="1251" d="M49 0v90h184v1159h-184v90h483v-90h-184v-538l610 538h-184v90h438v-90h-108l-617 -542l631 -617h94v-90h-428v90h185l-621 606v-606h184v-90h-483z" />
<glyph unicode="L" horiz-adv-x="1138" d="M53 0v90h185v1159h-185v90h545v-90h-246v-1159h619v307h102v-397h-1020z" />
<glyph unicode="M" horiz-adv-x="1818" d="M59 0v90h205v1159h-205v90h406l444 -1175l445 1175h405v-90h-205v-1159h205v-90h-504v90h185v1159h-4l-475 -1249h-103l-475 1249h-4v-1159h184v-90h-504z" />
<glyph unicode="N" horiz-adv-x="1478" d="M49 0v90h172v1159h-172v90h352l740 -1249h2v1159h-205v90h492v-90h-173v-1249h-178l-739 1249h-4v-1159h205v-90h-492z" />
<glyph unicode="O" horiz-adv-x="1478" d="M92 680q0 154 42 278.5t123 214t202 138.5t280 49q156 0 277 -49t204 -138.5t124.5 -214t41.5 -278.5q0 -156 -41.5 -285t-124.5 -221t-204 -143t-277 -51q-160 0 -280.5 51t-201.5 143t-123 221t-42 285zM219 680q0 -133 28.5 -244.5t92 -192.5t162 -127t237.5 -46 q135 0 233.5 46t162 127t94.5 192.5t31 244.5q0 119 -31 225.5t-94.5 187.5t-162 129t-233.5 48q-139 0 -237.5 -48t-162 -129t-92 -187.5t-28.5 -225.5z" />
<glyph unicode="P" horiz-adv-x="1138" d="M39 0v90h184v1159h-184v90h512q96 0 191.5 -11t170 -50t121.5 -117t47 -209q0 -111 -38.5 -185.5t-102 -120.5t-145.5 -65.5t-170 -19.5h-287v-471h246v-90h-545zM338 651h213q51 0 120.5 5.5t133 33t106.5 89t43 173.5q0 98 -32.5 157.5t-86 90.5t-120 40t-133.5 9h-244 v-598z" />
<glyph unicode="Q" horiz-adv-x="1478" d="M92 680q0 154 42 278.5t123 214t202 138.5t280 49q156 0 277 -49t204 -138.5t124.5 -214t41.5 -278.5q0 -193 -83.5 -349.5t-249.5 -242.5v-4q35 0 67.5 3t67.5 3h264v-90h-408q-53 0 -103 -3t-79 -7t-60.5 -7t-62.5 -3q-160 0 -280.5 51t-201.5 143t-123 221t-42 285z M219 680q0 -133 28.5 -244.5t92 -192.5t162 -127t237.5 -46q135 0 233.5 46t162 127t94.5 192.5t31 244.5q0 119 -31 225.5t-94.5 187.5t-162 129t-233.5 48q-139 0 -237.5 -48t-162 -129t-92 -187.5t-28.5 -225.5z" />
<glyph unicode="R" horiz-adv-x="1251" d="M45 0v90h184v1159h-184v90h498q96 0 193.5 -9t176 -44t129 -106.5t50.5 -196.5q0 -90 -22.5 -149.5t-62.5 -98.5t-95.5 -59.5t-120.5 -30.5v-4q51 -14 82.5 -26.5t53 -38t41 -74.5t48.5 -135l94 -277h109v-90h-209l-127 395q-23 68 -39.5 108t-46 62.5t-81.5 29.5t-143 7 h-229v-512h184v-90h-483zM344 692h223q72 0 142.5 7.5t128 37t92.5 87t35 159.5q0 94 -31 148.5t-85 80t-127 31.5t-155 6h-223v-557z" />
<glyph unicode="S" horiz-adv-x="1138" d="M121 0v442h102q-1 -12 -1 -24q0 -66 20 -124q22 -68 67 -117.5t110.5 -78t147.5 -28.5q57 0 116.5 15t107 49t77 85t29.5 123q0 94 -57.5 148.5t-143.5 90t-187 65.5t-187 72t-143.5 108.5t-57.5 179.5q0 82 36 147.5t94 111.5t134 70.5t158 24.5q49 0 98 -8.5t95 -26.5 t85 -48t66 -73h4v135h102v-442h-102v17q0 172 -79 262q-83 94 -269 94q-57 0 -110.5 -18.5t-94.5 -52.5t-65.5 -83t-24.5 -110q0 -88 57 -137.5t143.5 -81t187.5 -58.5t187 -71t143.5 -117.5t57.5 -198.5q0 -86 -36 -153.5t-95 -113.5t-135 -70.5t-156 -24.5 q-125 0 -219 40.5t-156 155.5h-4v-176h-102z" />
<glyph unicode="T" horiz-adv-x="1251" d="M57 942v397h1135v-397h-102v307h-408v-1159h225v-90h-565v90h225v1159h-407v-307h-103z" />
<glyph unicode="U" horiz-adv-x="1363" d="M20 1249v90h494v-90h-215v-676q0 -104 15.5 -196t57.5 -159.5t116.5 -107.5t193.5 -40t193.5 40t116.5 107.5t57.5 159.5t15.5 196v676h-215v90h493v-90h-163v-676q0 -131 -22.5 -240.5t-79 -187t-153 -121.5t-243.5 -44t-243.5 44t-153 121.5t-79 187t-22.5 240.5v676 h-164z" />
<glyph unicode="V" horiz-adv-x="1366" d="M31 1249v90h403v-90h-184l436 -1122l430 1122h-188v90h407v-90h-102l-477 -1249h-140l-483 1249h-102z" />
<glyph unicode="W" horiz-adv-x="1820" d="M27 1249v90h419v-90h-204l258 -1122h4l323 1212h168l318 -1212h4l264 1122h-205v90h418v-90h-102l-301 -1249h-156l-320 1219h-4l-336 -1219h-153l-293 1249h-102z" />
<glyph unicode="X" horiz-adv-x="1366" d="M23 0v90h122l467 594l-432 565h-143v90h461v-90h-185l369 -481l373 481h-185v90h461v-90h-143l-440 -567l460 -592h123v-90h-452v90h194l-393 508l-401 -508h186v-90h-442z" />
<glyph unicode="Y" horiz-adv-x="1251" d="M29 1249v90h401v-90h-184l375 -598l387 598h-185v90h400v-90h-93l-452 -702v-457h225v-90h-565v90h225v457l-442 702h-92z" />
<glyph unicode="Z" horiz-adv-x="1251" d="M106 0v123l893 1126h-776v-278h-102v368h999v-116l-897 -1133h819v279h103v-369h-1039z" />
<glyph unicode="[" horiz-adv-x="569" d="M197 -246v1725h256v-78h-154v-1569h154v-78h-256z" />
<glyph unicode="\" horiz-adv-x="681" d="M25 1360h108l524 -1380h-108z" />
<glyph unicode="]" horiz-adv-x="569" d="M117 -168h153v1569h-153v78h256v-1725h-256v78z" />
<glyph unicode="^" horiz-adv-x="1228" d="M90 412l471 927h107l471 -927h-117l-410 805l-403 -805h-119z" />
<glyph unicode="_" d="M0 -154h1024v-102h-1024v102z" />
<glyph unicode="`" horiz-adv-x="569" d="M61 1327h160l185 -274h-107z" />
<glyph unicode="a" d="M68 274q0 98 48 153.5t119.5 83.5t155.5 35t156 7h196v68q0 123 -66.5 183t-191.5 60q-106 0 -180 -45t-88 -153h-115q8 76 41 129t82 85.5t113.5 47t138.5 14.5q176 0 272.5 -70.5t96.5 -250.5v-543h139v-78h-242v184h-4q-20 -53 -56 -92t-82 -63.5t-98 -36.5t-108 -12 q-72 0 -131 17t-103 54t-68.5 92.5t-24.5 130.5zM182 268q0 -49 18.5 -89t51.5 -66.5t75 -41t89 -14.5q92 0 154.5 35t100.5 92.5t55 133t17 157.5h-213q-51 0 -112.5 -6t-113.5 -27.5t-87 -62.5t-35 -111z" />
<glyph unicode="b" horiz-adv-x="1138" d="M35 0v78h160v1184h-160v77h262v-600h4q45 94 135 148.5t195 54.5q113 0 194.5 -34t134 -96t77 -149.5t24.5 -193.5q0 -102 -25.5 -192.5t-79 -156t-134.5 -103t-191 -37.5q-119 0 -197 48t-135 152h-2v-180h-262zM297 453q0 -80 18.5 -152t58.5 -126t102.5 -86t148.5 -32 q90 0 151.5 38t99 99.5t54 138.5t16.5 154q0 80 -19.5 149t-60.5 119t-103.5 79.5t-146.5 29.5q-86 0 -146 -36.5t-98 -95t-56.5 -132t-18.5 -147.5z" />
<glyph unicode="c" d="M102 473q0 98 28 183t82 148.5t134 100.5t182 37q92 0 179.5 -37t123.5 -112h5v129h90v-338h-82q-8 125 -87 202.5t-214 77.5q-78 0 -138.5 -30.5t-101.5 -83t-63.5 -122t-22.5 -145.5q0 -80 18.5 -155.5t58.5 -136t101.5 -97.5t147.5 -37q57 0 107 18.5t90 52.5t64.5 80 t31.5 103h102q0 -90 -39 -152.5t-99.5 -102.5t-133 -58t-138.5 -18q-111 0 -190.5 44t-131.5 113.5t-78 157.5t-26 178z" />
<glyph unicode="d" horiz-adv-x="1138" d="M63 471q0 100 29 186t84 149.5t136 99.5t186 36q51 0 100 -12t92 -36t78 -59.5t55 -82.5h4v510h-163v77h266v-1261h153v-78h-256v180h-4q-43 -92 -130 -146t-191 -54q-115 0 -197 36.5t-136 102t-80 156t-26 196.5zM178 471q0 -84 17.5 -159.5t57.5 -132t103.5 -89.5 t157.5 -33q92 0 152.5 36t96.5 95.5t50 135t14 155.5q0 78 -17 148.5t-55 123t-98.5 83t-148.5 30.5q-86 0 -148.5 -32.5t-102.5 -87t-59.5 -125t-19.5 -148.5z" />
<glyph unicode="e" d="M78 481q0 96 27.5 180t84 146.5t139.5 98.5t193 36q115 0 199 -38t136 -106q51 -67 75 -158q20 -78 21 -167q0 -15 -1 -31h-759q0 -84 20 -154.5t63 -121.5t106.5 -80t149.5 -29q53 0 103.5 14.5t91.5 42t69.5 69.5t39.5 100h102q-6 -76 -43 -133.5t-94.5 -95.5t-126 -56 t-135.5 -18q-227 0 -344 128t-117 373zM193 520h645q-2 74 -23.5 136.5t-61.5 108.5t-100.5 72.5t-138.5 26.5q-74 0 -131 -27.5t-98 -73.5t-64.5 -109.5t-27.5 -133.5z" />
<glyph unicode="f" horiz-adv-x="569" d="M47 0v78h164v766h-164v78h164v98q0 156 70.5 248t232.5 92q27 0 51.5 -5t48.5 -12v-90q-20 6 -41.5 11.5t-58.5 5.5q-66 0 -104.5 -18.5t-60 -52.5t-29 -80t-7.5 -99v-98h226v-78h-226v-766h195v-78h-461z" />
<glyph unicode="g" horiz-adv-x="1138" d="M78 471q0 94 25.5 180t76.5 150.5t130 102.5t186 38q111 0 200.5 -42t141.5 -142h4v164h260v-78h-158v-770q0 -104 -21.5 -184t-71.5 -135.5t-131 -84t-200 -28.5q-66 0 -133.5 13t-122.5 45t-90 84t-35 130h103q8 -55 35.5 -93t67.5 -60.5t88 -32t95 -9.5q96 0 158 29 t96.5 81t47 125t12.5 159v86h-4q-57 -102 -139.5 -144.5t-198.5 -42.5q-96 0 -174 36t-133.5 97.5t-85 145.5t-29.5 180zM193 492q0 -82 20 -155t61 -128t102.5 -87t145.5 -32q92 0 153.5 34t98.5 90t52.5 129t15.5 149q0 78 -19.5 145.5t-59.5 118.5t-100.5 79.5 t-140.5 28.5q-82 0 -143.5 -31.5t-103.5 -84t-62 -119.5t-20 -137z" />
<glyph unicode="h" horiz-adv-x="1138" d="M45 0v78h164v1184h-164v77h266v-561h4q41 80 120 122t169 42q131 0 199.5 -44t97.5 -112.5t31 -152.5t2 -162v-393h153v-78h-419v78h163v393q0 84 -2 154.5t-23 122.5q-22 50 -70 78q-45 26 -126 26h-12q-90 0 -146.5 -33t-87 -86t-42 -121.5t-11.5 -140.5v-393h164v-78 h-430z" />
<glyph unicode="i" horiz-adv-x="569" d="M53 0v78h205v766h-205v78h307v-844h164v-78h-471zM233 1149v139h127v-139h-127z" />
<glyph unicode="j" horiz-adv-x="454" d="M-41 -264q16 -4 47 -10.5t62 -6.5q86 0 106.5 60.5t20.5 177.5v887h-179v78h281v-848q0 -74 1 -151v-8q0 -72 -16 -131q-18 -63 -64 -102.5t-138 -39.5q-31 0 -60.5 4t-60.5 8v82zM170 1149v139h127v-139h-127z" />
<glyph unicode="k" d="M31 0v78h164v1184h-164v77h266v-893l469 398h-154v78h365v-78h-82l-313 -266l315 -500h94v-78h-344v78h127l-274 434l-203 -170v-264h152v-78h-418z" />
<glyph unicode="l" horiz-adv-x="454" d="M29 0v78h153v1184h-153v77h256v-1261h143v-78h-399z" />
<glyph unicode="m" horiz-adv-x="1705" d="M45 0v78h164v766h-164v78h266v-158h4q35 82 112 130t175 48q100 0 174 -35t121 -141q43 78 113.5 127t165.5 49q106 0 171.5 -29.5t100.5 -82t47 -125t12 -156.5v-471h148v-78h-414v78h164v454q0 68 -7 126.5t-32 101.5t-74 67.5t-131 24.5q-72 0 -120 -27.5t-77.5 -73.5 t-42 -103.5t-12.5 -115.5v-454h164v-78h-430v78h164v454q0 63 -5 122t-27.5 103t-67.5 69.5t-127 25.5q-74 0 -124 -25.5t-81 -69.5t-46.5 -102.5t-17.5 -122.5v-454h164v-78h-430z" />
<glyph unicode="n" horiz-adv-x="1138" d="M45 0v78h164v766h-164v78h266v-144h4q41 80 120 122t169 42q131 0 199.5 -44t97.5 -112.5t31 -152.5t2 -162v-393h153v-78h-419v78h163v393q0 84 -2 154.5t-23 122.5q-22 50 -70 78q-45 26 -126 26h-12q-90 0 -146.5 -33t-87 -86t-42 -121.5t-11.5 -140.5v-393h164v-78 h-430z" />
<glyph unicode="o" d="M74 461q0 109 30.5 198t88 151t138.5 97t181 35t181 -35t138.5 -97t88 -151.5t30.5 -197.5q0 -109 -30.5 -198t-88 -151.5t-138.5 -97t-181 -34.5t-181 34.5t-138.5 97t-88 151.5t-30.5 198zM188 461q0 -129 36 -208t87 -122t106.5 -58.5t94.5 -15.5t94.5 15.5 t106.5 58.5t87 122t36 208t-36 208t-87 122t-106.5 58t-94.5 15t-94.5 -15t-106.5 -58t-87 -122t-36 -208z" />
<glyph unicode="p" horiz-adv-x="1138" d="M35 -260h174v1104h-174v78h276v-195h4q53 94 134 154.5t196 60.5q104 0 181 -37t127.5 -101.5t75 -152.5t24.5 -190q0 -86 -24.5 -172t-75 -154.5t-126 -111.5t-178.5 -43q-113 0 -195.5 53t-138.5 151h-4v-444h174v-78h-450v78zM311 453q0 -70 17.5 -140.5t55.5 -127 t96.5 -92.5t140.5 -36q84 0 144 35t99 92.5t56.5 130t17.5 146.5q0 76 -19.5 147.5t-59.5 129t-99.5 92t-138.5 34.5q-84 0 -142.5 -38t-95.5 -97t-54.5 -132.5t-17.5 -143.5z" />
<glyph unicode="q" horiz-adv-x="1138" d="M66 461q0 102 24.5 190t74.5 152.5t127 101.5t181 37q115 0 196 -60.5t134 -154.5h4v195h276v-78h-174v-1104h174v-78h-450v78h174v444h-4q-55 -98 -138 -151t-196 -53q-102 0 -178 43t-126 111.5t-74.5 154.5t-24.5 172zM180 461q0 -74 17.5 -146.5t56.5 -130 t99.5 -92.5t144.5 -35q82 0 140 36t96 93.5t55.5 130t17.5 144.5q0 68 -17.5 139.5t-54.5 129.5t-96 96t-141 38q-80 0 -139.5 -34.5t-99.5 -92t-59.5 -129t-19.5 -147.5z" />
<glyph unicode="r" horiz-adv-x="681" d="M43 0v78h152v766h-152v78h254v-183h4q23 92 89.5 147.5t156.5 55.5h36.5t39.5 -4v-94q-20 4 -39 6t-35 2q-78 0 -127 -36t-77 -91t-38 -122.5t-10 -131.5v-393h203v-78h-457z" />
<glyph unicode="s" horiz-adv-x="909" d="M68 0v317h90q12 -123 92 -191.5t201 -68.5q49 0 95 11.5t83 35t59.5 62.5t22.5 94q0 70 -46.5 101.5t-116 46t-150.5 23.5t-150.5 32.5t-115.5 73t-46 145.5q0 70 34 119t87 80.5t116.5 46t122.5 14.5q78 0 154 -30.5t117 -100.5h4v111h90v-299h-90q-8 135 -85 188 t-202 53q-43 0 -84 -10t-74.5 -32.5t-54 -57.5t-20.5 -84q0 -63 46 -94t115.5 -46.5t150.5 -25.5t150.5 -35.5t115.5 -76t46 -144.5q0 -74 -31.5 -127t-83 -87t-116 -49t-129.5 -15q-98 0 -174 37.5t-127 121.5h-6v-139h-90z" />
<glyph unicode="t" horiz-adv-x="681" d="M27 844v78h172v219l102 39v-258h305v-78h-305v-545q0 -49 3 -91t15.5 -73t37 -48t65.5 -17q82 0 106.5 56t24.5 155h102q0 -70 -11 -126.5t-40 -95.5t-76 -59t-116 -20q-68 0 -109 26.5t-64.5 67.5t-31.5 92t-8 98v580h-172z" />
<glyph unicode="u" horiz-adv-x="1138" d="M33 844v78h256v-596q2 -135 59.5 -195.5t194.5 -60.5q66 0 114 24.5t80.5 64.5t50 93t21.5 113v479h-184v78h286v-844h164v-78h-266v154h-4q-45 -92 -118 -133t-173 -41q-86 0 -148.5 17t-102.5 57t-58.5 105.5t-18.5 159.5v525h-153z" />
<glyph unicode="v" d="M16 844v78h355v-78h-144l275 -742h4l287 742h-144v78h346v-78h-94l-328 -844h-139l-323 844h-95z" />
<glyph unicode="w" horiz-adv-x="1593" d="M20 844v78h377v-78h-164l234 -754h4l268 832h133l267 -832h4l235 754h-164v78h361v-78h-94l-285 -844h-135l-256 831h-4l-266 -831h-136l-274 844h-105z" />
<glyph unicode="x" d="M10 0v78h94l338 395l-317 371h-94v78h372v-78h-143l248 -293l250 293h-144v78h367v-78h-94l-314 -371l336 -395h95v-78h-369v78h143l-270 319l-270 -319h143v-78h-371z" />
<glyph unicode="y" d="M25 844v78h352v-78h-154l287 -723l295 723h-154v78h344v-78h-82l-360 -883q-23 -57 -45.5 -113.5t-54 -102.5t-75.5 -74.5t-108 -28.5q-35 0 -69.5 1t-69.5 5v82q37 -6 107 -6q45 0 78.5 22.5t58 61t44 87t38.5 101.5l-351 848h-81z" />
<glyph unicode="z" horiz-adv-x="909" d="M98 0v90l580 754h-463v-201h-102v279h684v-91l-580 -753h492v201h102v-279h-713z" />
<glyph unicode="{" horiz-adv-x="681" d="M170 578v77q45 0 73.5 28t45 73t22.5 101t6 116v270q0 117 47.5 176.5t133.5 59.5h102v-78h-98q-41 0 -61.5 -55.5t-20.5 -139.5v-268q0 -84 -18.5 -142.5t-43 -96t-48 -57t-34.5 -24.5v-4q10 -6 34 -25.5t48.5 -58t43 -97t18.5 -142.5v-264q0 -195 82 -195h98v-78h-123 q-51 0 -81.5 21.5t-48 55.5t-24 76t-6.5 83v266q0 57 -6 115.5t-22.5 103.5t-45 74t-73.5 29z" />
<glyph unicode="|" horiz-adv-x="454" d="M176 -512v2048h103v-2048h-103z" />
<glyph unicode="}" horiz-adv-x="681" d="M82 -168h98q41 0 61.5 55.5t20.5 139.5v268q0 84 18.5 142.5t43 96t48 57t34.5 23.5v4q-10 6 -34 26t-48.5 58.5t-43 97t-18.5 142.5v264q0 195 -82 195h-98v78h123q51 0 81.5 -21.5t48 -55.5t24 -76t6.5 -83v-266q0 -59 6 -116.5t22.5 -102.5t45 -74t73.5 -29v-77 q-45 0 -73.5 -28t-45 -73t-22.5 -102.5t-6 -114.5v-270q0 -117 -47.5 -176.5t-133.5 -59.5h-102v78z" />
<glyph unicode="~" horiz-adv-x="1228" d="M141 463q16 33 40 64.5t54.5 56t70.5 40t91 15.5q53 0 110.5 -19.5t117.5 -46.5q57 -25 112.5 -49t96.5 -24q31 0 56 13t46.5 33.5t40 47.5t37.5 53l73 -74q-23 -33 -48 -64.5t-55 -56t-67.5 -40t-85.5 -15.5q-57 0 -107 19.5t-101 48.5q-49 29 -106.5 50.5t-129.5 21.5 q-35 0 -60.5 -13.5t-47 -34t-37 -47t-27.5 -53.5z" />
<glyph unicode="&#xa1;" horiz-adv-x="681" d="M270 -338l29 1040h86l29 -1040h-144zM279 866v127h127v-127h-127z" />
<glyph unicode="&#xa2;" d="M102 473q0 94 26 176t76 144.5t122.5 101.5t169.5 45v174h77v-176q82 -6 154 -42t104 -103h5v129h90v-338h-82q-8 117 -78 192.5t-193 85.5v-803q104 10 178 78t85 174h102q0 -82 -34 -141t-86 -99t-116.5 -61.5t-128.5 -25.5v-191h-77v189q-102 6 -176 52t-122 114.5 t-72 153.5t-24 171zM217 483q0 -74 15.5 -145.5t49 -128.5t87 -97t127.5 -49v797q-66 -8 -118 -42t-88 -84t-54.5 -115.5t-18.5 -135.5z" />
<glyph unicode="&#xa3;" d="M39 0v90h164v604h-164v90h164v138q0 94 18.5 174t61.5 138t112.5 92t171.5 34q358 0 359 -322h-115q-8 127 -68.5 181.5t-179.5 50.5q-76 0 -124 -31t-74.5 -80t-37 -111.5t-10.5 -125.5v-138h256v-90h-256v-604h492v199h102v-289h-872z" />
<glyph unicode="&#xa4;" d="M43 270l102 109q-102 129 -102 291q0 78 23.5 153.5t83.5 137.5l-107 106l72 74l106 -105q63 53 140 79t155 26t151.5 -25.5t137.5 -79.5l106 105l72 -74l-102 -102q53 -61 77.5 -138t24.5 -157q0 -78 -23.5 -153t-76.5 -140l100 -107l-72 -71l-100 110 q-66 -57 -141.5 -83.5t-153.5 -26.5q-82 0 -157.5 25.5t-143.5 84.5l-100 -110zM145 670q0 -78 29 -145.5t80 -117t117.5 -78t144.5 -28.5q76 0 142.5 29.5t115.5 80t78 117t29 142.5t-29 142.5t-78 116.5t-115.5 79.5t-142.5 29.5q-78 0 -144.5 -28.5t-117.5 -77.5 t-80 -116.5t-29 -145.5z" />
<glyph unicode="&#xa5;" d="M-45 1249v90h340v-90h-139l329 -559h50l333 559h-139v90h340v-90h-82l-340 -559h279v-78h-326l-41 -65v-98h367v-78h-367v-281h205v-90h-512v90h205v281h-359v78h359v98l-41 65h-318v78h271l-332 559h-82z" />
<glyph unicode="&#xa6;" horiz-adv-x="454" d="M176 -358v716h103v-716h-103zM176 666v716h103v-716h-103z" />
<glyph unicode="&#xa7;" d="M129 608q0 45 17.5 83t46 66.5t65.5 49t78 29.5v4q-78 31 -135.5 88t-57.5 149q0 74 33 127t85 88t116.5 51.5t130.5 16.5q78 0 144.5 -19.5t115.5 -60.5t76.5 -103.5t27.5 -150.5h-114q-10 135 -71.5 189.5t-190.5 54.5q-47 0 -90.5 -11.5t-76 -36t-52 -61.5t-19.5 -86 q0 -53 40 -90t118 -72l276 -116q41 -16 78 -38t64.5 -50.5t44 -65.5t16.5 -84q0 -45 -16.5 -81t-44 -64.5t-63.5 -49t-75 -32.5v-4q84 -29 135.5 -84.5t51.5 -149.5q0 -82 -32 -139t-84 -94t-119.5 -53.5t-139.5 -16.5q-82 0 -150.5 18.5t-119 58.5t-78 102.5t-27.5 150.5 h115q0 -111 69.5 -175.5t180.5 -64.5q55 0 104 11.5t86 36t58.5 66.5t21.5 103q0 37 -19.5 66t-51 52.5t-71.5 41.5t-79 33l-240 90q-80 31 -129 83t-49 144zM244 606q0 -47 33.5 -80.5t87.5 -54.5l202 -78q20 -8 37 -14t31 -14q53 25 99 67.5t46 106.5q0 39 -10 64.5 t-28.5 43t-44 29.5t-56.5 26l-201 89q-18 8 -29.5 13t-13.5 5q-20 -4 -46.5 -19.5t-50.5 -41t-40 -62.5t-16 -80z" />
<glyph unicode="&#xa8;" horiz-adv-x="569" d="M59 1135v139h127v-139h-127zM383 1135v139h127v-139h-127z" />
<glyph unicode="&#xa9;" horiz-adv-x="1638" d="M129 672q0 141 54.5 266t148.5 219t220 148.5t269 54.5q141 0 267 -54.5t219.5 -148.5t147.5 -219t54 -266q0 -143 -54 -269.5t-147.5 -220.5t-219 -148t-267.5 -54q-143 0 -269 54t-220 148t-148.5 220.5t-54.5 269.5zM231 672q0 -127 44 -237.5t123 -191.5t186.5 -127 t236.5 -46t236.5 46t185.5 128t121 191.5t43 236.5q0 125 -44 234.5t-123 190.5t-186.5 127t-232.5 46q-127 0 -234.5 -46t-186 -127t-124 -190.5t-45.5 -234.5zM424 672q0 92 27.5 172t81 138t130 91t173.5 33q68 0 128 -19.5t106 -56.5t77 -90t41 -123h-103 q-16 80 -80.5 139.5t-166.5 59.5q-76 0 -133.5 -27.5t-97.5 -74t-60.5 -109t-20.5 -131.5q0 -68 21.5 -131.5t62.5 -112.5t99.5 -78.5t132.5 -29.5q100 0 164.5 60t78.5 146h103q-29 -133 -122 -215t-224 -82q-96 0 -173 34t-131.5 93.5t-84 140.5t-29.5 173z" />
<glyph unicode="&#xaa;" horiz-adv-x="665" d="M33 958q0 59 31.5 94t80 53.5t103.5 25t102 6.5h117v34q0 123 -158 123q-70 0 -113.5 -23.5t-54.5 -76.5h-78q8 90 76 128t164 38q117 0 179.5 -42t62.5 -151v-307h90v-65h-168v110h-4q-18 -63 -79.5 -93t-133.5 -30q-92 0 -154.5 43t-62.5 133zM123 956q0 -51 40 -79.5 t101 -28.5q55 0 95 19.5t65 51t35 71.5t8 81h-129q-33 0 -71 -3t-69.5 -14.5t-53 -34t-21.5 -63.5z" />
<glyph unicode="&#xab;" horiz-adv-x="796" d="M115 471l170 406h96l-172 -406l172 -405h-96zM428 471l170 406h96l-172 -406l172 -405h-96z" />
<glyph unicode="&#xac;" horiz-adv-x="1228" d="M98 666v102h1032v-547h-102v445h-930z" />
<glyph unicode="&#xad;" horiz-adv-x="681" d="M98 500v102h486v-102h-486z" />
<glyph unicode="&#xae;" horiz-adv-x="1638" d="M129 672q0 141 54.5 266t148.5 219t220 148.5t269 54.5q141 0 267 -54.5t219.5 -148.5t147.5 -219t54 -266q0 -143 -54 -269.5t-147.5 -220.5t-219 -148t-267.5 -54q-143 0 -269 54t-220 148t-148.5 220.5t-54.5 269.5zM231 672q0 -127 44 -237.5t123 -191.5t186.5 -127 t236.5 -46t236.5 46t185.5 128t121 191.5t43 236.5q0 125 -44 234.5t-123 190.5t-186.5 127t-232.5 46q-127 0 -234.5 -46t-186 -127t-124 -190.5t-45.5 -234.5zM559 260v813h320q272 0 272 -221q0 -55 -17.5 -95t-47 -67.5t-67.5 -44t-79 -22.5l244 -363h-119l-229 363 h-174v-363h-103zM662 700h143q45 0 89 4.5t79 19.5t55.5 46t20.5 84q0 43 -16.5 70.5t-43 43t-61.5 21.5t-72 6h-194v-295z" />
<glyph unicode="&#xaf;" horiz-adv-x="569" d="M31 1163v90h508v-90h-508z" />
<glyph unicode="&#xb0;" horiz-adv-x="819" d="M117 1067q0 61 22.5 115.5t62.5 93.5t93 61.5t115 22.5q61 0 115.5 -22.5t93 -61.5t61 -93.5t22.5 -115.5t-22.5 -115.5t-61 -93.5t-93 -61.5t-115.5 -22.5t-114.5 22.5t-93.5 61.5t-62.5 93.5t-22.5 115.5zM195 1067q0 -96 59 -155.5t156 -59.5q96 0 155.5 59.5 t59.5 155.5t-59.5 155.5t-155.5 59.5q-98 0 -156.5 -59.5t-58.5 -155.5z" />
<glyph unicode="&#xb1;" horiz-adv-x="1228" d="M98 0v102h1032v-102h-1032zM98 559v103h465v374h103v-374h464v-103h-464v-375h-103v375h-465z" />
<glyph unicode="&#xb2;" horiz-adv-x="665" d="M51 543v102l203 180q31 27 72 66t77.5 83t63.5 91t27 94q0 78 -45.5 106.5t-112.5 28.5q-72 0 -121 -50t-43 -136h-102q0 59 21.5 106.5t59 79t88 49t107.5 17.5q109 0 179.5 -48t70.5 -153q0 -59 -29.5 -114.5t-72.5 -104.5t-91.5 -93t-85.5 -77l-176 -158v-4h383v117 h90v-182h-563z" />
<glyph unicode="&#xb3;" horiz-adv-x="665" d="M68 766h102q0 -96 49 -133t117 -37q66 0 113 45t47 123q0 47 -17.5 76.5t-46.5 47t-65.5 24t-75.5 6.5v65q37 -2 72.5 5t63.5 26.5t45 53.5t17 85q0 41 -12 67.5t-33.5 43t-48 23.5t-55.5 7q-68 0 -114 -43t-50 -123h-102q6 117 79.5 174.5t186.5 57.5q49 0 94 -11.5 t80 -36t56.5 -62.5t21.5 -93q0 -86 -50 -139t-136 -68v-4q80 -12 136 -53t56 -129q0 -59 -21.5 -103.5t-57.5 -73t-84 -43t-99 -14.5q-268 0 -268 236z" />
<glyph unicode="&#xb4;" horiz-adv-x="569" d="M164 1053l184 274h160l-238 -274h-106z" />
<glyph unicode="&#xb6;" horiz-adv-x="1228" d="M135 938q0 195 120 298t337 103h444v-1585h-102v1495h-272v-1495h-103v795q-90 0 -168 30.5t-134 84t-89 124t-33 150.5z" />
<glyph unicode="&#xb7;" horiz-adv-x="512" d="M141 571q0 47 34 81t81 34t81 -34t34 -81q0 -43 -34 -78.5t-79 -35.5q-47 0 -82 33.5t-35 80.5z" />
<glyph unicode="&#xb8;" horiz-adv-x="569" d="M76 -350l39 63q33 -18 68.5 -31.5t74.5 -13.5q43 0 73.5 18.5t30.5 65.5q0 41 -24.5 59.5t-56.5 18.5q-25 0 -45.5 -2t-40.5 -10l-33 37l104 145h84l-78 -106l4 -5q14 6 56 7q59 0 96 -43t37 -103q0 -39 -16.5 -66.5t-42 -46t-59.5 -26.5t-68 -8q-57 0 -109.5 15 t-93.5 32z" />
<glyph unicode="&#xb9;" horiz-adv-x="665" d="M121 1100v82q53 41 105.5 79.5t99.5 86.5h92v-740h129v-65h-348v65h129v649q-43 -45 -96.5 -83.5t-110.5 -73.5z" />
<glyph unicode="&#xba;" horiz-adv-x="665" d="M51 1071q0 131 76 210t207 79t206.5 -79t75.5 -210t-75.5 -210t-206.5 -79t-207 79t-76 210zM141 1071q0 -72 19.5 -116t49.5 -67.5t62.5 -31.5t61.5 -8t62.5 8t62 31.5t48 67.5t19.5 116t-19.5 116t-49 67.5t-62.5 31.5t-61 8q-29 0 -61.5 -8t-62.5 -31.5t-49.5 -67.5 t-19.5 -116z" />
<glyph unicode="&#xbb;" horiz-adv-x="796" d="M102 66l172 405l-172 406h97l170 -406l-170 -405h-97zM416 66l172 405l-172 406h96l170 -406l-170 -405h-96z" />
<glyph unicode="&#xbc;" horiz-adv-x="1536" d="M90 1100v82q53 41 105.5 79.5t99.5 86.5h92v-740h129v-65h-348v65h129v649q-43 -45 -96.5 -83.5t-110.5 -73.5zM307 -37l828 1413h82l-828 -1413h-82zM791 225v86l393 494h106v-514h119v-66h-119v-159h117v-66h-330v66h123v159h-409zM860 291h340v424h-4z" />
<glyph unicode="&#xbd;" horiz-adv-x="1536" d="M70 1100v82q53 41 105 79.5t99 86.5h93v-740h129v-65h-349v65h129v649q-43 -45 -96 -83.5t-110 -73.5zM262 -37l828 1413h81l-827 -1413h-82zM864 0v102l203 181q31 27 72 65.5t77.5 82.5t63.5 91t27 94q0 78 -45 107t-113 29q-72 0 -121 -50.5t-43 -136.5h-102 q0 59 21.5 106.5t59 79t88 49t107.5 17.5q109 0 179.5 -48t70.5 -153q0 -59 -29.5 -114.5t-72.5 -104.5t-91.5 -93t-85.5 -77l-176 -157v-4h383v116h90v-182h-563z" />
<glyph unicode="&#xbe;" horiz-adv-x="1536" d="M45 766h102q0 -96 49.5 -133t116.5 -37q66 0 113 45t47 123q0 47 -17.5 76.5t-46 47t-65.5 24t-76 6.5v65q37 -2 73 5t63.5 26.5t45 53.5t17.5 85q0 41 -12.5 67.5t-34 43t-48 23.5t-55.5 7q-68 0 -113.5 -43t-49.5 -123h-103q6 117 80 174.5t186 57.5q49 0 94.5 -11.5 t80 -36t56 -62.5t21.5 -93q0 -86 -50 -139t-134 -68v-4q78 -12 134 -53t56 -129q0 -59 -21.5 -103.5t-57 -73t-83.5 -43t-100 -14.5q-268 0 -268 236zM334 -37l827 1413h82l-827 -1413h-82zM836 225v86l393 494h106v-514h119v-66h-119v-159h117v-66h-330v66h123v159h-409z M905 291h340v424h-4z" />
<glyph unicode="&#xbf;" horiz-adv-x="909" d="M66 -2q0 84 29.5 141.5t74.5 103.5t97 87t95.5 93t70 120.5t22.5 169.5h114q0 -119 -27.5 -198t-69.5 -132t-91 -91t-91 -77t-69.5 -87t-27.5 -122q0 -117 66.5 -195.5t201.5 -78.5q127 0 194.5 76.5t73.5 201.5h115q-10 -176 -103.5 -272t-298.5 -96q-78 0 -146.5 20.5 t-119.5 63.5t-80.5 110.5t-29.5 161.5zM449 866v127h126v-127h-126z" />
<glyph unicode="&#xc0;" horiz-adv-x="1478" d="M25 0v90h122l519 1249h149l508 -1249h123v-90h-457v90h205l-154 381h-618l-156 -381h205v-90h-446zM459 561h547l-271 672zM516 1745h160l185 -274h-107z" />
<glyph unicode="&#xc1;" horiz-adv-x="1478" d="M25 0v90h122l519 1249h149l508 -1249h123v-90h-457v90h205l-154 381h-618l-156 -381h205v-90h-446zM459 561h547l-271 672zM619 1471l184 274h160l-238 -274h-106z" />
<glyph unicode="&#xc2;" horiz-adv-x="1478" d="M25 0v90h122l519 1249h149l508 -1249h123v-90h-457v90h205l-154 381h-618l-156 -381h205v-90h-446zM459 561h547l-271 672zM467 1471l213 274h127l199 -274h-119l-147 204l-154 -204h-119z" />
<glyph unicode="&#xc3;" horiz-adv-x="1478" d="M25 0v90h122l519 1249h149l508 -1249h123v-90h-457v90h205l-154 381h-618l-156 -381h205v-90h-446zM432 1526q2 35 13.5 68.5t33 59.5t51 41t68.5 15q33 0 70 -14t76 -31q37 -16 72.5 -30.5t64.5 -14.5q27 0 44 26.5t22 49.5h81q-10 -72 -52 -125t-120 -53 q-23 0 -57.5 14t-71.5 31q-37 16 -73.5 30.5t-65.5 14.5q-31 0 -51.5 -26.5t-22.5 -55.5h-82zM459 561h547l-271 672z" />
<glyph unicode="&#xc4;" horiz-adv-x="1478" d="M25 0v90h122l519 1249h149l508 -1249h123v-90h-457v90h205l-154 381h-618l-156 -381h205v-90h-446zM459 561h547l-271 672zM514 1553v139h127v-139h-127zM838 1553v139h127v-139h-127z" />
<glyph unicode="&#xc5;" horiz-adv-x="1478" d="M25 0v90h122l519 1249h149l508 -1249h123v-90h-457v90h205l-154 381h-618l-156 -381h205v-90h-446zM459 561h547l-271 672zM549 1620q0 39 15.5 74t41 60.5t60.5 41t74 15.5t73.5 -15.5t60 -41t41 -60.5t15.5 -74t-15.5 -73.5t-41 -60.5t-60 -41t-73.5 -15t-74 15 t-60.5 41t-41 60.5t-15.5 73.5zM615 1620q0 -53 35.5 -89t89.5 -36q53 0 89 36t36 89t-36 89t-89 36t-89 -36t-36 -89z" />
<glyph unicode="&#xc6;" horiz-adv-x="1933" d="M23 0v90h114l688 1249h965v-368h-102v278h-672l78 -528h307v201h102v-471h-102v180h-295l80 -541h520v279h102v-369h-940v90h205l-57 381h-551l-211 -381h164v-90h-395zM516 561h488l-103 688h-4z" />
<glyph unicode="&#xc7;" horiz-adv-x="1366" d="M92 659q0 154 40 283t120 222t199.5 144.5t277.5 51.5q129 0 235.5 -48t178.5 -155h4v182h102v-481h-104q-8 102 -35 180t-78 129.5t-130 77t-189 25.5q-139 0 -233.5 -55.5t-153 -143.5t-83 -198.5t-24.5 -223.5q0 -115 32 -220t93.5 -185t151.5 -127t209 -47 q180 0 290.5 96t128.5 276h127q-8 -115 -51 -199.5t-111.5 -141t-158.5 -86t-195 -33.5l-63 -88l4 -5q14 6 55 7q59 0 96 -43t37 -103q0 -39 -16.5 -66.5t-42 -46t-59 -26.5t-68.5 -8q-57 0 -109.5 15t-93.5 32l39 63q33 -18 68.5 -31.5t74.5 -13.5q43 0 74 18.5t31 65.5 q0 41 -24.5 59.5t-57.5 18.5q-25 0 -45.5 -2t-40.5 -10l-33 37l90 127q-139 8 -243.5 65t-175 149.5t-105.5 212t-35 250.5z" />
<glyph unicode="&#xc8;" horiz-adv-x="1251" d="M41 0v90h184v1159h-184v90h1059v-417h-103v327h-657v-528h346v201h102v-504h-102v213h-346v-541h670v328h102v-418h-1071zM403 1745h160l185 -274h-107z" />
<glyph unicode="&#xc9;" horiz-adv-x="1251" d="M41 0v90h184v1159h-184v90h1059v-417h-103v327h-657v-528h346v201h102v-504h-102v213h-346v-541h670v328h102v-418h-1071zM506 1471l184 274h160l-238 -274h-106z" />
<glyph unicode="&#xca;" horiz-adv-x="1251" d="M41 0v90h184v1159h-184v90h1059v-417h-103v327h-657v-528h346v201h102v-504h-102v213h-346v-541h670v328h102v-418h-1071zM354 1471l213 274h127l199 -274h-119l-147 204l-154 -204h-119z" />
<glyph unicode="&#xcb;" horiz-adv-x="1251" d="M41 0v90h184v1159h-184v90h1059v-417h-103v327h-657v-528h346v201h102v-504h-102v213h-346v-541h670v328h102v-418h-1071zM401 1553v139h127v-139h-127zM725 1553v139h127v-139h-127z" />
<glyph unicode="&#xcc;" horiz-adv-x="569" d="M43 0v90h184v1159h-184v90h483v-90h-184v-1159h184v-90h-483zM61 1745h160l185 -274h-107z" />
<glyph unicode="&#xcd;" horiz-adv-x="569" d="M43 0v90h184v1159h-184v90h483v-90h-184v-1159h184v-90h-483zM164 1471l184 274h160l-238 -274h-106z" />
<glyph unicode="&#xce;" horiz-adv-x="569" d="M12 1471l213 274h127l199 -274h-119l-147 204l-154 -204h-119zM43 0v90h184v1159h-184v90h483v-90h-184v-1159h184v-90h-483z" />
<glyph unicode="&#xcf;" horiz-adv-x="569" d="M43 0v90h184v1159h-184v90h483v-90h-184v-1159h184v-90h-483zM59 1553v139h127v-139h-127zM383 1553v139h127v-139h-127z" />
<glyph unicode="&#xd0;" horiz-adv-x="1366" d="M49 0v90h184v574h-184v90h184v495h-184v90h479q164 0 299.5 -33.5t232.5 -111.5t151.5 -203t54.5 -305q0 -190 -50.5 -321.5t-145.5 -212t-231.5 -116.5t-310.5 -36h-479zM348 90h160q154 0 271.5 31t197.5 101.5t121 184t41 279.5q0 160 -44 267.5t-126 173t-199 94 t-262 28.5h-160v-495h371v-90h-371v-574z" />
<glyph unicode="&#xd1;" horiz-adv-x="1478" d="M49 0v90h172v1159h-172v90h352l740 -1249h2v1159h-205v90h492v-90h-173v-1249h-178l-739 1249h-4v-1159h205v-90h-492zM432 1526q2 35 13.5 68.5t33 59.5t51 41t68.5 15q33 0 70 -14t76 -31q37 -16 72.5 -30.5t64.5 -14.5q27 0 44 26.5t22 49.5h81q-10 -72 -52 -125 t-120 -53q-23 0 -57.5 14t-71.5 31q-37 16 -73.5 30.5t-65.5 14.5q-31 0 -51.5 -26.5t-22.5 -55.5h-82z" />
<glyph unicode="&#xd2;" horiz-adv-x="1478" d="M92 680q0 154 42 278.5t123 214t202 138.5t280 49q156 0 277 -49t204 -138.5t124.5 -214t41.5 -278.5q0 -156 -41.5 -285t-124.5 -221t-204 -143t-277 -51q-160 0 -280.5 51t-201.5 143t-123 221t-42 285zM219 680q0 -133 28.5 -244.5t92 -192.5t162 -127t237.5 -46 q135 0 233.5 46t162 127t94.5 192.5t31 244.5q0 119 -31 225.5t-94.5 187.5t-162 129t-233.5 48q-139 0 -237.5 -48t-162 -129t-92 -187.5t-28.5 -225.5zM516 1745h160l185 -274h-107z" />
<glyph unicode="&#xd3;" horiz-adv-x="1478" d="M92 680q0 154 42 278.5t123 214t202 138.5t280 49q156 0 277 -49t204 -138.5t124.5 -214t41.5 -278.5q0 -156 -41.5 -285t-124.5 -221t-204 -143t-277 -51q-160 0 -280.5 51t-201.5 143t-123 221t-42 285zM219 680q0 -133 28.5 -244.5t92 -192.5t162 -127t237.5 -46 q135 0 233.5 46t162 127t94.5 192.5t31 244.5q0 119 -31 225.5t-94.5 187.5t-162 129t-233.5 48q-139 0 -237.5 -48t-162 -129t-92 -187.5t-28.5 -225.5zM619 1471l184 274h160l-238 -274h-106z" />
<glyph unicode="&#xd4;" horiz-adv-x="1478" d="M92 680q0 154 42 278.5t123 214t202 138.5t280 49q156 0 277 -49t204 -138.5t124.5 -214t41.5 -278.5q0 -156 -41.5 -285t-124.5 -221t-204 -143t-277 -51q-160 0 -280.5 51t-201.5 143t-123 221t-42 285zM219 680q0 -133 28.5 -244.5t92 -192.5t162 -127t237.5 -46 q135 0 233.5 46t162 127t94.5 192.5t31 244.5q0 119 -31 225.5t-94.5 187.5t-162 129t-233.5 48q-139 0 -237.5 -48t-162 -129t-92 -187.5t-28.5 -225.5zM467 1471l213 274h127l199 -274h-119l-147 204l-154 -204h-119z" />
<glyph unicode="&#xd5;" horiz-adv-x="1478" d="M92 680q0 154 42 278.5t123 214t202 138.5t280 49q156 0 277 -49t204 -138.5t124.5 -214t41.5 -278.5q0 -156 -41.5 -285t-124.5 -221t-204 -143t-277 -51q-160 0 -280.5 51t-201.5 143t-123 221t-42 285zM219 680q0 -133 28.5 -244.5t92 -192.5t162 -127t237.5 -46 q135 0 233.5 46t162 127t94.5 192.5t31 244.5q0 119 -31 225.5t-94.5 187.5t-162 129t-233.5 48q-139 0 -237.5 -48t-162 -129t-92 -187.5t-28.5 -225.5zM432 1526q2 35 13.5 68.5t33 59.5t51 41t68.5 15q33 0 70 -14t76 -31q37 -16 72.5 -30.5t64.5 -14.5q27 0 44 26.5 t22 49.5h81q-10 -72 -52 -125t-120 -53q-23 0 -57.5 14t-71.5 31q-37 16 -73.5 30.5t-65.5 14.5q-31 0 -51.5 -26.5t-22.5 -55.5h-82z" />
<glyph unicode="&#xd6;" horiz-adv-x="1478" d="M92 680q0 154 42 278.5t123 214t202 138.5t280 49q156 0 277 -49t204 -138.5t124.5 -214t41.5 -278.5q0 -156 -41.5 -285t-124.5 -221t-204 -143t-277 -51q-160 0 -280.5 51t-201.5 143t-123 221t-42 285zM219 680q0 -133 28.5 -244.5t92 -192.5t162 -127t237.5 -46 q135 0 233.5 46t162 127t94.5 192.5t31 244.5q0 119 -31 225.5t-94.5 187.5t-162 129t-233.5 48q-139 0 -237.5 -48t-162 -129t-92 -187.5t-28.5 -225.5zM514 1553v139h127v-139h-127zM838 1553v139h127v-139h-127z" />
<glyph unicode="&#xd7;" horiz-adv-x="1228" d="M152 129l389 389l-389 389l73 74l387 -391l392 391l73 -74l-391 -389l391 -389l-73 -74l-392 391l-387 -391z" />
<glyph unicode="&#xd8;" horiz-adv-x="1478" d="M92 680q0 154 42 278.5t123 214t202 138.5t280 49q135 0 244 -37t188 -104l148 167l51 -47l-147 -168q80 -88 121.5 -212.5t41.5 -278.5q0 -156 -41.5 -285t-124.5 -221t-204 -143t-277 -51q-135 0 -243.5 37.5t-188.5 107.5l-151 -172l-52 47l154 174q-82 92 -124 221 t-42 285zM219 680q0 -129 26.5 -235.5t86.5 -186.5l764 875q-66 66 -154 101.5t-203 35.5q-139 0 -237.5 -48t-162 -129t-92 -187.5t-28.5 -225.5zM377 205q63 -66 152 -100.5t210 -34.5q135 0 233.5 46t162 127t94.5 192.5t31 244.5q0 117 -29 219t-88 180z" />
<glyph unicode="&#xd9;" horiz-adv-x="1363" d="M20 1249v90h494v-90h-215v-676q0 -104 15.5 -196t57.5 -159.5t116.5 -107.5t193.5 -40t193.5 40t116.5 107.5t57.5 159.5t15.5 196v676h-215v90h493v-90h-163v-676q0 -131 -22.5 -240.5t-79 -187t-153 -121.5t-243.5 -44t-243.5 44t-153 121.5t-79 187t-22.5 240.5v676 h-164zM458 1745h160l185 -274h-107z" />
<glyph unicode="&#xda;" horiz-adv-x="1363" d="M20 1249v90h494v-90h-215v-676q0 -104 15.5 -196t57.5 -159.5t116.5 -107.5t193.5 -40t193.5 40t116.5 107.5t57.5 159.5t15.5 196v676h-215v90h493v-90h-163v-676q0 -131 -22.5 -240.5t-79 -187t-153 -121.5t-243.5 -44t-243.5 44t-153 121.5t-79 187t-22.5 240.5v676 h-164zM561 1471l184 274h160l-238 -274h-106z" />
<glyph unicode="&#xdb;" horiz-adv-x="1363" d="M20 1249v90h494v-90h-215v-676q0 -104 15.5 -196t57.5 -159.5t116.5 -107.5t193.5 -40t193.5 40t116.5 107.5t57.5 159.5t15.5 196v676h-215v90h493v-90h-163v-676q0 -131 -22.5 -240.5t-79 -187t-153 -121.5t-243.5 -44t-243.5 44t-153 121.5t-79 187t-22.5 240.5v676 h-164zM409 1471l213 274h127l199 -274h-119l-147 204l-154 -204h-119z" />
<glyph unicode="&#xdc;" horiz-adv-x="1363" d="M20 1249v90h494v-90h-215v-676q0 -104 15.5 -196t57.5 -159.5t116.5 -107.5t193.5 -40t193.5 40t116.5 107.5t57.5 159.5t15.5 196v676h-215v90h493v-90h-163v-676q0 -131 -22.5 -240.5t-79 -187t-153 -121.5t-243.5 -44t-243.5 44t-153 121.5t-79 187t-22.5 240.5v676 h-164zM456 1553v139h127v-139h-127zM780 1553v139h127v-139h-127z" />
<glyph unicode="&#xdd;" horiz-adv-x="1251" d="M29 1249v90h401v-90h-184l375 -598l387 598h-185v90h400v-90h-93l-452 -702v-457h225v-90h-565v90h225v457l-442 702h-92zM506 1471l184 274h160l-238 -274h-106z" />
<glyph unicode="&#xde;" horiz-adv-x="1138" d="M39 0v90h184v1159h-184v90h545v-90h-246v-176h213q96 0 191.5 -11t170 -50t121.5 -117t47 -209q0 -111 -38.5 -185.5t-102 -120.5t-145.5 -65.5t-170 -19.5h-287v-205h246v-90h-545zM338 385h213q51 0 120.5 5t133 33t106.5 89t43 174q0 98 -32.5 157.5t-86 90.5t-120 40 t-133.5 9h-244v-598z" />
<glyph unicode="&#xdf;" d="M39 0v78h127v864q0 94 21.5 171t67.5 132t117.5 85t174.5 30q70 0 134 -20.5t113.5 -60.5t79 -99.5t29.5 -137.5q0 -135 -76.5 -216t-205.5 -99v-4q76 -14 138 -39t105 -65.5t66.5 -101t23.5 -144.5q0 -100 -32.5 -174t-91 -121t-138.5 -66.5t-176 -11.5v78 q154 0 238 67.5t86 235.5q0 80 -24.5 134t-69 88t-105.5 49.5t-133 19.5v102q131 4 205.5 63.5t74.5 190.5q0 123 -62 188.5t-185 65.5q-78 0 -130.5 -29.5t-84 -79t-45 -115t-13.5 -136.5v-844h105v-78h-334z" />
<glyph unicode="&#xe0;" d="M68 274q0 98 48 153.5t119.5 83.5t155.5 35t156 7h196v68q0 123 -66.5 183t-191.5 60q-106 0 -180 -45t-88 -153h-115q8 76 41 129t82 85.5t113.5 47t138.5 14.5q176 0 272.5 -70.5t96.5 -250.5v-543h139v-78h-242v184h-4q-20 -53 -56 -92t-82 -63.5t-98 -36.5t-108 -12 q-72 0 -131 17t-103 54t-68.5 92.5t-24.5 130.5zM182 268q0 -49 18.5 -89t51.5 -66.5t75 -41t89 -14.5q92 0 154.5 35t100.5 92.5t55 133t17 157.5h-213q-51 0 -112.5 -6t-113.5 -27.5t-87 -62.5t-35 -111zM288 1327h160l185 -274h-107z" />
<glyph unicode="&#xe1;" d="M68 274q0 98 48 153.5t119.5 83.5t155.5 35t156 7h196v68q0 123 -66.5 183t-191.5 60q-106 0 -180 -45t-88 -153h-115q8 76 41 129t82 85.5t113.5 47t138.5 14.5q176 0 272.5 -70.5t96.5 -250.5v-543h139v-78h-242v184h-4q-20 -53 -56 -92t-82 -63.5t-98 -36.5t-108 -12 q-72 0 -131 17t-103 54t-68.5 92.5t-24.5 130.5zM182 268q0 -49 18.5 -89t51.5 -66.5t75 -41t89 -14.5q92 0 154.5 35t100.5 92.5t55 133t17 157.5h-213q-51 0 -112.5 -6t-113.5 -27.5t-87 -62.5t-35 -111zM391 1053l184 274h160l-238 -274h-106z" />
<glyph unicode="&#xe2;" d="M68 274q0 98 48 153.5t119.5 83.5t155.5 35t156 7h196v68q0 123 -66.5 183t-191.5 60q-106 0 -180 -45t-88 -153h-115q8 76 41 129t82 85.5t113.5 47t138.5 14.5q176 0 272.5 -70.5t96.5 -250.5v-543h139v-78h-242v184h-4q-20 -53 -56 -92t-82 -63.5t-98 -36.5t-108 -12 q-72 0 -131 17t-103 54t-68.5 92.5t-24.5 130.5zM182 268q0 -49 18.5 -89t51.5 -66.5t75 -41t89 -14.5q92 0 154.5 35t100.5 92.5t55 133t17 157.5h-213q-51 0 -112.5 -6t-113.5 -27.5t-87 -62.5t-35 -111zM239 1053l213 274h127l199 -274h-119l-147 204l-154 -204h-119z " />
<glyph unicode="&#xe3;" d="M68 274q0 98 48 153.5t119.5 83.5t155.5 35t156 7h196v68q0 123 -66.5 183t-191.5 60q-106 0 -180 -45t-88 -153h-115q8 76 41 129t82 85.5t113.5 47t138.5 14.5q176 0 272.5 -70.5t96.5 -250.5v-543h139v-78h-242v184h-4q-20 -53 -56 -92t-82 -63.5t-98 -36.5t-108 -12 q-72 0 -131 17t-103 54t-68.5 92.5t-24.5 130.5zM182 268q0 -49 18.5 -89t51.5 -66.5t75 -41t89 -14.5q92 0 154.5 35t100.5 92.5t55 133t17 157.5h-213q-51 0 -112.5 -6t-113.5 -27.5t-87 -62.5t-35 -111zM204 1108q2 35 13.5 68.5t33 59.5t51 41t68.5 15q33 0 70 -14 t76 -31q37 -16 72.5 -30.5t64.5 -14.5q27 0 44 26.5t22 49.5h81q-10 -72 -52 -125t-120 -53q-23 0 -57.5 14t-71.5 31q-37 16 -73.5 30.5t-65.5 14.5q-31 0 -51.5 -26.5t-22.5 -55.5h-82z" />
<glyph unicode="&#xe4;" d="M68 274q0 98 48 153.5t119.5 83.5t155.5 35t156 7h196v68q0 123 -66.5 183t-191.5 60q-106 0 -180 -45t-88 -153h-115q8 76 41 129t82 85.5t113.5 47t138.5 14.5q176 0 272.5 -70.5t96.5 -250.5v-543h139v-78h-242v184h-4q-20 -53 -56 -92t-82 -63.5t-98 -36.5t-108 -12 q-72 0 -131 17t-103 54t-68.5 92.5t-24.5 130.5zM182 268q0 -49 18.5 -89t51.5 -66.5t75 -41t89 -14.5q92 0 154.5 35t100.5 92.5t55 133t17 157.5h-213q-51 0 -112.5 -6t-113.5 -27.5t-87 -62.5t-35 -111zM286 1135v139h127v-139h-127zM610 1135v139h127v-139h-127z" />
<glyph unicode="&#xe5;" d="M68 274q0 98 48 153.5t119.5 83.5t155.5 35t156 7h196v68q0 123 -66.5 183t-191.5 60q-106 0 -180 -45t-88 -153h-115q8 76 41 129t82 85.5t113.5 47t138.5 14.5q176 0 272.5 -70.5t96.5 -250.5v-543h139v-78h-242v184h-4q-20 -53 -56 -92t-82 -63.5t-98 -36.5t-108 -12 q-72 0 -131 17t-103 54t-68.5 92.5t-24.5 130.5zM182 268q0 -49 18.5 -89t51.5 -66.5t75 -41t89 -14.5q92 0 154.5 35t100.5 92.5t55 133t17 157.5h-213q-51 0 -112.5 -6t-113.5 -27.5t-87 -62.5t-35 -111zM321 1202q0 39 15.5 74t41 60.5t60.5 41t74 15.5t73.5 -15.5 t60 -41t41 -60.5t15.5 -74t-15.5 -73.5t-41 -60.5t-60 -41t-73.5 -15t-74 15t-60.5 41t-41 60.5t-15.5 73.5zM387 1202q0 -53 35.5 -89t89.5 -36q53 0 89 36t36 89t-36 89t-89 36t-89 -36t-36 -89z" />
<glyph unicode="&#xe6;" horiz-adv-x="1478" d="M57 258q0 96 46.5 149.5t111 78t135 29.5t117.5 5h203q0 78 -3 141.5t-24.5 108.5t-68 69.5t-132.5 24.5q-92 0 -154.5 -53t-70.5 -152h-115q6 76 36 130.5t79 88t112.5 49t135.5 15.5q49 0 96 -10t87 -32.5t67.5 -59.5t36.5 -90h4q43 98 122.5 145t188.5 47 q115 0 185.5 -43t108.5 -113.5t51 -159.5t13 -184h-641q2 -72 15.5 -141.5t45.5 -123.5t85 -87t137 -33q100 0 165.5 65.5t74.5 162.5h102q-6 -74 -34.5 -131.5t-76 -95.5t-109 -58t-130.5 -20q-141 0 -221 60t-123 183q-47 -113 -130 -178t-210 -65q-68 0 -125 16 t-100.5 51t-68 87t-24.5 124zM172 254q0 -102 58.5 -149.5t150.5 -47.5q76 0 131 36t90 92.5t51.5 124t16.5 132.5h-195q-47 0 -99 -5t-98.5 -24.5t-76 -57.5t-29.5 -101zM784 520h527q2 59 -7.5 120.5t-36 111t-74.5 81t-126 31.5q-68 0 -120 -29.5t-88 -78.5t-55.5 -110.5 t-19.5 -125.5z" />
<glyph unicode="&#xe7;" d="M102 473q0 98 28 183t82 148.5t134 100.5t182 37q92 0 179.5 -37t123.5 -112h5v129h90v-338h-82q-8 125 -87 202.5t-214 77.5q-78 0 -138.5 -30.5t-101.5 -83t-63.5 -122t-22.5 -145.5q0 -80 18.5 -155.5t58.5 -136t101.5 -97.5t147.5 -37q57 0 107 18.5t90 52.5t64.5 80 t31.5 103h102q0 -84 -35 -144.5t-88 -100t-119.5 -60t-130.5 -24.5l-65 -88l4 -5q14 6 55 7q59 0 96 -43t37 -103q0 -39 -16.5 -66.5t-42 -46t-59 -26.5t-68.5 -8q-57 0 -109.5 15t-93.5 32l39 63q33 -18 68.5 -31.5t74.5 -13.5q43 0 74 18.5t31 65.5q0 41 -24.5 59.5 t-57.5 18.5q-25 0 -45.5 -2t-40.5 -10l-33 37l92 127q-98 10 -168.5 56t-118 115.5t-70 152.5t-22.5 167z" />
<glyph unicode="&#xe8;" d="M78 481q0 96 27.5 180t84 146.5t139.5 98.5t193 36q115 0 199 -38t136 -105.5t75.5 -158.5t19.5 -198h-759q0 -84 20 -154.5t63 -121.5t106.5 -80t149.5 -29q53 0 103.5 14.5t91.5 42t69.5 69.5t39.5 100h102q-6 -76 -43 -133.5t-94.5 -95.5t-126 -56t-135.5 -18 q-227 0 -344 128t-117 373zM193 520h645q-2 74 -23.5 136.5t-61.5 108.5t-100.5 72.5t-138.5 26.5q-74 0 -131 -27.5t-98 -73.5t-64.5 -109.5t-27.5 -133.5zM288 1327h160l185 -274h-107z" />
<glyph unicode="&#xe9;" d="M78 481q0 96 27.5 180t84 146.5t139.5 98.5t193 36q115 0 199 -38t136 -105.5t75.5 -158.5t19.5 -198h-759q0 -84 20 -154.5t63 -121.5t106.5 -80t149.5 -29q53 0 103.5 14.5t91.5 42t69.5 69.5t39.5 100h102q-6 -76 -43 -133.5t-94.5 -95.5t-126 -56t-135.5 -18 q-227 0 -344 128t-117 373zM193 520h645q-2 74 -23.5 136.5t-61.5 108.5t-100.5 72.5t-138.5 26.5q-74 0 -131 -27.5t-98 -73.5t-64.5 -109.5t-27.5 -133.5zM391 1053l184 274h160l-238 -274h-106z" />
<glyph unicode="&#xea;" d="M78 481q0 96 27.5 180t84 146.5t139.5 98.5t193 36q115 0 199 -38t136 -105.5t75.5 -158.5t19.5 -198h-759q0 -84 20 -154.5t63 -121.5t106.5 -80t149.5 -29q53 0 103.5 14.5t91.5 42t69.5 69.5t39.5 100h102q-6 -76 -43 -133.5t-94.5 -95.5t-126 -56t-135.5 -18 q-227 0 -344 128t-117 373zM193 520h645q-2 74 -23.5 136.5t-61.5 108.5t-100.5 72.5t-138.5 26.5q-74 0 -131 -27.5t-98 -73.5t-64.5 -109.5t-27.5 -133.5zM239 1053l213 274h127l199 -274h-119l-147 204l-154 -204h-119z" />
<glyph unicode="&#xeb;" d="M78 481q0 96 27.5 180t84 146.5t139.5 98.5t193 36q115 0 199 -38t136 -105.5t75.5 -158.5t19.5 -198h-759q0 -84 20 -154.5t63 -121.5t106.5 -80t149.5 -29q53 0 103.5 14.5t91.5 42t69.5 69.5t39.5 100h102q-6 -76 -43 -133.5t-94.5 -95.5t-126 -56t-135.5 -18 q-227 0 -344 128t-117 373zM193 520h645q-2 74 -23.5 136.5t-61.5 108.5t-100.5 72.5t-138.5 26.5q-74 0 -131 -27.5t-98 -73.5t-64.5 -109.5t-27.5 -133.5zM286 1135v139h127v-139h-127zM610 1135v139h127v-139h-127z" />
<glyph unicode="&#xec;" horiz-adv-x="569" d="M53 0v78h205v766h-205v78h307v-844h164v-78h-471zM61 1327h160l185 -274h-107z" />
<glyph unicode="&#xed;" horiz-adv-x="569" d="M53 0v78h205v766h-205v78h307v-844h164v-78h-471zM164 1053l184 274h160l-238 -274h-106z" />
<glyph unicode="&#xee;" horiz-adv-x="569" d="M12 1053l213 274h127l199 -274h-119l-147 204l-154 -204h-119zM53 0v78h205v766h-205v78h307v-844h164v-78h-471z" />
<glyph unicode="&#xef;" horiz-adv-x="569" d="M53 0v78h205v766h-205v78h307v-844h164v-78h-471zM59 1135v139h127v-139h-127zM383 1135v139h127v-139h-127z" />
<glyph unicode="&#xf0;" d="M74 461q0 109 30.5 198t88 151t139.5 97t184 35q72 -6 132.5 -28.5t121.5 -82.5l14 -12l4 4q-47 94 -122.5 181.5t-149.5 152.5l-197 -100l-55 53l191 96q-53 47 -95.5 79t-70.5 54l67 50q49 -31 96.5 -66t92.5 -72l213 109l55 -53l-211 -107q76 -68 140.5 -146.5 t110.5 -163.5t71.5 -177t25.5 -187q0 -262 -116.5 -404t-321.5 -142q-100 0 -181 34.5t-138.5 97t-88 151.5t-30.5 198zM188 461q0 -129 36 -208t87 -122t106.5 -58.5t94.5 -15.5t94.5 15.5t106.5 58.5t87 122t36 208t-36 208t-87 122t-106.5 58t-94.5 15t-94.5 -15 t-106.5 -58t-87 -122t-36 -208z" />
<glyph unicode="&#xf1;" horiz-adv-x="1138" d="M45 0v78h164v766h-164v78h266v-144h4q41 80 120 122t169 42q131 0 199.5 -44t97.5 -112.5t31 -152.5t2 -162v-393h153v-78h-419v78h163v393q0 84 -2 154.5t-23.5 122t-69.5 79t-138 25.5q-90 0 -146.5 -33t-87 -86t-42 -121.5t-11.5 -140.5v-393h164v-78h-430zM262 1108 q2 35 13.5 68.5t33 59.5t51 41t68.5 15q33 0 70 -14t76 -31q37 -16 72.5 -30.5t64.5 -14.5q27 0 44 26.5t22 49.5h81q-10 -72 -52 -125t-120 -53q-23 0 -57.5 14t-71.5 31q-37 16 -73.5 30.5t-65.5 14.5q-31 0 -51.5 -26.5t-22.5 -55.5h-82z" />
<glyph unicode="&#xf2;" d="M74 461q0 109 30.5 198t88 151t138.5 97t181 35t181 -35t138.5 -97t88 -151.5t30.5 -197.5q0 -109 -30.5 -198t-88 -151.5t-138.5 -97t-181 -34.5t-181 34.5t-138.5 97t-88 151.5t-30.5 198zM188 461q0 -129 36 -208t87 -122t106.5 -58.5t94.5 -15.5t94.5 15.5 t106.5 58.5t87 122t36 208t-36 208t-87 122t-106.5 58t-94.5 15t-94.5 -15t-106.5 -58t-87 -122t-36 -208zM288 1327h160l185 -274h-107z" />
<glyph unicode="&#xf3;" d="M74 461q0 109 30.5 198t88 151t138.5 97t181 35t181 -35t138.5 -97t88 -151.5t30.5 -197.5q0 -109 -30.5 -198t-88 -151.5t-138.5 -97t-181 -34.5t-181 34.5t-138.5 97t-88 151.5t-30.5 198zM188 461q0 -129 36 -208t87 -122t106.5 -58.5t94.5 -15.5t94.5 15.5 t106.5 58.5t87 122t36 208t-36 208t-87 122t-106.5 58t-94.5 15t-94.5 -15t-106.5 -58t-87 -122t-36 -208zM391 1053l184 274h160l-238 -274h-106z" />
<glyph unicode="&#xf4;" d="M74 461q0 109 30.5 198t88 151t138.5 97t181 35t181 -35t138.5 -97t88 -151.5t30.5 -197.5q0 -109 -30.5 -198t-88 -151.5t-138.5 -97t-181 -34.5t-181 34.5t-138.5 97t-88 151.5t-30.5 198zM188 461q0 -129 36 -208t87 -122t106.5 -58.5t94.5 -15.5t94.5 15.5 t106.5 58.5t87 122t36 208t-36 208t-87 122t-106.5 58t-94.5 15t-94.5 -15t-106.5 -58t-87 -122t-36 -208zM239 1053l213 274h127l199 -274h-119l-147 204l-154 -204h-119z" />
<glyph unicode="&#xf5;" d="M74 461q0 109 30.5 198t88 151t138.5 97t181 35t181 -35t138.5 -97t88 -151.5t30.5 -197.5q0 -109 -30.5 -198t-88 -151.5t-138.5 -97t-181 -34.5t-181 34.5t-138.5 97t-88 151.5t-30.5 198zM188 461q0 -129 36 -208t87 -122t106.5 -58.5t94.5 -15.5t94.5 15.5 t106.5 58.5t87 122t36 208t-36 208t-87 122t-106.5 58t-94.5 15t-94.5 -15t-106.5 -58t-87 -122t-36 -208zM204 1108q2 35 13.5 68.5t33 59.5t51 41t68.5 15q33 0 70 -14t76 -31q37 -16 72.5 -30.5t64.5 -14.5q27 0 44 26.5t22 49.5h81q-10 -72 -52 -125t-120 -53 q-23 0 -57.5 14t-71.5 31q-37 16 -73.5 30.5t-65.5 14.5q-31 0 -51.5 -26.5t-22.5 -55.5h-82z" />
<glyph unicode="&#xf6;" d="M74 461q0 109 30.5 198t88 151t138.5 97t181 35t181 -35t138.5 -97t88 -151.5t30.5 -197.5q0 -109 -30.5 -198t-88 -151.5t-138.5 -97t-181 -34.5t-181 34.5t-138.5 97t-88 151.5t-30.5 198zM188 461q0 -129 36 -208t87 -122t106.5 -58.5t94.5 -15.5t94.5 15.5 t106.5 58.5t87 122t36 208t-36 208t-87 122t-106.5 58t-94.5 15t-94.5 -15t-106.5 -58t-87 -122t-36 -208zM286 1135v139h127v-139h-127zM610 1135v139h127v-139h-127z" />
<glyph unicode="&#xf7;" horiz-adv-x="1228" d="M98 467v102h1032v-102h-1032zM500 94q0 47 33.5 81t80.5 34t81 -34t34 -81q0 -43 -33.5 -78.5t-79.5 -35.5q-47 0 -81.5 33.5t-34.5 80.5zM500 942q0 47 33.5 81t80.5 34t81 -34t34 -81q0 -43 -33.5 -79t-79.5 -36q-47 0 -81.5 34t-34.5 81z" />
<glyph unicode="&#xf8;" d="M66 -10l114 135q-51 61 -78.5 146t-27.5 190q0 109 30.5 198t88 151t138.5 97t181 35q168 0 279 -92l112 135l49 -43l-116 -137q55 -61 84.5 -149.5t29.5 -194.5q0 -109 -30.5 -198t-88 -151.5t-138.5 -97t-181 -34.5q-174 0 -287 100l-106 -127zM188 461 q0 -84 16.5 -145.5t45.5 -108.5l477 567q-53 55 -113.5 72.5t-101.5 17.5q-39 0 -94.5 -15t-106.5 -58t-87 -122t-36 -208zM291 156q53 -59 115.5 -79t105.5 -20q39 0 94.5 15.5t106.5 58.5t87 122t36 208q0 90 -18.5 153.5t-49.5 110.5z" />
<glyph unicode="&#xf9;" horiz-adv-x="1138" d="M33 844v78h256v-596q2 -135 59.5 -195.5t194.5 -60.5q66 0 114 24.5t80.5 64.5t50 93t21.5 113v479h-184v78h286v-844h164v-78h-266v154h-4q-45 -92 -118 -133t-173 -41q-86 0 -148.5 17t-102.5 57t-58.5 105.5t-18.5 159.5v525h-153zM346 1327h160l185 -274h-107z" />
<glyph unicode="&#xfa;" horiz-adv-x="1138" d="M33 844v78h256v-596q2 -135 59.5 -195.5t194.5 -60.5q66 0 114 24.5t80.5 64.5t50 93t21.5 113v479h-184v78h286v-844h164v-78h-266v154h-4q-45 -92 -118 -133t-173 -41q-86 0 -148.5 17t-102.5 57t-58.5 105.5t-18.5 159.5v525h-153zM449 1053l184 274h160l-238 -274 h-106z" />
<glyph unicode="&#xfb;" horiz-adv-x="1138" d="M33 844v78h256v-596q2 -135 59.5 -195.5t194.5 -60.5q66 0 114 24.5t80.5 64.5t50 93t21.5 113v479h-184v78h286v-844h164v-78h-266v154h-4q-45 -92 -118 -133t-173 -41q-86 0 -148.5 17t-102.5 57t-58.5 105.5t-18.5 159.5v525h-153zM297 1053l213 274h127l199 -274 h-119l-147 204l-154 -204h-119z" />
<glyph unicode="&#xfc;" horiz-adv-x="1138" d="M33 844v78h256v-596q2 -135 59.5 -195.5t194.5 -60.5q66 0 114 24.5t80.5 64.5t50 93t21.5 113v479h-184v78h286v-844h164v-78h-266v154h-4q-45 -92 -118 -133t-173 -41q-86 0 -148.5 17t-102.5 57t-58.5 105.5t-18.5 159.5v525h-153zM344 1135v139h127v-139h-127z M668 1135v139h127v-139h-127z" />
<glyph unicode="&#xfd;" d="M25 844v78h352v-78h-154l287 -723l295 723h-154v78h344v-78h-82l-360 -883q-23 -57 -45.5 -113.5t-54 -102.5t-75.5 -74.5t-108 -28.5q-35 0 -69.5 1t-69.5 5v82q37 -6 107 -6q45 0 78.5 22.5t58 61t44 87t38.5 101.5l-351 848h-81zM391 1053l184 274h160l-238 -274h-106 z" />
<glyph unicode="&#xfe;" horiz-adv-x="1138" d="M35 -260h174v1522h-174v77h276v-612h4q53 94 134 154.5t196 60.5q104 0 181 -37t127.5 -101.5t75 -152.5t24.5 -190q0 -86 -24.5 -172t-75 -154.5t-126 -111.5t-178.5 -43q-113 0 -195.5 53t-136.5 151h-6v-444h174v-78h-450v78zM311 453q0 -70 17.5 -140.5t55.5 -127 t96.5 -92.5t140.5 -36q84 0 144 35t99 92.5t56.5 130t17.5 146.5q0 76 -19.5 147.5t-59.5 129t-99.5 92t-138.5 34.5q-84 0 -142.5 -38t-95.5 -97t-54.5 -132.5t-17.5 -143.5z" />
<glyph unicode="&#xff;" d="M25 844v78h352v-78h-154l287 -723l295 723h-154v78h344v-78h-82l-360 -883q-23 -57 -45.5 -113.5t-54 -102.5t-75.5 -74.5t-108 -28.5q-35 0 -69.5 1t-69.5 5v82q37 -6 107 -6q45 0 78.5 22.5t58 61t44 87t38.5 101.5l-351 848h-81zM286 1135v139h127v-139h-127z M610 1135v139h127v-139h-127z" />
<glyph unicode="&#x152;" horiz-adv-x="1933" d="M92 666q0 150 42 276.5t124 219.5t202 145.5t275 52.5q80 0 160 -12.5t158 -8.5h737v-370h-102v280h-592v-528h303v184h102v-467h-102v193h-303v-541h606v281h102v-371h-762q-82 0 -161.5 -10t-159.5 -10q-160 0 -277.5 49t-195.5 139t-117 217t-39 281zM219 668 q0 -137 30 -248t94.5 -188.5t165.5 -119.5t247 -42q55 0 111.5 6t113.5 14v1159q-55 2 -110.5 11.5t-110.5 9.5q-141 0 -243.5 -42t-169 -120t-97.5 -189.5t-31 -250.5z" />
<glyph unicode="&#x153;" horiz-adv-x="1593" d="M66 461q0 109 30.5 198t86 151t132 97t168.5 35q135 -4 229.5 -75.5t116.5 -200.5h5q35 131 115.5 203.5t213.5 72.5q117 0 189.5 -43t111.5 -113.5t52.5 -159.5t13.5 -184h-639q2 -72 15.5 -141.5t44 -123.5t83.5 -87t137 -33q104 0 170 65.5t74 162.5h103 q-6 -74 -35 -131.5t-76 -95.5t-109.5 -58t-134.5 -20q-133 0 -216 69.5t-118 192.5h-4q-47 -133 -135 -197.5t-207 -64.5q-92 0 -168.5 34.5t-132 97t-86 151.5t-30.5 198zM180 461q0 -123 29 -201t74 -123t97 -62.5t99 -17.5q82 0 139.5 38t92 99.5t50 137.5t15.5 149 q0 74 -16.5 141.5t-51 121t-91 86t-138.5 34.5q-37 0 -89 -13t-98 -56t-79 -123t-33 -211zM891 520h524q0 59 -9 120.5t-34.5 111t-74 81t-126.5 31.5q-68 0 -120 -29.5t-87.5 -78.5t-54 -110.5t-18.5 -125.5z" />
<glyph unicode="&#x178;" horiz-adv-x="1251" d="M29 1249v90h401v-90h-184l375 -598l387 598h-185v90h400v-90h-93l-452 -702v-457h225v-90h-565v90h225v457l-442 702h-92zM401 1553v139h127v-139h-127zM725 1553v139h127v-139h-127z" />
<glyph unicode="&#x2c6;" horiz-adv-x="569" d="M12 1053l213 274h127l199 -274h-119l-147 204l-154 -204h-119z" />
<glyph unicode="&#x2dc;" horiz-adv-x="569" d="M-23 1108q2 35 13.5 68.5t33 59.5t51 41t68.5 15q33 0 70 -14t76 -31q37 -16 72.5 -30.5t64.5 -14.5q27 0 44 26.5t22 49.5h81q-10 -72 -52 -125t-120 -53q-23 0 -57.5 14t-71.5 31q-37 16 -73.5 30.5t-65.5 14.5q-31 0 -51.5 -26.5t-22.5 -55.5h-82z" />
<glyph unicode="&#x2000;" horiz-adv-x="905" />
<glyph unicode="&#x2001;" horiz-adv-x="1811" />
<glyph unicode="&#x2002;" horiz-adv-x="905" />
<glyph unicode="&#x2003;" horiz-adv-x="1811" />
<glyph unicode="&#x2004;" horiz-adv-x="603" />
<glyph unicode="&#x2005;" horiz-adv-x="452" />
<glyph unicode="&#x2006;" horiz-adv-x="301" />
<glyph unicode="&#x2007;" horiz-adv-x="301" />
<glyph unicode="&#x2008;" horiz-adv-x="226" />
<glyph unicode="&#x2009;" horiz-adv-x="362" />
<glyph unicode="&#x200a;" horiz-adv-x="100" />
<glyph unicode="&#x2010;" horiz-adv-x="681" d="M98 500v102h486v-102h-486z" />
<glyph unicode="&#x2011;" horiz-adv-x="681" d="M98 500v102h486v-102h-486z" />
<glyph unicode="&#x2012;" horiz-adv-x="681" d="M98 500v102h486v-102h-486z" />
<glyph unicode="&#x2013;" d="M0 512v78h1024v-78h-1024z" />
<glyph unicode="&#x2014;" horiz-adv-x="2048" d="M0 512v78h2048v-78h-2048z" />
<glyph unicode="&#x2018;" horiz-adv-x="569" d="M217 944v139l90 256h82l-96 -256h67v-139h-143z" />
<glyph unicode="&#x2019;" horiz-adv-x="569" d="M180 944l96 256h-67v139h143v-139l-90 -256h-82z" />
<glyph unicode="&#x201a;" horiz-adv-x="569" d="M180 -256l96 256h-67v139h143v-139l-90 -256h-82z" />
<glyph unicode="&#x201c;" horiz-adv-x="796" d="M164 944v139l90 256h82l-96 -256h67v-139h-143zM485 944v139l90 256h82l-96 -256h68v-139h-144z" />
<glyph unicode="&#x201d;" horiz-adv-x="796" d="M139 944l97 256h-68v139h143v-139l-90 -256h-82zM461 944l96 256h-68v139h144v-139l-90 -256h-82z" />
<glyph unicode="&#x201e;" horiz-adv-x="796" d="M139 -256l97 256h-68v139h143v-139l-90 -256h-82zM461 -256l96 256h-68v139h144v-139l-90 -256h-82z" />
<glyph unicode="&#x2022;" d="M176 670q0 70 26.5 130t73 106t106.5 73t130 27t130 -27t105.5 -73t72 -106.5t26.5 -129.5q0 -70 -26.5 -130.5t-72 -105.5t-105.5 -71.5t-130 -26.5t-130 26.5t-106.5 71.5t-73 105.5t-26.5 130.5z" />
<glyph unicode="&#x2026;" horiz-adv-x="2048" d="M270 0v139h144v-139h-144zM952 0v139h144v-139h-144zM1634 0v139h144v-139h-144z" />
<glyph unicode="&#x202f;" horiz-adv-x="362" />
<glyph unicode="&#x2039;" horiz-adv-x="569" d="M137 471l170 406h96l-172 -406l172 -405h-96z" />
<glyph unicode="&#x203a;" horiz-adv-x="569" d="M166 66l172 405l-172 406h96l170 -406l-170 -405h-96z" />
<glyph unicode="&#x205f;" horiz-adv-x="452" />
<glyph unicode="&#x2122;" horiz-adv-x="2027" d="M168 1249v90h655v-90h-276v-753h-103v753h-276zM975 496v843h174l272 -680l265 680h174v-843h-103v753h-4l-305 -753h-62l-305 753h-4v-753h-102z" />
<glyph unicode="&#x25fc;" horiz-adv-x="921" d="M0 0v922h922v-922h-922z" />
</font>
</defs>
</svg>
