<?xml version="1.0" standalone="no"?>
<!DOCTYPE svg PUBLIC "-//W3C//DTD SVG 1.1//EN" "http://www.w3.org/Graphics/SVG/1.1/DTD/svg11.dtd" >
<svg xmlns="http://www.w3.org/2000/svg">
<metadata>Generated by IcoMoon</metadata>
<defs>
<font id="cb_icons" horiz-adv-x="512">
<font-face units-per-em="512" ascent="480" descent="-32" />
<missing-glyph horiz-adv-x="512" />
<glyph unicode="&#x20;" d="" horiz-adv-x="256" />
<glyph unicode="&#xe600;" d="M176.007 453.334c82.343 0 149.334-66.983 149.334-149.334 0-33.661-21.932-73.133-43.152-111.317-13.354-24.021-27.152-48.865-35.786-72.921-7.599-21.2-13.137-40.204-18.041-56.971-17.14-58.709-22.086-68.137-52.356-68.137-29.875 0-34.885 9.604-52.546 69.397-4.883 16.534-10.421 35.257-17.858 56.056-8.619 24.091-22.438 48.823-35.813 72.767-21.2 37.959-43.131 77.192-43.131 111.12 0.007 82.357 66.998 149.34 149.347 149.34zM176.007 480c-97.203 0-176.007-78.79-176.007-175.993 0-64.5 59.026-132.834 80.499-192.887 32.050-89.555 28.503-143.12 95.508-143.12 67.996 0 63.43 53.347 95.507 142.755 21.551 60.166 80.486 129.252 80.486 193.245 0 97.21-78.797 176-175.993 176zM176 400.014c-52.94 0-96-43.067-96-96.007 0-4.425 3.582-8 8-8 4.425 0 8 3.575 8 8 0 44.109 35.898 80.007 80 80.007 4.425 0 8 3.575 8 8 0 4.404-3.567 8-8 8zM96.457 138.611h163.49v-21.108h-163.49v21.108zM248.463 94.904l1.518-13.99-131.364-14.257-1.519 13.99 131.364 14.257zM241.243 47.031l1.525-13.989-116.886-12.745-1.525 13.989 116.886 12.745z" horiz-adv-x="352" />
<glyph unicode="&#xe601;" d="M319.276 480h-319.276v-512h466.014v365.247l-146.738 146.753zM425.358 6.944h-384.711v434.12h256.582l24.986-25.026v-78.133h78.157l24.986-25.017v-305.943zM106.003 284.219h264.013v-36.94h-264.013v36.94zM106.003 371.478h168.016v-36.781h-168.016v36.781zM106.003 196.76h264.013v-38.699h-264.013v38.699zM106.003 109.517h264.013v-38.699h-264.013v38.699z" horiz-adv-x="466" />
<glyph unicode="&#xe602;" d="M93.011 102.868h45.705v-43.883h-45.705v43.884zM166.275 102.868h45.697v-43.883h-45.697v43.884zM239.538 102.868h45.712v-43.883h-45.713v43.884zM312.793 102.868h45.697v-43.883h-45.697v43.884zM93.011 180.192h45.705v-43.884h-45.705v43.884zM166.275 180.192h45.697v-43.884h-45.697v43.884zM239.538 180.192h45.712v-43.884h-45.713v43.884zM312.793 180.192h45.697v-43.884h-45.697v43.884zM93.011 257.509h45.705v-43.884h-45.705v43.884zM166.275 257.509h45.697v-43.884h-45.697v43.884zM239.538 257.509h45.712v-43.884h-45.713v43.884zM312.793 257.509h45.697v-43.884h-45.697v43.884zM416.12 315.121v-316.763h-385.761v316.763h385.761zM446.478 345.481h-446.478v-377.481h446.478v377.481zM355.675 424.975v-56.096c0-8.151-8.978-14.769-20.037-14.769s-20.037 6.618-20.037 14.769v56.096h-181.075v-56.096c0-8.151-8.986-14.769-20.037-14.769-11.066 0-20.037 6.618-20.037 14.769v56.096h-94.454v-121.595h446.478v121.595h-90.803zM114.49 464.82c11.050 0 20.037-6.633 20.037-14.792v-81.149c0-8.152-8.986-14.769-20.037-14.769-11.066 0-20.037 6.618-20.037 14.769v81.149c0 8.159 8.971 14.792 20.037 14.792zM114.49 480c-19.749 0-35.216-13.161-35.216-29.971v-81.149c0-16.796 15.468-29.949 35.216-29.949s35.216 13.153 35.216 29.949v81.149c0 16.811-15.468 29.971-35.216 29.971v0zM335.646 464.82c11.058 0 20.037-6.633 20.037-14.792v-81.149c0-8.152-8.978-14.769-20.037-14.769s-20.037 6.618-20.037 14.769v81.149c0 8.159 8.978 14.792 20.037 14.792zM335.646 480c-19.748 0-35.216-13.161-35.216-29.971v-81.149c0-16.796 15.468-29.949 35.216-29.949s35.216 13.153 35.216 29.949v81.149c-0.007 16.811-15.476 29.971-35.216 29.971v0z" horiz-adv-x="447" />
<glyph unicode="&#xe603;" d="M240.94 119.196h71.469v250.639h56.635l-92.379 110.166-92.369-110.166h56.644zM481.317 215.656v-177.665h-409.293v177.665h-72.023v-247.656h553.341v247.656z" horiz-adv-x="554" />
<glyph unicode="&#xe604;" d="M66.097 272h384v-96h-384v96z" horiz-adv-x="521" />
<glyph unicode="&#xe605;" d="M400.146 413.755v-296.064c-56.514 46.797-124.457 73.749-273.277 88.537-0.537 13.699-1.040 33.445-1.075 59.456 0.028 26.061 0.537 45.821 1.075 59.527 148.807 14.781 216.756 41.74 273.277 88.544zM428.435 480c-68.099-72.179-117.957-110.829-328.476-128.877 0 0-2.376-27.356-2.447-85.411 0.070-58.056 2.447-85.411 2.447-85.411 210.526-18.048 260.377-56.684 328.476-128.87 0 75.185 0 214.281 0 214.281s0 139.096 0 214.288v0zM184.698 136.707c16.28 14.965-8.578 20.736-60.234 26.669-24.936 2.864-71.84 10.17-71.84-3.875 0-18.855 26.358-35.835 29.979-74.449 3.628-38.6 8.451-88.084 13.281-102.575 4.823-14.477 62.745-14.477 71.189-14.477 8.452 0 13.621 35 11.641 44.647-1.98 9.661-22.496 29.774-23.706 54.711-1.202 24.93 2.411 43.034 7.242 55.106 4.25 10.63 13.090 7.61 22.447 14.243zM99.959 351.123c0-36.641 0-156.586 0-170.822-69.195 4.731-99.959 40.481-99.959 87.377 0 41.599 29.293 77.151 99.959 83.445z" horiz-adv-x="429" />
<glyph unicode="&#xe606;" d="M212.105-26.334v207.667h-206.166v86.835h206.166v206.166h87.791v-206.166h206.131v-86.835h-206.131v-207.667h-87.791z" />
<glyph unicode="&#xe607;" d="M130.993 4.27l20.706 113.214c-57.508 34.488-91.218 87.306-91.218 144.098 0 100.516 105.677 182.169 235.52 182.169 129.925 0 235.52-81.634 235.52-182.169 0-100.373-105.595-182.211-235.52-182.211-10.445 0-26.747 1.639-36.188 2.56l-128.819-77.66zM296 399.821c-105.677 0-191.693-61.993-191.693-138.24 0-44.626 30.556-86.794 81.613-112.825l11.96-6.329-0.451-18.063-5.98-32.399 58.429 35.164 7.352-0.921c7.229-0.86 28.262-2.765 38.769-2.765 105.595 0 191.57 61.952 191.57 138.117 0 76.268-85.975 138.261-191.57 138.261z" horiz-adv-x="585" />
<glyph unicode="&#xe608;" d="M256-11.673c-129.946 0-235.673 105.728-235.673 235.673s105.728 235.673 235.673 235.673 235.673-105.728 235.673-235.673-105.728-235.673-235.673-235.673zM256 408.474c-101.734 0-184.474-82.739-184.474-184.474s82.739-184.474 184.474-184.474 184.474 82.739 184.474 184.474-82.739 184.474-184.474 184.474zM273.51 105.19c-6.4 0-12.8 2.381-17.767 7.142-10.163 9.831-10.496 26.035-0.666 36.199l88.627 92.058c9.856 10.163 26.112 10.47 36.199 0.666 10.189-9.805 10.496-26.010 0.691-36.199l-88.653-92.058c-5.017-5.171-11.75-7.808-18.432-7.808zM362.137 197.248c-6.656 0-13.312 2.586-18.329 7.731l-88.627 90.906c-9.881 10.137-9.677 26.342 0.435 36.198s26.317 9.651 36.199-0.461l88.653-90.905c9.882-10.137 9.677-26.317-0.461-36.199-4.966-4.839-11.418-7.271-17.869-7.271zM362.163 197.248h-225.843c-14.131 0-25.6 11.443-25.6 25.6 0 14.131 11.469 25.6 25.6 25.6h225.843c14.157 0 25.6-11.469 25.6-25.6 0-14.157-11.443-25.6-25.6-25.6z" />
<glyph unicode="&#xe609;" d="M149.147 73.942l-44.626 44.638 11.949 11.945 44.626-44.638-11.949-11.945zM185.554 110.371l-11.933-11.933-31.743 31.743 11.933 11.933 31.743-31.743zM164.617 178.664l44.638-44.625-11.149-11.152-44.638 44.625 11.149 11.152zM344.918 269.714l-44.638 44.625 11.945 11.949 44.638-44.625-11.945-11.949zM349.596 337.875l31.743-31.743-11.933-11.933-31.743 31.743 11.933 11.933zM361.176 375.236l44.625-44.638-11.949-11.945-44.625 44.638 11.949 11.945zM353.505 449.28l-93.778-93.798 8.458-8.438 16.916-16.916 68.423 68.403 76.903-76.903-68.423-68.403 25.498-25.498 93.778 93.778-102.4 102.4zM56.094 151.87l-25.375-25.395 127.774-127.754 93.594 93.594-25.375 25.375-0.143 0.103-69.939-69.939-76.903 76.903 69.959 69.959-25.374 25.375zM372.429 212.634l-8.601 8.581-16.773 16.773-0.144 0.123-195.461 195.461c-9.687 9.708-22.978 14.848-38.4 14.848-20.173 0-43.376-9.093-59.146-23.204-13.558-12.144-22.364-32.625-22.938-53.473-0.491-17.634 4.915-33.055 15.258-43.377l291.861-291.901 143.155-37.663-36.045 141.005-72.766 72.827zM359.096 73.022l-222.188 222.188 47.698 47.698 223.949-223.949 16.159-63.181-65.618 17.244zM113.561 407.501c4.014 0 7.27-0.839 9.114-2.683l36.557-36.557-47.698-47.698-36.557 36.557c-1.659 1.68-3.543 6.226-3.338 13.497 0.246 9.584 4.117 19.558 9.4 24.269 8.478 7.598 22.712 12.615 32.522 12.615z" />
<glyph unicode="&#xe60a;" d="M375.358 389.438v37.704c0 12.226-9.892 22.139-22.159 22.139s-22.159-9.912-22.159-22.139v-37.704h-150.036v37.704c0 12.226-9.912 22.139-22.16 22.139s-22.18-9.912-22.18-22.139v-37.704h-93.757v-390.717h426.209v390.717h-93.757zM136.663 345.139v-29.471c0-12.226 9.912-22.159 22.18-22.159 12.247 0 22.16 9.912 22.16 22.159v29.471h150.036v-29.471c0-12.226 9.892-22.159 22.159-22.159s22.159 9.912 22.159 22.159v29.471h49.459v-91.832h-337.592v91.832h49.439zM87.225 42.957v177.111h337.592v-177.111h-337.592z" />
<glyph unicode="&#xe60b;" d="M256 449.28c-124.436 0-225.28-100.843-225.28-225.28 0-124.416 100.844-225.28 225.28-225.28 124.416 0 225.28 100.864 225.28 225.28 0 124.436-100.864 225.28-225.28 225.28zM291.901 84.122h-71.844v69.714h71.844v-69.714zM285.512 176.098h-59.003l-14.151 187.822h87.306l-14.151-187.822z" />
<glyph unicode="&#xe60c;" d="M37.76 377.839v-307.699h436.48v307.699h-436.48zM390.039 333.894l-134.059-94.479-135.289 94.479h269.348zM81.706 114.106v193.38l174.334-121.777 174.235 122.81v-194.393l-348.569-0.020z" />
<glyph unicode="&#xe60d;" d="M174.68 126.42v-32.501h162.64v32.501h-162.64zM174.68 180.639v-32.558h162.64v32.558h-162.64zM77.081 148.081h32.539v-86.759c0-26.293 5.939-32.501 32.501-32.501h227.7c26.62 0 32.52 4.882 32.52 32.501v86.759h32.539c27.638-0.404 32.501 5.747 32.501 32.558v119.221c0 25.486-4.113 32.539-32.501 32.539h-32.539v54.2c0 26.793-4.863 32.577-32.52 32.577h-227.68c-26.005 0-32.501-6.246-32.501-32.577v-54.2h-32.559c-27.984 0.019-32.501-6.092-32.501-32.539v-119.26c0-26.331 6.458-32.943 32.501-32.52zM369.859 61.36h-227.719v140.979h227.719v-140.979zM390.175 261.94c0 9.726 7.842 17.548 17.606 17.548 9.745 0 17.548-7.822 17.548-17.548 0-9.783-7.803-17.606-17.548-17.606s-17.606 7.822-17.606 17.606zM142.141 386.64h227.719v-54.219h-227.719v54.219z" />
<glyph unicode="&#xe60e;" d="M481.28 188.795l-225.28 225.28-225.28-225.28v-14.090h56.32v-140.8h126.71v98.55h84.459v-98.55h126.73v140.8h56.341v14.090z" />
<glyph unicode="&#xe60f;" d="M256 471.792c-94.094 0-170.346-76.275-170.346-170.346 0-62.444 44.827-134.281 77.897-186.722 49.131-77.897 92.45-138.516 92.45-138.516s45.211 59.245 92.45 138.155c33.903 56.587 77.897 125.157 77.897 187.083 0 94.071-76.253 170.346-170.346 170.346zM256 184.894c-63.952 0-115.809 51.856-115.809 115.764 0 63.998 51.857 115.809 115.809 115.809s115.809-51.811 115.809-115.809c0-63.908-51.856-115.764-115.809-115.764z" />
<glyph unicode="&#xe610;" d="M456.68 84.615c-23.237-55.635-77.661-65.409-95.443-65.409-5.214 0-86.505-4.301-203.454 106.596-94.084 89.243-105.572 185.207-106.558 203.417-0.986 17.744 4.115 62.337 65.391 95.443 7.634 4.059 22.641 5.902 26.552 2.011 1.713-1.731 53.14-86.394 54.536-89.186 1.322-2.774 2.011-5.53 2.011-8.267 0-3.873-2.719-8.695-8.249-14.467-5.548-5.827-11.507-11.153-18.024-15.957-6.461-4.86-12.438-9.962-17.949-15.399-5.53-5.381-8.249-9.831-8.249-13.332 0.372-9.031 7.764-41.373 64.107-90.882 56.38-49.528 83.526-63.474 86.115-64.46 2.644-0.986 4.822-1.471 6.554-1.471 3.482 0 7.95 2.755 13.332 8.285 5.437 5.493 23.646 30.443 29.419 35.973 5.81 5.493 10.651 8.248 14.486 8.248 2.719 0 5.474-0.671 8.285-2.048 2.793-1.322 87.548-50.942 89.186-52.599 4.376-4.487 1.248-18.582-2.048-26.495z" />
<glyph unicode="&#xe611;" d="M279.267 103.253l194.617 194.759c12.914 12.942 12.829 33.821-0.086 46.763-12.885 12.914-33.565 12.914-46.45 0l-171.122-171.35-171.378 171.378c-12.886 12.886-33.792 12.886-46.706 0-12.914-12.942-12.942-33.849-0.029-46.791l194.816-194.788c6.486-6.457 15.986-9.7 23.296-9.7s16.583 3.271 23.040 9.728z" />
<glyph unicode="&#xe612;" d="M135.254 200.704l194.787-194.617c12.942-12.914 33.82-12.829 46.762 0.086 12.914 12.885 12.914 33.565 0 46.45l-171.378 171.15 171.378 171.35c12.885 12.885 12.885 33.792 0 46.734-12.942 12.914-33.82 12.942-46.791 0.029l-194.787-194.816c-6.457-6.486-9.7-15.958-9.7-23.296s3.271-16.611 9.728-23.068z" />
<glyph unicode="&#xe613;" d="M388.494 249.486l-194.787 194.617c-12.942 12.914-33.849 12.829-46.763-0.085s-12.914-33.565 0-46.45l171.378-171.15-171.378-171.349c-12.914-12.885-12.914-33.792 0-46.734s33.821-12.942 46.762-0.029l194.816 194.816c6.457 6.457 9.7 15.957 9.7 23.296s-3.271 16.583-9.728 23.069z" />
<glyph unicode="&#xe614;" d="M232.732 344.746l-194.617-194.787c-12.914-12.942-12.828-33.82 0.086-46.762 12.886-12.914 33.565-12.914 46.45 0l171.122 171.35 171.378-171.378c12.885-12.885 33.792-12.885 46.706 0 12.914 12.942 12.942 33.82 0.029 46.791l-194.816 194.816c-6.486 6.457-15.957 9.7-23.296 9.7s-16.583-3.271-23.040-9.728z" />
<glyph unicode="&#xe615;" d="M256 459.52c-130.089 0-235.52-32.952-235.52-73.605v-44.155l176.64-176.64v-147.21c0-16.24 26.378-29.43 58.88-29.43s58.88 13.189 58.88 29.45v147.21l176.64 176.62v44.155c0 40.653-105.431 73.605-235.52 73.605zM63.938 395.663c10.977 6.288 26.46 12.247 44.729 17.244 40.469 11.079 92.734 17.162 147.333 17.162 54.579 0 106.865-6.103 147.353-17.162 18.248-5.018 33.731-10.998 44.79-17.244 7.25-4.137 11.12-7.639 12.964-9.749-1.843-2.109-5.714-5.591-12.964-9.769-11.038-6.267-26.542-12.247-44.79-17.223-40.489-11.080-92.774-17.162-147.353-17.162-54.6 0-106.865 6.082-147.353 17.162-18.248 5.017-33.731 10.977-44.77 17.244-7.25 4.157-11.141 7.659-12.985 9.748 1.843 2.11 5.734 5.612 13.046 9.749z" />
<glyph unicode="&#xe616;" d="M200.11 336.702c-7.454 0-14.111 3.298-18.739 8.438l-0.061-0.062-31.805 35.308v-378.716c0-14.009-11.326-25.272-25.293-25.272-13.947 0-25.273 11.284-25.273 25.272v378.716l-31.805-35.308-0.061 0.062c-4.629-5.141-11.264-8.438-18.739-8.438-13.968 0-25.293 11.325-25.293 25.293 0 6.492 2.519 12.37 6.553 16.855l-0.041 0.062 75.879 84.296 0.041-0.041c4.649 5.12 11.284 8.438 18.739 8.438 7.475 0 14.11-3.318 18.739-8.458l0.061 0.062 75.899-84.296-0.061-0.061c4.035-4.485 6.574-10.343 6.574-16.855-0.020-13.947-11.346-25.293-25.314-25.293zM482.427 69.11l0.062-0.041-75.879-84.296-0.062 0.041c-4.67-5.12-11.284-8.397-18.739-8.397s-14.090 3.277-18.719 8.397l-0.062-0.041-75.899 84.296 0.082 0.041c-4.034 4.505-6.553 10.363-6.553 16.875 0 13.988 11.305 25.272 25.272 25.272 7.454 0 14.090-3.257 18.719-8.418l0.062 0.062 31.826-35.308v378.695c0 14.009 11.325 25.313 25.272 25.313 13.988 0 25.293-11.305 25.293-25.313v-378.675l31.785 35.308 0.062-0.062c4.67 5.161 11.284 8.418 18.739 8.418 13.967 0 25.272-11.305 25.272-25.272 0-6.553-2.519-12.411-6.533-16.896z" />
<glyph unicode="&#xe617;" d="M434.75 366.725l-65.27 65.229c-14.172 14.213-42.23 25.825-62.361 25.825h-219.136c-20.091 0-36.536-16.425-36.536-36.516v-394.486c0-20.111 16.425-36.557 36.536-36.557h336.057c20.050 0 36.516 16.445 36.516 36.557v277.606c0 20.071-11.632 48.128-25.805 62.341zM343.654 415.529c2.007-1.392 3.789-2.826 5.202-4.24l65.209-65.229c1.454-1.413 2.806-3.175 4.26-5.161h-74.67v74.629zM431.329 26.777c0-3.952-3.358-7.291-7.271-7.291h-336.077c-3.953 0-7.291 3.338-7.291 7.291v394.486c0 3.952 3.359 7.312 7.291 7.312h219.136c2.192 0 4.711-0.286 7.332-0.799v-116.101h116.121c0.491-2.642 0.738-5.12 0.738-7.291v-277.606zM288.645 263.404h-65.29v-86.999h-54.375l87.040-86.999 86.978 86.999h-54.354v86.999z" />
<glyph unicode="&#xe618;" d="M406.18 314.112v0h-390.451v60.068h390.451v-60.068zM496.272 314.112v0h-60.048v60.068h60.048v-60.068zM406.18 193.956v0h-390.451v60.089h390.451v-60.089zM496.272 193.956v0h-60.048v60.089h60.048v-60.089zM406.18 73.82v0h-390.451v60.089h390.451v-60.089zM496.272 73.82v0h-60.048v60.089h60.048v-60.089z" />
<glyph unicode="&#xe619;" d="M285.88 122.542l0.594 0.594 32.42 29h-269.005c-7.66 0-11.837 6.471-11.837 14.479v232.12c0 8.028 4.178 14.561 11.837 14.561h333.701c7.618 0 15.933-6.553 15.933-14.561v-109.343c0 0.266 0.226 0.492 0.389 0.738 7.639 2.683 15.606 4.485 23.962 5.14 1.147 0.062 2.294 0.144 3.461 0.205v103.26c0 24.064-20.726 43.602-43.745 43.602h-333.701c-23.020 0-39.65-19.538-39.65-43.602v-232.1c0-24.043 16.548-43.479 39.486-43.479h127.344v-17.715l-87.818-11.735c-6.185-1.639-11.018-7.414-11.018-14.111 0-8.007 5.673-14.438 13.353-14.438h136.11c2.56 5.755 6.718 10.937 11.407 15.114l27.566 24.207 19.21 18.063zM498.77 214.682l-40.653-42.476c-6.062-6.329-16.036-6.329-22.118 0l-24.801 25.948c-6.123 6.349-6.123 16.712 0 23.060l40.612 42.435c-6.451 2.048-13.312 3.154-20.439 3.154-38.851 0-70.349-32.891-70.349-73.462 0-12.432 2.969-24.187 8.212-34.468l-112.579-100.638c-6.553-5.837-6.861-15.81-0.819-22.139l24.802-25.907c6.082-6.37 15.667-5.98 21.218 0.88l96.481 117.392c9.851-5.488 21.074-8.601 32.993-8.601 38.892 0 70.41 32.911 70.41 73.462 0.021 7.454-1.024 14.623-2.969 21.361z" />
<glyph unicode="&#xe61a;" d="M287.935-32h-95.935v256h-64v88.225l64 0.029-0.104 51.976c0 71.976 19.517 115.77 104.299 115.77h70.588v-88.242h-44.115c-33.016 0-34.603-12.328-34.603-35.342l-0.131-44.162h79.345l-9.352-88.225-69.927-0.029-0.065-256z" />
<glyph unicode="&#xe61b;" d="M512 382.791c-18.838-8.354-39.082-14.001-60.33-16.54 21.686 13 38.343 33.585 46.186 58.115-20.298-12.039-42.778-20.78-66.705-25.49-19.16 20.415-46.461 33.17-76.673 33.17-58.011 0-105.044-47.029-105.044-105.039 0-8.233 0.929-16.25 2.72-23.939-87.3 4.382-164.701 46.2-216.509 109.753-9.042-15.514-14.223-33.558-14.223-52.809 0-36.444 18.544-68.596 46.73-87.433-17.219 0.546-33.416 5.271-47.577 13.139-0.010-0.438-0.010-0.878-0.010-1.321 0-50.894 36.209-93.348 84.261-103-8.813-2.4-18.094-3.686-27.674-3.686-6.769 0-13.349 0.66-19.764 1.886 13.368-41.73 52.16-72.103 98.126-72.948-35.95-28.175-81.243-44.967-130.458-44.967-8.479 0-16.84 0.497-25.058 1.47 46.486-29.805 101.701-47.197 161.021-47.197 193.211 0 298.868 160.062 298.868 298.872 0 4.554-0.103 9.084-0.305 13.59 20.528 14.81 38.336 33.31 52.418 54.374z" />
<glyph unicode="&#xe61c;" d="M416 416h-320c-52.8 0-96-43.2-96-96v-192c0-52.8 43.2-96 96-96h320c52.8 0 96 43.2 96 96v192c0 52.8-43.2 96-96 96zM192 96v256l160-128-160-128z" />
<glyph unicode="&#xe61d;" d="M426 480h-340c-47.3 0-86-38.7-86-86v-340c0-47.3 38.7-86 86-86h340c47.3 0 86 38.7 86 86v340c0 47.3-38.7 86-86 86zM192 64h-64v224h64v-224zM160 320c-17.673 0-32 14.327-32 32s14.327 32 32 32 32-14.327 32-32-14.327-32-32-32zM416 64h-64v128c0 17.673-14.327 32-32 32s-32-14.327-32-32v-128h-64v224h64v-39.736c13.199 18.132 33.376 39.736 56 39.736 39.765 0 72-35.817 72-80v-144z" />
</font>
</defs>
</svg>
