<svg id="type" xmlns="http://www.w3.org/2000/svg" viewBox="0 0 83 44"><defs><style>.cls-1{opacity:0;}.cls-2{fill:#5f259f;}.cls-3{fill:#fff;}</style></defs><title>Programs</title><g id="color_blocks" data-name="color blocks" class="cls-1"><rect class="cls-2" x="19.5" y="-19.5" width="44" height="83" transform="translate(19.5 63.5) rotate(-90)"/></g><path class="cls-3" d="M25.41,28.66q-0.45.24-1.06,0.5a12.24,12.24,0,0,1-1.34.48,13.73,13.73,0,0,1-1.57.36,10.32,10.32,0,0,1-1.72.14,8.58,8.58,0,0,1-3.32-.6A6.43,6.43,0,0,1,14,27.84a7.23,7.23,0,0,1-1.45-2.61,10.94,10.94,0,0,1-.49-3.36,10.82,10.82,0,0,1,.49-3.31,8,8,0,0,1,1.4-2.64A6.37,6.37,0,0,1,19,13.55a4.81,4.81,0,0,1,2.22.45,4.72,4.72,0,0,1,1.31.93V14.11a2.25,2.25,0,0,1,.71-0.25,4.08,4.08,0,0,1,1.56,0,2.26,2.26,0,0,1,.71.25v6.37a2.51,2.51,0,0,1-.77.25,4.35,4.35,0,0,1-1.63,0,2.51,2.51,0,0,1-.77-0.25v-1.3a2.7,2.7,0,0,0-.68-2,2.76,2.76,0,0,0-2.07-.7,2.91,2.91,0,0,0-1.58.42,3.47,3.47,0,0,0-1.12,1.15,5.77,5.77,0,0,0-.67,1.68,8.61,8.61,0,0,0-.23,2,7.12,7.12,0,0,0,.36,2.42,4.67,4.67,0,0,0,.94,1.61,3.48,3.48,0,0,0,1.33.91,4.35,4.35,0,0,0,1.55.28,6.74,6.74,0,0,0,2.84-.58A12.51,12.51,0,0,0,25.41,25v3.64Z"/><path class="cls-3" d="M29.48,27.07V16.6H28.14A4.76,4.76,0,0,1,28,15.92a4,4,0,0,1-.05-0.64A4.24,4.24,0,0,1,28,14.63a4.72,4.72,0,0,1,.16-0.69h6.68a4.88,4.88,0,0,1,.16.69,4.24,4.24,0,0,1,.05.65,4,4,0,0,1-.05.64,4.92,4.92,0,0,1-.16.68h-1.6V27h3.71v-3.1a2.55,2.55,0,0,1,.76-0.25,4.74,4.74,0,0,1,.8-0.08,4.56,4.56,0,0,1,.79.08,2.56,2.56,0,0,1,.75.25v5.83H28.14A4.66,4.66,0,0,1,28,29a4.23,4.23,0,0,1-.05-0.65A4,4,0,0,1,28,27.76a4.76,4.76,0,0,1,.16-0.68h1.34Z"/><path class="cls-3" d="M43.37,27.07V16.6H42a4.92,4.92,0,0,1-.16-0.68,4,4,0,0,1-.05-0.64,4.23,4.23,0,0,1,.05-0.65A4.88,4.88,0,0,1,42,13.94H54.53v4.38a2.52,2.52,0,0,1-.75.25,4.56,4.56,0,0,1-.79.08,4.74,4.74,0,0,1-.8-0.08,2.52,2.52,0,0,1-.76-0.25V16.76H47.1v3.49h5.68a5.44,5.44,0,0,1,.16.76,5.11,5.11,0,0,1,.05.69,4.8,4.8,0,0,1-.05.69,5.59,5.59,0,0,1-.16.74H47.1v3.79h4.47v-1.8a2.55,2.55,0,0,1,.76-0.25,4.75,4.75,0,0,1,.8-0.08,4.56,4.56,0,0,1,.79.08,2.55,2.55,0,0,1,.75.25v4.62H42A4.8,4.8,0,0,1,41.86,29a4.22,4.22,0,0,1-.05-0.65,4,4,0,0,1,.05-0.64A4.92,4.92,0,0,1,42,27.07h1.34Z"/><path class="cls-3" d="M58.35,27.07V16.6H57a4.76,4.76,0,0,1-.16-0.68,4,4,0,0,1-.05-0.64,4.24,4.24,0,0,1,.05-0.65A4.72,4.72,0,0,1,57,13.94h7.82a6,6,0,0,1,2.18.37,4.55,4.55,0,0,1,1.58,1,4.21,4.21,0,0,1,1,1.5,5.17,5.17,0,0,1,.32,1.85,6.18,6.18,0,0,1-.25,1.71,4.14,4.14,0,0,1-.85,1.56,4.51,4.51,0,0,1-1.56,1.14,5.71,5.71,0,0,1-2.4.44H62v3.55h1.65a5.09,5.09,0,0,1,.16.68,4,4,0,0,1,.05.64,4.22,4.22,0,0,1-.05.65,5,5,0,0,1-.16.69H57A4.66,4.66,0,0,1,56.84,29a4.23,4.23,0,0,1-.05-0.65,4,4,0,0,1,.05-0.64A4.76,4.76,0,0,1,57,27.07h1.34ZM64,20.81a1.87,1.87,0,0,0,2.08-2.13,2,2,0,0,0-.53-1.49,2,2,0,0,0-1.48-.52H62v4.14h2Z"/><path class="cls-3" d="M71.25,15.48a1.5,1.5,0,0,1,.13-0.62,1.54,1.54,0,0,1,.34-0.49,1.55,1.55,0,0,1,.5-0.32,1.6,1.6,0,0,1,.6-0.11,1.58,1.58,0,0,1,1.1.44,1.54,1.54,0,0,1,.34.49,1.5,1.5,0,0,1,.13.62,1.54,1.54,0,0,1-.47,1.11,1.63,1.63,0,0,1-.5.32,1.56,1.56,0,0,1-.6.12,1.58,1.58,0,0,1-.6-0.12,1.6,1.6,0,0,1-.5-0.32A1.53,1.53,0,0,1,71.25,15.48Zm1.57,1.21a1.13,1.13,0,0,0,.45-0.09,1.15,1.15,0,0,0,.37-0.25A1.13,1.13,0,0,0,73.89,16,1.29,1.29,0,0,0,74,15.48,1.25,1.25,0,0,0,73.89,15a1.15,1.15,0,0,0-1.07-.72,1.18,1.18,0,0,0-.46.09,1.13,1.13,0,0,0-.37.25,1.15,1.15,0,0,0-.25.38,1.25,1.25,0,0,0-.09.47,1.29,1.29,0,0,0,.09.48,1.13,1.13,0,0,0,.62.63A1.16,1.16,0,0,0,72.82,16.68Zm-0.55-.57V14.84H72.14l0-.08a0.31,0.31,0,0,1,0-.06,0.26,0.26,0,0,1,0,0l0-.08h0.79a0.65,0.65,0,0,1,.23,0,0.54,0.54,0,0,1,.18.11,0.5,0.5,0,0,1,.11.17,0.54,0.54,0,0,1,0,.21,0.7,0.7,0,0,1-.06.27,0.46,0.46,0,0,1-.24.23l0.23,0.51h0.13a0.38,0.38,0,0,1,0,.09s0,0,0,.06a0.37,0.37,0,0,1,0,0,0.35,0.35,0,0,1,0,.08H73.17l-0.32-.73H72.59v0.47h0.15l0,0.09a0.45,0.45,0,0,1,0,.06,0.4,0.4,0,0,1,0,0,0.36,0.36,0,0,1,0,.08h-0.6l0-.08a0.26,0.26,0,0,1,0,0,0.3,0.3,0,0,1,0-.06l0-.09h0.13Zm0.6-.75a0.26,0.26,0,0,0,.2-0.07,0.26,0.26,0,0,0,.07-0.19,0.23,0.23,0,0,0-.25-0.24H72.59v0.5h0.28Z"/></svg>