<svg id="type" xmlns="http://www.w3.org/2000/svg" viewBox="0 0 54 44"><defs><style>.cls-1{opacity:0;}.cls-2{fill:#009cde;}.cls-3{fill:#fff;}</style></defs><title>Programs</title><g id="color_blocks" data-name="color blocks" class="cls-1"><rect class="cls-2" x="5" y="-5" width="44" height="54" transform="translate(5 49) rotate(-90)"/></g><path class="cls-3" d="M12.05,27.23L16.5,13.9h4.42l4.27,13.33H26.4a4.84,4.84,0,0,1,.16.68,4,4,0,0,1,.05.64,4.23,4.23,0,0,1-.05.65,4.73,4.73,0,0,1-.16.69H20.1a3.56,3.56,0,0,1-.16-0.64,3.85,3.85,0,0,1-.05-0.62,3.86,3.86,0,0,1,.22-1.24h1.3l-0.58-2H16.17l-0.63,2h1.32a3.84,3.84,0,0,1,.22,1.24,3.91,3.91,0,0,1-.05.62,3.66,3.66,0,0,1-.16.64H10.73a4.73,4.73,0,0,1-.16-0.69,4.16,4.16,0,0,1-.05-0.65,4,4,0,0,1,.05-0.64,4.84,4.84,0,0,1,.16-0.68h1.32Zm8.13-4.29-1.6-5.81-1.71,5.81h3.32Z"/><path class="cls-3" d="M29.69,27.23V16.76H28.35a4.84,4.84,0,0,1-.16-0.68,4,4,0,0,1-.05-0.64,4.24,4.24,0,0,1,.05-0.65,4.8,4.8,0,0,1,.16-0.69h7.82a6,6,0,0,1,2.18.37,4.55,4.55,0,0,1,1.58,1,4.21,4.21,0,0,1,1,1.5,5.19,5.19,0,0,1,.32,1.85A6.18,6.18,0,0,1,41,20.53a4.13,4.13,0,0,1-.85,1.56,4.51,4.51,0,0,1-1.56,1.14,5.71,5.71,0,0,1-2.4.44H33.34v3.55H35a5,5,0,0,1,.16.68,4,4,0,0,1,.05.64,4.23,4.23,0,0,1-.05.65,4.88,4.88,0,0,1-.16.69H28.35a4.73,4.73,0,0,1-.16-0.69,4.23,4.23,0,0,1-.05-0.65,4,4,0,0,1,.05-0.64,4.84,4.84,0,0,1,.16-0.68h1.34ZM35.37,21a1.87,1.87,0,0,0,2.08-2.13,2,2,0,0,0-.53-1.49,2,2,0,0,0-1.48-.52h-2.1V21h2Z"/><path class="cls-3" d="M42,15.48a1.5,1.5,0,0,1,.13-0.62,1.54,1.54,0,0,1,.34-0.49,1.56,1.56,0,0,1,.5-0.32,1.6,1.6,0,0,1,.6-0.11,1.58,1.58,0,0,1,1.1.44,1.54,1.54,0,0,1,.34.49,1.5,1.5,0,0,1,.13.62,1.54,1.54,0,0,1-.47,1.11,1.62,1.62,0,0,1-.5.32,1.56,1.56,0,0,1-.6.12,1.58,1.58,0,0,1-.6-0.12,1.61,1.61,0,0,1-.5-0.32A1.53,1.53,0,0,1,42,15.48Zm1.57,1.21A1.14,1.14,0,0,0,44.62,16a1.29,1.29,0,0,0,.09-0.48A1.25,1.25,0,0,0,44.62,15a1.15,1.15,0,0,0-.25-0.38A1.14,1.14,0,0,0,44,14.37a1.15,1.15,0,0,0-.45-0.09,1.17,1.17,0,0,0-.46.09,1.14,1.14,0,0,0-.37.25,1.15,1.15,0,0,0-.25.38,1.25,1.25,0,0,0-.09.47,1.29,1.29,0,0,0,.09.48,1.13,1.13,0,0,0,.62.63A1.15,1.15,0,0,0,43.55,16.68ZM43,16.11V14.84H42.87l0-.08a0.37,0.37,0,0,1,0-.06,0.32,0.32,0,0,1,0,0l0-.08h0.79a0.65,0.65,0,0,1,.23,0,0.53,0.53,0,0,1,.18.11,0.51,0.51,0,0,1,.12.17,0.54,0.54,0,0,1,0,.21,0.7,0.7,0,0,1-.06.27,0.46,0.46,0,0,1-.24.23l0.23,0.51h0.13a0.35,0.35,0,0,1,0,.09s0,0,0,.06a0.36,0.36,0,0,1,0,0l0,0.08H43.9l-0.32-.73H43.32v0.47h0.15l0,0.09a0.36,0.36,0,0,1,0,.06,0.32,0.32,0,0,1,0,0,0.39,0.39,0,0,1,0,.08h-0.6l0-.08a0.32,0.32,0,0,1,0,0,0.36,0.36,0,0,1,0-.06l0-.09H43Zm0.6-.75a0.26,0.26,0,0,0,.2-0.07,0.26,0.26,0,0,0,.07-0.19,0.23,0.23,0,0,0-.25-0.24H43.32v0.5H43.6Z"/></svg>