<svg id="type" xmlns="http://www.w3.org/2000/svg" viewBox="0 0 182 44"><defs><style>.cls-1{opacity:0;}.cls-2{fill:#009cde;}.cls-3{fill:#fff;}</style></defs><title>Programs</title><g id="color_blocks" data-name="color blocks" class="cls-1"><rect class="cls-2" x="69" y="-69" width="44" height="182" transform="translate(69 113) rotate(-90)"/></g><path class="cls-3" d="M19.28,21a1.87,1.87,0,0,0,2.08-2.12,2,2,0,0,0-.53-1.49,2,2,0,0,0-1.48-.52h-2.1V21h2ZM13.6,27.23V16.76H12.26a4.77,4.77,0,0,1-.16-0.68A4,4,0,0,1,12,15.44a4.22,4.22,0,0,1,.05-0.65,4.74,4.74,0,0,1,.16-0.69h7.82a6,6,0,0,1,2.18.37,4.56,4.56,0,0,1,1.58,1,4.22,4.22,0,0,1,1,1.5,5.18,5.18,0,0,1,.32,1.85,6.19,6.19,0,0,1-.25,1.71A4.15,4.15,0,0,1,24,22.09a4.5,4.5,0,0,1-1.56,1.14,5.68,5.68,0,0,1-2.39.45H17.24v3.55h1.65a5.06,5.06,0,0,1,.16.68,4,4,0,0,1,.05.64,4.2,4.2,0,0,1-.05.65,4.91,4.91,0,0,1-.16.69H12.26a4.65,4.65,0,0,1-.16-0.69A4.2,4.2,0,0,1,12,28.55a4,4,0,0,1,.05-0.64,4.77,4.77,0,0,1,.16-0.68H13.6Z"/><path class="cls-3" d="M26.84,24.22A2.23,2.23,0,0,1,27.55,24a4.31,4.31,0,0,1,.78-0.08,4.16,4.16,0,0,1,.77.08,2.23,2.23,0,0,1,.7.25v0.89a1.57,1.57,0,0,0,.23.77,2.42,2.42,0,0,0,.68.74,3.84,3.84,0,0,0,1.13.55,5.1,5.1,0,0,0,1.56.22,3.29,3.29,0,0,0,2-.47A1.45,1.45,0,0,0,36,25.69q0-1.34-2.08-2l-2.84-.82a8.77,8.77,0,0,1-1.5-.56,4.83,4.83,0,0,1-1.26-.87,3.93,3.93,0,0,1-.87-1.25,4.24,4.24,0,0,1-.33-1.74,4.41,4.41,0,0,1,.49-2.14,4.7,4.7,0,0,1,1.26-1.5A5.21,5.21,0,0,1,30.57,14a6.42,6.42,0,0,1,1.85-.28,5.56,5.56,0,0,1,2.27.4,3.43,3.43,0,0,1,1.38,1V14.27A2.28,2.28,0,0,1,36.76,14a3.86,3.86,0,0,1,.74-0.08,4.06,4.06,0,0,1,.75.08,2.29,2.29,0,0,1,.7.25v5a2.26,2.26,0,0,1-.7.25,4.16,4.16,0,0,1-.77.08,4.31,4.31,0,0,1-.78-0.08A2.27,2.27,0,0,1,36,19.32V18.8A2,2,0,0,0,35.8,18a2.07,2.07,0,0,0-.55-0.71,2.82,2.82,0,0,0-1-.51,4.33,4.33,0,0,0-1.37-.19,2.92,2.92,0,0,0-1.18.22,2,2,0,0,0-.77.56,1.32,1.32,0,0,0-.3.87A1.38,1.38,0,0,0,31,19a2.15,2.15,0,0,0,1.18.63l2.69,0.76a15.29,15.29,0,0,1,1.88.66,5.91,5.91,0,0,1,1.54,1,4.12,4.12,0,0,1,1,1.4,4.81,4.81,0,0,1,.38,2,4.43,4.43,0,0,1-.51,2.19,4.48,4.48,0,0,1-1.34,1.5,5.75,5.75,0,0,1-1.88.86,8.19,8.19,0,0,1-2.08.27,7,7,0,0,1-2.46-.42,3.61,3.61,0,0,1-1.7-1.18v1a2.25,2.25,0,0,1-.7.25,4.12,4.12,0,0,1-.75.08,3.8,3.8,0,0,1-.73-0.08,2.26,2.26,0,0,1-.68-0.25V24.22Z"/><path class="cls-3" d="M50.66,22.94l-1.6-5.81-1.71,5.81h3.32Zm-8.13,4.29L47,13.9H51.4l4.27,13.33h1.21a4.78,4.78,0,0,1,.16.68,4,4,0,0,1,.05.64,4.21,4.21,0,0,1-.05.65,4.65,4.65,0,0,1-.16.69H50.58a3.59,3.59,0,0,1-.16-0.64,3.78,3.78,0,0,1-.05-0.62A3.61,3.61,0,0,1,50.41,28a3.67,3.67,0,0,1,.16-0.63h1.3l-0.58-2H46.65L46,27.4h1.32a3.68,3.68,0,0,1,.16.63,3.71,3.71,0,0,1,.05.61,3.88,3.88,0,0,1-.05.62,3.59,3.59,0,0,1-.16.64H41.21A4.64,4.64,0,0,1,41,29.2,4.09,4.09,0,0,1,41,28.55,3.93,3.93,0,0,1,41,27.91a4.77,4.77,0,0,1,.16-0.68h1.32Z"/><path class="cls-3" d="M62,27.23V16.82H59.67v2.54a2.3,2.3,0,0,1-.73.25,4.4,4.4,0,0,1-.77.08,4.05,4.05,0,0,1-.75-0.08,2.26,2.26,0,0,1-.7-0.25V14.09H71v5.27a2.3,2.3,0,0,1-.73.25,4.41,4.41,0,0,1-.77.08,4.05,4.05,0,0,1-.75-0.08,2.28,2.28,0,0,1-.7-0.25V16.82H65.7v10.4h1.43a5.08,5.08,0,0,1,.16.68,4.17,4.17,0,0,1,.05.64,4.34,4.34,0,0,1-.05.65,4.92,4.92,0,0,1-.16.69H60.6a4.77,4.77,0,0,1-.16-0.69,4.2,4.2,0,0,1-.05-0.65,4,4,0,0,1,.05-0.64,4.91,4.91,0,0,1,.16-0.68H62Z"/><path class="cls-3" d="M84.72,17.9v7.4c0,1.82,0,3.69,2.3,3.78v0.86l-2.9-.1-2.73.1V29.08c2-.19,2.13-1.17,2.13-2.87V16.58c-0.77-1.08-1.08-1.51-2.39-1.63V14.09l2.28,0.1,2.71-.1L95.56,25V18.62c0-1.82,0-3.57-2.27-3.66V14.09L96,14.19l2.87-.1V15a2.2,2.2,0,0,0-1.77.86,8.05,8.05,0,0,0-.36,2.95V30.28H95.59Z"/><path class="cls-3" d="M103.58,17.8h0v7.35a8.15,8.15,0,0,0,.36,3,2.23,2.23,0,0,0,1.92,1v0.86l-3-.1-2.71.1V29.08c0.91-.14,1.82-0.24,2.06-1.24a11,11,0,0,0,.17-2.3V16A2.47,2.47,0,0,0,100.11,15V14.09l2.61,0.09,3-.09,4.69,11.18,4.31-11.18,2.73,0.09c1,0,1.92-.07,3-0.09V15c-2.32-.07-2.23,1.1-2.25,3.06v7.52a10.93,10.93,0,0,0,.17,2.3c0.24,1,1.15,1.1,2.06,1.24v0.86l-4.28-.1-3.83.1V29.08c0.91-.14,1.82-0.24,2.06-1.24a10.93,10.93,0,0,0,.17-2.3V18h0l-4.77,12h-1.15Z"/><path class="cls-3" d="M122.73,29.89h-1.05v-5h1c0.67,2.18,1.77,4.19,4.43,4.19a2.54,2.54,0,0,0,2.73-2.39c0-2.23-2.3-2.82-4-3.54-2.15-.93-3.9-2.13-3.9-4.76,0-2.95,2.25-4.53,5-4.53a5.21,5.21,0,0,1,3.59,1.17l0.31-.93h1L132,18.43h-1A4.09,4.09,0,0,0,127.12,15a2.14,2.14,0,0,0-2.37,2c0,1.8,1.82,2.3,3.18,2.92,2.56,1.1,5,2.23,5,5.44s-2.73,4.91-5.68,4.91a5.82,5.82,0,0,1-4.17-1.63Z"/><path class="cls-3" d="M142.27,30.25v0C137.72,30,134,27,134,22.23c0-5.07,4-8.35,8.93-8.35s8.88,3.21,8.88,8.24c0,4.6-3.62,7-7.52,8.4L141,31.64l0,0,1.08,0a11.23,11.23,0,0,1,4.26.74,9.79,9.79,0,0,0,3.16.81,2.53,2.53,0,0,0,1.82-.74,2.26,2.26,0,0,1,.81-0.74,0.38,0.38,0,0,1,.33.41,4.13,4.13,0,0,1-3.88,4,7.14,7.14,0,0,1-4.36-1.82c-1.24-.91-2.42-1.82-4-1.82-1.7,0-2.75,1.05-3.42,1.05a0.6,0.6,0,0,1-.58-0.6,1.27,1.27,0,0,1,1.1-.91L140.38,31Zm-4.17-8.48c0,3.06.93,7.47,4.79,7.47s4.74-3.81,4.74-7-1-7.28-4.83-7.28c-3.69,0-4.69,3.83-4.69,6.8"/><path class="cls-3" d="M168,18.64h-1c-0.24-2-1.41-3.35-3.49-3.35a1.83,1.83,0,0,0-1.32.17,3,3,0,0,0-.12,1.58v9c0,2.13,0,3.09,2.39,3v0.86l-4.24-.1-4.24.1V29.08c2.44,0.07,2.42-.89,2.42-3V17a3.5,3.5,0,0,0-.14-1.48,2.29,2.29,0,0,0-1.29-.26c-2.35-.19-3.23,1.27-3.62,3.35h-1l0.14-4.55H167.9Z"/><polygon class="cls-3" points="76.02 13.47 79.09 13.47 73.81 30.28 70.73 30.28 76.02 13.47"/><path class="cls-3" d="M170.8,15.36a0.26,0.26,0,0,0,.2-0.07,0.27,0.27,0,0,0,.07-0.19,0.23,0.23,0,0,0-.25-0.24h-0.29v0.5h0.28Zm-0.6.75V14.84h-0.12l0-.08a0.34,0.34,0,0,1,0-.06,0.28,0.28,0,0,1,0,0l0-.09h0.79a0.65,0.65,0,0,1,.23,0,0.55,0.55,0,0,1,.18.11,0.53,0.53,0,0,1,.12.17,0.53,0.53,0,0,1,0,.21,0.69,0.69,0,0,1-.06.27,0.46,0.46,0,0,1-.23.23l0.23,0.51h0.13a0.34,0.34,0,0,1,0,.09,0.5,0.5,0,0,1,0,.06,0.4,0.4,0,0,1,0,0l0,0.08h-0.38l-0.32-.73h-0.26v0.47h0.15a0.64,0.64,0,0,1,0,.09,0.34,0.34,0,0,1,0,.06,0.3,0.3,0,0,1,0,0,0.37,0.37,0,0,1,0,.08h-0.6l0-.08a0.29,0.29,0,0,1,0,0,0.33,0.33,0,0,1,0-.06l0-.09h0.12Zm0.55,0.57a1.13,1.13,0,0,0,.46-0.09,1.14,1.14,0,0,0,.62-0.63,1.27,1.27,0,0,0,.09-0.48,1.23,1.23,0,0,0-.09-0.47,1.17,1.17,0,0,0-.25-0.38,1.15,1.15,0,0,0-.37-0.25,1.16,1.16,0,0,0-.46-0.09,1.18,1.18,0,0,0-.46.09,1.13,1.13,0,0,0-.62.63,1.23,1.23,0,0,0-.09.47,1.27,1.27,0,0,0,.09.48,1.11,1.11,0,0,0,.25.38,1.17,1.17,0,0,0,.83.34m-1.57-1.21a1.52,1.52,0,0,1,.46-1.1,1.55,1.55,0,0,1,.5-0.32,1.6,1.6,0,0,1,.6-0.12,1.58,1.58,0,0,1,.6.12,1.55,1.55,0,0,1,.5.32,1.52,1.52,0,0,1,.34.49,1.51,1.51,0,0,1,.13.62,1.53,1.53,0,0,1-.47,1.11,1.59,1.59,0,0,1-.5.32,1.54,1.54,0,0,1-.6.12,1.57,1.57,0,0,1-.6-0.12,1.59,1.59,0,0,1-.5-0.32,1.53,1.53,0,0,1-.46-1.11"/></svg>