<svg id="type" xmlns="http://www.w3.org/2000/svg" viewBox="0 0 100 44"><defs><style>.cls-1{opacity:0;}.cls-2{fill:#5f259f;}.cls-3{fill:#fff;}</style></defs><title>Programs</title><g id="color_blocks" data-name="color blocks" class="cls-1"><rect class="cls-2" x="28" y="-28" width="44" height="100" transform="translate(28 72) rotate(-90)"/></g><path class="cls-3" d="M12.59,24.21A2.26,2.26,0,0,1,13.31,24a4.36,4.36,0,0,1,.78-0.08,4.21,4.21,0,0,1,.77.08,2.25,2.25,0,0,1,.7.25V25.1a1.57,1.57,0,0,0,.23.77,2.44,2.44,0,0,0,.68.74,3.88,3.88,0,0,0,1.13.55,5.1,5.1,0,0,0,1.56.22,3.29,3.29,0,0,0,2-.47,1.46,1.46,0,0,0,.63-1.22q0-1.34-2.08-2l-2.84-.82a8.83,8.83,0,0,1-1.5-.56,4.84,4.84,0,0,1-1.26-.87,3.93,3.93,0,0,1-.87-1.25,4.24,4.24,0,0,1-.33-1.74,4.42,4.42,0,0,1,.49-2.14,4.7,4.7,0,0,1,1.26-1.5A5.21,5.21,0,0,1,16.33,14a6.44,6.44,0,0,1,1.85-.28,5.57,5.57,0,0,1,2.27.4,3.44,3.44,0,0,1,1.38,1V14.27A2.26,2.26,0,0,1,22.52,14a3.82,3.82,0,0,1,.74-0.08A4,4,0,0,1,24,14a2.27,2.27,0,0,1,.7.25v5a2.27,2.27,0,0,1-.7.25,4.1,4.1,0,0,1-.77.08,4.26,4.26,0,0,1-.78-0.08,2.26,2.26,0,0,1-.72-0.25V18.8A2,2,0,0,0,21.56,18,2.07,2.07,0,0,0,21,17.25a2.83,2.83,0,0,0-1-.51,4.32,4.32,0,0,0-1.36-.19,2.91,2.91,0,0,0-1.18.22,2,2,0,0,0-.77.56,1.32,1.32,0,0,0-.3.87,1.38,1.38,0,0,0,.29.84,2.15,2.15,0,0,0,1.18.63l2.69,0.76a15.31,15.31,0,0,1,1.87.66A5.9,5.9,0,0,1,24,22a4.11,4.11,0,0,1,1,1.4,4.8,4.8,0,0,1,.38,2,4.42,4.42,0,0,1-.51,2.19,4.47,4.47,0,0,1-1.34,1.49A5.74,5.74,0,0,1,21.7,30a8.22,8.22,0,0,1-2.08.27,7,7,0,0,1-2.46-.42,3.61,3.61,0,0,1-1.7-1.18v1a2.24,2.24,0,0,1-.7.25A4.09,4.09,0,0,1,14,30a3.75,3.75,0,0,1-.73-0.08,2.22,2.22,0,0,1-.68-0.25V24.21Z"/><path class="cls-3" d="M37.38,29.46a13.66,13.66,0,0,1-2,.53,11.06,11.06,0,0,1-2.15.21,6.69,6.69,0,0,1-2.77-.52,5.54,5.54,0,0,1-1.9-1.36,5.31,5.31,0,0,1-1.1-1.94,7.45,7.45,0,0,1-.35-2.26,8,8,0,0,1,.31-2.22,5.75,5.75,0,0,1,1-2,4.86,4.86,0,0,1,1.7-1.38A5.47,5.47,0,0,1,32.63,18a5.53,5.53,0,0,1,2.53.52,4.38,4.38,0,0,1,1.62,1.35,5.35,5.35,0,0,1,.84,1.84,8.2,8.2,0,0,1,.25,2V25h-7a2.58,2.58,0,0,0,.86,1.71,3,3,0,0,0,2,.67,8.2,8.2,0,0,0,1.9-.19,14.16,14.16,0,0,0,1.72-.54v2.77Zm-3-6.55a2.65,2.65,0,0,0-.47-1.8,1.6,1.6,0,0,0-1.27-.56q-1.61,0-1.84,2.36h3.58Z"/><path class="cls-3" d="M46.43,28.77a3.4,3.4,0,0,1-1.3,1.05,4.49,4.49,0,0,1-1.93.38A4.78,4.78,0,0,1,41.77,30a3.53,3.53,0,0,1-1.23-.66,3.17,3.17,0,0,1-.84-1.13,4.43,4.43,0,0,1,0-3.25,3.08,3.08,0,0,1,.82-1.1,3.7,3.7,0,0,1,1.2-.66,9.66,9.66,0,0,1,1.44-.36,13.51,13.51,0,0,1,1.54-.17l1.5-.11V22.11a1.41,1.41,0,0,0-.43-1.1,2.2,2.2,0,0,0-1.47-.39,5.77,5.77,0,0,0-1.85.3,17.56,17.56,0,0,0-2,.87v-2.6a16.4,16.4,0,0,1,1.93-.77A8.62,8.62,0,0,1,45,18a10.52,10.52,0,0,1,1.36.11,4.3,4.3,0,0,1,1.55.53,3.64,3.64,0,0,1,1.27,1.24,4.1,4.1,0,0,1,.52,2.22v5.31h1.15a3.66,3.66,0,0,1,.22,1.23,3.6,3.6,0,0,1-.22,1.21H46.56Zm-0.19-4.1-1.52.15a2.18,2.18,0,0,0-1.44.54,1.62,1.62,0,0,0-.38,1.1,1.22,1.22,0,0,0,.34.89,1.41,1.41,0,0,0,1.05.35,2.22,2.22,0,0,0,1.38-.43,1.41,1.41,0,0,0,.57-1.19V24.67Z"/><path class="cls-3" d="M53.85,27.44V20.79H52.62a3.6,3.6,0,0,1-.22-1.21,3.66,3.66,0,0,1,.22-1.23H57l0.13,1.8a3,3,0,0,1,1.26-1.43,3.13,3.13,0,0,1,1.39-.37,3.88,3.88,0,0,1,.79.08,3.32,3.32,0,0,1,.73.25l-0.37,2.93L60.3,21.4a2.63,2.63,0,0,0-.7-0.09,2.23,2.23,0,0,0-.86.17A1.84,1.84,0,0,0,58,22a2.1,2.1,0,0,0-.38.71,3.27,3.27,0,0,0-.14,1v3.68H59a3.66,3.66,0,0,1,.22,1.23A3.6,3.6,0,0,1,59,29.89H52.62a3.6,3.6,0,0,1-.22-1.21,3.66,3.66,0,0,1,.22-1.23h1.23Z"/><path class="cls-3" d="M72.12,29.18a10.42,10.42,0,0,1-1.62.65,8.22,8.22,0,0,1-2.54.35,6.83,6.83,0,0,1-2.59-.45,5.18,5.18,0,0,1-1.86-1.26,5.28,5.28,0,0,1-1.13-1.9A7.19,7.19,0,0,1,62,24.19a8.6,8.6,0,0,1,.32-2.42,5.75,5.75,0,0,1,1-1.94,4.52,4.52,0,0,1,1.57-1.29A4.75,4.75,0,0,1,67,18.08a3.52,3.52,0,0,1,1.68.35,2.59,2.59,0,0,1,.94.8V18.56a2.5,2.5,0,0,1,.57-0.17,3.85,3.85,0,0,1,1.41,0,2.5,2.5,0,0,1,.57.17v4.72a3.28,3.28,0,0,1-.63.19,3.54,3.54,0,0,1-1.56,0,3.35,3.35,0,0,1-.63-0.19V22.5a1.81,1.81,0,0,0-.45-1.37,1.66,1.66,0,0,0-1.19-.43,1.58,1.58,0,0,0-.92.26,2,2,0,0,0-.63.7,3.52,3.52,0,0,0-.37,1.05A6.68,6.68,0,0,0,65.69,24a3.32,3.32,0,0,0,.83,2.49,3,3,0,0,0,2.13.8,4.74,4.74,0,0,0,1.94-.38A8,8,0,0,0,72.12,26v3.14Z"/><path class="cls-3" d="M75.22,27.44V15.91H74a3.57,3.57,0,0,1-.22-1.21A3.63,3.63,0,0,1,74,13.46h4.9V19.1a4.2,4.2,0,0,1,1.23-.76,4.58,4.58,0,0,1,1.77-.3,3.69,3.69,0,0,1,2.7,1,3.81,3.81,0,0,1,1,2.85v5.57h1.26A3.63,3.63,0,0,1,87,28.68a3.57,3.57,0,0,1-.22,1.21h-4.9V22.52a2.54,2.54,0,0,0-.28-1.32,1.08,1.08,0,0,0-1-.45,2.35,2.35,0,0,0-.62.09,1.25,1.25,0,0,0-.57.36,2,2,0,0,0-.42.76,4.11,4.11,0,0,0-.16,1.27v4.23h0.93A3.66,3.66,0,0,1,80,28.68a3.6,3.6,0,0,1-.22,1.21H74a3.57,3.57,0,0,1-.22-1.21A3.63,3.63,0,0,1,74,27.44h1.26Z"/></svg>