<svg id="type" xmlns="http://www.w3.org/2000/svg" viewBox="0 0 180 44"><defs><style>.cls-1{opacity:0;}.cls-2{fill:#5f259f;}.cls-3{fill:#fff;}</style></defs><title>Programs</title><g id="color_blocks" data-name="color blocks" class="cls-1"><rect class="cls-2" x="68" y="-68" width="44" height="180" transform="translate(68 112) rotate(-90)"/></g><path class="cls-3" d="M12.05,27.23L16.5,13.9h4.42l4.27,13.33H26.4a4.76,4.76,0,0,1,.16.68,4,4,0,0,1,.05.64,4.23,4.23,0,0,1-.05.65,4.66,4.66,0,0,1-.16.69H20.1a3.51,3.51,0,0,1-.16-0.64,3.78,3.78,0,0,1-.05-0.62,3.86,3.86,0,0,1,.22-1.24h1.3l-0.58-2H16.17l-0.63,2h1.32A3.68,3.68,0,0,1,17,28a3.73,3.73,0,0,1,.05.61,3.92,3.92,0,0,1-.05.62,3.61,3.61,0,0,1-.16.64H10.73a4.66,4.66,0,0,1-.16-0.69,4.09,4.09,0,0,1-.05-0.65,3.91,3.91,0,0,1,.05-0.64,4.76,4.76,0,0,1,.16-0.68h1.32Zm8.13-4.29-1.6-5.81-1.71,5.81h3.32Z"/><path class="cls-3" d="M40.62,28.81q-0.45.24-1.06,0.5a12.24,12.24,0,0,1-1.34.48,13.73,13.73,0,0,1-1.57.36,10.32,10.32,0,0,1-1.72.14,8.58,8.58,0,0,1-3.32-.6A6.43,6.43,0,0,1,29.21,28a7.23,7.23,0,0,1-1.45-2.61A10.94,10.94,0,0,1,27.27,22a10.82,10.82,0,0,1,.49-3.31,8,8,0,0,1,1.4-2.64,6.37,6.37,0,0,1,5.09-2.37,4.81,4.81,0,0,1,2.22.45,4.72,4.72,0,0,1,1.31.93V14.27A2.25,2.25,0,0,1,38.5,14a4.08,4.08,0,0,1,1.56,0,2.26,2.26,0,0,1,.71.25v6.37a2.51,2.51,0,0,1-.77.25,4.35,4.35,0,0,1-1.63,0,2.51,2.51,0,0,1-.77-0.25v-1.3a2.7,2.7,0,0,0-.68-2,2.76,2.76,0,0,0-2.07-.7,2.91,2.91,0,0,0-1.58.42,3.47,3.47,0,0,0-1.12,1.15,5.77,5.77,0,0,0-.67,1.68,8.61,8.61,0,0,0-.23,2,7.12,7.12,0,0,0,.36,2.42,4.67,4.67,0,0,0,.94,1.61,3.48,3.48,0,0,0,1.33.91,4.35,4.35,0,0,0,1.55.28,6.74,6.74,0,0,0,2.84-.58,12.51,12.51,0,0,0,2.34-1.39v3.64Z"/><path class="cls-3" d="M56.53,28.81q-0.45.24-1.06,0.5a12.24,12.24,0,0,1-1.34.48,13.73,13.73,0,0,1-1.57.36,10.32,10.32,0,0,1-1.72.14,8.58,8.58,0,0,1-3.32-.6A6.43,6.43,0,0,1,45.12,28a7.23,7.23,0,0,1-1.45-2.61A10.94,10.94,0,0,1,43.18,22a10.82,10.82,0,0,1,.49-3.31,8,8,0,0,1,1.4-2.64,6.37,6.37,0,0,1,5.09-2.37,4.81,4.81,0,0,1,2.22.45,4.72,4.72,0,0,1,1.31.93V14.27A2.25,2.25,0,0,1,54.41,14,4.08,4.08,0,0,1,56,14a2.26,2.26,0,0,1,.71.25v6.37a2.51,2.51,0,0,1-.77.25,4.35,4.35,0,0,1-1.63,0,2.51,2.51,0,0,1-.77-0.25v-1.3a2.7,2.7,0,0,0-.68-2,2.76,2.76,0,0,0-2.07-.7,2.91,2.91,0,0,0-1.58.42,3.47,3.47,0,0,0-1.12,1.15,5.77,5.77,0,0,0-.67,1.68,8.61,8.61,0,0,0-.23,2,7.12,7.12,0,0,0,.36,2.42,4.67,4.67,0,0,0,.94,1.61,3.48,3.48,0,0,0,1.33.91,4.35,4.35,0,0,0,1.55.28,6.74,6.74,0,0,0,2.84-.58,12.51,12.51,0,0,0,2.34-1.39v3.64Z"/><path class="cls-3" d="M60.28,16.76H58.93a4.92,4.92,0,0,1-.16-0.68,4,4,0,0,1-.05-0.64,4.23,4.23,0,0,1,.05-0.65,4.88,4.88,0,0,1,.16-0.69h6.2a4.88,4.88,0,0,1,.16.69,4.23,4.23,0,0,1,.05.65,4,4,0,0,1-.05.64,4.92,4.92,0,0,1-.16.68H64v7.59a4.45,4.45,0,0,0,.19,1.42,2.52,2.52,0,0,0,.53.93,1.87,1.87,0,0,0,.81.51,3.78,3.78,0,0,0,2.12,0,2,2,0,0,0,.82-0.51A2.44,2.44,0,0,0,69,25.76a4.45,4.45,0,0,0,.19-1.42V16.76H68.1a4.92,4.92,0,0,1-.16-0.68,4,4,0,0,1-.05-0.64,4.23,4.23,0,0,1,.05-0.65,4.88,4.88,0,0,1,.16-0.69h6.18a4.88,4.88,0,0,1,.16.69,4.24,4.24,0,0,1,.05.65,4,4,0,0,1-.05.64,4.92,4.92,0,0,1-.16.68H72.91V24.5a5.69,5.69,0,0,1-1.55,4.28,6.59,6.59,0,0,1-4.76,1.51,6.74,6.74,0,0,1-4.76-1.47,5.63,5.63,0,0,1-1.57-4.31V16.76Z"/><path class="cls-3" d="M77.75,27.23V16.76H76.41a4.76,4.76,0,0,1-.16-0.68,4,4,0,0,1-.05-0.64,4.24,4.24,0,0,1,.05-0.65,4.72,4.72,0,0,1,.16-0.69h7.82a6,6,0,0,1,2.18.37,4.55,4.55,0,0,1,1.58,1A4.21,4.21,0,0,1,89,17a5.17,5.17,0,0,1,.32,1.85A6.18,6.18,0,0,1,89,20.53a4.14,4.14,0,0,1-.85,1.56,4.51,4.51,0,0,1-1.56,1.14,5.71,5.71,0,0,1-2.4.44H81.4v3.55H83a5.09,5.09,0,0,1,.16.68,4,4,0,0,1,.05.64,4.22,4.22,0,0,1-.05.65,5,5,0,0,1-.16.69H76.41a4.66,4.66,0,0,1-.16-0.69,4.23,4.23,0,0,1-.05-0.65,4,4,0,0,1,.05-0.64,4.76,4.76,0,0,1,.16-0.68h1.34ZM83.43,21a1.87,1.87,0,0,0,2.08-2.13A2,2,0,0,0,85,17.34a2,2,0,0,0-1.48-.52H81.4V21h2Z"/><path class="cls-3" d="M92.34,27.23V16.76H91a4.76,4.76,0,0,1-.16-0.68,4,4,0,0,1-.05-0.64,4.24,4.24,0,0,1,.05-0.65A4.72,4.72,0,0,1,91,14.09h6.68a4.88,4.88,0,0,1,.16.69,4.24,4.24,0,0,1,.05.65,4,4,0,0,1-.05.64,4.92,4.92,0,0,1-.16.68h-1.6v10.4h3.71v-3.1a2.55,2.55,0,0,1,.76-0.25,4.74,4.74,0,0,1,.8-0.08,4.56,4.56,0,0,1,.79.08,2.56,2.56,0,0,1,.75.25v5.83H91a4.66,4.66,0,0,1-.16-0.69,4.23,4.23,0,0,1-.05-0.65,4,4,0,0,1,.05-0.64A4.76,4.76,0,0,1,91,27.23h1.34Z"/><path class="cls-3" d="M105.89,27.23l4.44-13.33h4.42L119,27.23h1.21a4.92,4.92,0,0,1,.16.68,4,4,0,0,1,.05.64,4.23,4.23,0,0,1-.05.65,4.8,4.8,0,0,1-.16.69h-6.31a3.61,3.61,0,0,1-.16-0.64,3.92,3.92,0,0,1-.05-0.62,3.73,3.73,0,0,1,.05-0.61,3.68,3.68,0,0,1,.16-0.63h1.3l-0.58-2H110l-0.63,2h1.32a3.79,3.79,0,0,1,.16.63,3.72,3.72,0,0,1,.05.61,3.91,3.91,0,0,1-.05.62,3.71,3.71,0,0,1-.16.64h-6.13a4.8,4.8,0,0,1-.16-0.69,4.23,4.23,0,0,1-.05-0.65,4,4,0,0,1,.05-0.64,4.92,4.92,0,0,1,.16-0.68h1.32ZM114,22.94l-1.6-5.81-1.71,5.81H114Z"/><path class="cls-3" d="M134.46,28.81q-0.46.24-1.06,0.5a12.32,12.32,0,0,1-1.34.48,13.78,13.78,0,0,1-1.57.36,10.34,10.34,0,0,1-1.72.14,8.57,8.57,0,0,1-3.32-.6A6.44,6.44,0,0,1,123,28a7.25,7.25,0,0,1-1.45-2.61,10.94,10.94,0,0,1-.49-3.36,10.82,10.82,0,0,1,.49-3.31,8,8,0,0,1,1.4-2.64,6.38,6.38,0,0,1,5.09-2.37,4.81,4.81,0,0,1,2.22.45,4.71,4.71,0,0,1,1.31.93V14.27a2.26,2.26,0,0,1,.72-0.25,4.07,4.07,0,0,1,1.56,0,2.26,2.26,0,0,1,.72.25v6.37a2.51,2.51,0,0,1-.77.25,4.35,4.35,0,0,1-1.63,0,2.51,2.51,0,0,1-.77-0.25v-1.3a2.7,2.7,0,0,0-.68-2,2.76,2.76,0,0,0-2.07-.7,2.91,2.91,0,0,0-1.58.42A3.47,3.47,0,0,0,126,18.24a5.77,5.77,0,0,0-.67,1.68,8.55,8.55,0,0,0-.23,2,7.15,7.15,0,0,0,.36,2.42,4.67,4.67,0,0,0,.94,1.61,3.49,3.49,0,0,0,1.33.91,4.36,4.36,0,0,0,1.55.28,6.75,6.75,0,0,0,2.84-.58,12.55,12.55,0,0,0,2.34-1.39v3.64Z"/><path class="cls-3" d="M138.53,27.23V16.76h-1.34a4.92,4.92,0,0,1-.16-0.68,4,4,0,0,1-.05-0.64,4.23,4.23,0,0,1,.05-0.65,4.88,4.88,0,0,1,.16-0.69h12.51v4.38a2.52,2.52,0,0,1-.75.25,4.56,4.56,0,0,1-.79.08,4.74,4.74,0,0,1-.8-0.08,2.52,2.52,0,0,1-.76-0.25V16.91h-4.34V20.4h5.68a5.44,5.44,0,0,1,.16.76,5.11,5.11,0,0,1,.05.69,4.8,4.8,0,0,1-.05.69,5.59,5.59,0,0,1-.16.74h-5.68v3.79h4.47v-1.8a2.55,2.55,0,0,1,.76-0.25,4.75,4.75,0,0,1,.8-0.08,4.56,4.56,0,0,1,.79.08,2.55,2.55,0,0,1,.75.25v4.62H137.19A4.8,4.8,0,0,1,137,29.2a4.22,4.22,0,0,1-.05-0.65,4,4,0,0,1,.05-0.64,4.92,4.92,0,0,1,.16-0.68h1.34Z"/><path class="cls-3" d="M153.51,27.23V16.76h-1.34a4.76,4.76,0,0,1-.16-0.68,4,4,0,0,1-.05-0.64,4.24,4.24,0,0,1,.05-0.65,4.72,4.72,0,0,1,.16-0.69h8.21a5.76,5.76,0,0,1,2.15.38,4.81,4.81,0,0,1,1.61,1,4.41,4.41,0,0,1,1,1.52,4.92,4.92,0,0,1,.35,1.84,5.73,5.73,0,0,1-.12,1.08,4.87,4.87,0,0,1-.41,1.2,5,5,0,0,1-.79,1.15,3.83,3.83,0,0,1-1.23.9l2.17,4h1.45a5.09,5.09,0,0,1,.16.68,4,4,0,0,1,.05.64,4.22,4.22,0,0,1-.05.65,5,5,0,0,1-.16.69h-4.23l-3-6.26h-2.17v3.6h1.56a4.92,4.92,0,0,1,.16.68,4,4,0,0,1,.05.64,4.23,4.23,0,0,1-.05.65,4.8,4.8,0,0,1-.16.69h-6.55A4.66,4.66,0,0,1,152,29.2a4.23,4.23,0,0,1-.05-0.65,4,4,0,0,1,.05-0.64,4.76,4.76,0,0,1,.16-0.68h1.34Zm6.11-6.37a1.82,1.82,0,0,0,2.1-2,1.93,1.93,0,0,0-.53-1.46,2.12,2.12,0,0,0-1.53-.51h-2.51v4h2.47Z"/><path class="cls-3" d="M166.15,15.48a1.5,1.5,0,0,1,.13-0.62,1.54,1.54,0,0,1,.34-0.49,1.55,1.55,0,0,1,.5-0.32,1.61,1.61,0,0,1,.6-0.11,1.58,1.58,0,0,1,1.1.44,1.54,1.54,0,0,1,.34.49,1.5,1.5,0,0,1,.13.62,1.54,1.54,0,0,1-.47,1.11,1.62,1.62,0,0,1-.5.32,1.56,1.56,0,0,1-.6.12,1.59,1.59,0,0,1-1.1-.44A1.53,1.53,0,0,1,166.15,15.48Zm1.57,1.21A1.14,1.14,0,0,0,168.8,16a1.29,1.29,0,0,0,.09-0.48A1.25,1.25,0,0,0,168.8,15a1.15,1.15,0,0,0-.25-0.38,1.12,1.12,0,0,0-.37-0.25,1.15,1.15,0,0,0-.45-0.09,1.17,1.17,0,0,0-.46.09,1.13,1.13,0,0,0-.37.25,1.15,1.15,0,0,0-.25.38,1.25,1.25,0,0,0-.09.47,1.29,1.29,0,0,0,.09.48,1.13,1.13,0,0,0,.62.63A1.15,1.15,0,0,0,167.72,16.68Zm-0.55-.57V14.84H167l0-.08a0.47,0.47,0,0,1,0-.06,0.43,0.43,0,0,1,0,0l0-.08h0.79a0.64,0.64,0,0,1,.23,0,0.54,0.54,0,0,1,.18.11,0.5,0.5,0,0,1,.11.17,0.52,0.52,0,0,1,0,.21,0.7,0.7,0,0,1-.06.27,0.46,0.46,0,0,1-.24.23l0.23,0.51h0.13a0.38,0.38,0,0,1,0,.09,0.45,0.45,0,0,1,0,.06,0.37,0.37,0,0,1,0,0,0.4,0.4,0,0,1,0,.08h-0.39l-0.32-.73h-0.26v0.47h0.15l0,0.09a0.45,0.45,0,0,1,0,.06,0.43,0.43,0,0,1,0,0,0.42,0.42,0,0,1,0,.08H167a0.46,0.46,0,0,1,0-.08,0.43,0.43,0,0,1,0,0,0.45,0.45,0,0,1,0-.06,0.55,0.55,0,0,1,0-.09h0.13Zm0.6-.75a0.25,0.25,0,0,0,.19-0.07A0.26,0.26,0,0,0,168,15.1a0.23,0.23,0,0,0-.25-0.24h-0.29v0.5h0.28Z"/></svg>