<?xml version="1.0" encoding="utf-8"?>
<!-- Generator: Adobe Illustrator 18.1.0, SVG Export Plug-In . SVG Version: 6.00 Build 0)  -->
<svg version="1.1" id="Layer_1" xmlns="http://www.w3.org/2000/svg" xmlns:xlink="http://www.w3.org/1999/xlink" x="0px" y="0px"
	 viewBox="0 0 100.733 17.302" style="enable-background:new 0 0 100.733 17.302;" xml:space="preserve">
<g>
	<path d="M24.725,8.898h-1.763c-0.013-1.395-0.958-2.268-2.326-2.268c-2.073,0-2.678,1.861-2.678,3.692
		c0,1.776,0.86,3.244,2.821,3.244c1.141,0,2.059-0.833,2.1-2.045h1.874c-0.042,2.58-2.226,3.383-4.044,3.383
		c-3.243,0-4.809-2.058-4.809-4.737c0-2.82,1.451-4.878,4.397-4.878c1.101,0,2.018,0.309,2.638,1.24l0.027,0.028V5.487h1.763V8.898z
		"/>
	<path d="M32.308,11.408c0,2.199-1.453,3.496-3.526,3.496c-2.073,0-3.525-1.297-3.525-3.496c0-2.199,1.452-3.497,3.525-3.497
		C30.855,7.911,32.308,9.209,32.308,11.408 M28.782,13.566c1.198,0,1.579-1.115,1.579-2.158c0-1.044-0.381-2.158-1.579-2.158
		c-1.198,0-1.579,1.114-1.579,2.158C27.204,12.451,27.584,13.566,28.782,13.566"/>
	<polygon points="32.355,13.438 33.27,13.438 33.27,6.558 32.355,6.558 32.355,5.29 35.146,5.29 35.146,13.438 36.062,13.438 
		36.062,14.707 32.355,14.707 	"/>
	<polygon points="36.749,13.438 37.666,13.438 37.666,6.558 36.749,6.558 36.749,5.29 39.541,5.29 39.541,13.438 40.458,13.438 
		40.458,14.707 36.749,14.707 	"/>
	<path d="M42.632,11.945c0,1.042,0.606,1.691,1.65,1.691c0.648,0,1.114-0.268,1.296-0.973h1.764
		c-0.311,1.593-1.607,2.241-3.116,2.241c-2.312,0-3.539-1.382-3.539-3.581c0-2.073,1.409-3.413,3.497-3.413
		c1.592,0,2.875,0.917,3.158,2.538c0.084,0.522,0.084,1.029,0.084,1.496H42.632z M45.551,10.746c0-0.945-0.48-1.566-1.453-1.566
		c-0.944,0-1.466,0.677-1.466,1.566H45.551z"/>
	<path d="M55.938,9.378h-0.917v4.723c0,1.677-0.845,3.2-3.497,3.2c-1.946,0-2.974-0.62-3.073-2.186h2.044
		c0.057,0.804,0.621,0.917,1.227,0.917c0.832,0,1.424-0.804,1.424-1.636V13.65c-0.621,0.676-1.07,0.959-2.214,0.959
		c-1.776,0-2.82-1.523-2.82-3.2c0-1.947,0.888-3.469,3.018-3.469c1.056,0,1.705,0.494,2.157,1.185h0.028V8.11h2.622V9.378z
		 M51.652,13.269c1.157,0,1.608-0.931,1.608-2.002c0-1.015-0.41-1.987-1.58-1.987c-1.184,0-1.622,1.014-1.622,2.058
		C50.058,12.352,50.595,13.269,51.652,13.269"/>
	<path d="M58.113,11.945c0,1.042,0.607,1.691,1.649,1.691c0.65,0,1.114-0.268,1.297-0.973h1.762
		c-0.309,1.593-1.607,2.241-3.116,2.241c-2.311,0-3.539-1.382-3.539-3.581c0-2.073,1.409-3.413,3.496-3.413
		c1.594,0,2.875,0.917,3.158,2.538c0.086,0.522,0.086,1.029,0.086,1.496H58.113z M61.032,10.746c0-0.945-0.481-1.566-1.454-1.566
		c-0.943,0-1.465,0.677-1.465,1.566H61.032z"/>
	<path d="M63.318,13.368h1.156V6.826h-1.156v-1.34h4.427c1.678,0,3.651,0.042,3.651,2.257c0,1.227-0.634,1.945-1.887,2.1v0.029
		c1.183,0.042,2.17,0.916,2.17,2.143c0,2.777-2.565,2.693-4.018,2.693h-4.343V13.368z M66.42,9.337h1.113
		c0.931,0,1.919-0.184,1.919-1.326c0-1.115-1.001-1.184-1.862-1.184h-1.17V9.337z M66.42,13.368h1.297
		c1.198,0,2.016-0.198,2.016-1.438c0-1.326-1.015-1.326-2.002-1.326H66.42V13.368z"/>
	<path d="M79.051,11.408c0,2.199-1.452,3.496-3.526,3.496c-2.072,0-3.524-1.297-3.524-3.496c0-2.199,1.452-3.497,3.524-3.497
		C77.599,7.911,79.051,9.209,79.051,11.408 M75.525,13.566c1.199,0,1.579-1.115,1.579-2.158c0-1.044-0.38-2.158-1.579-2.158
		c-1.197,0-1.577,1.114-1.577,2.158C73.948,12.451,74.327,13.566,75.525,13.566"/>
	<path d="M84.068,13.749H84.04c-0.579,0.888-1.185,1.155-2.186,1.155c-1.227,0-2.298-0.705-2.298-2.115
		c0-2.171,2.171-2.229,3.82-2.229h0.664v-0.507c0-0.775-0.579-1.015-1.27-1.015c-0.734,0-1.184,0.31-1.241,1.072h-1.761
		c0.114-1.889,1.663-2.2,3.214-2.2c2.13,0,2.82,0.888,2.82,2.891v2.636h0.847v1.269h-2.58V13.749z M83.137,11.69
		c-0.96,0-1.82,0.154-1.82,1.043c0,0.621,0.423,0.903,1.001,0.903c1.115,0,1.749-0.818,1.722-1.946H83.137z"/>
	<path d="M87.334,13.438h0.917v-4.06h-0.917V8.11h2.665v1.281h0.028c0.395-0.845,1.057-1.48,2.031-1.48
		c0.268,0,0.549,0.029,0.804,0.085v1.537c-0.267-0.071-0.565-0.071-0.846-0.071c-1.241,0-1.819,0.917-1.89,2.059v1.917h1.129v1.269
		h-3.92V13.438z"/>
	<path d="M99.816,13.377h0.917v1.269h-2.608v-1.1h-0.029c-0.593,0.931-1.17,1.297-2.34,1.297c-1.918,0-2.849-1.621-2.849-3.397
		c0-2.426,1.241-3.596,2.961-3.596c1.115,0,1.735,0.537,2.046,1.17h0.026V6.498h-0.916V5.229h2.792V13.377z M98.054,11.249
		c0-1.086-0.478-2.059-1.634-2.059c-1.2,0-1.566,1.071-1.566,2.158c0,1.424,0.593,2.157,1.395,2.157
		C97.66,13.505,98.054,12.644,98.054,11.249"/>
	<path d="M13.37,5.601c-0.196-0.908-0.856-1.534-1.759-1.914c0,0-0.454-0.19-0.759-0.256c-0.403-0.12-0.757-0.178-1.17-0.251
		C9.12,3.08,7.641,2.939,7.39,2.93C7.312,2.927,7.352,2.843,7.385,2.795c0.087-0.123,0.195-0.239,0.287-0.36
		C7.862,2.185,8,1.903,8.074,1.606c0.084-0.338,0.107-0.693,0.073-1.039C8.134,0.442,8.115,0.314,8.076,0.193
		C8.058,0.135,8.03,0.044,7.969,0.013C7.914-0.016,7.831,0.01,7.778,0.026C7.66,0.061,7.548,0.115,7.44,0.171
		C6.774,0.517,6.135,0.994,5.762,1.633C5.613,1.887,5.508,2.162,5.483,2.452C5.476,2.536,5.477,2.621,5.472,2.705
		C5.47,2.759,5.467,2.819,5.438,2.867C5.401,2.929,5.326,2.948,5.256,2.957c-0.14,0.016-0.983,0.108-1.26,0.155
		c-0.62,0.103-1.243,0.238-1.838,0.438c-0.222,0.075-0.44,0.168-0.649,0.278C1.497,3.833,1.486,3.838,1.474,3.845
		C1.378,3.896,1.284,3.95,1.193,4.009C1.184,4.015,1.174,4.021,1.166,4.027C1.069,4.091,0.978,4.16,0.891,4.233
		C0.83,4.284,0.775,4.338,0.719,4.393c-0.02,0.02-0.042,0.04-0.062,0.06C0.632,4.479,0.603,4.501,0.581,4.529
		c-0.11,0.123-0.204,0.265-0.286,0.415C0.287,4.957,0.279,4.971,0.271,4.985c-0.032,0.061-0.06,0.127-0.087,0.192
		c-0.016,0.04-0.036,0.08-0.05,0.121C0.126,5.321,0.121,5.346,0.113,5.369c-0.025,0.077-0.05,0.152-0.067,0.233
		c-0.042,0.192-0.052,0.385-0.044,0.57c0.003,0.066,0.008,0.131,0.015,0.195C0.022,6.408,0.027,6.449,0.034,6.49
		c0.006,0.04,0.012,0.08,0.02,0.118C0.15,7.107,0.341,7.475,0.341,7.475C0.529,7.883,0.8,8.388,1.199,8.798
		c0,0,0.063,0.085,0.061,0.201c0.016,0.296,0.085,0.957,0.374,1.809c0.706,2.14,2.189,3.724,3.104,4.454c0,0,0.487,0.401,0.68,0.569
		c0.266,0.23,0.758,0.565,0.758,0.565c0.192,0.111,0.278,0.167,0.538,0.167c0.309,0,0.532-0.151,0.756-0.298
		c0.28-0.186,1.396-1.144,1.396-1.144c1.184-1.047,3.078-3.062,3.29-6.114h0c-0.006-0.121,0.061-0.21,0.061-0.21
		c0.399-0.41,0.67-0.914,0.86-1.323C13.077,7.475,13.569,6.523,13.37,5.601 M6.428,2.471c0.009-0.146,0.051-0.289,0.105-0.425
		c0.127-0.327,0.333-0.642,0.582-0.897c0.078-0.08,0.163-0.156,0.259-0.218c0.037-0.024,0.103-0.069,0.153-0.057
		c0.093,0.021-0.082,0.468-0.1,0.516c-0.11,0.306-0.255,0.59-0.467,0.847C6.865,2.351,6.762,2.46,6.644,2.553
		c-0.032,0.026-0.129,0.115-0.18,0.098C6.412,2.632,6.424,2.508,6.428,2.471 M11.838,6.768c-0.022,0.046-0.085,0.167-0.111,0.211
		c0,0-0.787,1.173-0.669,1.85c0.078,0.443,0.332,1.056-0.273,2.466c-0.334,0.78-0.743,1.689-1.973,3.115c0,0-0.413,0.43-0.634,0.598
		c0,0-1.049,0.871-1.402,0.862c-0.315-0.008-0.578-0.182-0.782-0.371c-0.16-0.15-0.546-0.566-0.579-0.609
		c-1.88-2.366-1.959-4.293-1.606-5.65c0.114-0.438,0.408-0.762,0.756-1.002c0.698-0.479,1.611-0.616,1.739-0.634
		c0.366-0.03,0.534-0.046,0.9-0.055c0.278-0.006,0.555-0.006,0.833,0.002C8.195,7.556,8.353,7.563,8.51,7.576
		c0.217,0.019,0.433,0.047,0.648,0.087C9.29,7.688,9.421,7.73,9.554,7.749C9.652,7.762,9.77,7.751,9.782,7.636
		c0.001-0.02,0.001-0.041-0.001-0.06C9.739,7.452,9.535,7.255,8.755,7.058C8.603,7.02,8.419,6.991,8.217,6.969
		C8.106,6.957,7.989,6.948,7.867,6.94C7.796,6.936,7.723,6.932,7.648,6.929c-0.011,0-0.023,0-0.035-0.001
		C7.539,6.924,7.464,6.922,7.389,6.921c-0.009,0-0.018,0-0.025,0C7.282,6.918,7.2,6.918,7.117,6.917c-0.083,0-0.167,0-0.249,0H6.865
		c-1.312,0.01-2.483,0.141-2.483,0.141S2.288,7.357,2.288,5.824c0-1.511,1.918-1.858,3.173-2.037
		c0.009-0.001,0.017-0.002,0.026-0.004l0.006-0.001h0.001c0.002,0,0.003-0.001,0.003-0.001C5.505,3.782,5.51,3.781,5.51,3.781
		l0.007,0c0.063-0.009,0.126-0.018,0.19-0.025c0.037-0.004,0.077-0.006,0.114-0.01C5.912,3.736,6.002,3.728,6.094,3.72
		c0.205-0.015,0.438-0.028,0.664-0.026c0.031,0,0.111,0.001,0.111,0.001c0.485,0.003,0.97,0.037,1.446,0.095
		C8.665,3.833,9.012,3.894,9.352,3.98C11.01,4.321,12.598,5.08,11.838,6.768"/>
</g>
</svg>
