<svg id="type" xmlns="http://www.w3.org/2000/svg" viewBox="0 0 115 44"><defs><style>.cls-1{opacity:0;}.cls-2{fill:#009cde;}.cls-3{fill:#fff;}</style></defs><title>Programs</title><g id="color_blocks" data-name="color blocks" class="cls-1"><rect class="cls-2" x="35.5" y="-35.5" width="44" height="115" transform="translate(35.5 79.5) rotate(-90)"/></g><path class="cls-3" d="M23.84,15.47a4.55,4.55,0,0,0-1.58-1,6,6,0,0,0-2.18-.37H12.26a4.8,4.8,0,0,0-.16.69,4.24,4.24,0,0,0-.05.65,4,4,0,0,0,.05.64,4.84,4.84,0,0,0,.16.68H13.6V27.23H12.26a4.84,4.84,0,0,0-.16.68,4,4,0,0,0-.05.64,4.23,4.23,0,0,0,.05.65,4.73,4.73,0,0,0,.16.69h6.63a4.88,4.88,0,0,0,.16-0.69,4.23,4.23,0,0,0,.05-0.65,4,4,0,0,0-.05-0.64,5,5,0,0,0-.16-0.68H17.24V23.67h2.84a5.71,5.71,0,0,0,2.4-.44A4.51,4.51,0,0,0,24,22.09a4.13,4.13,0,0,0,.85-1.56,6.18,6.18,0,0,0,.25-1.71A5.19,5.19,0,0,0,24.81,17,4.21,4.21,0,0,0,23.84,15.47Zm-3,5a2.13,2.13,0,0,1-1.54.52h-2V16.82h2.1a2,2,0,0,1,1.48.52,2,2,0,0,1,.53,1.49A2.13,2.13,0,0,1,20.82,20.44Z"/><path class="cls-3" d="M38.25,22a5.9,5.9,0,0,0-1.54-1,15.25,15.25,0,0,0-1.87-.66l-2.69-.76A2.15,2.15,0,0,1,31,19a1.38,1.38,0,0,1-.29-0.84,1.32,1.32,0,0,1,.3-0.87,2,2,0,0,1,.77-0.56,2.91,2.91,0,0,1,1.18-.22,4.32,4.32,0,0,1,1.37.19,2.82,2.82,0,0,1,1,.51,2.08,2.08,0,0,1,.55.71,2,2,0,0,1,.18.83v0.52a2.26,2.26,0,0,0,.72.25,4.27,4.27,0,0,0,.78.08,4.1,4.1,0,0,0,.77-0.08,2.26,2.26,0,0,0,.7-0.25v-5a2.26,2.26,0,0,0-.7-0.25,4,4,0,0,0-.75-0.08,3.82,3.82,0,0,0-.74.08,2.25,2.25,0,0,0-.69.25v0.87a3.44,3.44,0,0,0-1.38-1,5.57,5.57,0,0,0-2.26-.4,6.45,6.45,0,0,0-1.85.28,5.22,5.22,0,0,0-1.71.88,4.7,4.7,0,0,0-1.26,1.5,4.42,4.42,0,0,0-.49,2.14,4.24,4.24,0,0,0,.33,1.74,3.93,3.93,0,0,0,.87,1.25,4.84,4.84,0,0,0,1.26.87,8.83,8.83,0,0,0,1.5.56l2.84,0.82q2.08,0.61,2.08,2a1.45,1.45,0,0,1-.63,1.22,3.29,3.29,0,0,1-2,.47,5.11,5.11,0,0,1-1.56-.22,3.89,3.89,0,0,1-1.13-.55A2.42,2.42,0,0,1,30,25.87a1.57,1.57,0,0,1-.23-0.77V24.21A2.26,2.26,0,0,0,29.1,24a4.2,4.2,0,0,0-.77-0.08,4.37,4.37,0,0,0-.78.08,2.25,2.25,0,0,0-.71.25v5.46a2.22,2.22,0,0,0,.68.25,3.76,3.76,0,0,0,.73.08A4.09,4.09,0,0,0,29,29.93a2.23,2.23,0,0,0,.7-0.25v-1a3.61,3.61,0,0,0,1.7,1.18,7,7,0,0,0,2.46.42A8.21,8.21,0,0,0,35.94,30a5.73,5.73,0,0,0,1.87-.86,4.27,4.27,0,0,0,1.85-3.68,4.8,4.8,0,0,0-.38-2A4.11,4.11,0,0,0,38.25,22Z"/><path class="cls-3" d="M56.88,27.23H55.67L51.4,13.9H47L42.53,27.23H41.21a4.84,4.84,0,0,0-.16.68,4,4,0,0,0-.05.64,4.16,4.16,0,0,0,.05.65,4.73,4.73,0,0,0,.16.69h6.13a3.66,3.66,0,0,0,.16-0.64,3.91,3.91,0,0,0,.05-0.62,3.84,3.84,0,0,0-.22-1.24H46l0.63-2h4.64l0.58,2h-1.3a3.86,3.86,0,0,0-.22,1.24,3.85,3.85,0,0,0,.05.62,3.56,3.56,0,0,0,.16.64h6.31A4.73,4.73,0,0,0,57,29.2a4.23,4.23,0,0,0,.05-0.65A4,4,0,0,0,57,27.91,4.84,4.84,0,0,0,56.88,27.23Zm-9.54-4.29,1.71-5.81,1.6,5.81H47.35Z"/><path class="cls-3" d="M56.72,19.36a2.26,2.26,0,0,0,.7.25,4,4,0,0,0,.75.08,4.35,4.35,0,0,0,.77-0.08,2.26,2.26,0,0,0,.73-0.25V16.82H62v10.4H60.6a4.84,4.84,0,0,0-.16.68,4,4,0,0,0-.05.64,4.23,4.23,0,0,0,.05.65,4.73,4.73,0,0,0,.16.69h6.52a4.8,4.8,0,0,0,.16-0.69,4.23,4.23,0,0,0,.05-0.65,4,4,0,0,0-.05-0.64,4.92,4.92,0,0,0-.16-0.68H65.7V16.82h2.36v2.54a2.26,2.26,0,0,0,.7.25,4,4,0,0,0,.75.08,4.35,4.35,0,0,0,.77-0.08A2.26,2.26,0,0,0,71,19.36V14.09H56.72v5.27Z"/><path class="cls-3" d="M88.82,27.21H86.33V14.09H79.89a3.93,3.93,0,0,0-.16.63,4.52,4.52,0,0,0-.06.72,4.27,4.27,0,0,0,.06.7,3.92,3.92,0,0,0,.16.62h2.68V27.21H79.87a3.89,3.89,0,0,0-.16.63,4.46,4.46,0,0,0-.06.72,4.3,4.3,0,0,0,.06.7,3.93,3.93,0,0,0,.16.62h9A4.06,4.06,0,0,0,89,29.27a4.3,4.3,0,0,0,.06-0.7A4.46,4.46,0,0,0,89,27.85,4,4,0,0,0,88.82,27.21Z"/><path class="cls-3" d="M101.39,27.42a8.36,8.36,0,0,0,.91-2.7,17.49,17.49,0,0,0,.24-2.76,17,17,0,0,0-.24-2.74,8.37,8.37,0,0,0-.91-2.68,5.34,5.34,0,0,0-5.06-2.83,5.63,5.63,0,0,0-3.16.8,5.74,5.74,0,0,0-1.88,2,8.37,8.37,0,0,0-.91,2.68A17,17,0,0,0,90.14,22a17.49,17.49,0,0,0,.24,2.76,8.36,8.36,0,0,0,.91,2.7,5.83,5.83,0,0,0,1.88,2,5.57,5.57,0,0,0,3.16.81,5.63,5.63,0,0,0,3.17-.81A5.8,5.8,0,0,0,101.39,27.42Zm-2.94-2.84A6.66,6.66,0,0,1,98,26.25a2,2,0,0,1-.73.91,1.75,1.75,0,0,1-.93.26,1.69,1.69,0,0,1-.92-0.26,2.08,2.08,0,0,1-.71-0.91,6.63,6.63,0,0,1-.46-1.67A16.86,16.86,0,0,1,94.06,22a16.42,16.42,0,0,1,.17-2.59,6.41,6.41,0,0,1,.46-1.65,2.07,2.07,0,0,1,.71-0.9,1.68,1.68,0,0,1,.92-0.27,1.75,1.75,0,0,1,.93.26,2,2,0,0,1,.73.9,6.43,6.43,0,0,1,.46,1.65A16.49,16.49,0,0,1,98.62,22,16.92,16.92,0,0,1,98.45,24.58Z"/><path class="cls-3" d="M73,15.82v-1.4H72.63v0.39l-0.1,0H72.38l-0.11,0V14.09h1.85v0.72l-0.12,0H73.86l-0.11,0V14.42H73.4v1.4h0.2l0,0.11a0.47,0.47,0,0,1,0,.07,0.44,0.44,0,0,1,0,.06,0.53,0.53,0,0,1,0,.1h-0.8a0.7,0.7,0,0,1,0-.1,0.44,0.44,0,0,1,0-.06,0.47,0.47,0,0,1,0-.07,0.82,0.82,0,0,1,0-.11H73Zm1.51,0V14.43H74.32l0-.1a0.25,0.25,0,0,1,0-.07,0.24,0.24,0,0,1,0-.07l0-.1H75l0.47,1.49L76,14.09h0.73l0,0.11a0.51,0.51,0,0,1,0,.06,0.3,0.3,0,0,1,0,.07l0,0.1H76.53v1.39h0.19l0,0.11a0.56,0.56,0,0,1,0,.07,0.29,0.29,0,0,1,0,.06l0,0.1H76l0-.1a0.29,0.29,0,0,1,0-.06,0.47,0.47,0,0,1,0-.07,0.8,0.8,0,0,1,0-.11h0.19V14.66l-0.47,1.45H75.31l-0.46-1.45v1.16H75l0,0.11a0.32,0.32,0,0,1,0,.07,0.6,0.6,0,0,1,0,.16H74.32l0-.1a0.23,0.23,0,0,1,0-.07,0.24,0.24,0,0,1,0-.07l0-.1H74.5Z"/></svg>