<svg id="type" xmlns="http://www.w3.org/2000/svg" viewBox="0 0 99 44"><defs><style>.cls-1{opacity:0;}.cls-2{fill:#48a23f;}.cls-3{fill:#fff;}</style></defs><title>Programs</title><g id="color_blocks" data-name="color blocks" class="cls-1"><rect class="cls-2" x="27.5" y="-27.5" width="44" height="99" transform="translate(27.5 71.5) rotate(-90)"/></g><path class="cls-3" d="M12.05,27.23L16.5,13.9h4.42l4.27,13.33H26.4a4.76,4.76,0,0,1,.16.68,4,4,0,0,1,.05.64,4.23,4.23,0,0,1-.05.65,4.66,4.66,0,0,1-.16.69H20.1a3.51,3.51,0,0,1-.16-0.64,3.78,3.78,0,0,1-.05-0.62,3.86,3.86,0,0,1,.22-1.24h1.3l-0.58-2H16.17l-0.63,2h1.32A3.68,3.68,0,0,1,17,28a3.73,3.73,0,0,1,.05.61,3.92,3.92,0,0,1-.05.62,3.61,3.61,0,0,1-.16.64H10.73a4.66,4.66,0,0,1-.16-0.69,4.09,4.09,0,0,1-.05-0.65,3.91,3.91,0,0,1,.05-0.64,4.76,4.76,0,0,1,.16-0.68h1.32Zm8.13-4.29-1.6-5.81-1.71,5.81h3.32Z"/><path class="cls-3" d="M37.82,29.18a10.44,10.44,0,0,1-1.63.65,8.22,8.22,0,0,1-2.54.35,6.83,6.83,0,0,1-2.59-.45,5.19,5.19,0,0,1-1.86-1.26,5.28,5.28,0,0,1-1.13-1.9,7.19,7.19,0,0,1-.38-2.37A8.6,8.6,0,0,1,28,21.78a5.77,5.77,0,0,1,1-1.94,4.54,4.54,0,0,1,1.57-1.29,4.75,4.75,0,0,1,2.15-.47,3.53,3.53,0,0,1,1.68.35,2.59,2.59,0,0,1,.94.8V18.56a2.51,2.51,0,0,1,.57-0.17,3.85,3.85,0,0,1,1.41,0,2.51,2.51,0,0,1,.57.17v4.72a3.32,3.32,0,0,1-.63.19,3.54,3.54,0,0,1-1.56,0,3.3,3.3,0,0,1-.63-0.19V22.5a1.81,1.81,0,0,0-.45-1.37,1.66,1.66,0,0,0-1.19-.43,1.58,1.58,0,0,0-.92.26,2,2,0,0,0-.63.7,3.52,3.52,0,0,0-.37,1.05A6.58,6.58,0,0,0,31.38,24a3.32,3.32,0,0,0,.83,2.49,3,3,0,0,0,2.14.8,4.74,4.74,0,0,0,1.94-.38A8,8,0,0,0,37.82,26v3.14Z"/><path class="cls-3" d="M49.9,29.18a10.47,10.47,0,0,1-1.62.65,8.23,8.23,0,0,1-2.54.35,6.83,6.83,0,0,1-2.59-.45,5.17,5.17,0,0,1-1.86-1.26,5.26,5.26,0,0,1-1.13-1.9,7.19,7.19,0,0,1-.38-2.37,8.6,8.6,0,0,1,.32-2.42,5.75,5.75,0,0,1,1-1.94,4.52,4.52,0,0,1,1.57-1.29,4.74,4.74,0,0,1,2.15-.47,3.52,3.52,0,0,1,1.68.35,2.6,2.6,0,0,1,.94.8V18.56A2.49,2.49,0,0,1,48,18.38a3.85,3.85,0,0,1,1.41,0,2.51,2.51,0,0,1,.57.17v4.72a3.3,3.3,0,0,1-.63.19,3.54,3.54,0,0,1-1.56,0,3.32,3.32,0,0,1-.63-0.19V22.5a1.81,1.81,0,0,0-.45-1.37,1.66,1.66,0,0,0-1.19-.43,1.59,1.59,0,0,0-.92.26,2,2,0,0,0-.63.7,3.52,3.52,0,0,0-.37,1.05A6.68,6.68,0,0,0,43.47,24a3.32,3.32,0,0,0,.83,2.49,3,3,0,0,0,2.13.8,4.74,4.74,0,0,0,1.94-.38A8,8,0,0,0,49.9,26v3.14Z"/><path class="cls-3" d="M62,29.46a13.6,13.6,0,0,1-1.95.53,11.06,11.06,0,0,1-2.15.21,6.69,6.69,0,0,1-2.77-.52,5.55,5.55,0,0,1-1.9-1.36,5.33,5.33,0,0,1-1.09-1.94,7.45,7.45,0,0,1-.35-2.26,8,8,0,0,1,.31-2.22,5.75,5.75,0,0,1,1-2,4.86,4.86,0,0,1,1.7-1.38A5.47,5.47,0,0,1,57.28,18a5.54,5.54,0,0,1,2.54.52,4.39,4.39,0,0,1,1.62,1.35,5.35,5.35,0,0,1,.84,1.84,8.26,8.26,0,0,1,.25,2V25h-7a2.58,2.58,0,0,0,.86,1.71,3,3,0,0,0,2,.67,8.2,8.2,0,0,0,1.9-.19A14.08,14.08,0,0,0,62,26.68v2.77Zm-3-6.55a2.64,2.64,0,0,0-.47-1.8,1.6,1.6,0,0,0-1.27-.56q-1.6,0-1.84,2.36H59Z"/><path class="cls-3" d="M64.41,26A2.2,2.2,0,0,1,65,25.8a3.62,3.62,0,0,1,.68-0.06,3.45,3.45,0,0,1,.67.06,2.22,2.22,0,0,1,.54.17v0.45a0.87,0.87,0,0,0,.16.47,1.56,1.56,0,0,0,.49.46,3.23,3.23,0,0,0,.78.35,3.49,3.49,0,0,0,1,.14q1.6,0,1.6-1a1,1,0,0,0-.27-0.69,2.2,2.2,0,0,0-1-.52l-1.69-.48-1.09-.36a4,4,0,0,1-1.11-.58,3.07,3.07,0,0,1-.84-1,3,3,0,0,1-.34-1.51,3.29,3.29,0,0,1,1.39-2.84,4,4,0,0,1,1.32-.62,5.44,5.44,0,0,1,1.34-.18,4.06,4.06,0,0,1,1.8.34,4,4,0,0,1,1,.68V18.58A2.19,2.19,0,0,1,72,18.41a3.51,3.51,0,0,1,1.34,0,2.16,2.16,0,0,1,.54.17V22a2.6,2.6,0,0,1-.56.17,3.74,3.74,0,0,1-1.39,0A2.6,2.6,0,0,1,71.34,22v-0.3a1.26,1.26,0,0,0-.45-1,2,2,0,0,0-1.37-.41,1.92,1.92,0,0,0-1.21.3,0.9,0.9,0,0,0-.37.71,0.76,0.76,0,0,0,.17.51,1.63,1.63,0,0,0,.74.38l2,0.56,1.2,0.38a3.82,3.82,0,0,1,1.17.62,3.23,3.23,0,0,1,.88,1.07,3.66,3.66,0,0,1,.35,1.7,3.18,3.18,0,0,1-1.4,2.76,4.34,4.34,0,0,1-1.37.62,5.71,5.71,0,0,1-1.44.19,7.48,7.48,0,0,1-1.13-.08,4.73,4.73,0,0,1-.89-0.22,4.66,4.66,0,0,1-.71-0.32,5.13,5.13,0,0,1-.61-0.4V29.7a2.18,2.18,0,0,1-.56.17,3.73,3.73,0,0,1-1.39,0,2.16,2.16,0,0,1-.56-0.17V26Z"/><path class="cls-3" d="M76.37,26a2.2,2.2,0,0,1,.55-0.17,3.62,3.62,0,0,1,.68-0.06,3.45,3.45,0,0,1,.67.06,2.22,2.22,0,0,1,.54.17v0.45a0.87,0.87,0,0,0,.16.47,1.56,1.56,0,0,0,.49.46,3.23,3.23,0,0,0,.78.35,3.49,3.49,0,0,0,1,.14q1.6,0,1.6-1a1,1,0,0,0-.27-0.69,2.2,2.2,0,0,0-1-.52l-1.69-.48-1.09-.36a4,4,0,0,1-1.11-.58,3.07,3.07,0,0,1-.84-1,3,3,0,0,1-.34-1.51,3.29,3.29,0,0,1,1.39-2.84,4,4,0,0,1,1.32-.62,5.44,5.44,0,0,1,1.34-.18,4.06,4.06,0,0,1,1.8.34,4,4,0,0,1,1,.68V18.58a2.19,2.19,0,0,1,.54-0.17,3.51,3.51,0,0,1,1.34,0,2.16,2.16,0,0,1,.54.17V22a2.6,2.6,0,0,1-.56.17,3.74,3.74,0,0,1-1.39,0A2.6,2.6,0,0,1,83.31,22v-0.3a1.26,1.26,0,0,0-.45-1,2,2,0,0,0-1.37-.41,1.92,1.92,0,0,0-1.21.3,0.9,0.9,0,0,0-.37.71,0.76,0.76,0,0,0,.17.51,1.63,1.63,0,0,0,.74.38l2,0.56L84,23.16a3.82,3.82,0,0,1,1.17.62,3.23,3.23,0,0,1,.88,1.07,3.66,3.66,0,0,1,.35,1.7A3.18,3.18,0,0,1,85,29.32a4.34,4.34,0,0,1-1.37.62,5.71,5.71,0,0,1-1.44.19,7.48,7.48,0,0,1-1.13-.08,4.73,4.73,0,0,1-.89-0.22,4.66,4.66,0,0,1-.71-0.32,5.13,5.13,0,0,1-.61-0.4V29.7a2.18,2.18,0,0,1-.56.17,3.73,3.73,0,0,1-1.39,0,2.16,2.16,0,0,1-.56-0.17V26Z"/></svg>