<svg id="type" xmlns="http://www.w3.org/2000/svg" viewBox="0 0 162 44"><defs><style>.cls-1{opacity:0;}.cls-2{fill:#5f259f;}.cls-3{fill:#fff;}</style></defs><title>Programs</title><g id="color_blocks" data-name="color blocks" class="cls-1"><rect class="cls-2" x="59" y="-59" width="44" height="162" transform="translate(59 103) rotate(-90)"/></g><path class="cls-3" d="M13.6,27.23V16.76H12.26a4.61,4.61,0,0,1-.16-0.68A3.9,3.9,0,0,1,12,15.44a4.1,4.1,0,0,1,.05-0.65,4.58,4.58,0,0,1,.16-0.69h7.82a5.94,5.94,0,0,1,2.18.37,4.56,4.56,0,0,1,1.58,1,4.21,4.21,0,0,1,1,1.5,5.17,5.17,0,0,1,.32,1.85,6.14,6.14,0,0,1-.25,1.71A4.12,4.12,0,0,1,24,22.09a4.51,4.51,0,0,1-1.56,1.14,5.71,5.71,0,0,1-2.4.44H17.24v3.55h1.65a4.92,4.92,0,0,1,.16.68,3.91,3.91,0,0,1,.05.64,4.09,4.09,0,0,1-.05.65,4.8,4.8,0,0,1-.16.69H12.26a4.52,4.52,0,0,1-.16-0.69A4.09,4.09,0,0,1,12,28.55a3.91,3.91,0,0,1,.05-0.64,4.61,4.61,0,0,1,.16-0.68H13.6ZM19.28,21a1.87,1.87,0,0,0,2.08-2.13,2,2,0,0,0-.53-1.49,2,2,0,0,0-1.49-.52h-2.1V21h2Z"/><path class="cls-3" d="M32,30.2a6,6,0,0,1-2.58-.51,5.22,5.22,0,0,1-1.8-1.36,5.58,5.58,0,0,1-1.06-1.94,7.66,7.66,0,0,1,0-4.55A5.6,5.6,0,0,1,27.6,19.9a5.23,5.23,0,0,1,1.8-1.35A6,6,0,0,1,32,18a6.1,6.1,0,0,1,2.59.51,5.25,5.25,0,0,1,1.81,1.35,5.57,5.57,0,0,1,1.06,1.94,7.61,7.61,0,0,1,0,4.55,5.56,5.56,0,0,1-1.06,1.94,5.23,5.23,0,0,1-1.81,1.36A6.1,6.1,0,0,1,32,30.2Zm0-2.71a1.69,1.69,0,0,0,1-.27,2,2,0,0,0,.65-0.74A3.89,3.89,0,0,0,34,25.4a6.74,6.74,0,0,0,.12-1.29A6.57,6.57,0,0,0,34,22.83a3.72,3.72,0,0,0-.37-1.06A2.05,2.05,0,0,0,32.95,21a1.68,1.68,0,0,0-1-.27A1.63,1.63,0,0,0,31,21a2.07,2.07,0,0,0-.64.73A3.62,3.62,0,0,0,30,22.83a6.67,6.67,0,0,0-.12,1.28A6.84,6.84,0,0,0,30,25.4a3.78,3.78,0,0,0,.37,1.08,2.06,2.06,0,0,0,.64.74A1.64,1.64,0,0,0,32,27.49Z"/><path class="cls-3" d="M39.87,20.79h-1a3.57,3.57,0,0,1-.22-1.21,3.63,3.63,0,0,1,.22-1.23h5.33a2.65,2.65,0,0,1,.16.58,3.84,3.84,0,0,1,.05.63,3.47,3.47,0,0,1-.05.61,2.69,2.69,0,0,1-.16.56H43.34L44.79,26l1.88-7.69h3.19L51.81,26l1.37-5.29H52.35a2.56,2.56,0,0,1-.16-0.56,3.36,3.36,0,0,1-.05-0.61,3.72,3.72,0,0,1,.05-0.63,2.53,2.53,0,0,1,.16-0.58h5.09a3.66,3.66,0,0,1,.22,1.23,3.6,3.6,0,0,1-.22,1.21h-1l-2.95,9.15H50.08l-1.91-7-1.86,7H42.84Z"/><path class="cls-3" d="M68.78,29.46a13.66,13.66,0,0,1-2,.53,11.06,11.06,0,0,1-2.15.21,6.69,6.69,0,0,1-2.77-.52A5.54,5.54,0,0,1,60,28.31a5.31,5.31,0,0,1-1.1-1.94,7.45,7.45,0,0,1-.35-2.26,8,8,0,0,1,.31-2.22,5.75,5.75,0,0,1,1-2,4.86,4.86,0,0,1,1.7-1.38A5.47,5.47,0,0,1,64,18a5.53,5.53,0,0,1,2.53.52,4.38,4.38,0,0,1,1.62,1.35A5.35,5.35,0,0,1,69,21.75a8.2,8.2,0,0,1,.25,2V25h-7a2.58,2.58,0,0,0,.86,1.71,3,3,0,0,0,2,.67,8.2,8.2,0,0,0,1.9-.19,14.16,14.16,0,0,0,1.72-.54v2.77Zm-3-6.55a2.65,2.65,0,0,0-.47-1.8A1.6,1.6,0,0,0,64,20.55q-1.61,0-1.84,2.36h3.58Z"/><path class="cls-3" d="M72.14,27.44V20.79H70.91a3.57,3.57,0,0,1-.22-1.21,3.63,3.63,0,0,1,.22-1.23h4.4l0.13,1.8a3,3,0,0,1,1.26-1.43,3.12,3.12,0,0,1,1.39-.37,3.86,3.86,0,0,1,.79.08,3.32,3.32,0,0,1,.73.25l-0.37,2.93-0.64-.19a2.63,2.63,0,0,0-.7-0.09,2.22,2.22,0,0,0-.86.17,1.83,1.83,0,0,0-.73.54,2.1,2.1,0,0,0-.38.71,3.31,3.31,0,0,0-.14,1v3.68h1.47a3.66,3.66,0,0,1,.22,1.23,3.6,3.6,0,0,1-.22,1.21H70.91a3.57,3.57,0,0,1-.22-1.21,3.63,3.63,0,0,1,.22-1.23h1.23Z"/><path class="cls-3" d="M81.92,27.23V16.76H80.57a4.76,4.76,0,0,1-.16-0.68,4,4,0,0,1-.05-0.64,4.24,4.24,0,0,1,.05-0.65,4.72,4.72,0,0,1,.16-0.69H92.84v4.75a2.51,2.51,0,0,1-.75.25,4.47,4.47,0,0,1-.79.08,4.64,4.64,0,0,1-.8-0.08,2.51,2.51,0,0,1-.76-0.25V16.93h-4.1v3.71h5.14a5.44,5.44,0,0,1,.16.76,5.3,5.3,0,0,1,.05.69,5.21,5.21,0,0,1-.05.7,5.5,5.5,0,0,1-.16.75H85.64v3.68h1.69a4.92,4.92,0,0,1,.16.68,4,4,0,0,1,.05.64,4.22,4.22,0,0,1-.05.65,4.8,4.8,0,0,1-.16.69H80.57a4.66,4.66,0,0,1-.16-0.69,4.23,4.23,0,0,1-.05-0.65,4,4,0,0,1,.05-0.64,4.76,4.76,0,0,1,.16-0.68h1.34Z"/><path class="cls-3" d="M93.58,27.23L98,13.9h4.42l4.27,13.33h1.21a5.09,5.09,0,0,1,.16.68,4.18,4.18,0,0,1,.05.64,4.37,4.37,0,0,1-.05.65,5,5,0,0,1-.16.69h-6.31a3.51,3.51,0,0,1-.16-0.64,3.92,3.92,0,0,1-.05-0.62,3.73,3.73,0,0,1,.05-0.61,3.57,3.57,0,0,1,.16-0.63h1.3l-0.58-2H97.69l-0.63,2h1.32a3.68,3.68,0,0,1,.16.63,3.6,3.6,0,0,1,.05.61,3.78,3.78,0,0,1-.05.62,3.61,3.61,0,0,1-.16.64H92.26a4.66,4.66,0,0,1-.16-0.69A4.23,4.23,0,0,1,92,28.55a4,4,0,0,1,.05-0.64,4.76,4.76,0,0,1,.16-0.68h1.32Zm8.13-4.29-1.6-5.81-1.71,5.81h3.32Z"/><path class="cls-3" d="M111.22,27.23V16.76h-1.34a5.09,5.09,0,0,1-.16-0.68,4.17,4.17,0,0,1-.05-0.64,4.39,4.39,0,0,1,.05-0.65,5,5,0,0,1,.16-0.69h6.42a4.58,4.58,0,0,1,.16.69,4.11,4.11,0,0,1,.06.65,3.91,3.91,0,0,1-.06.64,4.61,4.61,0,0,1-.16.68h-1.34V27.23h1.34a4.61,4.61,0,0,1,.16.68,3.92,3.92,0,0,1,.06.64,4.1,4.1,0,0,1-.06.65,4.52,4.52,0,0,1-.16.69h-6.42a5,5,0,0,1-.16-0.69,4.37,4.37,0,0,1-.05-0.65,4.18,4.18,0,0,1,.05-0.64,5.09,5.09,0,0,1,.16-0.68h1.34Z"/><path class="cls-3" d="M119.89,27.23V16.76h-1.34a4.92,4.92,0,0,1-.16-0.68,4,4,0,0,1-.05-0.64,4.23,4.23,0,0,1,.05-0.65,4.88,4.88,0,0,1,.16-0.69h7.63a7.37,7.37,0,0,1,3.06.61,6.56,6.56,0,0,1,2.26,1.66,7.18,7.18,0,0,1,1.4,2.46,9.36,9.36,0,0,1,.48,3,10.88,10.88,0,0,1-.14,1.68,9.75,9.75,0,0,1-.47,1.8,8.92,8.92,0,0,1-.85,1.72,6.07,6.07,0,0,1-1.3,1.46,6.14,6.14,0,0,1-1.83,1,7.1,7.1,0,0,1-2.42.38h-7.82a4.8,4.8,0,0,1-.16-0.69,4.22,4.22,0,0,1-.05-0.65,4,4,0,0,1,.05-0.64,4.92,4.92,0,0,1,.16-0.68h1.34ZM126,27a2.89,2.89,0,0,0,1.18-.22,2.73,2.73,0,0,0,.88-0.63,4.71,4.71,0,0,0,1-1.7,7.93,7.93,0,0,0,.37-2.57,7.8,7.8,0,0,0-.31-2.34A4.38,4.38,0,0,0,128.2,18a2.94,2.94,0,0,0-1.06-.75A3.76,3.76,0,0,0,125.7,17h-2.08V27H126Z"/><path class="cls-3" d="M135.5,24.21a2.26,2.26,0,0,1,.71-0.25,4.38,4.38,0,0,1,.78-0.08,4.2,4.2,0,0,1,.77.08,2.27,2.27,0,0,1,.7.25V25.1a1.56,1.56,0,0,0,.23.77,2.41,2.41,0,0,0,.68.74,3.87,3.87,0,0,0,1.13.55,5.11,5.11,0,0,0,1.56.22,3.29,3.29,0,0,0,2-.47,1.45,1.45,0,0,0,.63-1.22q0-1.34-2.08-2l-2.84-.82a8.79,8.79,0,0,1-1.49-.56,4.85,4.85,0,0,1-1.26-.87,3.93,3.93,0,0,1-.87-1.25,4.22,4.22,0,0,1-.33-1.74,4.42,4.42,0,0,1,.49-2.14,4.69,4.69,0,0,1,1.26-1.5,5.21,5.21,0,0,1,1.71-.88,6.45,6.45,0,0,1,1.85-.28,5.56,5.56,0,0,1,2.26.4,3.43,3.43,0,0,1,1.38,1V14.27a2.26,2.26,0,0,1,.69-0.25,3.83,3.83,0,0,1,.74-0.08,4,4,0,0,1,.75.08,2.25,2.25,0,0,1,.7.25v5a2.25,2.25,0,0,1-.7.25,4.12,4.12,0,0,1-.77.08,4.26,4.26,0,0,1-.78-0.08,2.26,2.26,0,0,1-.71-0.25V18.8a2,2,0,0,0-.18-0.83,2.08,2.08,0,0,0-.55-0.71,2.81,2.81,0,0,0-1-.51,4.33,4.33,0,0,0-1.37-.19,2.91,2.91,0,0,0-1.18.22,2,2,0,0,0-.77.56,1.32,1.32,0,0,0-.3.87,1.38,1.38,0,0,0,.29.84,2.15,2.15,0,0,0,1.18.63l2.69,0.76a15.33,15.33,0,0,1,1.88.66,5.9,5.9,0,0,1,1.54,1,4.11,4.11,0,0,1,1,1.4,4.8,4.8,0,0,1,.38,2,4.27,4.27,0,0,1-1.85,3.68,5.74,5.74,0,0,1-1.88.86,8.21,8.21,0,0,1-2.08.27,7,7,0,0,1-2.46-.42,3.61,3.61,0,0,1-1.7-1.18v1a2.23,2.23,0,0,1-.71.25,4.08,4.08,0,0,1-.75.08,3.76,3.76,0,0,1-.73-0.08,2.22,2.22,0,0,1-.68-0.25V24.21Z"/><path class="cls-3" d="M149.11,15.32a1.5,1.5,0,0,1,.13-0.62,1.55,1.55,0,0,1,.34-0.49,1.57,1.57,0,0,1,.5-0.32,1.6,1.6,0,0,1,.6-0.11,1.58,1.58,0,0,1,1.1.44,1.55,1.55,0,0,1,.34.49,1.5,1.5,0,0,1,.13.62,1.53,1.53,0,0,1-.13.62,1.55,1.55,0,0,1-.34.49,1.62,1.62,0,0,1-.5.32,1.55,1.55,0,0,1-.6.12,1.58,1.58,0,0,1-.6-0.12,1.62,1.62,0,0,1-.5-0.32,1.55,1.55,0,0,1-.34-0.49A1.53,1.53,0,0,1,149.11,15.32Zm1.57,1.21a1.13,1.13,0,0,0,.45-0.09,1.14,1.14,0,0,0,.37-0.25,1.13,1.13,0,0,0,.25-0.38,1.26,1.26,0,0,0,.09-0.48,1.23,1.23,0,0,0-.09-0.47,1.15,1.15,0,0,0-1.07-.72,1.17,1.17,0,0,0-.46.09,1.13,1.13,0,0,0-.62.63,1.23,1.23,0,0,0-.09.47,1.26,1.26,0,0,0,.09.48,1.13,1.13,0,0,0,.25.38A1.17,1.17,0,0,0,150.68,16.53ZM150.12,16V14.69H150l0-.08a0.31,0.31,0,0,1,0-.06,0.26,0.26,0,0,1,0,0l0-.08h0.79a0.65,0.65,0,0,1,.23,0,0.52,0.52,0,0,1,.18.11,0.51,0.51,0,0,1,.12.17,0.54,0.54,0,0,1,0,.21,0.68,0.68,0,0,1-.06.27,0.45,0.45,0,0,1-.23.23L151.29,16h0.13a0.4,0.4,0,0,1,0,.09s0,0,0,.06a0.37,0.37,0,0,1,0,0,0.43,0.43,0,0,1,0,.08H151l-0.32-.73h-0.26V16h0.15a0.55,0.55,0,0,1,0,.09,0.45,0.45,0,0,1,0,.06,0.4,0.4,0,0,1,0,0,0.44,0.44,0,0,1,0,.08H150l0-.08a0.26,0.26,0,0,1,0,0,0.3,0.3,0,0,1,0-.06l0-.09h0.13Zm0.6-.75a0.26,0.26,0,0,0,.2-0.07,0.27,0.27,0,0,0,.07-0.19,0.23,0.23,0,0,0-.25-0.24h-0.29v0.5h0.28Z"/></svg>