<svg id="type" xmlns="http://www.w3.org/2000/svg" viewBox="0 0 125 44"><defs><style>.cls-1{opacity:0;}.cls-2{fill:#009cde;}.cls-3{fill:#fff;}</style></defs><title>Programs</title><g id="color_blocks" data-name="color blocks" class="cls-1"><rect class="cls-2" x="40.5" y="-40.5" width="44" height="125" transform="translate(40.5 84.5) rotate(-90)"/></g><path class="cls-3" d="M23.84,15.47a4.55,4.55,0,0,0-1.58-1,6,6,0,0,0-2.18-.37H12.26a4.8,4.8,0,0,0-.16.69,4.24,4.24,0,0,0-.05.65,4,4,0,0,0,.05.64,4.84,4.84,0,0,0,.16.68H13.6V27.23H12.26a4.84,4.84,0,0,0-.16.68,4,4,0,0,0-.05.64,4.23,4.23,0,0,0,.05.65,4.73,4.73,0,0,0,.16.69h6.63a4.88,4.88,0,0,0,.16-0.69,4.23,4.23,0,0,0,.05-0.65,4,4,0,0,0-.05-0.64,5,5,0,0,0-.16-0.68H17.24V23.67h2.84a5.71,5.71,0,0,0,2.4-.44A4.51,4.51,0,0,0,24,22.09a4.13,4.13,0,0,0,.85-1.56,6.18,6.18,0,0,0,.25-1.71A5.19,5.19,0,0,0,24.81,17,4.21,4.21,0,0,0,23.84,15.47Zm-3,5a2.13,2.13,0,0,1-1.54.52h-2V16.82h2.1a2,2,0,0,1,1.48.52,2,2,0,0,1,.53,1.49A2.13,2.13,0,0,1,20.82,20.44Z"/><path class="cls-3" d="M38.25,22a5.9,5.9,0,0,0-1.54-1,15.25,15.25,0,0,0-1.87-.66l-2.69-.76A2.15,2.15,0,0,1,31,19a1.38,1.38,0,0,1-.29-0.84,1.32,1.32,0,0,1,.3-0.87,2,2,0,0,1,.77-0.56,2.91,2.91,0,0,1,1.18-.22,4.32,4.32,0,0,1,1.37.19,2.82,2.82,0,0,1,1,.51,2.08,2.08,0,0,1,.55.71,2,2,0,0,1,.18.83v0.52a2.26,2.26,0,0,0,.72.25,4.27,4.27,0,0,0,.78.08,4.11,4.11,0,0,0,.77-0.08,2.26,2.26,0,0,0,.7-0.25v-5a2.26,2.26,0,0,0-.7-0.25,4,4,0,0,0-.75-0.08,3.82,3.82,0,0,0-.74.08,2.25,2.25,0,0,0-.69.25v0.87a3.44,3.44,0,0,0-1.38-1,5.57,5.57,0,0,0-2.26-.4,6.45,6.45,0,0,0-1.85.28,5.22,5.22,0,0,0-1.71.88,4.7,4.7,0,0,0-1.26,1.5,4.42,4.42,0,0,0-.49,2.14,4.24,4.24,0,0,0,.33,1.74,3.93,3.93,0,0,0,.87,1.25,4.84,4.84,0,0,0,1.26.87,8.83,8.83,0,0,0,1.5.56l2.84,0.82q2.08,0.61,2.08,2a1.45,1.45,0,0,1-.63,1.22,3.29,3.29,0,0,1-2,.47,5.11,5.11,0,0,1-1.56-.22,3.89,3.89,0,0,1-1.13-.55A2.42,2.42,0,0,1,30,25.87a1.57,1.57,0,0,1-.23-0.77V24.21A2.26,2.26,0,0,0,29.1,24a4.2,4.2,0,0,0-.77-0.08,4.37,4.37,0,0,0-.78.08,2.25,2.25,0,0,0-.71.25v5.46a2.22,2.22,0,0,0,.68.25,3.76,3.76,0,0,0,.73.08A4.09,4.09,0,0,0,29,29.93a2.23,2.23,0,0,0,.7-0.25v-1a3.61,3.61,0,0,0,1.7,1.18,7,7,0,0,0,2.46.42A8.21,8.21,0,0,0,35.94,30a5.73,5.73,0,0,0,1.87-.86,4.27,4.27,0,0,0,1.85-3.68,4.8,4.8,0,0,0-.38-2A4.11,4.11,0,0,0,38.25,22Z"/><path class="cls-3" d="M56.88,27.23H55.67L51.4,13.9H47L42.53,27.23H41.21a4.84,4.84,0,0,0-.16.68,4,4,0,0,0-.05.64,4.16,4.16,0,0,0,.05.65,4.73,4.73,0,0,0,.16.69h6.13a3.66,3.66,0,0,0,.16-0.64,3.91,3.91,0,0,0,.05-0.62,3.84,3.84,0,0,0-.22-1.24H46l0.63-2h4.64l0.58,2h-1.3a3.86,3.86,0,0,0-.22,1.24,3.85,3.85,0,0,0,.05.62,3.56,3.56,0,0,0,.16.64h6.31A4.73,4.73,0,0,0,57,29.2a4.23,4.23,0,0,0,.05-0.65A4,4,0,0,0,57,27.91,4.84,4.84,0,0,0,56.88,27.23Zm-9.54-4.29,1.71-5.81,1.6,5.81H47.35Z"/><path class="cls-3" d="M56.72,19.36a2.26,2.26,0,0,0,.7.25,4,4,0,0,0,.75.08,4.35,4.35,0,0,0,.77-0.08,2.26,2.26,0,0,0,.73-0.25V16.82H62v10.4H60.6a4.84,4.84,0,0,0-.16.68,4,4,0,0,0-.05.64,4.23,4.23,0,0,0,.05.65,4.73,4.73,0,0,0,.16.69h6.52a4.8,4.8,0,0,0,.16-0.69,4.23,4.23,0,0,0,.05-0.65,4,4,0,0,0-.05-0.64,4.92,4.92,0,0,0-.16-0.68H65.7V16.82h2.36v2.54a2.26,2.26,0,0,0,.7.25,4,4,0,0,0,.75.08,4.35,4.35,0,0,0,.77-0.08A2.26,2.26,0,0,0,71,19.36V14.09H56.72v5.27Z"/><path class="cls-3" d="M90.66,27.1a5.45,5.45,0,0,0,.37-2,4.87,4.87,0,0,0-.11-1,3.84,3.84,0,0,0-.36-1,4.06,4.06,0,0,0-.73-1,4.36,4.36,0,0,0-1.2-.82l-0.14-.07,0.13-.08A4.81,4.81,0,0,0,89.93,20a3.19,3.19,0,0,0,.55-1.95,4.29,4.29,0,0,0-.32-1.61,3.76,3.76,0,0,0-1-1.39,5.06,5.06,0,0,0-1.77-1,8.33,8.33,0,0,0-2.63-.37,8.21,8.21,0,0,0-2.62.37,5.06,5.06,0,0,0-1.75,1,3.75,3.75,0,0,0-1,1.39,4.29,4.29,0,0,0-.32,1.61,3.36,3.36,0,0,0,.51,2,4.08,4.08,0,0,0,1.34,1.21l0.14,0.08-0.15.07a4.37,4.37,0,0,0-1.2.82,4,4,0,0,0-.73,1,3.84,3.84,0,0,0-.36,1,4.88,4.88,0,0,0-.11,1,5.47,5.47,0,0,0,.37,2A4.45,4.45,0,0,0,80,28.74a5.37,5.37,0,0,0,1.93,1.12,8.59,8.59,0,0,0,2.82.41,8.71,8.71,0,0,0,2.83-.41,5.37,5.37,0,0,0,1.94-1.12A4.44,4.44,0,0,0,90.66,27.1Zm-7.73-9.41a1.68,1.68,0,0,1,.29-0.63,1.74,1.74,0,0,1,.59-0.49,2,2,0,0,1,1-.2,2.07,2.07,0,0,1,1,.2,1.74,1.74,0,0,1,.59.49,1.66,1.66,0,0,1,.29.63,2.8,2.8,0,0,1,.07.61,2.09,2.09,0,0,1-.45,1.27,1.74,1.74,0,0,1-1.48.61A2.07,2.07,0,0,1,83.9,20a1.58,1.58,0,0,1-.59-0.44A2,2,0,0,1,83,19a2.05,2.05,0,0,1-.11-0.67A2.8,2.8,0,0,1,82.93,17.69Zm4,8.56a2.16,2.16,0,0,1-.52.72,2,2,0,0,1-.76.41,3.18,3.18,0,0,1-.87.12,3.05,3.05,0,0,1-.86-0.12A2,2,0,0,1,83.15,27a2.13,2.13,0,0,1-.52-0.72,2.6,2.6,0,0,1-.2-1.08,2.23,2.23,0,0,1,.67-1.72,2.36,2.36,0,0,1,1.66-.62,2.39,2.39,0,0,1,1.69.62,2.23,2.23,0,0,1,.67,1.72A2.61,2.61,0,0,1,86.93,26.24Z"/><polygon class="cls-3" points="92 30.28 95.08 30.28 100.37 13.46 97.29 13.46 92 30.28"/><path class="cls-3" d="M111.87,27.29A9.07,9.07,0,0,0,113,24.47a13.53,13.53,0,0,0,.33-2.88,14,14,0,0,0-.3-2.87,7.56,7.56,0,0,0-1-2.52,5.49,5.49,0,0,0-1.91-1.8,6,6,0,0,0-3-.7,5.75,5.75,0,0,0-4.36,1.58,6.05,6.05,0,0,0-1.5,4.32,6.37,6.37,0,0,0,.4,2.4,4.54,4.54,0,0,0,1.06,1.6,4,4,0,0,0,1.52.9,5.78,5.78,0,0,0,1.79.28,4.53,4.53,0,0,0,1.86-.34,4.13,4.13,0,0,0,1.22-.81l0.15-.15v0.21a4.42,4.42,0,0,1-.91,2.86,3.23,3.23,0,0,1-2.56,1,7.52,7.52,0,0,1-1.87-.22,9.66,9.66,0,0,1-1.78-.69v2.84l0.9,0.32a8.08,8.08,0,0,0,2,.41c0.4,0,.86,0,1.38,0a6.08,6.08,0,0,0,3.32-.85A6.67,6.67,0,0,0,111.87,27.29Zm-3.1-6.08a1.84,1.84,0,0,1-1.6.79,1.81,1.81,0,0,1-1.65-.81,3.65,3.65,0,0,1-.49-2,3.2,3.2,0,0,1,.56-2,1.9,1.9,0,0,1,1.59-.73,1.88,1.88,0,0,1,1.61.74,3.22,3.22,0,0,1,.53,1.93A3.48,3.48,0,0,1,108.77,21.2Z"/><path class="cls-3" d="M76.71,14.43l0-.1a0.3,0.3,0,0,0,0-.07,0.51,0.51,0,0,0,0-.06l0-.11H76l-0.47,1.49L75,14.09H74.32l0,0.1a0.24,0.24,0,0,0,0,.07,0.25,0.25,0,0,0,0,.07l0,0.1H74.5v1.39H74.32l0,0.1a0.24,0.24,0,0,0,0,.07,0.23,0.23,0,0,0,0,.07l0,0.1H75a0.6,0.6,0,0,0,0-.16,0.32,0.32,0,0,0,0-.07l0-.11H74.86V14.66l0.46,1.45h0.36l0.47-1.45v1.17H76a0.8,0.8,0,0,0,0,.11,0.47,0.47,0,0,0,0,.07,0.29,0.29,0,0,0,0,.06l0,0.1h0.75l0-.1a0.29,0.29,0,0,0,0-.06,0.56,0.56,0,0,0,0-.07l0-.11H76.53V14.43h0.18Z"/><path class="cls-3" d="M72.27,14.81l0.11,0h0.14l0.1,0V14.42H73v1.4h-0.2a0.82,0.82,0,0,0,0,.11,0.47,0.47,0,0,0,0,.07,0.44,0.44,0,0,0,0,.06,0.7,0.7,0,0,0,0,.1h0.8a0.53,0.53,0,0,0,0-.1,0.44,0.44,0,0,0,0-.06,0.47,0.47,0,0,0,0-.07l0-.11H73.4v-1.4h0.36v0.39l0.11,0H74l0.12,0V14.09H72.27v0.72Z"/></svg>