<svg id="type" xmlns="http://www.w3.org/2000/svg" viewBox="0 0 44 44"><defs><style>.cls-1{fill:#fff;}</style></defs><title>Programs</title><path class="cls-1" d="M26.89,15.86a5.84,5.84,0,0,0-.8-0.27,10.55,10.55,0,0,0-1.23-.26c-0.59-.1-2.16-0.25-2.42-0.26-0.08,0,0-.09,0-0.14s0.21-.25.3-0.38a2.36,2.36,0,0,0,.42-0.87,3.27,3.27,0,0,0,.08-1.1,2,2,0,0,0-.08-0.4A0.2,0.2,0,0,0,22.84,12a2.09,2.09,0,0,0-.36.15,4.31,4.31,0,0,0-1.77,1.54,2.09,2.09,0,0,0-.29.87c0,0.09,0,.18,0,0.27a0.35,0.35,0,0,1,0,.17,0.25,0.25,0,0,1-.19.1c-0.15,0-1,.11-1.33.16a12.35,12.35,0,0,0-1.94.46,4.37,4.37,0,0,0-.69.29l0,0-0.29.17,0,0a2.69,2.69,0,0,0-.29.22l-0.18.17-0.06.06-0.08.08a2.48,2.48,0,0,0-.3.44l0,0a2.14,2.14,0,0,0-.09.2l-0.05.13,0,0.07a2.54,2.54,0,0,0-.07.25,2.27,2.27,0,0,0,0,.6c0,0.07,0,.14,0,0.21l0,0.13,0,0.12a3.75,3.75,0,0,0,.3.92,5,5,0,0,0,.91,1.39,0.37,0.37,0,0,1,.06.21,7.37,7.37,0,0,0,.39,1.91,10.6,10.6,0,0,0,3.28,4.7l0.72,0.6c0.28,0.24.8,0.6,0.8,0.6a0.91,0.91,0,0,0,.57.18,1.41,1.41,0,0,0,.8-0.31c0.29-.19,1.47-1.21,1.47-1.21a9.57,9.57,0,0,0,3.47-6.45,0.37,0.37,0,0,1,.06-0.22,5,5,0,0,0,.91-1.39,3.37,3.37,0,0,0,.31-2A2.88,2.88,0,0,0,26.89,15.86Zm-5.47-1.28a1.47,1.47,0,0,1,.11-0.45,2.83,2.83,0,0,1,.61-0.95A1.59,1.59,0,0,1,22.42,13a0.26,0.26,0,0,1,.16-0.06,1,1,0,0,1-.1.54,2.93,2.93,0,0,1-.49.89,2.22,2.22,0,0,1-.33.33,0.32,0.32,0,0,1-.19.1A0.22,0.22,0,0,1,21.42,14.58Zm5.71,4.53L27,19.33a3.86,3.86,0,0,0-.71,2,3.54,3.54,0,0,1-.29,2.6,11.17,11.17,0,0,1-2.08,3.29,8.27,8.27,0,0,1-.67.63,4.9,4.9,0,0,1-1.48.91A1.29,1.29,0,0,1,21,28.32c-0.17-.16-0.58-0.6-0.61-0.64-2-2.5-2.07-4.53-1.7-6a1.88,1.88,0,0,1,.8-1.06A4.72,4.72,0,0,1,21.29,20c0.39,0,.56,0,0.95-0.06h0.88l0.5,0a6.71,6.71,0,0,1,.68.09l0.42,0.09A0.18,0.18,0,0,0,25,20,0.19,0.19,0,0,0,25,20a1.46,1.46,0,0,0-1.08-.55,4.24,4.24,0,0,0-.57-0.09l-0.37,0H21.88c-1.38,0-2.62.15-2.62,0.15s-2.21.31-2.21-1.3,2-2,3.35-2.15h0.06l0.2,0h0.12l0.29,0,0.7,0h0.12a13.26,13.26,0,0,1,1.53.1,8.87,8.87,0,0,1,1.09.2C26.25,16.53,27.93,17.33,27.13,19.11Z"/></svg>