<svg id="type" xmlns="http://www.w3.org/2000/svg" viewBox="0 0 70 44"><defs><style>.cls-1{opacity:0;}.cls-2{fill:#009cde;}.cls-3{fill:#fff;}</style></defs><title>Programs</title><g id="color_blocks" data-name="color blocks" class="cls-1"><rect class="cls-2" x="13" y="-13" width="44" height="70" transform="translate(13 57) rotate(-90)"/></g><path class="cls-3" d="M12.59,24.21A2.25,2.25,0,0,1,13.31,24a4.37,4.37,0,0,1,.78-0.08,4.2,4.2,0,0,1,.77.08,2.26,2.26,0,0,1,.7.25V25.1a1.57,1.57,0,0,0,.23.77,2.42,2.42,0,0,0,.68.74,3.89,3.89,0,0,0,1.13.55,5.11,5.11,0,0,0,1.56.22,3.29,3.29,0,0,0,2-.47,1.45,1.45,0,0,0,.63-1.22q0-1.34-2.08-2l-2.84-.82a8.83,8.83,0,0,1-1.5-.56,4.84,4.84,0,0,1-1.26-.87,3.93,3.93,0,0,1-.87-1.25,4.24,4.24,0,0,1-.33-1.74,4.42,4.42,0,0,1,.49-2.14,4.7,4.7,0,0,1,1.26-1.5A5.22,5.22,0,0,1,16.33,14a6.45,6.45,0,0,1,1.85-.28,5.57,5.57,0,0,1,2.26.4,3.44,3.44,0,0,1,1.38,1V14.27A2.25,2.25,0,0,1,22.52,14a3.82,3.82,0,0,1,.74-0.08A4,4,0,0,1,24,14a2.26,2.26,0,0,1,.7.25v5a2.26,2.26,0,0,1-.7.25,4.11,4.11,0,0,1-.77.08,4.27,4.27,0,0,1-.78-0.08,2.26,2.26,0,0,1-.72-0.25V18.8A2,2,0,0,0,21.56,18,2.08,2.08,0,0,0,21,17.25a2.82,2.82,0,0,0-1-.51,4.32,4.32,0,0,0-1.37-.19,2.91,2.91,0,0,0-1.18.22,2,2,0,0,0-.77.56,1.32,1.32,0,0,0-.3.87,1.38,1.38,0,0,0,.29.84,2.15,2.15,0,0,0,1.18.63l2.69,0.76a15.25,15.25,0,0,1,1.87.66A5.9,5.9,0,0,1,24,22a4.11,4.11,0,0,1,1,1.4,4.8,4.8,0,0,1,.38,2,4.27,4.27,0,0,1-1.85,3.68A5.73,5.73,0,0,1,21.7,30a8.21,8.21,0,0,1-2.08.27,7,7,0,0,1-2.46-.42,3.61,3.61,0,0,1-1.7-1.18v1a2.23,2.23,0,0,1-.7.25A4.09,4.09,0,0,1,14,30a3.76,3.76,0,0,1-.73-0.08,2.22,2.22,0,0,1-.68-0.25V24.21Z"/><path class="cls-3" d="M28.29,27.23L32.74,13.9h4.42l4.27,13.33h1.21a4.84,4.84,0,0,1,.16.68,4,4,0,0,1,.05.64,4.23,4.23,0,0,1-.05.65,4.73,4.73,0,0,1-.16.69H36.33a3.56,3.56,0,0,1-.16-0.64,3.85,3.85,0,0,1-.05-0.62,3.86,3.86,0,0,1,.22-1.24h1.3l-0.58-2H32.41l-0.63,2H33.1a3.84,3.84,0,0,1,.22,1.24,3.91,3.91,0,0,1-.05.62,3.66,3.66,0,0,1-.16.64H27a4.73,4.73,0,0,1-.16-0.69,4.16,4.16,0,0,1-.05-0.65,4,4,0,0,1,.05-0.64A4.84,4.84,0,0,1,27,27.23h1.32Zm8.13-4.29-1.6-5.81L33.1,22.94h3.32Z"/><path class="cls-3" d="M47.79,27.23V16.82H45.43v2.54a2.26,2.26,0,0,1-.73.25,4.35,4.35,0,0,1-.77.08,4,4,0,0,1-.75-0.08,2.26,2.26,0,0,1-.7-0.25V14.09H56.76v5.27a2.26,2.26,0,0,1-.73.25,4.35,4.35,0,0,1-.77.08,4,4,0,0,1-.75-0.08,2.26,2.26,0,0,1-.7-0.25V16.82H51.45v10.4h1.43a4.92,4.92,0,0,1,.16.68,4,4,0,0,1,.05.64,4.23,4.23,0,0,1-.05.65,4.8,4.8,0,0,1-.16.69H46.36a4.73,4.73,0,0,1-.16-0.69,4.23,4.23,0,0,1-.05-0.65,4,4,0,0,1,.05-0.64,4.84,4.84,0,0,1,.16-0.68h1.43Z"/><path class="cls-3" d="M58.3,15.48a1.5,1.5,0,0,1,.13-0.62,1.54,1.54,0,0,1,.34-0.49,1.56,1.56,0,0,1,.5-0.32,1.6,1.6,0,0,1,.6-0.11,1.58,1.58,0,0,1,1.1.44,1.54,1.54,0,0,1,.34.49,1.5,1.5,0,0,1,.13.62A1.54,1.54,0,0,1,61,16.59a1.62,1.62,0,0,1-.5.32,1.56,1.56,0,0,1-.6.12,1.58,1.58,0,0,1-.6-0.12,1.61,1.61,0,0,1-.5-0.32A1.53,1.53,0,0,1,58.3,15.48Zm1.57,1.21A1.14,1.14,0,0,0,60.94,16,1.29,1.29,0,0,0,61,15.48,1.25,1.25,0,0,0,60.94,15a1.15,1.15,0,0,0-.25-0.38,1.14,1.14,0,0,0-.37-0.25,1.15,1.15,0,0,0-.45-0.09,1.17,1.17,0,0,0-.46.09,1.14,1.14,0,0,0-.37.25,1.15,1.15,0,0,0-.25.38,1.25,1.25,0,0,0-.09.47,1.29,1.29,0,0,0,.09.48,1.13,1.13,0,0,0,.62.63A1.15,1.15,0,0,0,59.87,16.68Zm-0.55-.57V14.84H59.19l0-.08a0.37,0.37,0,0,1,0-.06,0.32,0.32,0,0,1,0,0l0-.08H60a0.65,0.65,0,0,1,.23,0,0.53,0.53,0,0,1,.18.11,0.51,0.51,0,0,1,.12.17,0.54,0.54,0,0,1,0,.21,0.7,0.7,0,0,1-.06.27,0.46,0.46,0,0,1-.24.23l0.23,0.51h0.13a0.35,0.35,0,0,1,0,.09s0,0,0,.06a0.36,0.36,0,0,1,0,0l0,0.08H60.22l-0.32-.73H59.64v0.47h0.15l0,0.09a0.36,0.36,0,0,1,0,.06,0.32,0.32,0,0,1,0,0,0.39,0.39,0,0,1,0,.08h-0.6l0-.08a0.32,0.32,0,0,1,0,0,0.36,0.36,0,0,1,0-.06l0-.09h0.13Zm0.6-.75a0.26,0.26,0,0,0,.2-0.07,0.26,0.26,0,0,0,.07-0.19,0.23,0.23,0,0,0-.25-0.24H59.64v0.5h0.28Z"/></svg>