<svg id="type" xmlns="http://www.w3.org/2000/svg" viewBox="0 0 149 44"><defs><style>.cls-1{opacity:0;}.cls-2{fill:#5f259f;}.cls-3{fill:#fff;}</style></defs><title>Programs</title><g id="color_blocks" data-name="color blocks" class="cls-1"><polyline class="cls-2" points="149 0 149 44 0 44 0 0"/></g><path class="cls-3" d="M25.41,28.81Q25,29,24.35,29.31a12.15,12.15,0,0,1-1.34.48,13.67,13.67,0,0,1-1.57.36,10.32,10.32,0,0,1-1.72.14,8.58,8.58,0,0,1-3.32-.6A6.43,6.43,0,0,1,14,28a7.23,7.23,0,0,1-1.45-2.61A10.94,10.94,0,0,1,12.06,22a10.82,10.82,0,0,1,.49-3.31,8,8,0,0,1,1.4-2.64A6.38,6.38,0,0,1,19,13.7a4.81,4.81,0,0,1,2.22.45,4.71,4.71,0,0,1,1.31.93V14.27A2.25,2.25,0,0,1,23.29,14a4.07,4.07,0,0,1,1.56,0,2.26,2.26,0,0,1,.71.25v6.37a2.5,2.5,0,0,1-.77.25,4.36,4.36,0,0,1-1.63,0,2.5,2.5,0,0,1-.77-0.25v-1.3a2.7,2.7,0,0,0-.68-2,2.76,2.76,0,0,0-2.07-.7,2.91,2.91,0,0,0-1.58.42,3.48,3.48,0,0,0-1.12,1.15,5.76,5.76,0,0,0-.67,1.68,8.55,8.55,0,0,0-.23,2,7.12,7.12,0,0,0,.36,2.42,4.67,4.67,0,0,0,.94,1.61,3.48,3.48,0,0,0,1.33.91,4.35,4.35,0,0,0,1.55.28,6.74,6.74,0,0,0,2.84-.58,12.52,12.52,0,0,0,2.34-1.39v3.64Z"/><path class="cls-3" d="M28.23,24.21A2.25,2.25,0,0,1,28.94,24a4.36,4.36,0,0,1,.78-0.08,4.2,4.2,0,0,1,.77.08,2.25,2.25,0,0,1,.7.25V25.1a1.57,1.57,0,0,0,.23.77,2.42,2.42,0,0,0,.68.74,3.9,3.9,0,0,0,1.13.55,5.1,5.1,0,0,0,1.56.22,3.28,3.28,0,0,0,2-.47,1.45,1.45,0,0,0,.63-1.22q0-1.34-2.08-2l-2.84-.82a8.87,8.87,0,0,1-1.5-.56,4.84,4.84,0,0,1-1.26-.87,3.93,3.93,0,0,1-.87-1.25,4.26,4.26,0,0,1-.32-1.74A4.42,4.42,0,0,1,29,16.36a4.7,4.7,0,0,1,1.26-1.5A5.22,5.22,0,0,1,32,14a6.44,6.44,0,0,1,1.85-.28,5.57,5.57,0,0,1,2.27.4,3.44,3.44,0,0,1,1.38,1V14.27A2.25,2.25,0,0,1,38.15,14a3.82,3.82,0,0,1,.74-0.08,4,4,0,0,1,.75.08,2.27,2.27,0,0,1,.7.25v5a2.27,2.27,0,0,1-.7.25,4.09,4.09,0,0,1-.77.08,4.28,4.28,0,0,1-.78-0.08,2.26,2.26,0,0,1-.72-0.25V18.8A2,2,0,0,0,37.19,18a2.09,2.09,0,0,0-.55-0.71,2.83,2.83,0,0,0-1-.51,4.32,4.32,0,0,0-1.36-.19,2.9,2.9,0,0,0-1.18.22,2,2,0,0,0-.77.56,1.32,1.32,0,0,0-.3.87,1.38,1.38,0,0,0,.29.84,2.15,2.15,0,0,0,1.18.63l2.69,0.76a15.17,15.17,0,0,1,1.87.66,5.9,5.9,0,0,1,1.54,1,4.1,4.1,0,0,1,1,1.4,4.8,4.8,0,0,1,.38,2,4.28,4.28,0,0,1-1.85,3.68,5.73,5.73,0,0,1-1.87.86,8.22,8.22,0,0,1-2.08.27,7,7,0,0,1-2.46-.42,3.61,3.61,0,0,1-1.7-1.18v1a2.22,2.22,0,0,1-.7.25,4.11,4.11,0,0,1-.75.08,3.75,3.75,0,0,1-.73-0.08,2.22,2.22,0,0,1-.68-0.25V24.21Z"/><path class="cls-3" d="M43.23,24.21A2.26,2.26,0,0,1,43.95,24a4.38,4.38,0,0,1,.78-0.08,4.2,4.2,0,0,1,.77.08,2.27,2.27,0,0,1,.7.25V25.1a1.56,1.56,0,0,0,.23.77,2.41,2.41,0,0,0,.68.74,3.87,3.87,0,0,0,1.13.55,5.11,5.11,0,0,0,1.56.22,3.29,3.29,0,0,0,2-.47,1.45,1.45,0,0,0,.63-1.22q0-1.34-2.08-2l-2.84-.82A8.79,8.79,0,0,1,46,22.35a4.85,4.85,0,0,1-1.26-.87,3.93,3.93,0,0,1-.87-1.25,4.22,4.22,0,0,1-.33-1.74A4.42,4.42,0,0,1,44,16.36a4.69,4.69,0,0,1,1.26-1.5A5.21,5.21,0,0,1,47,14a6.45,6.45,0,0,1,1.85-.28,5.56,5.56,0,0,1,2.26.4,3.43,3.43,0,0,1,1.38,1V14.27A2.26,2.26,0,0,1,53.16,14a3.83,3.83,0,0,1,.74-0.08,4,4,0,0,1,.75.08,2.25,2.25,0,0,1,.7.25v5a2.25,2.25,0,0,1-.7.25,4.12,4.12,0,0,1-.77.08,4.26,4.26,0,0,1-.78-0.08,2.26,2.26,0,0,1-.71-0.25V18.8A2,2,0,0,0,52.2,18a2.08,2.08,0,0,0-.55-0.71,2.81,2.81,0,0,0-1-.51,4.33,4.33,0,0,0-1.37-.19,2.91,2.91,0,0,0-1.18.22,2,2,0,0,0-.77.56,1.32,1.32,0,0,0-.3.87,1.38,1.38,0,0,0,.29.84,2.15,2.15,0,0,0,1.18.63l2.69,0.76a15.33,15.33,0,0,1,1.88.66,5.9,5.9,0,0,1,1.54,1,4.11,4.11,0,0,1,1,1.4,4.8,4.8,0,0,1,.38,2,4.27,4.27,0,0,1-1.85,3.68,5.74,5.74,0,0,1-1.88.86,8.21,8.21,0,0,1-2.08.27,7,7,0,0,1-2.46-.42,3.61,3.61,0,0,1-1.7-1.18v1a2.23,2.23,0,0,1-.71.25,4.08,4.08,0,0,1-.75.08,3.76,3.76,0,0,1-.73-0.08,2.22,2.22,0,0,1-.68-0.25V24.21Z"/><path class="cls-3" d="M65,27.23V16.76H63.69a4.92,4.92,0,0,1-.16-0.68,4,4,0,0,1-.05-0.64,4.23,4.23,0,0,1,.05-0.65,4.88,4.88,0,0,1,.16-0.69h7.82a6,6,0,0,1,2.18.37,4.55,4.55,0,0,1,1.58,1,4.22,4.22,0,0,1,1,1.5,5.2,5.2,0,0,1,.32,1.85,6.18,6.18,0,0,1-.25,1.71,4.12,4.12,0,0,1-.85,1.56,4.5,4.5,0,0,1-1.56,1.14,5.7,5.7,0,0,1-2.4.44H68.68v3.55h1.65a4.92,4.92,0,0,1,.16.68,4,4,0,0,1,.05.64,4.23,4.23,0,0,1-.05.65,4.8,4.8,0,0,1-.16.69H63.69a4.8,4.8,0,0,1-.16-0.69,4.22,4.22,0,0,1-.05-0.65,4,4,0,0,1,.05-0.64,4.92,4.92,0,0,1,.16-0.68H65ZM70.72,21a1.87,1.87,0,0,0,2.08-2.13,2,2,0,0,0-.53-1.49,2,2,0,0,0-1.48-.52h-2.1V21h2Z"/><path class="cls-3" d="M79.49,27.44V20.79H78.26A3.6,3.6,0,0,1,78,19.58a3.66,3.66,0,0,1,.22-1.23h4.4l0.13,1.8A3,3,0,0,1,84,18.71a3.13,3.13,0,0,1,1.39-.37,3.88,3.88,0,0,1,.79.08,3.32,3.32,0,0,1,.73.25l-0.37,2.93-0.64-.19a2.63,2.63,0,0,0-.7-0.09,2.23,2.23,0,0,0-.86.17,1.84,1.84,0,0,0-.73.54,2.1,2.1,0,0,0-.38.71,3.27,3.27,0,0,0-.14,1v3.68h1.47a3.66,3.66,0,0,1,.22,1.23,3.6,3.6,0,0,1-.22,1.21H78.26A3.6,3.6,0,0,1,78,28.68a3.66,3.66,0,0,1,.22-1.23h1.23Z"/><path class="cls-3" d="M93.69,30.2a6,6,0,0,1-2.58-.51,5.24,5.24,0,0,1-1.8-1.36,5.58,5.58,0,0,1-1.06-1.94,7.64,7.64,0,0,1,0-4.55,5.59,5.59,0,0,1,1.06-1.94,5.25,5.25,0,0,1,1.8-1.35A6,6,0,0,1,93.69,18a6.09,6.09,0,0,1,2.59.51,5.22,5.22,0,0,1,1.81,1.35,5.57,5.57,0,0,1,1.06,1.94,7.64,7.64,0,0,1,0,4.55,5.56,5.56,0,0,1-1.06,1.94,5.21,5.21,0,0,1-1.81,1.36A6.09,6.09,0,0,1,93.69,30.2Zm0-2.71a1.69,1.69,0,0,0,1-.27,2,2,0,0,0,.65-0.74,3.85,3.85,0,0,0,.37-1.08,6.84,6.84,0,0,0,.12-1.29,6.67,6.67,0,0,0-.12-1.28,3.69,3.69,0,0,0-.37-1.06A2,2,0,0,0,94.66,21a1.68,1.68,0,0,0-1-.27,1.63,1.63,0,0,0-1,.27,2.08,2.08,0,0,0-.64.73,3.69,3.69,0,0,0-.37,1.06,6.67,6.67,0,0,0-.12,1.28,6.84,6.84,0,0,0,.12,1.29,3.85,3.85,0,0,0,.37,1.08,2.07,2.07,0,0,0,.64.74A1.64,1.64,0,0,0,93.69,27.49Z"/><path class="cls-3" d="M102.32,27.44V20.79H101a3.6,3.6,0,0,1-.22-1.21,3.66,3.66,0,0,1,.22-1.23h1.34v-1a4.12,4.12,0,0,1,1.08-3.15,4.32,4.32,0,0,1,3.06-1,6.48,6.48,0,0,1,1.28.13,11,11,0,0,1,1.19.3v2.6a6.55,6.55,0,0,0-.76-0.27,3.16,3.16,0,0,0-.84-0.1,1.51,1.51,0,0,0-1,.31,1.46,1.46,0,0,0-.4,1.2v1h2a3.63,3.63,0,0,1,.22,1.23,3.57,3.57,0,0,1-.22,1.21h-2v6.65h1.75a3.66,3.66,0,0,1,.22,1.23,3.6,3.6,0,0,1-.22,1.21H101.1a3.6,3.6,0,0,1-.22-1.21,3.66,3.66,0,0,1,.22-1.23h1.21Z"/><path class="cls-3" d="M111,27.44V20.79h-1.21a3.57,3.57,0,0,1-.22-1.21,3.63,3.63,0,0,1,.22-1.23h4.85v9.1h1.21a3.66,3.66,0,0,1,.22,1.23,3.6,3.6,0,0,1-.22,1.21h-6.07a3.57,3.57,0,0,1-.22-1.21,3.63,3.63,0,0,1,.22-1.23H111Zm-0.56-12.31a1.63,1.63,0,0,1,.55-1.29,2.69,2.69,0,0,1,3.09,0,1.77,1.77,0,0,1,0,2.59,2.74,2.74,0,0,1-3.09,0A1.62,1.62,0,0,1,110.47,15.13Z"/><path class="cls-3" d="M118.92,27.44V15.91h-1.21a3.54,3.54,0,0,1-.22-1.21,3.6,3.6,0,0,1,.22-1.23h4.85v14h1.21a3.63,3.63,0,0,1,.22,1.23,3.57,3.57,0,0,1-.22,1.21h-6.07a3.54,3.54,0,0,1-.22-1.21,3.6,3.6,0,0,1,.22-1.23h1.21Z"/><path class="cls-3" d="M135.24,29.46a13.66,13.66,0,0,1-2,.53,11.06,11.06,0,0,1-2.15.21,6.69,6.69,0,0,1-2.77-.52,5.54,5.54,0,0,1-1.9-1.36,5.31,5.31,0,0,1-1.1-1.94,7.45,7.45,0,0,1-.35-2.26,8,8,0,0,1,.31-2.22,5.75,5.75,0,0,1,1-2,4.86,4.86,0,0,1,1.7-1.38A5.47,5.47,0,0,1,130.5,18a5.53,5.53,0,0,1,2.53.52,4.38,4.38,0,0,1,1.62,1.35,5.35,5.35,0,0,1,.84,1.84,8.2,8.2,0,0,1,.25,2V25h-7a2.58,2.58,0,0,0,.86,1.71,3,3,0,0,0,2,.67,8.2,8.2,0,0,0,1.9-.19,14.16,14.16,0,0,0,1.72-.54v2.77Zm-3-6.55a2.65,2.65,0,0,0-.47-1.8,1.6,1.6,0,0,0-1.27-.56q-1.61,0-1.84,2.36h3.58Z"/><path class="cls-3" d="M136.22,18.24v-1.4h-0.36v0.39l-0.1,0h-0.14l-0.11,0V16.51h1.85v0.72l-0.12,0h-0.14l-0.11,0V16.83h-0.36v1.4h0.2a0.66,0.66,0,0,1,0,.11,0.35,0.35,0,0,1,0,.07,0.32,0.32,0,0,1,0,.06,0.43,0.43,0,0,1,0,.1H136a0.91,0.91,0,0,1,0-.1s0,0,0-.06,0,0,0-.07a1.08,1.08,0,0,1,0-.11h0.2Zm1.51,0V16.85h-0.17l0-.1a0.25,0.25,0,0,1,0-.07,0.24,0.24,0,0,1,0-.07l0-.1h0.72L138.74,18l0.48-1.49H140a0.69,0.69,0,0,1,0,.11,0.41,0.41,0,0,1,0,.06,0.33,0.33,0,0,1,0,.07l0,0.1h-0.18v1.39H140a0.66,0.66,0,0,1,0,.11,0.47,0.47,0,0,1,0,.07,0.33,0.33,0,0,1,0,.06l0,0.1H139.2l0-.1a0.26,0.26,0,0,1,0-.06,0.35,0.35,0,0,1,0-.07,0.77,0.77,0,0,1,0-.11h0.19V17.07l-0.47,1.45h-0.36l-0.46-1.45v1.16h0.19l0,0.11a0.35,0.35,0,0,1,0,.07,0.64,0.64,0,0,1,0,.16h-0.72l0-.1a0.23,0.23,0,0,1,0-.07,0.24,0.24,0,0,1,0-.07l0-.1h0.18Z"/></svg>