<svg id="type" xmlns="http://www.w3.org/2000/svg" viewBox="0 0 163 44"><defs><style>.cls-1{fill:#fff;}</style></defs><title>Programs</title><path class="cls-1" d="M12.59,24.21A2.25,2.25,0,0,1,13.31,24a4.37,4.37,0,0,1,.78-0.08,4.2,4.2,0,0,1,.77.08,2.26,2.26,0,0,1,.7.25V25.1a1.57,1.57,0,0,0,.23.77,2.42,2.42,0,0,0,.68.74,3.89,3.89,0,0,0,1.13.55,5.11,5.11,0,0,0,1.56.22,3.29,3.29,0,0,0,2-.47,1.45,1.45,0,0,0,.63-1.22q0-1.34-2.08-2l-2.84-.82a8.83,8.83,0,0,1-1.5-.56,4.84,4.84,0,0,1-1.26-.87,3.93,3.93,0,0,1-.87-1.25,4.24,4.24,0,0,1-.33-1.74,4.42,4.42,0,0,1,.49-2.14,4.7,4.7,0,0,1,1.26-1.5A5.22,5.22,0,0,1,16.33,14a6.45,6.45,0,0,1,1.85-.28,5.57,5.57,0,0,1,2.26.4,3.44,3.44,0,0,1,1.38,1V14.27A2.25,2.25,0,0,1,22.52,14a3.82,3.82,0,0,1,.74-0.08A4,4,0,0,1,24,14a2.26,2.26,0,0,1,.7.25v5a2.26,2.26,0,0,1-.7.25,4.11,4.11,0,0,1-.77.08,4.27,4.27,0,0,1-.78-0.08,2.26,2.26,0,0,1-.72-0.25V18.8A2,2,0,0,0,21.56,18,2.08,2.08,0,0,0,21,17.25a2.82,2.82,0,0,0-1-.51,4.32,4.32,0,0,0-1.37-.19,2.91,2.91,0,0,0-1.18.22,2,2,0,0,0-.77.56,1.32,1.32,0,0,0-.3.87,1.38,1.38,0,0,0,.29.84,2.15,2.15,0,0,0,1.18.63l2.69,0.76a15.25,15.25,0,0,1,1.87.66A5.9,5.9,0,0,1,24,22a4.11,4.11,0,0,1,1,1.4,4.8,4.8,0,0,1,.38,2,4.27,4.27,0,0,1-1.85,3.68A5.73,5.73,0,0,1,21.7,30a8.21,8.21,0,0,1-2.08.27,7,7,0,0,1-2.46-.42,3.61,3.61,0,0,1-1.7-1.18v1a2.23,2.23,0,0,1-.7.25A4.09,4.09,0,0,1,14,30a3.76,3.76,0,0,1-.73-0.08,2.22,2.22,0,0,1-.68-0.25V24.21Z"/><path class="cls-1" d="M28.14,31.06V20.79H26.93a3.57,3.57,0,0,1-.22-1.21,3.63,3.63,0,0,1,.22-1.23h4.44l0.15,1.26a3.63,3.63,0,0,1,1.2-1.1,3.9,3.9,0,0,1,2-.46,4.35,4.35,0,0,1,2,.44,4.16,4.16,0,0,1,1.43,1.21A5.21,5.21,0,0,1,39,21.46a8,8,0,0,1,.27,2.1A9.08,9.08,0,0,1,39,25.92a5.65,5.65,0,0,1-.89,1.91,4.28,4.28,0,0,1-1.48,1.28,4.42,4.42,0,0,1-2.08.47,3.78,3.78,0,0,1-1.67-.34,3.21,3.21,0,0,1-1.11-.83v2.67h1.58a3.65,3.65,0,0,1,.22,1.24,3.59,3.59,0,0,1-.22,1.21H26.93a3.58,3.58,0,0,1-.22-1.21,3.64,3.64,0,0,1,.22-1.24h1.21Zm5.51-4.29A1.65,1.65,0,0,0,35.08,26a3.94,3.94,0,0,0,.52-2.24,6.84,6.84,0,0,0-.09-1.09,2.9,2.9,0,0,0-.31-0.94,1.86,1.86,0,0,0-.61-0.66,2,2,0,0,0-1.93,0,1.65,1.65,0,0,0-.58.67,3.43,3.43,0,0,0-.29,1,7,7,0,0,0-.09,1.12,5.54,5.54,0,0,0,.15,1.41,2.52,2.52,0,0,0,.42.91,1.49,1.49,0,0,0,.63.49A2,2,0,0,0,33.65,26.77Z"/><path class="cls-1" d="M42.09,27.44V20.79H40.85a3.58,3.58,0,0,1-.22-1.21,3.64,3.64,0,0,1,.22-1.23h4.4l0.13,1.8a3,3,0,0,1,1.26-1.43A3.12,3.12,0,0,1,48,18.34a3.87,3.87,0,0,1,.79.08,3.33,3.33,0,0,1,.73.25l-0.37,2.93-0.64-.19a2.64,2.64,0,0,0-.7-0.09,2.23,2.23,0,0,0-.86.17,1.83,1.83,0,0,0-.73.54,2.1,2.1,0,0,0-.38.71,3.3,3.3,0,0,0-.14,1v3.68H47.2a3.64,3.64,0,0,1,.22,1.23,3.58,3.58,0,0,1-.22,1.21H40.85a3.58,3.58,0,0,1-.22-1.21,3.64,3.64,0,0,1,.22-1.23h1.24Z"/><path class="cls-1" d="M52.26,27.44V20.79H51a3.58,3.58,0,0,1-.22-1.21A3.64,3.64,0,0,1,51,18.34H55.9v9.1h1.21a3.66,3.66,0,0,1,.22,1.23,3.6,3.6,0,0,1-.22,1.21H51a3.58,3.58,0,0,1-.22-1.21A3.64,3.64,0,0,1,51,27.44h1.21ZM51.69,15.13a1.63,1.63,0,0,1,.55-1.29,2.69,2.69,0,0,1,3.09,0,1.77,1.77,0,0,1,0,2.59,2.74,2.74,0,0,1-3.09,0A1.63,1.63,0,0,1,51.69,15.13Z"/><path class="cls-1" d="M60.18,27.44V20.79H58.92a3.58,3.58,0,0,1-.22-1.21,3.64,3.64,0,0,1,.22-1.23h4.34l0.13,1.23a3.79,3.79,0,0,1,1.29-1.08A4.42,4.42,0,0,1,66.81,18a3.7,3.7,0,0,1,2.7,1,3.81,3.81,0,0,1,1,2.85v5.57h1.26A3.66,3.66,0,0,1,72,28.68a3.6,3.6,0,0,1-.22,1.21h-4.9V22.52a2.54,2.54,0,0,0-.28-1.32,1.08,1.08,0,0,0-1-.45,2.35,2.35,0,0,0-.62.09,1.26,1.26,0,0,0-.57.36,2,2,0,0,0-.42.76,4.1,4.1,0,0,0-.16,1.27v4.23h0.93A3.64,3.64,0,0,1,65,28.68a3.58,3.58,0,0,1-.22,1.21H58.92a3.58,3.58,0,0,1-.22-1.21,3.64,3.64,0,0,1,.22-1.23h1.26Z"/><path class="cls-1" d="M73.83,30.31a13.19,13.19,0,0,0,1.76.65,7.31,7.31,0,0,0,2.08.28,3.54,3.54,0,0,0,2.42-.64,2.51,2.51,0,0,0,.68-1.92V28.22a3.47,3.47,0,0,1-1.2.94,4.08,4.08,0,0,1-1.77.34A4.72,4.72,0,0,1,75.63,29a4,4,0,0,1-1.45-1.24A5.24,5.24,0,0,1,73.35,26a9.08,9.08,0,0,1-.26-2.21,8.28,8.28,0,0,1,.32-2.43,5.18,5.18,0,0,1,.93-1.8,4.08,4.08,0,0,1,1.45-1.13A4.39,4.39,0,0,1,77.67,18a3.83,3.83,0,0,1,1.89.43,2.88,2.88,0,0,1,1.15,1.08l0.13-1.21h4.62a3.64,3.64,0,0,1,.22,1.23,3.58,3.58,0,0,1-.22,1.21H84.23V28.2a7,7,0,0,1-.43,2.61,4.42,4.42,0,0,1-1.2,1.73,4.69,4.69,0,0,1-1.84,1,8.93,8.93,0,0,1-2.35.29,13.52,13.52,0,0,1-2.6-.23,15.65,15.65,0,0,1-2-.51V30.31Zm4.9-3.58a1.72,1.72,0,0,0,.69-0.15,1.69,1.69,0,0,0,.63-0.5,2.69,2.69,0,0,0,.45-0.91,4.69,4.69,0,0,0,.17-1.37,6.62,6.62,0,0,0-.09-1.07,3,3,0,0,0-.31-1,2,2,0,0,0-.6-0.68,1.57,1.57,0,0,0-.93-0.26,1.66,1.66,0,0,0-1,.26,1.79,1.79,0,0,0-.6.69,3.35,3.35,0,0,0-.3,1,7,7,0,0,0-.09,1.1A3.74,3.74,0,0,0,77.31,26,1.61,1.61,0,0,0,78.73,26.73Z"/><path class="cls-1" d="M88.33,27.23V16.76H86.92a4.84,4.84,0,0,1-.16-0.68,4,4,0,0,1-.05-0.64,4.24,4.24,0,0,1,.05-0.65,4.8,4.8,0,0,1,.16-0.69h7.91a6.58,6.58,0,0,1,2.18.32,4.54,4.54,0,0,1,1.54.88,3.55,3.55,0,0,1,.92,1.27,3.8,3.8,0,0,1,.3,1.5,4.71,4.71,0,0,1-.34,1.76,3.6,3.6,0,0,1-1.29,1.54,4.59,4.59,0,0,1,.89.51,3.6,3.6,0,0,1,.78.78,4,4,0,0,1,.56,1.09,4.46,4.46,0,0,1,.22,1.45,5.11,5.11,0,0,1-.32,1.83,4,4,0,0,1-1,1.5,4.82,4.82,0,0,1-1.76,1,8,8,0,0,1-2.57.37h-8a4.73,4.73,0,0,1-.16-0.69,4.23,4.23,0,0,1-.05-0.65,4,4,0,0,1,.05-0.64,4.84,4.84,0,0,1,.16-0.68h1.41Zm5.85-6.89a1.8,1.8,0,0,0,1.48-.53,2,2,0,0,0,.42-1.27A2.17,2.17,0,0,0,96,17.92a1.43,1.43,0,0,0-.29-0.53A1.4,1.4,0,0,0,95.14,17a2.71,2.71,0,0,0-1-.14H92v3.47h2.21Zm0.35,6.76a2.21,2.21,0,0,0,1.72-.57A2.15,2.15,0,0,0,96.76,25a1.78,1.78,0,0,0-.59-1.42,2.58,2.58,0,0,0-1.73-.51H92v4h2.56Z"/><path class="cls-1" d="M107.95,30.2a6,6,0,0,1-2.58-.51,5.23,5.23,0,0,1-1.8-1.36,5.56,5.56,0,0,1-1.06-1.94,7.65,7.65,0,0,1,0-4.55,5.58,5.58,0,0,1,1.06-1.94,5.24,5.24,0,0,1,1.8-1.35,6,6,0,0,1,2.58-.51,6.1,6.1,0,0,1,2.59.51,5.23,5.23,0,0,1,1.81,1.35,5.57,5.57,0,0,1,1.06,1.94,7.64,7.64,0,0,1,0,4.55,5.56,5.56,0,0,1-1.06,1.94,5.22,5.22,0,0,1-1.81,1.36A6.1,6.1,0,0,1,107.95,30.2Zm0-2.71a1.69,1.69,0,0,0,1-.27,2,2,0,0,0,.65-0.74,3.83,3.83,0,0,0,.37-1.08,6.79,6.79,0,0,0,.12-1.29,6.62,6.62,0,0,0-.12-1.28,3.67,3.67,0,0,0-.37-1.06,2,2,0,0,0-.65-0.73,1.68,1.68,0,0,0-1-.27,1.63,1.63,0,0,0-1,.27,2.08,2.08,0,0,0-.64.73,3.67,3.67,0,0,0-.37,1.06,6.62,6.62,0,0,0-.12,1.28A6.79,6.79,0,0,0,106,25.4a3.83,3.83,0,0,0,.37,1.08,2.07,2.07,0,0,0,.64.74A1.64,1.64,0,0,0,107.95,27.49Z"/><path class="cls-1" d="M122.14,28.77a3.4,3.4,0,0,1-1.3,1.05,4.5,4.5,0,0,1-1.93.38,4.78,4.78,0,0,1-1.43-.22,3.53,3.53,0,0,1-1.23-.66,3.17,3.17,0,0,1-.84-1.13,4.43,4.43,0,0,1,0-3.25,3.07,3.07,0,0,1,.82-1.1,3.7,3.7,0,0,1,1.2-.66,9.64,9.64,0,0,1,1.44-.36,13.5,13.5,0,0,1,1.54-.17l1.5-.11V22.11a1.41,1.41,0,0,0-.43-1.1,2.2,2.2,0,0,0-1.47-.39,5.76,5.76,0,0,0-1.85.3,17.56,17.56,0,0,0-2,.87v-2.6a16.48,16.48,0,0,1,1.93-.77,8.62,8.62,0,0,1,2.73-.38,10.52,10.52,0,0,1,1.37.11,4.29,4.29,0,0,1,1.55.53,3.63,3.63,0,0,1,1.27,1.24,4.1,4.1,0,0,1,.52,2.22v5.31h1.15a3.66,3.66,0,0,1,.22,1.23,3.6,3.6,0,0,1-.22,1.21h-4.34Zm-0.19-4.1-1.52.15a2.18,2.18,0,0,0-1.44.54,1.62,1.62,0,0,0-.38,1.1,1.22,1.22,0,0,0,.34.89,1.41,1.41,0,0,0,1.05.35,2.22,2.22,0,0,0,1.38-.43,1.41,1.41,0,0,0,.57-1.19V24.67Z"/><path class="cls-1" d="M129.57,27.44V20.79h-1.24a3.58,3.58,0,0,1-.22-1.21,3.64,3.64,0,0,1,.22-1.23h4.4l0.13,1.8a3,3,0,0,1,1.26-1.43,3.12,3.12,0,0,1,1.39-.37,3.87,3.87,0,0,1,.79.08,3.33,3.33,0,0,1,.73.25l-0.37,2.93L136,21.4a2.64,2.64,0,0,0-.7-0.09,2.23,2.23,0,0,0-.86.17,1.83,1.83,0,0,0-.73.54,2.1,2.1,0,0,0-.38.71,3.3,3.3,0,0,0-.14,1v3.68h1.47a3.64,3.64,0,0,1,.22,1.23,3.58,3.58,0,0,1-.22,1.21h-6.35a3.58,3.58,0,0,1-.22-1.21,3.64,3.64,0,0,1,.22-1.23h1.24Z"/><path class="cls-1" d="M145.5,28.64a3.43,3.43,0,0,1-3,1.56,4.21,4.21,0,0,1-2.24-.55,4.39,4.39,0,0,1-1.45-1.44,6,6,0,0,1-.78-2,10.92,10.92,0,0,1-.23-2.21,8.74,8.74,0,0,1,.32-2.47,5.51,5.51,0,0,1,.94-1.89,4.15,4.15,0,0,1,1.48-1.19,4.55,4.55,0,0,1,2-.41,3.92,3.92,0,0,1,1.63.31,3.25,3.25,0,0,1,1.13.81V15.91h-1.19a3.58,3.58,0,0,1-.22-1.21,3.64,3.64,0,0,1,.22-1.23h4.83v14h1.19a3.64,3.64,0,0,1,.22,1.23,3.58,3.58,0,0,1-.22,1.21h-4.44Zm-2.1-1.24a1.61,1.61,0,0,0,.69-0.16,1.71,1.71,0,0,0,.63-0.53,2.92,2.92,0,0,0,.46-1,6,6,0,0,0,.17-1.56,8.41,8.41,0,0,0-.09-1.2,3.82,3.82,0,0,0-.3-1.06,1.93,1.93,0,0,0-.6-0.75,1.54,1.54,0,0,0-.94-0.28,1.57,1.57,0,0,0-1,.28,1.9,1.9,0,0,0-.6.76,4,4,0,0,0-.3,1.07,8.63,8.63,0,0,0-.09,1.25,4.58,4.58,0,0,0,.5,2.37A1.58,1.58,0,0,0,143.4,27.4Z"/><path class="cls-1" d="M150.26,15.48a1.5,1.5,0,0,1,.13-0.62,1.54,1.54,0,0,1,.34-0.49,1.55,1.55,0,0,1,.5-0.32,1.6,1.6,0,0,1,.6-0.11,1.58,1.58,0,0,1,1.1.44,1.54,1.54,0,0,1,.34.49,1.5,1.5,0,0,1,.13.62,1.54,1.54,0,0,1-.47,1.11,1.63,1.63,0,0,1-.5.32,1.56,1.56,0,0,1-.6.12,1.58,1.58,0,0,1-.6-0.12,1.6,1.6,0,0,1-.5-0.32A1.53,1.53,0,0,1,150.26,15.48Zm1.57,1.21a1.13,1.13,0,0,0,.45-0.09,1.15,1.15,0,0,0,.37-0.25,1.13,1.13,0,0,0,.25-0.38,1.29,1.29,0,0,0,.09-0.48,1.25,1.25,0,0,0-.09-0.47,1.15,1.15,0,0,0-1.07-.72,1.18,1.18,0,0,0-.46.09,1.13,1.13,0,0,0-.37.25,1.15,1.15,0,0,0-.25.38,1.25,1.25,0,0,0-.09.47,1.29,1.29,0,0,0,.09.48,1.13,1.13,0,0,0,.62.63A1.16,1.16,0,0,0,151.83,16.68Zm-0.55-.57V14.84h-0.13l0-.08a0.31,0.31,0,0,1,0-.06,0.26,0.26,0,0,1,0,0l0-.08h0.79a0.65,0.65,0,0,1,.23,0,0.54,0.54,0,0,1,.18.11,0.5,0.5,0,0,1,.11.17,0.54,0.54,0,0,1,0,.21,0.7,0.7,0,0,1-.06.27,0.46,0.46,0,0,1-.24.23l0.23,0.51h0.13a0.38,0.38,0,0,1,0,.09s0,0,0,.06a0.37,0.37,0,0,1,0,0,0.35,0.35,0,0,1,0,.08h-0.38l-0.32-.73H151.6v0.47h0.15l0,0.09a0.45,0.45,0,0,1,0,.06,0.4,0.4,0,0,1,0,0,0.36,0.36,0,0,1,0,.08h-0.6l0-.08a0.26,0.26,0,0,1,0,0,0.3,0.3,0,0,1,0-.06l0-.09h0.13Zm0.6-.75a0.26,0.26,0,0,0,.2-0.07,0.26,0.26,0,0,0,.07-0.19,0.23,0.23,0,0,0-.25-0.24H151.6v0.5h0.28Z"/></svg>