<?xml version="1.0" standalone="no"?>
<!DOCTYPE svg PUBLIC "-//W3C//DTD SVG 1.1//EN" "http://www.w3.org/Graphics/SVG/1.1/DTD/svg11.dtd" >
<svg xmlns="http://www.w3.org/2000/svg">
<metadata></metadata>
<defs>
<font id="serifa_lt_46_lightitalicRg" horiz-adv-x="1024" >
<font-face units-per-em="2048" ascent="1638" descent="-410" />
<missing-glyph horiz-adv-x="512" />
<glyph horiz-adv-x="2048" />
<glyph horiz-adv-x="2048" />
<glyph unicode="&#xd;" horiz-adv-x="2048" />
<glyph unicode=" "  horiz-adv-x="512" />
<glyph unicode="&#x09;" horiz-adv-x="512" />
<glyph unicode="&#xa0;" horiz-adv-x="512" />
<glyph unicode="!" horiz-adv-x="569" d="M123 0l29 127h131l-29 -127h-131zM211 299l184 1040h150l-248 -1040h-86z" />
<glyph unicode="&#x22;" horiz-adv-x="796" d="M385 944v395h102v-395h-102zM616 944v395h103v-395h-103z" />
<glyph unicode="#" d="M51 438l15 90h233l45 299h-235l14 91h233l64 421h104l-63 -421h284l64 421h104l-63 -421h219l-14 -91h-217l-45 -299h219l-15 -90h-219l-65 -438h-105l66 438h-285l-65 -438h-105l66 438h-234zM403 528h285l45 299h-284z" />
<glyph unicode="$" d="M-12 0l84 397h102q-6 -63 9.5 -120.5t46 -102.5t71.5 -73.5t88 -30.5l119 569l-74 29q-98 33 -164.5 105.5t-66.5 180.5q0 94 38 170t100 128.5t145 80t173 27.5l37 172h80l-37 -172q53 -6 92 -21.5t68 -40t51.5 -56.5t42.5 -71h4l33 168h103l-80 -397h-103 q4 25 8.5 47.5t4.5 44.5q0 49 -20.5 89t-54.5 71t-78 50.5t-89 25.5l-111 -531l68 -22q61 -23 112.5 -50.5t88 -66.5t57 -92t20.5 -123q0 -96 -39.5 -171t-104 -127t-147.5 -79.5t-171 -27.5h-43l-41 -193h-80l41 193q-82 10 -141.5 66t-92.5 153h-4l-43 -199h-102zM317 985 q0 -53 18.5 -88t48.5 -59.5t70 -41t83 -30.5l106 504q-57 -2 -115.5 -22.5t-104.5 -57.5t-76 -89t-30 -116zM469 70q63 0 130 17t121 54t88 91.5t34 127.5q0 63 -24.5 106.5t-62.5 71t-83 44t-88 30.5z" />
<glyph unicode="%" horiz-adv-x="1593" d="M236 881q0 78 21.5 161.5t65.5 154.5t111.5 117t157.5 46q121 0 172 -75t51 -187q0 -80 -23.5 -160t-68.5 -144.5t-113.5 -105.5t-156.5 -41q-111 0 -164 65t-53 169zM287 -37l1026 1413h88l-1022 -1413h-92zM338 860q0 -59 32.5 -97t94.5 -38q68 0 116 42t76.5 103.5 t42 130t13.5 123.5q0 70 -31 114t-104 44q-68 0 -113 -47t-74 -112.5t-41 -138.5t-12 -124zM881 213q0 78 21.5 162t65.5 154.5t111.5 116.5t157.5 46q121 0 172 -74.5t51 -187.5q0 -80 -23.5 -160t-68.5 -144.5t-113.5 -105t-156.5 -40.5q-111 0 -164 64.5t-53 168.5z M983 193q0 -59 33 -97.5t94 -38.5q68 0 116 42t76.5 103.5t42 130t13.5 124.5q0 70 -31 113.5t-104 43.5q-68 0 -113 -47t-73.5 -112.5t-41 -138t-12.5 -123.5z" />
<glyph unicode="&#x26;" horiz-adv-x="1478" d="M78 315q0 86 38 155t96 122t130 94t141 72q-23 27 -45 59.5t-41.5 67.5t-32 71.5t-12.5 73.5q0 80 33 141.5t87 103.5t124 63.5t143 21.5q55 0 108.5 -14.5t94.5 -45t65.5 -80t24.5 -120.5q0 -70 -35.5 -126t-91 -103.5t-122 -84t-130.5 -65.5l312 -399q70 78 116.5 173 t67.5 199h-154l19 90h448l-16 -90h-182q-33 -125 -87.5 -240.5t-142.5 -211.5l125 -152h199l-17 -90h-266l-127 164q-92 -88 -216 -136t-251 -48q-78 0 -150.5 21.5t-129 63t-90 104t-33.5 146.5zM193 305q0 -66 26.5 -110.5t69.5 -72.5t98 -40t111 -12q51 0 105 13 t105.5 35.5t97.5 54.5t81 69l-340 434q-61 -31 -124 -62.5t-114 -73.5t-83.5 -98.5t-32.5 -136.5zM467 1040q0 -31 13.5 -63.5t32.5 -64t40.5 -61.5t38.5 -54q43 20 99.5 51t106.5 70.5t85 88t35 107.5q0 43 -15.5 73t-42 48t-60.5 26.5t-73 8.5q-51 0 -98 -16.5t-83 -46 t-57.5 -72t-21.5 -95.5z" />
<glyph unicode="'" horiz-adv-x="454" d="M340 944v395h102v-395h-102z" />
<glyph unicode="(" horiz-adv-x="569" d="M158 383q0 131 37.5 286.5t103.5 306t155 284t191 219.5h117q-109 -98 -199 -228.5t-154.5 -276t-100.5 -299t-36 -298.5q0 -170 34 -318.5t97 -304.5h-96q-57 150 -103 308.5t-46 320.5z" />
<glyph unicode=")" horiz-adv-x="569" d="M-131 -246q109 98 199 228.5t154.5 275.5t100 299t35.5 299q0 170 -33.5 317.5t-97.5 305.5h97q57 -150 103 -308.5t46 -320.5q0 -131 -38 -286.5t-103.5 -306.5t-154.5 -284t-191 -219h-117z" />
<glyph unicode="*" horiz-adv-x="909" d="M242 1110l53 104l231 -163l35 288l111 -22l-86 -279l274 62l12 -115l-278 -8l141 -254l-104 -51l-92 286l-197 -227l-76 88l228 176z" />
<glyph unicode="+" horiz-adv-x="1228" d="M98 467v102h465v467h103v-467h464v-102h-464v-467h-103v467h-465z" />
<glyph unicode="," horiz-adv-x="512" d="M-14 -254l149 254h-63l30 139h146l-33 -139l-145 -254h-84z" />
<glyph unicode="-" horiz-adv-x="681" d="M115 500l22 102h492l-25 -102h-489z" />
<glyph unicode="." horiz-adv-x="512" d="M63 0l31 139h144l-31 -139h-144z" />
<glyph unicode="/" horiz-adv-x="681" d="M-61 -20l786 1380h113l-791 -1380h-108z" />
<glyph unicode="0" d="M82 350q0 66 6 144.5t20.5 161.5t37 168t55 163t77 146.5t102.5 119t132 79t164 28.5q98 0 165.5 -34t107.5 -92t57.5 -136t17.5 -168q0 -70 -7 -146.5t-22.5 -156.5t-40 -158t-59.5 -149.5t-80 -134t-103.5 -108.5t-128 -71.5t-153.5 -25.5q-82 0 -146.5 28.5 t-109.5 77.5t-68.5 116.5t-23.5 147.5zM197 367q0 -61 13 -115.5t44 -94.5t79 -63.5t118 -23.5q68 0 123 29.5t100 79.5t79.5 118t61.5 141q27 76 44.5 155t28.5 152.5t16 138t5 111.5q0 117 -58 196t-185 79q-68 0 -124.5 -29t-101.5 -77t-80.5 -112.5t-62.5 -138.5 q-29 -74 -47.5 -150.5t-30.5 -148t-17 -136t-5 -111.5z" />
<glyph unicode="1" d="M199 0l18 90h219l230 1094q-92 -68 -184.5 -131.5t-190.5 -116.5l28 131q96 55 196.5 121.5t178.5 150.5h119l-262 -1249h205l-21 -90h-536z" />
<glyph unicode="2" d="M25 0l30 143l539 445q47 39 110.5 88t120 106.5t96.5 123t40 136.5q0 51 -19.5 93.5t-52.5 72t-77 46t-93 16.5q-154 0 -235 -90t-109 -238h-127q39 203 156.5 310.5t291.5 107.5t276.5 -83t102.5 -233q0 -78 -40 -150.5t-99 -139t-129 -124t-129 -104.5l-539 -430v-6 h668l47 217h102l-65 -307h-866z" />
<glyph unicode="3" d="M53 276q0 25 3 49.5t7 47.5h115q-4 -23 -7 -44.5t-3 -43.5q0 -55 22.5 -95t58.5 -67t83 -40t96 -13q74 0 139.5 25.5t112.5 71.5t74.5 107.5t27.5 135.5q0 70 -26.5 113.5t-70.5 68t-98.5 33t-109.5 8.5l19 90h75q68 0 129.5 24.5t107.5 67.5t72.5 102.5t26.5 129.5 q0 104 -63.5 163.5t-167.5 59.5q-145 0 -230.5 -77t-123.5 -214h-115q29 180 150.5 280.5t301.5 100.5q72 0 137.5 -18.5t116 -57.5t80 -96.5t29.5 -136.5q0 -74 -25.5 -138.5t-71.5 -113.5t-108.5 -81t-134.5 -40v-4q104 -23 159.5 -98.5t55.5 -180.5q0 -96 -38 -173 t-100.5 -131t-145.5 -82.5t-173 -28.5q-68 0 -137.5 17t-124.5 53t-90 92.5t-35 133.5z" />
<glyph unicode="4" d="M35 385l35 143l745 811h154l-181 -864h201l-20 -90h-199l-61 -295h188l-23 -90h-516l19 90h217l61 295h-620zM154 475h520l155 737h-4z" />
<glyph unicode="5" d="M82 264q0 25 3 47.5t5 40.5h117q-4 -18 -7 -35.5t-3 -35.5q0 -55 22.5 -94.5t58 -66t83 -38.5t96.5 -12q94 0 165.5 41t121 105.5t74 143t24.5 154.5q0 61 -20.5 107.5t-54.5 77t-80 46t-97 15.5q-109 0 -197 -54.5t-123 -152.5h-118l192 786h737l-18 -90h-635l-131 -538 l4 -4q53 66 132 104.5t179 38.5q160 0 252 -87t92 -255q0 -125 -39.5 -223.5t-110.5 -166t-169 -103t-217 -35.5q-61 0 -122.5 20t-109 57t-77 89.5t-29.5 117.5z" />
<glyph unicode="6" d="M84 354q0 92 16.5 203t50 222.5t88 216t128 185.5t169 130t214.5 49q63 0 118.5 -16.5t96.5 -48t64.5 -78t23.5 -107.5t-9 -96h-112q2 20 4 38.5t2 39.5q0 96 -51 137t-144 41q-117 0 -200.5 -65.5t-144 -162t-98.5 -206t-62 -199.5l4 -2q66 109 154.5 162t215.5 53 q74 0 135.5 -22.5t106.5 -64.5t70.5 -100.5t25.5 -130.5q0 -117 -33.5 -218t-98 -174.5t-160 -116.5t-218.5 -43q-174 0 -265 99t-91 275zM199 319q0 -123 66.5 -186t189.5 -63q82 0 152.5 36.5t120.5 97t79 136.5t29 156q0 125 -59.5 194.5t-190.5 69.5q-90 0 -162 -37 t-122 -98.5t-76.5 -140t-26.5 -165.5z" />
<glyph unicode="7" d="M137 0q201 317 409 626.5t431 622.5h-653l-54 -245h-102l70 335h872l-29 -127q-217 -305 -417.5 -606t-380.5 -606h-146z" />
<glyph unicode="8" d="M63 303q0 78 27 144.5t73 117.5t110.5 85t138.5 46v4q-90 31 -143.5 94.5t-53.5 161.5q0 90 36 165t97.5 128.5t141 82t165.5 28.5q70 0 139.5 -15.5t123 -49t87 -89t33.5 -135.5q0 -164 -93 -257t-240 -130v-2q109 -25 159.5 -102.5t50.5 -186.5q0 -100 -40.5 -177 t-108.5 -129t-155 -79.5t-177 -27.5q-76 0 -143.5 19t-117.5 59t-80 101.5t-30 143.5zM178 303q0 -125 72 -179t190 -54q78 0 143.5 26.5t113.5 73.5t76 113.5t28 144.5q0 59 -21.5 101t-58.5 68t-85 37t-101 11q-78 0 -143.5 -23.5t-113 -67.5t-74 -107.5t-26.5 -143.5z M330 944q0 -53 20.5 -93t54 -65.5t78.5 -38t95 -12.5q76 0 139 23.5t109 67.5t72 105.5t26 139.5q0 55 -20.5 93t-54.5 61.5t-78 34t-93 10.5q-76 0 -140.5 -23.5t-110.5 -66.5t-71.5 -102.5t-25.5 -133.5z" />
<glyph unicode="9" d="M57 229q0 61 9 97h112q-2 -20 -4 -39t-2 -39q0 -96 51 -137t144 -41q117 0 200.5 65.5t144 161.5t98.5 205.5t62 199.5l-4 3q-66 -109 -154.5 -162.5t-215.5 -53.5q-74 0 -135.5 23t-106.5 64.5t-70.5 100t-25.5 130.5q0 117 33.5 218t98 175t160 117t218.5 43 q174 0 265 -99.5t91 -275.5q0 -92 -16.5 -202.5t-50 -222t-88 -216t-128 -185.5t-169 -130t-214.5 -49q-63 0 -118.5 16t-96.5 48t-64.5 78t-23.5 107zM274 844q0 -125 59.5 -194.5t190.5 -69.5q90 0 162 36.5t122 98t76.5 140.5t26.5 165q0 123 -66.5 186.5t-189.5 63.5 q-84 0 -153.5 -37t-119.5 -97.5t-79 -136t-29 -155.5z" />
<glyph unicode=":" horiz-adv-x="512" d="M63 0l31 139h144l-31 -139h-144zM229 782l31 140h143l-30 -140h-144z" />
<glyph unicode=";" horiz-adv-x="512" d="M-14 -254l149 254h-63l30 139h146l-33 -139l-145 -254h-84zM229 782l31 140h143l-30 -140h-144z" />
<glyph unicode="&#x3c;" horiz-adv-x="1228" d="M94 463v110l1041 480v-113l-914 -422l914 -422v-112z" />
<glyph unicode="=" horiz-adv-x="1228" d="M98 268v103h1032v-103h-1032zM98 666v102h1032v-102h-1032z" />
<glyph unicode="&#x3e;" horiz-adv-x="1228" d="M94 -16v112l914 422l-914 422v113l1041 -480v-110z" />
<glyph unicode="?" horiz-adv-x="909" d="M164 991q35 182 151.5 275.5t300.5 93.5q154 0 244 -81t90 -226q0 -111 -50 -190t-136 -140l-94 -68q-51 -35 -94.5 -67.5t-76 -73.5t-55 -94t-32.5 -129h-113q14 102 40 166.5t65.5 111.5t95 87t129.5 96l86 63q66 47 93.5 109.5t27.5 128.5q0 100 -59.5 158.5 t-170.5 58.5q-135 0 -214 -74t-107 -205h-121zM225 0l29 127h131l-29 -127h-131z" />
<glyph unicode="@" horiz-adv-x="1638" d="M182 676q0 141 55.5 266t148.5 217t218 146.5t264 54.5q131 0 246 -43t200 -120t134 -181.5t49 -229.5q0 -109 -39 -205t-99.5 -167.5t-136 -113.5t-149.5 -42q-49 0 -85 29.5t-40 91.5h-6q-45 -45 -107.5 -83t-136.5 -38q-59 0 -105 21.5t-79 58.5t-50.5 86t-17.5 106 q0 98 33 195.5t92.5 176.5t142.5 127t185 48q63 0 116.5 -34.5t86.5 -120.5l47 122h100l-182 -548q-10 -29 -14 -56.5t-2 -42.5q2 -23 11 -36t34 -13q55 0 108 42t96 106.5t69 143.5t26 153q0 111 -43 198.5t-116 150t-167 95.5t-197 33q-127 0 -234.5 -48t-186 -131 t-122.5 -194t-44 -235q0 -123 46 -230.5t127 -188.5t188.5 -127t230.5 -46q141 0 274 64.5t217 184.5h96q-43 -80 -106.5 -142t-140 -106t-164.5 -67.5t-176 -23.5q-147 0 -273.5 55t-220.5 149.5t-147.5 221t-53.5 270.5zM561 541q0 -86 47 -139.5t117 -53.5q68 0 125 47 t100 117t67.5 148.5t24.5 142.5q0 33 -13 66.5t-34.5 59t-49 42t-54.5 16.5q-74 0 -134.5 -45t-103.5 -111.5t-67.5 -144.5t-24.5 -145z" />
<glyph unicode="A" horiz-adv-x="1478" d="M-63 0l20 90h115l788 1249h144l262 -1249h123l-19 -90h-446l18 90h205l-80 381h-631l-239 -381h204l-20 -90h-444zM487 561h568l-140 676z" />
<glyph unicode="B" horiz-adv-x="1251" d="M-27 0l19 90h188l246 1159h-195l19 90h477q90 0 178 -8t158 -38.5t113 -92t43 -168.5q0 -68 -26 -128t-72 -105t-107.5 -74t-130.5 -31v-4q102 -23 170.5 -85t68.5 -183q0 -111 -42 -190.5t-116.5 -131t-180 -76t-230.5 -24.5h-580zM295 90h280q115 0 197 27.5t134 75 t77 107.5t25 126q0 74 -36 116t-88.5 61.5t-113.5 23.5t-111 4h-249zM428 721h260q80 0 155 12t133 46t93 94.5t35 156.5q0 74 -24.5 118t-69.5 66.5t-109.5 28.5t-144.5 6h-215z" />
<glyph unicode="C" horiz-adv-x="1366" d="M117 518q0 166 54 318.5t153.5 268.5t241 185.5t315.5 69.5q59 0 120.5 -13.5t114.5 -41t96 -69.5t68 -101h4l43 204h103l-99 -481h-100q2 27 6 53.5t4 55.5q0 74 -31.5 130t-84 94t-118 58.5t-130.5 20.5q-143 0 -262 -65.5t-204 -171t-132.5 -237.5t-47.5 -266 q0 -98 24 -183t74 -146.5t126.5 -96t183.5 -34.5q82 0 157.5 26.5t139 75.5t110 119.5t70.5 161.5h115q-18 -113 -75.5 -201t-139.5 -148.5t-179.5 -92t-195.5 -31.5q-125 0 -222 37.5t-165 108.5t-102.5 170t-34.5 222z" />
<glyph unicode="D" horiz-adv-x="1366" d="M-41 0l18 90h187l242 1159h-187l19 90h354q141 0 273 -16t234.5 -71.5t164 -163t61.5 -291.5q0 -209 -71.5 -359.5t-194.5 -248t-289 -143.5t-354 -46h-457zM279 90h198q154 0 287 50t232.5 142.5t156.5 221.5t57 287q0 238 -128 348t-353 110h-209z" />
<glyph unicode="E" horiz-adv-x="1251" d="M-49 0l18 90h197l244 1159h-195l18 90h1065l-92 -409h-102l67 319h-647l-110 -528h352l45 209h96l-108 -514h-97l46 215h-357l-110 -541h655l74 326h102l-90 -416h-1071z" />
<glyph unicode="F" horiz-adv-x="1138" d="M-39 0l19 90h188l242 1159h-191l21 90h1024l-80 -395h-103l62 305h-619l-110 -528h327l45 205h103l-107 -506h-102l43 211h-328l-112 -541h241l-18 -90h-545z" />
<glyph unicode="G" horiz-adv-x="1478" d="M117 518q0 166 54 318.5t153.5 268.5t241 185.5t315.5 69.5q59 0 120.5 -13.5t114.5 -41t96 -69.5t68 -101h4l43 204h103l-99 -481h-100q2 27 6 53.5t4 55.5q0 74 -31.5 130t-84 94t-118 58.5t-130.5 20.5q-143 0 -262 -65.5t-204 -171t-132.5 -237.5t-47.5 -266 q0 -98 24 -183t74 -146.5t126.5 -96t183.5 -34.5q109 0 202 38.5t161.5 106.5t112.5 159t54 197h-223l21 91h506l-19 -91h-170l-123 -571h-102l41 205h-6q-78 -104 -199 -164.5t-254 -60.5q-125 0 -222 37.5t-165 108.5t-102.5 170t-34.5 222z" />
<glyph unicode="H" horiz-adv-x="1478" d="M-57 0l18 90h205l244 1159h-205l18 90h522l-16 -90h-205l-110 -528h768l112 528h-204l20 90h524l-20 -90h-205l-248 -1159h205l-18 -90h-525l19 90h205l114 541h-766l-114 -541h204l-18 -90h-524z" />
<glyph unicode="I" horiz-adv-x="569" d="M-61 0l18 90h195l239 1159h-194l18 90h504l-19 -90h-194l-240 -1159h195l-21 -90h-501z" />
<glyph unicode="J" horiz-adv-x="909" d="M16 219q0 66 8.5 111t20.5 86h117q-8 -35 -19.5 -74t-11.5 -92q0 -86 51 -133t146 -47q63 0 110 27.5t79 72.5t53.5 102.5t33.5 116.5l191 860h-217l20 90h467l-21 -90h-135l-190 -860q-18 -82 -45 -156.5t-72 -131t-113.5 -89t-171.5 -32.5q-63 0 -117.5 15t-95.5 46 t-64.5 75t-23.5 103z" />
<glyph unicode="K" horiz-adv-x="1251" d="M-39 0l21 90h184l246 1159h-195l21 90h512l-21 -90h-203l-112 -532l4 -4l672 532v4h-132l19 90h407l-18 -90h-100l-709 -553l485 -606h109l-16 -90h-426l18 90h182l-495 615l-129 -615h200l-18 -90h-506z" />
<glyph unicode="L" horiz-adv-x="1138" d="M-43 0l18 90h193l240 1159h-193l21 90h565l-19 -90h-260l-239 -1159h624l66 307h102l-86 -397h-1032z" />
<glyph unicode="M" horiz-adv-x="1820" d="M-25 0l21 90h182l244 1159h-186l18 90h391l193 -1196h4l704 1196h398l-19 -90h-192l-244 -1159h188l-18 -90h-494l21 90h186l246 1159h-4l-750 -1249h-106l-215 1249h-4l-244 -1159h182l-20 -90h-482z" />
<glyph unicode="N" horiz-adv-x="1478" d="M-47 0l18 90h199l233 1159h-196l18 90h363l495 -1212h4l236 1122h-211l18 90h496l-18 -90h-183l-262 -1249h-149l-506 1237h-4l-232 -1147h199l-18 -90h-500z" />
<glyph unicode="O" horiz-adv-x="1478" d="M117 500q0 180 52 336.5t152.5 273.5t246 183.5t333.5 66.5q119 0 219.5 -32t173 -95.5t112.5 -157.5t40 -217q0 -172 -52.5 -330.5t-151.5 -280.5t-242.5 -194.5t-327.5 -72.5q-127 0 -230.5 30.5t-175 95t-110.5 162t-39 232.5zM231 471q0 -102 34 -178t93.5 -125 t140.5 -73.5t177 -24.5q158 0 280.5 70.5t205.5 184t126 255t43 282.5q0 199 -114.5 303.5t-313.5 104.5q-166 0 -292 -67.5t-211 -180.5t-127 -256t-42 -295z" />
<glyph unicode="P" horiz-adv-x="1138" d="M-41 0l18 90h185l241 1159h-184l21 90h501q82 0 163 -13t145.5 -48t104.5 -99.5t40 -164.5q0 -129 -44 -215t-120 -139.5t-176 -76t-213 -22.5h-266l-99 -471h248l-18 -90h-547zM393 651h248q88 0 168 19.5t140.5 62.5t95 111.5t34.5 167.5q0 68 -25.5 112.5t-66.5 70.5 t-94 38t-111 16h-264z" />
<glyph unicode="Q" horiz-adv-x="1478" d="M117 500q0 180 52 336.5t152.5 273.5t246 183.5t333.5 66.5q119 0 219.5 -32t173 -95.5t112.5 -157.5t40 -217q0 -113 -25.5 -230.5t-78 -222t-133.5 -186.5t-191 -125v-4h358l-20 -90h-492q-55 0 -106 -10t-86 -10q-127 0 -230.5 30.5t-175 95t-110.5 162t-39 232.5z M231 471q0 -102 34 -178t93.5 -125t140.5 -73.5t177 -24.5q158 0 280.5 70.5t205.5 184t126 255t43 282.5q0 199 -114.5 303.5t-313.5 104.5q-166 0 -292 -67.5t-211 -180.5t-127 -256t-42 -295z" />
<glyph unicode="R" horiz-adv-x="1251" d="M-57 0l18 90h205l244 1159h-205l18 90h490q90 0 178 -7t157.5 -38.5t112.5 -96t43 -179.5q0 -78 -28.5 -143.5t-77.5 -114.5t-114.5 -79t-139.5 -36v-4q45 -14 73.5 -36.5t45 -53.5t24.5 -71t12 -89l25 -301h121l-19 -90h-217l-24 381q-4 72 -16.5 116t-40 67.5 t-75.5 30.5t-124 7h-240l-108 -512h190l-18 -90h-510zM408 692h245q82 0 161 16.5t140.5 56.5t98.5 109.5t37 178.5q0 51 -24 89t-64.5 61.5t-95 34.5t-118.5 11h-264z" />
<glyph unicode="S" horiz-adv-x="1138" d="M33 0l96 442h102q-4 -23 -9 -45t-5 -43q0 -70 23.5 -123t64.5 -89t96.5 -54t120.5 -18q63 0 128 18t117 54t85 90.5t33 125.5q0 55 -18.5 95.5t-49.5 68t-70.5 47t-80.5 35.5l-142 51q-53 18 -103 44t-89 61t-61.5 82t-22.5 110q0 94 37 169t99 128.5t143 82t169 28.5 q109 0 200 -46t144 -145l35 170h103l-93 -442h-102q8 33 14.5 63.5t6.5 65.5q0 57 -28 102.5t-71 77t-96 48t-102 16.5q-61 0 -123 -19.5t-111 -56.5t-80 -88t-31 -115q0 -55 20.5 -92t53.5 -63.5t75 -44t85 -31.5l127 -49q61 -25 112.5 -51.5t87 -63.5t56 -89t20.5 -126 q0 -96 -38.5 -170t-103 -126t-147.5 -78.5t-171 -26.5q-59 0 -115.5 11t-105 35.5t-83 66.5t-53.5 104h-4l-43 -197h-102z" />
<glyph unicode="T" horiz-adv-x="1251" d="M164 944l80 395h1126l-80 -395h-102l59 305h-401l-236 -1159h217l-16 -90h-561l20 90h226l235 1159h-403l-62 -305h-102z" />
<glyph unicode="U" horiz-adv-x="1366" d="M180 360q0 31 2 55.5t6.5 48t9.5 48.5t11 53l141 684h-155l18 90h467l-18 -90h-195l-145 -708q-10 -41 -18.5 -83t-8.5 -83q0 -82 24.5 -140.5t68.5 -95.5t106.5 -53t138.5 -16q113 0 193.5 41t135 108.5t87 156.5t53.5 185l145 688h-194l18 90h447l-21 -90h-147 l-152 -717q-29 -137 -76 -240.5t-120.5 -173t-178 -104t-252.5 -34.5q-84 0 -155.5 27.5t-123.5 77.5t-82 119.5t-30 155.5z" />
<glyph unicode="V" horiz-adv-x="1366" d="M193 1249l18 90h418l-21 -90h-182l178 -1147h4l658 1147h-191l21 90h426l-19 -90h-112l-729 -1249h-148l-211 1249h-110z" />
<glyph unicode="W" horiz-adv-x="1820" d="M199 1249l18 90h418l-19 -90h-208l16 -1147h4l590 1237h160l67 -1237h4l494 1147h-211l18 90h422l-18 -90h-99l-550 -1249h-160l-70 1237h-4l-588 -1237h-153l-33 1249h-98z" />
<glyph unicode="X" horiz-adv-x="1366" d="M-66 0l19 90h117l596 606l-316 553h-125l21 90h436l-18 -90h-185l269 -479l462 479h-190l18 90h461l-18 -90h-138l-542 -569l342 -590h125l-21 -90h-461l21 90h207l-297 514l-504 -514h219l-20 -90h-478z" />
<glyph unicode="Y" horiz-adv-x="1251" d="M193 1249l18 90h401l-20 -90h-176l248 -575l493 575h-160l21 90h391l-20 -90h-89l-600 -692l-96 -467h227l-16 -90h-571l18 90h223l101 469l-299 690h-94z" />
<glyph unicode="Z" horiz-adv-x="1251" d="M10 0l27 137l1130 1112h-772l-59 -282h-103l78 372h1004l-37 -133l-1133 -1116h818l61 277h102l-75 -367h-1041z" />
<glyph unicode="[" horiz-adv-x="569" d="M70 -246l362 1725h258l-18 -78h-154l-330 -1569h156l-18 -78h-256z" />
<glyph unicode="\" horiz-adv-x="681" d="M74 1360h108l525 -1380h-109z" />
<glyph unicode="]" horiz-adv-x="569" d="M-63 -246l18 78h154l329 1569h-155l18 78h256l-362 -1725h-258z" />
<glyph unicode="^" horiz-adv-x="1228" d="M90 412l471 927h107l471 -927h-117l-410 805l-403 -805h-119z" />
<glyph unicode="_" d="M0 -154h1024v-102h-1024v102z" />
<glyph unicode="`" horiz-adv-x="530" d="M147 1327h164l154 -274h-94z" />
<glyph unicode="a" d="M29 211q0 106 49 173t126 104.5t170 51t181 13.5h203q10 39 18 78t8 80q0 43 -18 72.5t-48 47t-67 25.5t-76 8q-117 0 -188.5 -44t-112.5 -154h-118q47 152 157.5 214t274.5 62q51 0 106.5 -12t101.5 -39t74.5 -70t28.5 -104q0 -23 -1 -39t-3 -31.5t-5 -32t-7 -36.5 l-109 -500h131l-12 -78h-246l33 152l-4 4q-78 -92 -162 -134t-207 -42q-51 0 -101 14t-89 44t-63.5 73t-24.5 100zM143 221q0 -84 58.5 -124t132.5 -40q100 0 168.5 34t116 91.5t77 133t52.5 159.5h-168q-61 0 -137 -10t-143 -38t-112 -77t-45 -129z" />
<glyph unicode="b" horiz-adv-x="1138" d="M-70 0l21 78h164l245 1184h-165l18 77h281l-117 -555l4 -4q66 78 154 120t202 42q160 0 247 -99.5t87 -254.5q0 -109 -33.5 -217.5t-99.5 -195.5t-161 -141t-216 -54q-111 0 -190.5 44t-128.5 144h-4l-37 -168h-271zM285 319q0 -123 67.5 -192.5t186.5 -69.5 q100 0 178 50.5t131 127t80.5 169t27.5 178.5q0 59 -17 111t-49 90t-80 59.5t-110 21.5q-109 0 -187.5 -49t-128.5 -128t-74.5 -176t-24.5 -192z" />
<glyph unicode="c" d="M84 383q0 117 37 219.5t106.5 177t167 118.5t217.5 44q43 0 86 -9t81 -28.5t69 -50.5t47 -72h4l31 140h86l-76 -340h-86q4 16 6 34.5t2 36.5q0 104 -68.5 157.5t-172.5 53.5t-183.5 -44t-132.5 -116.5t-79.5 -166t-26.5 -191.5q0 -145 77.5 -217t215.5 -72q53 0 100 20.5 t86 54.5t66.5 78t41.5 93h105q-18 -78 -57 -138.5t-94.5 -101t-125 -62t-147.5 -21.5q-190 0 -286.5 108.5t-96.5 294.5z" />
<glyph unicode="d" horiz-adv-x="1138" d="M68 360q0 111 36.5 215.5t105.5 185.5t165 131t213 50q109 0 187.5 -38t119.5 -142h4l98 500h-168l17 77h284l-262 -1261h154l-23 -78h-256l35 162l-4 4q-61 -86 -158.5 -136t-207.5 -50q-88 0 -151.5 29.5t-105.5 80.5t-62.5 121t-20.5 149zM182 330q0 -57 14.5 -106.5 t44 -86.5t74.5 -58.5t105 -21.5q113 0 195.5 49.5t137 128t81 178t26.5 199.5q0 117 -65.5 184.5t-182.5 67.5q-104 0 -185 -48t-135 -125t-82 -172t-28 -189z" />
<glyph unicode="e" d="M66 377q0 84 30.5 183t96 184t167 141.5t240.5 56.5q180 0 274.5 -92t94.5 -258q0 -41 -3 -79t-8 -71h-768q-8 -29 -9 -54.5t-1 -51.5q0 -33 7.5 -80t35 -91t83.5 -76t153 -32q131 0 219 62.5t123 161.5h102q-25 -80 -70 -137.5t-106 -94.5t-137 -53t-158 -16 q-193 0 -279.5 102t-86.5 295zM205 520h639q6 23 8 54.5t2 60.5q0 53 -20.5 95t-54.5 71.5t-81 46t-98 16.5q-76 0 -139.5 -27.5t-113.5 -75.5t-86 -110.5t-56 -130.5z" />
<glyph unicode="f" horiz-adv-x="569" d="M-45 0l18 78h162l162 766h-178l16 78h178l29 137q14 63 34.5 117.5t57.5 95.5t93.5 64.5t140.5 23.5q33 0 66.5 -9.5t64.5 -19.5q-2 -4 -4 -16t-5.5 -26.5t-5.5 -25t-4 -10.5q-27 4 -51 10.5t-57 6.5q-55 0 -93 -15.5t-62.5 -45t-39 -72.5t-24.5 -99l-25 -116h213 l-16 -78h-213l-162 -766h203l-19 -78h-479z" />
<glyph unicode="g" horiz-adv-x="1138" d="M23 -106q0 12 2 22h116q-4 -10 -4 -22v-25q0 -43 24.5 -72.5t61.5 -46t78 -24t74 -7.5q92 0 155.5 25t107.5 71t71.5 111.5t46.5 147.5l26 112l-4 4q-59 -80 -149 -129t-193 -49q-84 0 -150.5 27t-113.5 76t-71.5 117.5t-24.5 150.5q0 111 38 212t106.5 178t163.5 123 t212 46q102 0 189 -44t122 -144h4l37 168h256l-14 -78h-154l-143 -660q-29 -125 -61.5 -225t-90 -171t-147.5 -108.5t-232 -37.5q-49 0 -108 11t-110.5 37.5t-86 70.5t-34.5 110v23zM190 367q0 -135 70 -206t193 -71q102 0 180 46t129 121t76.5 170t25.5 191 q0 117 -74.5 181.5t-185.5 64.5q-98 0 -175 -45t-130 -115.5t-81 -159.5t-28 -177z" />
<glyph unicode="h" horiz-adv-x="1138" d="M-57 0l16 78h170l248 1184h-172l20 77h279l-119 -561l4 -4q59 94 146.5 131t197.5 37q51 0 99.5 -14.5t83 -42t56 -69.5t21.5 -97q0 -12 -4 -38t-10 -56.5t-13.5 -65.5t-13.5 -67l-86 -414h156l-16 -78h-439l17 78h168l92 438q8 39 21.5 90t13.5 92q0 45 -16.5 76 t-44 47.5t-64.5 23.5t-78 7q-86 0 -145.5 -33t-100.5 -87t-65.5 -122.5t-38.5 -138.5l-82 -393h162l-17 -78h-446z" />
<glyph unicode="i" horiz-adv-x="530" d="M-66 0l17 78h184l164 766h-184l16 78h301l-182 -844h156l-17 -78h-455zM348 1149l31 139h133l-31 -139h-133z" />
<glyph unicode="j" horiz-adv-x="454" d="M-209 -340l19 80q23 -8 47 -12t61 -9q37 0 62.5 13.5t43 41t31 71.5t25.5 106l194 893h-176l19 78h284l-206 -971q-14 -63 -31 -119.5t-45.5 -98.5t-74.5 -66.5t-120 -24.5q-33 0 -66.5 5t-66.5 13zM317 1149l31 139h133l-30 -139h-134z" />
<glyph unicode="k" d="M-68 0l19 78h162l249 1184h-167l18 77h281l-189 -890l543 391v4h-152l21 78h354l-18 -78h-80l-367 -266l209 -500h107l-19 -78h-344l16 78h130l-183 438l-237 -174l-58 -264h148l-19 -78h-424z" />
<glyph unicode="l" horiz-adv-x="454" d="M-61 0l14 78h143l250 1184h-147l18 77h260l-266 -1261h135l-16 -78h-391z" />
<glyph unicode="m" horiz-adv-x="1705" d="M-57 0l16 78h170l164 766h-164l18 78h267l-31 -138l4 -4q59 78 143 120t185 42q45 0 87 -9t76.5 -28.5t59.5 -52.5t33 -82q53 86 140 129t183 43q51 0 99.5 -13.5t85.5 -41t59.5 -69.5t22.5 -99q0 -25 -7.5 -69t-17.5 -92t-20.5 -93t-16.5 -74l-65 -313h155l-10 -78h-436 l16 78h160l70 321q6 25 15 66t18.5 86t16.5 84t7 59q0 88 -56.5 123t-138.5 35q-96 0 -155.5 -42t-95 -106.5t-54 -143.5t-33.5 -154l-71 -328h164l-19 -78h-442l16 78h166l68 321q4 23 14 67t20.5 90t18.5 87t8 59q0 82 -52 116t-130 34q-84 0 -142.5 -28.5t-97.5 -78 t-62.5 -114t-37.5 -135.5l-90 -418h162l-17 -78h-446z" />
<glyph unicode="n" horiz-adv-x="1138" d="M-57 0l16 78h170l162 766h-160l14 78h273l-33 -144l4 -4q59 94 146.5 131t197.5 37q51 0 99.5 -14.5t83 -42t56 -69.5t21.5 -97q0 -12 -4 -38t-10 -56.5t-13.5 -65.5t-13.5 -67l-86 -414h156l-16 -78h-439l17 78h168l92 438q8 39 21.5 90t13.5 92q0 45 -16.5 76t-44 47.5 t-64.5 23.5t-78 7q-86 0 -145.5 -33t-100.5 -87t-65.5 -122.5t-38.5 -138.5l-82 -393h162l-17 -78h-446z" />
<glyph unicode="o" d="M63 379q0 119 40 222.5t111 179t167 118.5t207 43q88 0 158.5 -27.5t121 -75.5t77 -115t26.5 -144q0 -117 -37 -225.5t-105.5 -191.5t-167 -133t-223.5 -50q-186 0 -280.5 108.5t-94.5 290.5zM178 360q0 -61 14.5 -116.5t45 -96.5t79 -65.5t115.5 -24.5q102 0 181 49.5 t133.5 126t82 171t27.5 184.5q0 117 -63.5 196.5t-188.5 79.5q-100 0 -179 -43t-134 -113.5t-84 -162t-29 -185.5z" />
<glyph unicode="p" horiz-adv-x="1138" d="M-129 -338l20 78h172l224 1104h-168l18 78h275l-33 -144h4q59 72 142 118t182 46q186 0 274 -97t88 -282q0 -102 -36 -205.5t-100.5 -187.5t-155.5 -137t-202 -53q-115 0 -191.5 41.5t-125.5 148.5h-4l-88 -430h176l-20 -78h-451zM293 311q0 -113 69.5 -183.5 t182.5 -70.5q100 0 177 50.5t129 128t77.5 172t25.5 182.5q0 119 -60 196.5t-187 77.5q-109 0 -187 -51t-129 -131t-74.5 -178.5t-23.5 -192.5z" />
<glyph unicode="q" horiz-adv-x="1138" d="M68 367q0 111 37.5 214t105.5 184t164 129t213 48q104 0 187 -47t108 -154h4l37 181h276l-18 -78h-172l-234 -1104h172l-16 -78h-453l19 78h164l90 405l-4 5q-66 -82 -155 -126t-198 -44q-86 0 -148.5 30.5t-102.5 83.5t-58 124t-18 149zM182 322q0 -115 64.5 -190 t181.5 -75q100 0 178 51.5t130 130t79 174t27 185.5q0 119 -60.5 192.5t-185.5 73.5q-104 0 -182 -50t-129.5 -129t-77 -175t-25.5 -188z" />
<glyph unicode="r" horiz-adv-x="681" d="M-61 0l12 78h168l162 766h-166l16 78h275l-31 -150l4 -4q55 94 147 134t203 40l-20 -102q-90 0 -156 -23.5t-112 -69t-74.5 -111t-47.5 -151.5l-86 -407h197l-14 -78h-477z" />
<glyph unicode="s" horiz-adv-x="909" d="M-10 0l63 313h84q0 -20 -1 -39.5t-1 -40.5q0 -47 25.5 -79.5t65.5 -54t88 -32t92 -10.5q43 0 89 13.5t84.5 38t64.5 61.5t26 86q0 63 -33 97t-94 44l-131 27q-49 10 -97.5 23.5t-86.5 38t-61.5 63.5t-23.5 98q0 80 33 136.5t87 92t122 51t139 15.5q82 0 156 -27.5 t121 -99.5l24 107h82l-61 -299h-92q6 16 8 34.5t2 34.5q0 45 -23.5 78t-58.5 54.5t-78 30.5t-80 9q-45 0 -92 -11t-86 -34.5t-63.5 -61.5t-24.5 -91q0 -41 18.5 -67t46 -40t62.5 -21.5t66 -13.5l127 -24q92 -18 149 -70.5t57 -159.5q0 -80 -38.5 -135t-98 -90t-131.5 -50 t-137 -15q-80 0 -159 29.5t-120 105.5l-26 -115h-84z" />
<glyph unicode="t" horiz-adv-x="681" d="M117 844l16 78h166l49 219l119 39l-57 -258h286l-18 -78h-285l-112 -520q-10 -53 -20.5 -101.5t-10.5 -75.5q0 -31 23.5 -54t60.5 -23q45 0 77.5 16t54 43t33 60.5t17.5 66.5h90q-16 -121 -83.5 -198.5t-192.5 -77.5q-84 0 -139.5 39.5t-55.5 117.5q0 39 11.5 95.5 t25.5 115.5l111 496h-166z" />
<glyph unicode="u" horiz-adv-x="1138" d="M104 844l17 78h280l-100 -471q-12 -53 -27.5 -119t-15.5 -121q0 -76 60.5 -108.5t142.5 -32.5q92 0 151.5 32.5t98.5 87t60.5 122t37.5 139.5l86 393h-174l16 78h285l-182 -844h166l-15 -78h-272l33 143l-4 4q-59 -94 -146.5 -130.5t-198.5 -36.5q-53 0 -100 13t-82 39.5 t-56.5 65.5t-21.5 88q0 53 13.5 123t29.5 142l84 393h-166z" />
<glyph unicode="v" d="M102 844l17 78h323l-16 -78h-131l119 -754h4l436 754h-143l18 78h356l-16 -78h-92l-508 -844h-143l-142 844h-82z" />
<glyph unicode="w" horiz-adv-x="1593" d="M96 844l21 78h366l-18 -78h-164l82 -729h4l428 807h137l88 -807h4l388 729h-164l18 78h371l-17 -78h-92l-461 -844h-133l-92 807h-4l-430 -807h-133l-107 844h-92z" />
<glyph unicode="x" d="M-68 0l19 78h80l420 407l-236 359h-94l16 78h350l-16 -78h-129l190 -303l314 303h-131l18 78h363l-19 -78h-96l-395 -377l252 -389h88l-19 -78h-354l16 78h142l-209 334l-340 -334h141l-16 -78h-355z" />
<glyph unicode="y" d="M-41 -348l18 82q23 -4 46.5 -9.5t46.5 -5.5q82 0 128 37t87 103l84 137l-174 848h-86l16 78h352l-14 -78h-158l137 -729l449 729h-160l19 78h350l-15 -78h-77l-578 -922q-39 -63 -76 -114.5t-76.5 -88t-86 -57t-107.5 -20.5q-33 0 -63.5 1t-61.5 9z" />
<glyph unicode="z" horiz-adv-x="909" d="M4 0l21 109l739 735h-467l-41 -189h-102l57 267h698l-22 -109l-742 -735h492l45 209h102l-61 -287h-719z" />
<glyph unicode="{" horiz-adv-x="681" d="M184 578l17 77q45 0 78.5 28t60.5 73t44 101t30 116l57 270q25 117 84 176.5t145 59.5h103l-17 -78h-98q-41 0 -72.5 -55.5t-48.5 -139.5l-57 -268q-16 -84 -47 -142.5t-63.5 -96t-60.5 -57t-38 -24.5v-4q8 -4 23.5 -17t30 -36.5t25.5 -58.5t11 -84q0 -29 -3 -60.5 t-13 -72.5l-60 -285q-6 -29 -7 -53.5t-1 -46.5q0 -68 58 -68h98l-19 -78h-102q-137 0 -137 142q0 20 2 44.5t6 57.5l51 254q10 47 17.5 89t7.5 81q0 66 -23.5 111t-81.5 45z" />
<glyph unicode="|" horiz-adv-x="454" d="M227 -512v2048h103v-2048h-103z" />
<glyph unicode="}" horiz-adv-x="681" d="M-72 -246l17 78h98q41 0 72.5 55.5t48.5 139.5l57 268q16 84 47 142.5t64 96t60.5 57t37.5 23.5v4q-8 4 -23.5 17.5t-30 37t-25.5 58.5t-11 84q0 29 3 60.5t13 72.5l60 285q6 29 7 53.5t1 46.5q0 68 -57 68h-99l19 78h102q137 0 137 -142q0 -20 -2 -44.5t-6 -57.5 l-51 -254q-10 -47 -17.5 -89t-7.5 -81q0 -66 23.5 -111t81.5 -45l-17 -77q-45 0 -78.5 -28t-60 -73t-44 -102.5t-30.5 -114.5l-57 -270q-25 -117 -84 -176.5t-145 -59.5h-103z" />
<glyph unicode="~" horiz-adv-x="1228" d="M141 463q16 33 40 64.5t54.5 56t70.5 40t91 15.5q53 0 110.5 -19.5t117.5 -46.5q57 -25 112.5 -49t96.5 -24q31 0 56 13t46.5 33.5t40 47.5t37.5 53l73 -74q-23 -33 -48 -64.5t-55 -56t-67.5 -40t-85.5 -15.5q-57 0 -107 19.5t-101 48.5q-49 29 -106.5 50.5t-129.5 21.5 q-35 0 -60.5 -13.5t-47 -34t-37 -47t-27.5 -53.5z" />
<glyph unicode="&#xa1;" horiz-adv-x="569" d="M27 -338l247 1040h86l-184 -1040h-149zM289 866l28 127h132l-29 -127h-131z" />
<glyph unicode="&#xa2;" d="M88 383q0 113 34 213t98.5 175t156.5 121t209 52l41 195h65l-41 -197q78 -10 146.5 -48t97.5 -112h4l31 140h86l-76 -340h-86q4 16 6 34.5t2 36.5q0 100 -63.5 153.5t-161.5 57.5l-166 -807q39 0 87 15.5t93 46.5t82 77t53 107h105q-23 -98 -73 -160.5t-110.5 -98.5 t-119 -50t-94.5 -14q-14 0 -24.5 -1.5t-14.5 3.5l-39 -187h-70l41 191q-147 20 -223 126.5t-76 270.5zM203 346q0 -119 52 -190.5t148 -87.5l166 796q-92 -12 -161.5 -60t-114.5 -119t-67.5 -159t-22.5 -180z" />
<glyph unicode="&#xa3;" d="M-53 0l20 90h172l133 604h-178l21 90h176l39 174q20 92 52 166t82 126.5t121.5 81t172.5 28.5q66 0 123 -17.5t99 -49t66.5 -79t24.5 -108.5q0 -16 -1 -33.5t-3 -36.5h-115q2 16 3 30.5t1 29.5q0 88 -56 131t-134 43t-132 -24.5t-92 -67.5t-61.5 -101.5t-38.5 -126.5 l-36 -166h256l-21 -90h-254l-133 -604h487l45 197h103l-62 -287h-880z" />
<glyph unicode="&#xa4;" d="M86 270l102 109q-102 129 -102 291q0 78 23.5 153.5t83.5 137.5l-107 106l72 74l106 -105q63 53 140 79t155 26t151.5 -25.5t137.5 -79.5l106 105l72 -74l-102 -102q53 -61 77.5 -138t24.5 -157q0 -78 -23.5 -153t-76.5 -140l100 -107l-72 -71l-100 110 q-66 -57 -141.5 -83.5t-153.5 -26.5q-82 0 -157.5 25.5t-143.5 84.5l-100 -110zM188 670q0 -78 29 -145.5t80 -117t117.5 -78t144.5 -28.5q76 0 142.5 29.5t115.5 80t78 117t29 142.5t-29 142.5t-78 116.5t-115.5 79.5t-142.5 29.5q-78 0 -144.5 -28.5t-117.5 -77.5 t-80 -116.5t-29 -145.5z" />
<glyph unicode="&#xa5;" d="M94 371l19 78h346l20 98l-26 65h-308l17 78h260l-219 559h-82l20 90h340l-20 -90h-139l215 -559h49l448 559h-139l20 90h340l-20 -90h-82l-455 -559h267l-17 -78h-315l-51 -65l-21 -98h354l-18 -78h-352l-58 -281h205l-20 -90h-512l20 90h205l57 281h-348z" />
<glyph unicode="&#xa6;" horiz-adv-x="454" d="M227 -358v716h103v-716h-103zM227 666v716h103v-716h-103z" />
<glyph unicode="&#xa7;" d="M53 31q0 33 4 53t9 37h116q-6 -14 -10 -30.5t-4 -47.5q0 -41 20.5 -70.5t53 -50t74.5 -31t85 -10.5q55 0 107.5 11.5t94.5 38t67.5 70.5t25.5 108q0 66 -53 103.5t-127 70.5l-182 82q-76 29 -127 83t-51 140q0 47 23.5 88t59 74.5t79.5 57t85 36.5q-61 47 -88.5 94 t-27.5 125q0 68 36.5 123t94 93t124 59.5t126.5 21.5q66 0 126 -13.5t107 -44t76 -81t29 -125.5q0 -41 -9 -74h-114q4 23 6 42t2 38q-10 168 -219 168q-45 0 -93.5 -12.5t-87 -38t-64.5 -65.5t-26 -93q0 -35 15.5 -61.5t41 -48t60.5 -39t74 -33.5l131 -56q41 -18 78 -40.5 t65.5 -52.5t45 -67.5t16.5 -87.5q0 -47 -23.5 -88t-59.5 -73.5t-79 -55t-84 -32.5q59 -31 94 -86.5t35 -122.5q0 -76 -33 -136.5t-87 -102.5t-125.5 -64.5t-149.5 -22.5q-57 0 -121 10.5t-118 37t-89 73.5t-35 119zM270 606q0 -61 41 -97t95 -60l90 -37q27 -10 53 -22.5 t49 -24.5q27 10 64.5 25.5t70.5 38t56.5 57t23.5 83.5q0 33 -17.5 59.5t-44 47t-61.5 36t-67 27.5l-99 39q-12 6 -25.5 10.5t-25.5 10.5q-12 -2 -45 -15.5t-67.5 -38t-62.5 -59.5t-28 -80z" />
<glyph unicode="&#xa8;" horiz-adv-x="530" d="M152 1102l30 139h129l-30 -139h-129zM477 1102l29 139h131l-29 -139h-131z" />
<glyph unicode="&#xa9;" horiz-adv-x="1638" d="M170 672q0 141 54.5 266t148.5 219t220 148.5t269 54.5q141 0 267 -54.5t219.5 -148.5t147.5 -219t54 -266q0 -143 -54 -269.5t-147.5 -220.5t-219 -148t-267.5 -54q-143 0 -269 54t-220 148t-148.5 220.5t-54.5 269.5zM272 672q0 -127 44 -237.5t123 -191.5t186.5 -127 t236.5 -46t236.5 46t185.5 128t121 191.5t43 236.5q0 125 -44 234.5t-123 190.5t-186.5 127t-232.5 46q-127 0 -234.5 -46t-186.5 -127t-124 -190.5t-45 -234.5zM465 672q0 92 27.5 172t81 138t130 91t173.5 33q68 0 128 -19.5t106 -56.5t77 -90t41 -123h-103 q-16 80 -80.5 139.5t-166.5 59.5q-76 0 -133.5 -27.5t-97.5 -74t-60.5 -109t-20.5 -131.5q0 -68 21.5 -131.5t62.5 -112.5t99.5 -78.5t132.5 -29.5q100 0 164.5 60t78.5 146h103q-29 -133 -122 -215t-224 -82q-96 0 -173 34t-131.5 93.5t-84 140.5t-29.5 173z" />
<glyph unicode="&#xaa;" horiz-adv-x="665" d="M164 922q0 68 34.5 109.5t87 65t113 32t113.5 8.5h133q10 41 10 77q0 31 -16 47.5t-38.5 23.5t-48.5 8t-46 1q-61 0 -106.5 -19.5t-69.5 -80.5h-78q35 94 105.5 130t168.5 36q31 0 68 -6t67.5 -21.5t51 -42t20.5 -65.5q0 -29 -2 -45.5t-8 -38.5l-72 -281h88l-14 -65h-154 l21 90h-4q-51 -55 -106.5 -79t-129.5 -24q-31 0 -64.5 8.5t-61 26t-45 43t-17.5 62.5zM254 928q0 -43 34 -61.5t81 -18.5q68 0 111.5 17.5t72.5 45.5q29 31 47 72t33 88h-105q-39 0 -87 -4t-89 -19.5t-69.5 -43t-28.5 -76.5z" />
<glyph unicode="&#xab;" horiz-adv-x="796" d="M111 471l260 406h98l-246 -406l72 -405h-96zM420 471l260 406h98l-246 -406l72 -405h-96z" />
<glyph unicode="&#xac;" horiz-adv-x="1228" d="M98 666v102h1032v-547h-102v445h-930z" />
<glyph unicode="&#xad;" horiz-adv-x="681" d="M115 500l22 102h492l-25 -102h-489z" />
<glyph unicode="&#xae;" horiz-adv-x="1638" d="M170 672q0 141 54.5 266t148.5 219t220 148.5t269 54.5q141 0 267 -54.5t219.5 -148.5t147.5 -219t54 -266q0 -143 -54 -269.5t-147.5 -220.5t-219 -148t-267.5 -54q-143 0 -269 54t-220 148t-148.5 220.5t-54.5 269.5zM272 672q0 -127 44 -237.5t123 -191.5t186.5 -127 t236.5 -46t236.5 46t185.5 128t121 191.5t43 236.5q0 125 -44 234.5t-123 190.5t-186.5 127t-232.5 46q-127 0 -234.5 -46t-186.5 -127t-124 -190.5t-45 -234.5zM600 260v813h320q272 0 272 -221q0 -55 -17.5 -95t-47 -67.5t-67.5 -44t-79 -22.5l244 -363h-119l-229 363 h-175v-363h-102zM702 700h144q45 0 89 4.5t79 19.5t55.5 46t20.5 84q0 43 -16.5 70.5t-43 43t-61.5 21.5t-72 6h-195v-295z" />
<glyph unicode="&#xaf;" horiz-adv-x="530" d="M92 1143l19 90h561l-19 -90h-561z" />
<glyph unicode="&#xb0;" horiz-adv-x="819" d="M229 1067q0 61 22.5 114.5t62.5 93.5t93.5 62.5t114.5 22.5t114.5 -22.5t93.5 -62.5t62.5 -93.5t22.5 -114.5t-22.5 -114.5t-62.5 -93.5t-93 -62.5t-115 -22.5q-61 0 -114.5 22.5t-93.5 62.5t-62.5 93.5t-22.5 114.5zM307 1067q0 -92 61.5 -153.5t153.5 -61.5t153.5 61.5 t61.5 153.5t-61.5 153.5t-153.5 61.5t-153.5 -61.5t-61.5 -153.5z" />
<glyph unicode="&#xb1;" horiz-adv-x="1228" d="M98 0v102h1032v-102h-1032zM98 559v103h465v374h103v-374h464v-103h-464v-375h-103v375h-465z" />
<glyph unicode="&#xb2;" horiz-adv-x="665" d="M55 543l21 88l350 266q31 25 72 54.5t76.5 63.5t61.5 72.5t26 81.5q0 66 -41 95.5t-103 29.5q-86 0 -133 -31.5t-80 -109.5q-4 -10 -5 -20.5t-5 -22.5h-82q6 29 16 57q31 92 104 142.5t171 50.5q45 0 89 -10.5t79 -32t57.5 -58t22.5 -88.5q0 -47 -26 -91t-64.5 -83 t-85 -73.5t-84.5 -63.5l-332 -246v-6h401l33 121h80l-43 -186h-576z" />
<glyph unicode="&#xb3;" horiz-adv-x="665" d="M117 711v28t4 29h84q-6 -14 -8 -27.5t-2 -25.5q0 -66 51 -92.5t116 -26.5q98 0 157 53t59 142q0 39 -15.5 63.5t-41 38.5t-58.5 19.5t-70 5.5l13 65h49q90 0 147 52t57 136q0 66 -36.5 94.5t-100.5 28.5q-70 0 -127 -26.5t-80 -98.5q-4 -10 -5 -19t-5 -20h-88 q4 14 7 27.5t7 26.5q35 92 110 134t171 42q43 0 86 -10.5t77 -33t54.5 -58t20.5 -84.5q0 -47 -18.5 -86t-49.5 -68t-72 -47.5t-84 -22.5v-4q66 -10 104 -56t38 -118q0 -55 -26 -100t-66.5 -77t-92 -48.5t-102.5 -16.5q-45 0 -92 9.5t-85 31t-62.5 56.5t-24.5 84z" />
<glyph unicode="&#xb4;" horiz-adv-x="530" d="M258 1053l215 274h164l-275 -274h-104z" />
<glyph unicode="&#xb6;" horiz-adv-x="1228" d="M199 864q0 115 46 203t122.5 148.5t176 92t204.5 31.5h444l-330 -1585h-102l311 1495h-272l-312 -1495h-102l166 795q-80 0 -144.5 24.5t-110.5 67.5t-71.5 100.5t-25.5 122.5z" />
<glyph unicode="&#xb7;" horiz-adv-x="512" d="M170 571q0 47 34 81t81 34t80.5 -34t33.5 -81q0 -43 -33.5 -78.5t-78.5 -35.5q-47 0 -82 33.5t-35 80.5z" />
<glyph unicode="&#xb8;" horiz-adv-x="530" d="M-18 -338l32 64q35 -20 74 -32.5t80 -12.5q45 0 80 14t35 61q0 35 -31 50.5t-66 15.5q-16 0 -32.5 -2t-28.5 -6l-29 39l99 147h79l-77 -106q27 6 59 6q51 0 90 -40t39 -100q0 -41 -19.5 -70.5t-49 -49t-66.5 -28.5t-72 -9q-53 0 -102 15t-94 44z" />
<glyph unicode="&#xb9;" horiz-adv-x="665" d="M201 543l12 65h133l152 637h-4q-104 -80 -234 -145l19 92q63 35 126.5 73t110.5 83h90l-170 -740h127l-14 -65h-348z" />
<glyph unicode="&#xba;" horiz-adv-x="665" d="M172 1022q0 74 25.5 136.5t72.5 106.5t113 69.5t145 25.5q47 0 90.5 -15.5t75 -43t51 -68.5t19.5 -90q0 -74 -25.5 -139.5t-71.5 -114.5t-110.5 -78t-140.5 -29q-117 0 -180.5 61.5t-63.5 178.5zM262 1024q0 -82 36 -129t114 -47q61 0 109 23.5t82 63.5t52.5 93t18.5 111 q0 88 -42 121.5t-120 33.5q-61 0 -107.5 -22.5t-78 -60t-48 -87t-16.5 -100.5z" />
<glyph unicode="&#xbb;" horiz-adv-x="796" d="M25 66l245 405l-71 406h96l88 -406l-260 -405h-98zM334 66l246 405l-72 406h96l88 -406l-260 -405h-98z" />
<glyph unicode="&#xbc;" horiz-adv-x="1536" d="M150 543l12 65h133l151 637h-4q-104 -80 -233 -145l18 92q63 35 127 73t111 83h90l-170 -740h127l-14 -65h-348zM352 -37l815 1413h97l-820 -1413h-92zM811 225l23 92l483 488h113l-117 -514h117l-13 -66h-117l-40 -159h110l-14 -66h-336l12 66h142l38 159h-401zM899 291 h326l94 416h-4z" />
<glyph unicode="&#xbd;" horiz-adv-x="1536" d="M119 543l12 65h133l152 637h-4q-104 -80 -234 -145l19 92q63 35 126.5 73t110.5 83h90l-170 -740h127l-14 -65h-348zM291 -37l815 1413h96l-819 -1413h-92zM795 0l20 88l350 266q31 25 72 54.5t77 63.5t61.5 73t25.5 82q0 66 -41 95.5t-103 29.5q-86 0 -133 -32t-80 -110 q-4 -10 -5 -20t-5 -23h-82q6 29 17 58q31 92 103.5 142t170.5 50q45 0 89 -10t79 -31.5t57.5 -58.5t22.5 -88q0 -47 -25.5 -91t-64.5 -83t-85 -74t-85 -64l-332 -245v-6h401l33 120h80l-43 -186h-575z" />
<glyph unicode="&#xbe;" horiz-adv-x="1536" d="M80 711v28t4 29h84q-6 -14 -8 -27.5t-2 -25.5q0 -66 51 -92.5t117 -26.5q98 0 156.5 53t58.5 142q0 39 -15.5 63.5t-41 38.5t-58.5 19.5t-70 5.5l13 65h49q90 0 147.5 52t57.5 136q0 66 -37 94.5t-101 28.5q-70 0 -127 -26.5t-79 -98.5q-4 -10 -5.5 -19t-5.5 -20h-88 q4 14 7 27.5t8 26.5q35 92 109.5 134t170.5 42q43 0 86 -10.5t77 -33t54.5 -58t20.5 -84.5q0 -47 -18.5 -86t-49.5 -68t-72 -47.5t-84 -22.5v-4q66 -10 104 -56t38 -118q0 -55 -25.5 -100t-66.5 -77t-92.5 -48.5t-102.5 -16.5q-45 0 -92 9.5t-85 31t-62.5 56.5t-24.5 84z M383 -37l815 1413h96l-819 -1413h-92zM831 225l23 92l483 488h113l-117 -514h117l-12 -66h-117l-41 -159h111l-15 -66h-336l13 66h141l39 159h-402zM920 291h325l94 416h-4z" />
<glyph unicode="&#xbf;" horiz-adv-x="909" d="M-18 -51q0 100 35.5 165.5t91 115t121 90t126 93t105.5 122t59 176.5h113q-18 -127 -64.5 -209t-107 -137.5t-125 -94.5t-117.5 -81t-88 -97t-35 -143q0 -100 59.5 -158.5t170.5 -58.5q135 0 213.5 73.5t107.5 204.5h121q-35 -182 -151.5 -275t-301.5 -93 q-154 0 -243.5 80.5t-89.5 226.5zM547 866l28 127h132l-29 -127h-131z" />
<glyph unicode="&#xc0;" horiz-adv-x="1478" d="M-63 0l20 90h115l788 1249h144l262 -1249h123l-19 -90h-446l18 90h205l-80 381h-631l-239 -381h204l-20 -90h-444zM487 561h568l-140 676zM712 1745h164l154 -274h-94z" />
<glyph unicode="&#xc1;" horiz-adv-x="1478" d="M-63 0l20 90h115l788 1249h144l262 -1249h123l-19 -90h-446l18 90h205l-80 381h-631l-239 -381h204l-20 -90h-444zM487 561h568l-140 676zM823 1471l215 274h164l-275 -274h-104z" />
<glyph unicode="&#xc2;" horiz-adv-x="1478" d="M-63 0l20 90h115l788 1249h144l262 -1249h123l-19 -90h-446l18 90h205l-80 381h-631l-239 -381h204l-20 -90h-444zM487 561h568l-140 676zM651 1471l254 274h123l158 -274h-111l-115 209l-182 -209h-127z" />
<glyph unicode="&#xc3;" horiz-adv-x="1478" d="M-63 0l20 90h115l788 1249h144l262 -1249h123l-19 -90h-446l18 90h205l-80 381h-631l-239 -381h204l-20 -90h-444zM487 561h568l-140 676zM659 1530q2 33 13.5 65.5t31 58.5t47 41t64.5 15q29 0 65.5 -11t77.5 -26q39 -16 74 -27t53 -11q39 0 58.5 16t29.5 53h80 q-14 -72 -50 -122t-118 -50q-31 0 -66.5 11.5t-70.5 27.5q-37 16 -73 26.5t-66 10.5q-29 0 -50.5 -24.5t-21.5 -53.5h-78z" />
<glyph unicode="&#xc4;" horiz-adv-x="1478" d="M-63 0l20 90h115l788 1249h144l262 -1249h123l-19 -90h-446l18 90h205l-80 381h-631l-239 -381h204l-20 -90h-444zM487 561h568l-140 676zM717 1520l30 139h129l-30 -139h-129zM1042 1520l29 139h131l-29 -139h-131z" />
<glyph unicode="&#xc5;" horiz-adv-x="1478" d="M-63 0l20 90h115l788 1249h144l262 -1249h123l-19 -90h-446l18 90h205l-80 381h-631l-239 -381h204l-20 -90h-444zM487 561h568l-140 676zM787 1636q0 72 51 123t123 51t123 -51t51 -123t-51.5 -123t-122.5 -51q-72 0 -123 51t-51 123zM852 1636q0 -45 32 -76.5t77 -31.5 t76.5 31.5t31.5 76.5t-31.5 77t-76.5 32t-77 -32t-32 -77z" />
<glyph unicode="&#xc6;" horiz-adv-x="1933" d="M-76 0l19 90h104l944 1249h983l-80 -366h-102l57 276h-663l-39 -528h305l41 197h102l-102 -482h-102l41 195h-291l-39 -541h522l62 281h102l-82 -371h-958l18 90h227l27 381h-563l-279 -381h189l-19 -90h-424zM528 561h498l47 688h-22z" />
<glyph unicode="&#xc7;" horiz-adv-x="1366" d="M117 518q0 166 54 318.5t153.5 268.5t241 185.5t315.5 69.5q59 0 120.5 -13.5t114.5 -41t96 -69.5t68 -101h4l43 204h103l-99 -481h-100q2 27 6 53.5t4 55.5q0 74 -31.5 130t-84 94t-118 58.5t-130.5 20.5q-143 0 -262 -65.5t-204 -171t-132.5 -237.5t-47.5 -266 q0 -98 24 -183t74 -146.5t126.5 -96t183.5 -34.5q82 0 157.5 26.5t139 75.5t110 119.5t70.5 161.5h115q-18 -106 -70.5 -190.5t-128.5 -145t-167 -94t-185 -39.5l-66 -90q27 6 60 6q51 0 90 -40t39 -100q0 -41 -19.5 -70.5t-49 -49t-66.5 -28.5t-72 -9q-53 0 -102.5 15 t-94.5 44l33 64q35 -20 74 -32.5t80 -12.5q45 0 79.5 14t34.5 61q0 35 -30.5 50.5t-65.5 15.5q-16 0 -32.5 -2t-28.5 -6l-29 39l86 131q-117 6 -207 46t-151.5 109.5t-93 165.5t-31.5 213z" />
<glyph unicode="&#xc8;" horiz-adv-x="1251" d="M-49 0l18 90h197l244 1159h-195l18 90h1065l-92 -409h-102l67 319h-647l-110 -528h352l45 209h96l-108 -514h-97l46 215h-357l-110 -541h655l74 326h102l-90 -416h-1071zM587 1745h164l154 -274h-94z" />
<glyph unicode="&#xc9;" horiz-adv-x="1251" d="M-49 0l18 90h197l244 1159h-195l18 90h1065l-92 -409h-102l67 319h-647l-110 -528h352l45 209h96l-108 -514h-97l46 215h-357l-110 -541h655l74 326h102l-90 -416h-1071zM698 1471l215 274h164l-275 -274h-104z" />
<glyph unicode="&#xca;" horiz-adv-x="1251" d="M-49 0l18 90h197l244 1159h-195l18 90h1065l-92 -409h-102l67 319h-647l-110 -528h352l45 209h96l-108 -514h-97l46 215h-357l-110 -541h655l74 326h102l-90 -416h-1071zM526 1471l254 274h123l158 -274h-111l-115 209l-182 -209h-127z" />
<glyph unicode="&#xcb;" horiz-adv-x="1251" d="M-49 0l18 90h197l244 1159h-195l18 90h1065l-92 -409h-102l67 319h-647l-110 -528h352l45 209h96l-108 -514h-97l46 215h-357l-110 -541h655l74 326h102l-90 -416h-1071zM592 1520l30 139h129l-30 -139h-129zM917 1520l29 139h131l-29 -139h-131z" />
<glyph unicode="&#xcc;" horiz-adv-x="569" d="M-61 0l18 90h195l239 1159h-194l18 90h504l-19 -90h-194l-240 -1159h195l-21 -90h-501zM247 1745h164l154 -274h-94z" />
<glyph unicode="&#xcd;" horiz-adv-x="569" d="M-61 0l18 90h195l239 1159h-194l18 90h504l-19 -90h-194l-240 -1159h195l-21 -90h-501zM358 1471l215 274h164l-275 -274h-104z" />
<glyph unicode="&#xce;" horiz-adv-x="569" d="M-61 0l18 90h195l239 1159h-194l18 90h504l-19 -90h-194l-240 -1159h195l-21 -90h-501zM186 1471l254 274h123l158 -274h-111l-115 209l-182 -209h-127z" />
<glyph unicode="&#xcf;" horiz-adv-x="569" d="M-61 0l18 90h195l239 1159h-194l18 90h504l-19 -90h-194l-240 -1159h195l-21 -90h-501zM252 1520l30 139h129l-30 -139h-129zM577 1520l29 139h131l-29 -139h-131z" />
<glyph unicode="&#xd0;" horiz-adv-x="1366" d="M-41 0l18 90h187l119 574h-185l21 90h184l103 495h-187l19 90h354q141 0 273 -16t234.5 -71.5t164 -163t61.5 -291.5q0 -209 -71.5 -359.5t-194.5 -248t-289 -143.5t-354 -46h-457zM279 90h198q154 0 287 50t232.5 142.5t156.5 221.5t57 287q0 238 -128 348t-353 110 h-209l-102 -495h330l-21 -90h-330z" />
<glyph unicode="&#xd1;" horiz-adv-x="1478" d="M-47 0l18 90h199l233 1159h-196l18 90h363l495 -1212h4l236 1122h-211l18 90h496l-18 -90h-183l-262 -1249h-149l-506 1237h-4l-232 -1147h199l-18 -90h-500zM659 1530q2 33 13.5 65.5t31 58.5t47 41t64.5 15q29 0 65.5 -11t77.5 -26q39 -16 74 -27t53 -11q39 0 58.5 16 t29.5 53h80q-14 -72 -50 -122t-118 -50q-31 0 -66.5 11.5t-70.5 27.5q-37 16 -73 26.5t-66 10.5q-29 0 -50.5 -24.5t-21.5 -53.5h-78z" />
<glyph unicode="&#xd2;" horiz-adv-x="1478" d="M117 500q0 180 52 336.5t152.5 273.5t246 183.5t333.5 66.5q119 0 219.5 -32t173 -95.5t112.5 -157.5t40 -217q0 -172 -52.5 -330.5t-151.5 -280.5t-242.5 -194.5t-327.5 -72.5q-127 0 -230.5 30.5t-175 95t-110.5 162t-39 232.5zM231 471q0 -102 34 -178t93.5 -125 t140.5 -73.5t177 -24.5q158 0 280.5 70.5t205.5 184t126 255t43 282.5q0 199 -114.5 303.5t-313.5 104.5q-166 0 -292 -67.5t-211 -180.5t-127 -256t-42 -295zM712 1745h164l154 -274h-94z" />
<glyph unicode="&#xd3;" horiz-adv-x="1478" d="M117 500q0 180 52 336.5t152.5 273.5t246 183.5t333.5 66.5q119 0 219.5 -32t173 -95.5t112.5 -157.5t40 -217q0 -172 -52.5 -330.5t-151.5 -280.5t-242.5 -194.5t-327.5 -72.5q-127 0 -230.5 30.5t-175 95t-110.5 162t-39 232.5zM231 471q0 -102 34 -178t93.5 -125 t140.5 -73.5t177 -24.5q158 0 280.5 70.5t205.5 184t126 255t43 282.5q0 199 -114.5 303.5t-313.5 104.5q-166 0 -292 -67.5t-211 -180.5t-127 -256t-42 -295zM823 1471l215 274h164l-275 -274h-104z" />
<glyph unicode="&#xd4;" horiz-adv-x="1478" d="M117 500q0 180 52 336.5t152.5 273.5t246 183.5t333.5 66.5q119 0 219.5 -32t173 -95.5t112.5 -157.5t40 -217q0 -172 -52.5 -330.5t-151.5 -280.5t-242.5 -194.5t-327.5 -72.5q-127 0 -230.5 30.5t-175 95t-110.5 162t-39 232.5zM231 471q0 -102 34 -178t93.5 -125 t140.5 -73.5t177 -24.5q158 0 280.5 70.5t205.5 184t126 255t43 282.5q0 199 -114.5 303.5t-313.5 104.5q-166 0 -292 -67.5t-211 -180.5t-127 -256t-42 -295zM651 1471l254 274h123l158 -274h-111l-115 209l-182 -209h-127z" />
<glyph unicode="&#xd5;" horiz-adv-x="1478" d="M117 500q0 180 52 336.5t152.5 273.5t246 183.5t333.5 66.5q119 0 219.5 -32t173 -95.5t112.5 -157.5t40 -217q0 -172 -52.5 -330.5t-151.5 -280.5t-242.5 -194.5t-327.5 -72.5q-127 0 -230.5 30.5t-175 95t-110.5 162t-39 232.5zM231 471q0 -102 34 -178t93.5 -125 t140.5 -73.5t177 -24.5q158 0 280.5 70.5t205.5 184t126 255t43 282.5q0 199 -114.5 303.5t-313.5 104.5q-166 0 -292 -67.5t-211 -180.5t-127 -256t-42 -295zM659 1530q2 33 13.5 65.5t31 58.5t47 41t64.5 15q29 0 65.5 -11t77.5 -26q39 -16 74 -27t53 -11q39 0 58.5 16 t29.5 53h80q-14 -72 -50 -122t-118 -50q-31 0 -66.5 11.5t-70.5 27.5q-37 16 -73 26.5t-66 10.5q-29 0 -50.5 -24.5t-21.5 -53.5h-78z" />
<glyph unicode="&#xd6;" horiz-adv-x="1478" d="M117 500q0 180 52 336.5t152.5 273.5t246 183.5t333.5 66.5q119 0 219.5 -32t173 -95.5t112.5 -157.5t40 -217q0 -172 -52.5 -330.5t-151.5 -280.5t-242.5 -194.5t-327.5 -72.5q-127 0 -230.5 30.5t-175 95t-110.5 162t-39 232.5zM231 471q0 -102 34 -178t93.5 -125 t140.5 -73.5t177 -24.5q158 0 280.5 70.5t205.5 184t126 255t43 282.5q0 199 -114.5 303.5t-313.5 104.5q-166 0 -292 -67.5t-211 -180.5t-127 -256t-42 -295zM717 1520l30 139h129l-30 -139h-129zM1042 1520l29 139h131l-29 -139h-131z" />
<glyph unicode="&#xd7;" horiz-adv-x="1228" d="M152 129l389 389l-389 389l73 74l387 -391l392 391l73 -74l-391 -389l391 -389l-73 -74l-392 391l-387 -391z" />
<glyph unicode="&#xd8;" horiz-adv-x="1478" d="M0 -10l205 188q-88 125 -88 322q0 180 52 336.5t152.5 273.5t246 183.5t333.5 66.5q129 0 236.5 -38t183.5 -116l199 183l47 -50l-203 -186q82 -117 82 -295q0 -172 -52.5 -330.5t-151.5 -280.5t-242.5 -194.5t-327.5 -72.5q-141 0 -249 36.5t-179 112.5l-199 -182z M231 471q0 -131 56 -217l956 881q-111 135 -340 135q-166 0 -292 -67.5t-211 -180.5t-127 -256t-42 -295zM324 203q59 -68 150 -100.5t202 -32.5q158 0 280.5 70.5t205.5 184t126 255t43 282.5q0 131 -51 215z" />
<glyph unicode="&#xd9;" horiz-adv-x="1366" d="M180 360q0 31 2 55.5t6.5 48t9.5 48.5t11 53l141 684h-155l18 90h467l-18 -90h-195l-145 -708q-10 -41 -18.5 -83t-8.5 -83q0 -82 24.5 -140.5t68.5 -95.5t106.5 -53t138.5 -16q113 0 193.5 41t135 108.5t87 156.5t53.5 185l145 688h-194l18 90h447l-21 -90h-147 l-152 -717q-29 -137 -76 -240.5t-120.5 -173t-178 -104t-252.5 -34.5q-84 0 -155.5 27.5t-123.5 77.5t-82 119.5t-30 155.5zM655 1745h164l154 -274h-94z" />
<glyph unicode="&#xda;" horiz-adv-x="1366" d="M180 360q0 31 2 55.5t6.5 48t9.5 48.5t11 53l141 684h-155l18 90h467l-18 -90h-195l-145 -708q-10 -41 -18.5 -83t-8.5 -83q0 -82 24.5 -140.5t68.5 -95.5t106.5 -53t138.5 -16q113 0 193.5 41t135 108.5t87 156.5t53.5 185l145 688h-194l18 90h447l-21 -90h-147 l-152 -717q-29 -137 -76 -240.5t-120.5 -173t-178 -104t-252.5 -34.5q-84 0 -155.5 27.5t-123.5 77.5t-82 119.5t-30 155.5zM766 1471l215 274h164l-275 -274h-104z" />
<glyph unicode="&#xdb;" horiz-adv-x="1366" d="M180 360q0 31 2 55.5t6.5 48t9.5 48.5t11 53l141 684h-155l18 90h467l-18 -90h-195l-145 -708q-10 -41 -18.5 -83t-8.5 -83q0 -82 24.5 -140.5t68.5 -95.5t106.5 -53t138.5 -16q113 0 193.5 41t135 108.5t87 156.5t53.5 185l145 688h-194l18 90h447l-21 -90h-147 l-152 -717q-29 -137 -76 -240.5t-120.5 -173t-178 -104t-252.5 -34.5q-84 0 -155.5 27.5t-123.5 77.5t-82 119.5t-30 155.5zM594 1471l254 274h123l158 -274h-111l-115 209l-182 -209h-127z" />
<glyph unicode="&#xdc;" horiz-adv-x="1366" d="M180 360q0 31 2 55.5t6.5 48t9.5 48.5t11 53l141 684h-155l18 90h467l-18 -90h-195l-145 -708q-10 -41 -18.5 -83t-8.5 -83q0 -82 24.5 -140.5t68.5 -95.5t106.5 -53t138.5 -16q113 0 193.5 41t135 108.5t87 156.5t53.5 185l145 688h-194l18 90h447l-21 -90h-147 l-152 -717q-29 -137 -76 -240.5t-120.5 -173t-178 -104t-252.5 -34.5q-84 0 -155.5 27.5t-123.5 77.5t-82 119.5t-30 155.5zM660 1520l30 139h129l-30 -139h-129zM985 1520l29 139h131l-29 -139h-131z" />
<glyph unicode="&#xdd;" horiz-adv-x="1251" d="M193 1249l18 90h401l-20 -90h-176l248 -575l493 575h-160l21 90h391l-20 -90h-89l-600 -692l-96 -467h227l-16 -90h-571l18 90h223l101 469l-299 690h-94zM709 1471l215 274h164l-275 -274h-104z" />
<glyph unicode="&#xde;" horiz-adv-x="1138" d="M-41 0l18 90h185l241 1159h-184l19 90h546l-14 -90h-252l-37 -176h205q82 0 163 -13t145.5 -48t104.5 -99.5t40 -164.5q0 -129 -44 -215.5t-120 -139.5t-176.5 -75.5t-212.5 -22.5h-267l-43 -205h248l-18 -90h-547zM338 385h248q88 0 168 19.5t140 62.5t95 111.5 t35 166.5q0 68 -25.5 113t-66.5 70.5t-94.5 38t-110.5 16.5h-264z" />
<glyph unicode="&#xdf;" d="M-72 0l17 78h125l170 799q25 113 53.5 201.5t78.5 151t126.5 96.5t195.5 34q61 0 118.5 -17.5t101.5 -51.5t72 -85t28 -119q0 -154 -86 -249t-240 -113v-4q117 -20 179.5 -95t62.5 -192q0 -125 -40 -209t-110.5 -134t-166 -70.5t-205.5 -20.5l18 78q186 0 287.5 100.5 t101.5 282.5q0 63 -21.5 104t-59.5 64.5t-88 33t-105 9.5l22 102q154 0 245 78t91 231q0 98 -63.5 148.5t-151.5 50.5t-144.5 -36t-92 -93t-57 -130t-36.5 -146l-174 -799h103l-15 -78h-340z" />
<glyph unicode="&#xe0;" d="M29 211q0 106 49 173t126 104.5t170 51t181 13.5h203q10 39 18 78t8 80q0 43 -18 72.5t-48 47t-67 25.5t-76 8q-117 0 -188.5 -44t-112.5 -154h-118q47 152 157.5 214t274.5 62q51 0 106.5 -12t101.5 -39t74.5 -70t28.5 -104q0 -23 -1 -39t-3 -31.5t-5 -32t-7 -36.5 l-109 -500h131l-12 -78h-246l33 152l-4 4q-78 -92 -162 -134t-207 -42q-51 0 -101 14t-89 44t-63.5 73t-24.5 100zM143 221q0 -84 58.5 -124t132.5 -40q100 0 168.5 34t116 91.5t77 133t52.5 159.5h-168q-61 0 -137 -10t-143 -38t-112 -77t-45 -129zM395 1327h164l154 -274 h-94z" />
<glyph unicode="&#xe1;" d="M29 211q0 106 49 173t126 104.5t170 51t181 13.5h203q10 39 18 78t8 80q0 43 -18 72.5t-48 47t-67 25.5t-76 8q-117 0 -188.5 -44t-112.5 -154h-118q47 152 157.5 214t274.5 62q51 0 106.5 -12t101.5 -39t74.5 -70t28.5 -104q0 -23 -1 -39t-3 -31.5t-5 -32t-7 -36.5 l-109 -500h131l-12 -78h-246l33 152l-4 4q-78 -92 -162 -134t-207 -42q-51 0 -101 14t-89 44t-63.5 73t-24.5 100zM143 221q0 -84 58.5 -124t132.5 -40q100 0 168.5 34t116 91.5t77 133t52.5 159.5h-168q-61 0 -137 -10t-143 -38t-112 -77t-45 -129zM506 1053l215 274h164 l-275 -274h-104z" />
<glyph unicode="&#xe2;" d="M29 211q0 106 49 173t126 104.5t170 51t181 13.5h203q10 39 18 78t8 80q0 43 -18 72.5t-48 47t-67 25.5t-76 8q-117 0 -188.5 -44t-112.5 -154h-118q47 152 157.5 214t274.5 62q51 0 106.5 -12t101.5 -39t74.5 -70t28.5 -104q0 -23 -1 -39t-3 -31.5t-5 -32t-7 -36.5 l-109 -500h131l-12 -78h-246l33 152l-4 4q-78 -92 -162 -134t-207 -42q-51 0 -101 14t-89 44t-63.5 73t-24.5 100zM143 221q0 -84 58.5 -124t132.5 -40q100 0 168.5 34t116 91.5t77 133t52.5 159.5h-168q-61 0 -137 -10t-143 -38t-112 -77t-45 -129zM334 1053l254 274h123 l158 -274h-111l-115 209l-182 -209h-127z" />
<glyph unicode="&#xe3;" d="M29 211q0 106 49 173t126 104.5t170 51t181 13.5h203q10 39 18 78t8 80q0 43 -18 72.5t-48 47t-67 25.5t-76 8q-117 0 -188.5 -44t-112.5 -154h-118q47 152 157.5 214t274.5 62q51 0 106.5 -12t101.5 -39t74.5 -70t28.5 -104q0 -23 -1 -39t-3 -31.5t-5 -32t-7 -36.5 l-109 -500h131l-12 -78h-246l33 152l-4 4q-78 -92 -162 -134t-207 -42q-51 0 -101 14t-89 44t-63.5 73t-24.5 100zM143 221q0 -84 58.5 -124t132.5 -40q100 0 168.5 34t116 91.5t77 133t52.5 159.5h-168q-61 0 -137 -10t-143 -38t-112 -77t-45 -129zM342 1112 q2 33 13.5 65.5t31 58.5t47 41t64.5 15q29 0 65.5 -11t77.5 -26q39 -16 74 -27t53 -11q39 0 58.5 16t29.5 53h80q-14 -72 -50 -122t-118 -50q-31 0 -66.5 11.5t-70.5 27.5q-37 16 -73 26.5t-66 10.5q-29 0 -50.5 -24.5t-21.5 -53.5h-78z" />
<glyph unicode="&#xe4;" d="M29 211q0 106 49 173t126 104.5t170 51t181 13.5h203q10 39 18 78t8 80q0 43 -18 72.5t-48 47t-67 25.5t-76 8q-117 0 -188.5 -44t-112.5 -154h-118q47 152 157.5 214t274.5 62q51 0 106.5 -12t101.5 -39t74.5 -70t28.5 -104q0 -23 -1 -39t-3 -31.5t-5 -32t-7 -36.5 l-109 -500h131l-12 -78h-246l33 152l-4 4q-78 -92 -162 -134t-207 -42q-51 0 -101 14t-89 44t-63.5 73t-24.5 100zM143 221q0 -84 58.5 -124t132.5 -40q100 0 168.5 34t116 91.5t77 133t52.5 159.5h-168q-61 0 -137 -10t-143 -38t-112 -77t-45 -129zM400 1102l30 139h129 l-30 -139h-129zM725 1102l29 139h131l-29 -139h-131z" />
<glyph unicode="&#xe5;" d="M29 211q0 106 49 173t126 104.5t170 51t181 13.5h203q10 39 18 78t8 80q0 43 -18 72.5t-48 47t-67 25.5t-76 8q-117 0 -188.5 -44t-112.5 -154h-118q47 152 157.5 214t274.5 62q51 0 106.5 -12t101.5 -39t74.5 -70t28.5 -104q0 -23 -1 -39t-3 -31.5t-5 -32t-7 -36.5 l-109 -500h131l-12 -78h-246l33 152l-4 4q-78 -92 -162 -134t-207 -42q-51 0 -101 14t-89 44t-63.5 73t-24.5 100zM143 221q0 -84 58.5 -124t132.5 -40q100 0 168.5 34t116 91.5t77 133t52.5 159.5h-168q-61 0 -137 -10t-143 -38t-112 -77t-45 -129zM443 1206q0 72 51 123 t123 51t123 -51t51 -123t-51.5 -123t-122.5 -51q-72 0 -123 51t-51 123zM508 1206q0 -45 32 -76.5t77 -31.5t76.5 31.5t31.5 76.5t-31.5 77t-76.5 32t-77 -32t-32 -77z" />
<glyph unicode="&#xe6;" horiz-adv-x="1478" d="M10 225q0 98 43 156.5t113 89.5t159 40t179 9h180q6 41 16.5 81t10.5 77q0 98 -54.5 142t-144.5 44q-100 0 -164.5 -54t-93.5 -148h-117q18 63 53 115t84.5 89t109.5 56.5t128 19.5q47 0 94 -8t86 -28.5t69 -56.5t44 -91q66 98 148.5 141t211.5 43t209 -73.5t80 -202.5 q0 -57 -8 -112.5t-19 -111.5h-655q-4 -29 -8 -56.5t-4 -55.5q0 -123 57 -198t191 -75q49 0 92 19.5t77.5 52.5t59.5 75t37 85h104q-18 -68 -52 -124t-81 -98t-108.5 -64.5t-132.5 -22.5q-147 0 -227.5 65.5t-102.5 185.5h-6q-51 -111 -151.5 -181t-229.5 -70 q-55 0 -105.5 15t-88.5 46t-60.5 77t-22.5 107zM125 227q0 -78 51 -124t123 -46q74 0 134.5 36t106.5 91.5t75.5 124t46.5 133.5h-170q-66 0 -130.5 -7t-118 -29.5t-86 -65.5t-32.5 -113zM788 520h533q18 63 18 137q0 94 -51 150.5t-149 56.5q-74 0 -132.5 -29.5 t-102.5 -77.5t-73.5 -109.5t-42.5 -127.5z" />
<glyph unicode="&#xe7;" d="M84 383q0 117 37 219.5t106.5 177t167 118.5t217.5 44q43 0 86 -9t81 -28.5t69 -50.5t47 -72h4l31 140h86l-76 -340h-86q4 16 6 34.5t2 36.5q0 104 -68.5 157.5t-172.5 53.5t-183.5 -44t-132.5 -116.5t-79.5 -166t-26.5 -191.5q0 -145 77.5 -217t215.5 -72q53 0 100 20.5 t86 54.5t66.5 78t41.5 93h105q-33 -145 -136.5 -227t-246.5 -92l-64 -90q27 6 60 6q51 0 90 -40t39 -100q0 -41 -19.5 -70.5t-49 -49t-66.5 -28.5t-72 -9q-53 0 -102.5 15t-94.5 44l33 64q35 -20 74 -32.5t80 -12.5q45 0 79.5 14t34.5 61q0 35 -30.5 50.5t-65.5 15.5 q-16 0 -32.5 -2t-28.5 -6l-29 39l86 131q-172 10 -259 116.5t-87 282.5z" />
<glyph unicode="&#xe8;" d="M66 377q0 84 30.5 183t96 184t167 141.5t240.5 56.5q180 0 274.5 -92t94.5 -258q0 -41 -3 -79t-8 -71h-768q-8 -29 -9 -54.5t-1 -51.5q0 -33 7.5 -80t35 -91t83.5 -76t153 -32q131 0 219 62.5t123 161.5h102q-25 -80 -70 -137.5t-106 -94.5t-137 -53t-158 -16 q-193 0 -279.5 102t-86.5 295zM205 520h639q6 23 8 54.5t2 60.5q0 53 -20.5 95t-54.5 71.5t-81 46t-98 16.5q-76 0 -139.5 -27.5t-113.5 -75.5t-86 -110.5t-56 -130.5zM395 1327h164l154 -274h-94z" />
<glyph unicode="&#xe9;" d="M66 377q0 84 30.5 183t96 184t167 141.5t240.5 56.5q180 0 274.5 -92t94.5 -258q0 -41 -3 -79t-8 -71h-768q-8 -29 -9 -54.5t-1 -51.5q0 -33 7.5 -80t35 -91t83.5 -76t153 -32q131 0 219 62.5t123 161.5h102q-25 -80 -70 -137.5t-106 -94.5t-137 -53t-158 -16 q-193 0 -279.5 102t-86.5 295zM205 520h639q6 23 8 54.5t2 60.5q0 53 -20.5 95t-54.5 71.5t-81 46t-98 16.5q-76 0 -139.5 -27.5t-113.5 -75.5t-86 -110.5t-56 -130.5zM506 1053l215 274h164l-275 -274h-104z" />
<glyph unicode="&#xea;" d="M66 377q0 84 30.5 183t96 184t167 141.5t240.5 56.5q180 0 274.5 -92t94.5 -258q0 -41 -3 -79t-8 -71h-768q-8 -29 -9 -54.5t-1 -51.5q0 -33 7.5 -80t35 -91t83.5 -76t153 -32q131 0 219 62.5t123 161.5h102q-25 -80 -70 -137.5t-106 -94.5t-137 -53t-158 -16 q-193 0 -279.5 102t-86.5 295zM205 520h639q6 23 8 54.5t2 60.5q0 53 -20.5 95t-54.5 71.5t-81 46t-98 16.5q-76 0 -139.5 -27.5t-113.5 -75.5t-86 -110.5t-56 -130.5zM334 1053l254 274h123l158 -274h-111l-115 209l-182 -209h-127z" />
<glyph unicode="&#xeb;" d="M66 377q0 84 30.5 183t96 184t167 141.5t240.5 56.5q180 0 274.5 -92t94.5 -258q0 -41 -3 -79t-8 -71h-768q-8 -29 -9 -54.5t-1 -51.5q0 -33 7.5 -80t35 -91t83.5 -76t153 -32q131 0 219 62.5t123 161.5h102q-25 -80 -70 -137.5t-106 -94.5t-137 -53t-158 -16 q-193 0 -279.5 102t-86.5 295zM205 520h639q6 23 8 54.5t2 60.5q0 53 -20.5 95t-54.5 71.5t-81 46t-98 16.5q-76 0 -139.5 -27.5t-113.5 -75.5t-86 -110.5t-56 -130.5zM400 1102l30 139h129l-30 -139h-129zM725 1102l29 139h131l-29 -139h-131z" />
<glyph unicode="&#xec;" horiz-adv-x="530" d="M-66 0l17 78h184l164 766h-184l16 78h303l-184 -844h156l-17 -78h-455zM147 1327h164l154 -274h-94z" />
<glyph unicode="&#xed;" horiz-adv-x="530" d="M-66 0l17 78h184l164 766h-184l16 78h303l-184 -844h156l-17 -78h-455zM258 1053l215 274h164l-275 -274h-104z" />
<glyph unicode="&#xee;" horiz-adv-x="530" d="M-66 0l17 78h184l164 766h-184l16 78h303l-184 -844h156l-17 -78h-455zM86 1053l254 274h123l158 -274h-111l-115 209l-182 -209h-127z" />
<glyph unicode="&#xef;" horiz-adv-x="530" d="M-66 0l17 78h184l164 766h-184l16 78h303l-184 -844h156l-17 -78h-455zM152 1102l30 139h129l-30 -139h-129zM477 1102l29 139h131l-29 -139h-131z" />
<glyph unicode="&#xf0;" d="M63 379q0 117 42 219t116 179t174.5 121t216.5 44q80 0 138.5 -36t111.5 -83h6q-31 100 -87 189.5t-117 154.5l-230 -108l-35 57l217 105q-41 39 -79.5 68.5t-65.5 49.5l78 50q43 -29 83 -63t77 -69l235 109l45 -53l-233 -107q227 -252 227 -608q0 -123 -39 -235.5 t-109.5 -197.5t-171 -135t-225.5 -50q-186 0 -280.5 108.5t-94.5 290.5zM178 360q0 -61 14.5 -116.5t45 -96.5t79 -65.5t115.5 -24.5q102 0 183 49.5t137.5 126t86 171t29.5 184.5q0 55 -19.5 105t-54 88t-82.5 60.5t-108 22.5q-102 0 -181 -44t-133 -115.5t-83 -162 t-29 -182.5z" />
<glyph unicode="&#xf1;" horiz-adv-x="1138" d="M-57 0l16 78h170l162 766h-160l14 78h273l-33 -144l4 -4q59 94 146.5 131t197.5 37q51 0 99.5 -14.5t83 -42t56 -69.5t21.5 -97q0 -12 -4 -38t-10 -56.5t-13.5 -65.5t-13.5 -67l-86 -414h156l-16 -78h-439l17 78h168l92 438q8 39 21.5 90t13.5 92q0 45 -16.5 76t-44 47.5 t-64.5 23.5t-78 7q-86 0 -145.5 -33t-100.5 -87t-65.5 -122.5t-38.5 -138.5l-82 -393h162l-17 -78h-446zM399 1112q2 33 13.5 65.5t31 58.5t47 41t64.5 15q29 0 65.5 -11t77.5 -26q39 -16 74 -27t53 -11q39 0 58.5 16t29.5 53h80q-14 -72 -50 -122t-118 -50 q-31 0 -66.5 11.5t-70.5 27.5q-37 16 -73 26.5t-66 10.5q-29 0 -50.5 -24.5t-21.5 -53.5h-78z" />
<glyph unicode="&#xf2;" d="M63 379q0 119 40 222.5t111 179t167 118.5t207 43q88 0 158.5 -27.5t121 -75.5t77 -115t26.5 -144q0 -117 -37 -225.5t-105.5 -191.5t-167 -133t-223.5 -50q-186 0 -280.5 108.5t-94.5 290.5zM178 360q0 -61 14.5 -116.5t45 -96.5t79 -65.5t115.5 -24.5q102 0 181 49.5 t133.5 126t82 171t27.5 184.5q0 117 -63.5 196.5t-188.5 79.5q-100 0 -179 -43t-134 -113.5t-84 -162t-29 -185.5zM395 1327h164l154 -274h-94z" />
<glyph unicode="&#xf3;" d="M63 379q0 119 40 222.5t111 179t167 118.5t207 43q88 0 158.5 -27.5t121 -75.5t77 -115t26.5 -144q0 -117 -37 -225.5t-105.5 -191.5t-167 -133t-223.5 -50q-186 0 -280.5 108.5t-94.5 290.5zM178 360q0 -61 14.5 -116.5t45 -96.5t79 -65.5t115.5 -24.5q102 0 181 49.5 t133.5 126t82 171t27.5 184.5q0 117 -63.5 196.5t-188.5 79.5q-100 0 -179 -43t-134 -113.5t-84 -162t-29 -185.5zM506 1053l215 274h164l-275 -274h-104z" />
<glyph unicode="&#xf4;" d="M63 379q0 119 40 222.5t111 179t167 118.5t207 43q88 0 158.5 -27.5t121 -75.5t77 -115t26.5 -144q0 -117 -37 -225.5t-105.5 -191.5t-167 -133t-223.5 -50q-186 0 -280.5 108.5t-94.5 290.5zM178 360q0 -61 14.5 -116.5t45 -96.5t79 -65.5t115.5 -24.5q102 0 181 49.5 t133.5 126t82 171t27.5 184.5q0 117 -63.5 196.5t-188.5 79.5q-100 0 -179 -43t-134 -113.5t-84 -162t-29 -185.5zM334 1053l254 274h123l158 -274h-111l-115 209l-182 -209h-127z" />
<glyph unicode="&#xf5;" d="M63 379q0 119 40 222.5t111 179t167 118.5t207 43q88 0 158.5 -27.5t121 -75.5t77 -115t26.5 -144q0 -117 -37 -225.5t-105.5 -191.5t-167 -133t-223.5 -50q-186 0 -280.5 108.5t-94.5 290.5zM178 360q0 -61 14.5 -116.5t45 -96.5t79 -65.5t115.5 -24.5q102 0 181 49.5 t133.5 126t82 171t27.5 184.5q0 117 -63.5 196.5t-188.5 79.5q-100 0 -179 -43t-134 -113.5t-84 -162t-29 -185.5zM342 1112q2 33 13.5 65.5t31 58.5t47 41t64.5 15q29 0 65.5 -11t77.5 -26q39 -16 74 -27t53 -11q39 0 58.5 16t29.5 53h80q-14 -72 -50 -122t-118 -50 q-31 0 -66.5 11.5t-70.5 27.5q-37 16 -73 26.5t-66 10.5q-29 0 -50.5 -24.5t-21.5 -53.5h-78z" />
<glyph unicode="&#xf6;" d="M63 379q0 119 40 222.5t111 179t167 118.5t207 43q88 0 158.5 -27.5t121 -75.5t77 -115t26.5 -144q0 -117 -37 -225.5t-105.5 -191.5t-167 -133t-223.5 -50q-186 0 -280.5 108.5t-94.5 290.5zM178 360q0 -61 14.5 -116.5t45 -96.5t79 -65.5t115.5 -24.5q102 0 181 49.5 t133.5 126t82 171t27.5 184.5q0 117 -63.5 196.5t-188.5 79.5q-100 0 -179 -43t-134 -113.5t-84 -162t-29 -185.5zM400 1102l30 139h129l-30 -139h-129zM725 1102l29 139h131l-29 -139h-131z" />
<glyph unicode="&#xf7;" horiz-adv-x="1228" d="M98 467v102h1032v-102h-1032zM500 94q0 47 33.5 81t80.5 34t81 -34t34 -81q0 -43 -33.5 -78.5t-79.5 -35.5q-47 0 -81.5 33.5t-34.5 80.5zM500 942q0 47 33.5 81t80.5 34t81 -34t34 -81q0 -43 -33.5 -79t-79.5 -36q-47 0 -81.5 34t-34.5 81z" />
<glyph unicode="&#xf8;" d="M-25 -4l150 141q-61 94 -62 242q0 119 40 221t111 178t167 120t207 44q98 0 165.5 -27.5t116.5 -76.5l152 143l37 -43l-154 -143q66 -90 66 -215q0 -117 -37 -225.5t-105.5 -191.5t-167 -133t-223.5 -50q-186 0 -284 114l-148 -139zM178 360q0 -82 25 -149l598 561 q-33 43 -82 67.5t-115 24.5q-100 0 -179 -43t-134 -113.5t-84 -161.5t-29 -186zM227 164q31 -49 81 -78t124 -29q102 0 181 49.5t133.5 126t82 171t27.5 184.5q0 80 -27 135z" />
<glyph unicode="&#xf9;" horiz-adv-x="1138" d="M104 844l17 78h280l-100 -471q-12 -53 -27.5 -119t-15.5 -121q0 -76 60.5 -108.5t142.5 -32.5q92 0 151.5 32.5t98.5 87t60.5 122t37.5 139.5l86 393h-174l16 78h285l-182 -844h166l-15 -78h-272l33 143l-4 4q-59 -94 -146.5 -130.5t-198.5 -36.5q-53 0 -100 13t-82 39.5 t-56.5 65.5t-21.5 88q0 53 13.5 123t29.5 142l84 393h-166zM452 1327h164l154 -274h-94z" />
<glyph unicode="&#xfa;" horiz-adv-x="1138" d="M104 844l17 78h280l-100 -471q-12 -53 -27.5 -119t-15.5 -121q0 -76 60.5 -108.5t142.5 -32.5q92 0 151.5 32.5t98.5 87t60.5 122t37.5 139.5l86 393h-174l16 78h285l-182 -844h166l-15 -78h-272l33 143l-4 4q-59 -94 -146.5 -130.5t-198.5 -36.5q-53 0 -100 13t-82 39.5 t-56.5 65.5t-21.5 88q0 53 13.5 123t29.5 142l84 393h-166zM563 1053l215 274h164l-275 -274h-104z" />
<glyph unicode="&#xfb;" horiz-adv-x="1138" d="M104 844l17 78h280l-100 -471q-12 -53 -27.5 -119t-15.5 -121q0 -76 60.5 -108.5t142.5 -32.5q92 0 151.5 32.5t98.5 87t60.5 122t37.5 139.5l86 393h-174l16 78h285l-182 -844h166l-15 -78h-272l33 143l-4 4q-59 -94 -146.5 -130.5t-198.5 -36.5q-53 0 -100 13t-82 39.5 t-56.5 65.5t-21.5 88q0 53 13.5 123t29.5 142l84 393h-166zM391 1053l254 274h123l158 -274h-111l-115 209l-182 -209h-127z" />
<glyph unicode="&#xfc;" horiz-adv-x="1138" d="M104 844l17 78h280l-100 -471q-12 -53 -27.5 -119t-15.5 -121q0 -76 60.5 -108.5t142.5 -32.5q92 0 151.5 32.5t98.5 87t60.5 122t37.5 139.5l86 393h-174l16 78h285l-182 -844h166l-15 -78h-272l33 143l-4 4q-59 -94 -146.5 -130.5t-198.5 -36.5q-53 0 -100 13t-82 39.5 t-56.5 65.5t-21.5 88q0 53 13.5 123t29.5 142l84 393h-166zM457 1102l30 139h129l-30 -139h-129zM782 1102l29 139h131l-29 -139h-131z" />
<glyph unicode="&#xfd;" d="M-41 -348l18 82q23 -4 46.5 -9.5t46.5 -5.5q82 0 128 37t87 103l84 137l-174 848h-86l16 78h352l-14 -78h-158l137 -729l449 729h-160l19 78h350l-15 -78h-77l-578 -922q-39 -63 -76 -114.5t-76.5 -88t-86 -57t-107.5 -20.5q-33 0 -63.5 1t-61.5 9zM506 1053l215 274h164 l-275 -274h-104z" />
<glyph unicode="&#xfe;" horiz-adv-x="1138" d="M-129 -338l20 78h172l310 1522h-174l18 77h277l-115 -561h4q59 72 142 118t182 46q186 0 274 -97t88 -282q0 -102 -36 -205.5t-100.5 -187.5t-155.5 -137t-202 -53q-115 0 -191.5 41.5t-125.5 148.5h-4l-88 -430h176l-20 -78h-451zM293 311q0 -113 69.5 -183.5 t182.5 -70.5q100 0 177 50.5t129 128t77.5 172t25.5 182.5q0 119 -60 196.5t-187 77.5q-109 0 -187 -51t-129 -131t-74.5 -178.5t-23.5 -192.5z" />
<glyph unicode="&#xff;" d="M-41 -348l18 82q23 -4 46.5 -9.5t46.5 -5.5q82 0 128 37t87 103l84 137l-174 848h-86l16 78h352l-14 -78h-158l137 -729l449 729h-160l19 78h350l-15 -78h-77l-578 -922q-39 -63 -76 -114.5t-76.5 -88t-86 -57t-107.5 -20.5q-33 0 -63.5 1t-61.5 9zM400 1102l30 139h129 l-30 -139h-129zM725 1102l29 139h131l-29 -139h-131z" />
<glyph unicode="&#x152;" horiz-adv-x="1933" d="M117 510q0 170 50 324.5t145.5 271.5t232.5 185.5t313 68.5q59 0 115.5 -5t111.5 -9q111 -6 232 -7h661l-75 -366h-103l58 276h-596l-111 -528h295l41 197h102l-100 -472h-103l39 185h-292l-115 -541h602l61 283h103l-82 -373h-623q-84 0 -155.5 -5t-125 -9t-88 -5 t-63.5 -1q-248 0 -389 134t-141 396zM231 487q0 -113 34 -192.5t95.5 -129.5t147.5 -72.5t190 -22.5q53 0 103.5 7t101.5 13l244 1159q-51 2 -110.5 11.5t-125.5 9.5q-164 0 -289.5 -57.5t-212.5 -161t-132.5 -246.5t-45.5 -318z" />
<glyph unicode="&#x153;" horiz-adv-x="1593" d="M57 356q0 119 35 225.5t100.5 186.5t162 127t218.5 47q119 0 205 -62.5t103 -179.5h6q47 113 140 177.5t247 64.5q129 0 209 -73.5t80 -202.5q0 -57 -8.5 -112.5t-18.5 -111.5h-655q-4 -29 -8.5 -56.5t-4.5 -55.5q0 -123 57.5 -198t190.5 -75q49 0 92 19.5t78 52.5 t59.5 75t36.5 85h105q-18 -68 -52 -124t-81 -98t-108.5 -64.5t-133.5 -22.5q-141 0 -218 62t-101 185h-5q-53 -113 -151 -180t-242 -67q-84 0 -146.5 33.5t-105.5 87t-64.5 121t-21.5 134.5zM172 334q0 -53 15.5 -103.5t46 -89.5t74.5 -61.5t102 -22.5q100 0 171.5 56.5 t117.5 141.5t69 184.5t23 183.5q0 45 -12.5 89t-39 77.5t-70.5 54t-106 20.5q-102 0 -176 -50t-121 -128t-70.5 -172t-23.5 -180zM897 520h533q18 63 18 137q0 94 -51 150.5t-150 56.5q-74 0 -132 -29.5t-102 -77.5t-74 -109.5t-42 -127.5z" />
<glyph unicode="&#x178;" horiz-adv-x="1251" d="M193 1249l18 90h401l-20 -90h-176l248 -575l493 575h-160l21 90h391l-20 -90h-89l-600 -692l-96 -467h227l-16 -90h-571l18 90h223l101 469l-299 690h-94zM603 1520l30 139h129l-30 -139h-129zM928 1520l29 139h131l-29 -139h-131z" />
<glyph unicode="&#x2c6;" horiz-adv-x="530" d="M86 1053l254 274h123l158 -274h-111l-115 209l-182 -209h-127z" />
<glyph unicode="&#x2dc;" horiz-adv-x="530" d="M94 1112q2 33 13.5 65.5t31 58.5t47 41t64.5 15q29 0 65.5 -11t77.5 -26q39 -16 74 -27t53 -11q39 0 58.5 16t29.5 53h80q-14 -72 -50 -122t-118 -50q-31 0 -66.5 11.5t-70.5 27.5q-37 16 -73 26.5t-66 10.5q-29 0 -50.5 -24.5t-21.5 -53.5h-78z" />
<glyph unicode="&#x2000;" horiz-adv-x="905" />
<glyph unicode="&#x2001;" horiz-adv-x="1810" />
<glyph unicode="&#x2002;" horiz-adv-x="905" />
<glyph unicode="&#x2003;" horiz-adv-x="1810" />
<glyph unicode="&#x2004;" horiz-adv-x="603" />
<glyph unicode="&#x2005;" horiz-adv-x="452" />
<glyph unicode="&#x2006;" horiz-adv-x="301" />
<glyph unicode="&#x2007;" horiz-adv-x="301" />
<glyph unicode="&#x2008;" horiz-adv-x="226" />
<glyph unicode="&#x2009;" horiz-adv-x="362" />
<glyph unicode="&#x200a;" horiz-adv-x="100" />
<glyph unicode="&#x2010;" horiz-adv-x="681" d="M115 500l22 102h492l-25 -102h-489z" />
<glyph unicode="&#x2011;" horiz-adv-x="681" d="M115 500l22 102h492l-25 -102h-489z" />
<glyph unicode="&#x2012;" horiz-adv-x="681" d="M115 500l22 102h492l-25 -102h-489z" />
<glyph unicode="&#x2013;" d="M-8 512l16 78h1024l-16 -78h-1024z" />
<glyph unicode="&#x2014;" horiz-adv-x="2048" d="M-8 512l16 78h2048l-16 -78h-2048z" />
<glyph unicode="&#x2018;" horiz-adv-x="454" d="M242 944l32 139l146 256h84l-150 -256h64l-31 -139h-145z" />
<glyph unicode="&#x2019;" horiz-adv-x="454" d="M242 944l149 256h-63l30 139h146l-33 -139l-145 -256h-84z" />
<glyph unicode="&#x201a;" horiz-adv-x="454" d="M-14 -256l149 256h-63l30 139h146l-33 -139l-145 -256h-84z" />
<glyph unicode="&#x201c;" horiz-adv-x="796" d="M242 944l32 139l146 256h84l-150 -256h64l-31 -139h-145zM555 944l33 139l145 256h84l-149 -256h63l-31 -139h-145z" />
<glyph unicode="&#x201d;" horiz-adv-x="796" d="M242 944l149 256h-63l30 139h146l-33 -139l-145 -256h-84zM555 944l150 256h-64l31 139h145l-33 -139l-145 -256h-84z" />
<glyph unicode="&#x201e;" horiz-adv-x="796" d="M6 -256l150 256h-64l31 139h145l-32 -139l-146 -256h-84zM319 -256l150 256h-63l30 139h146l-33 -139l-146 -256h-84z" />
<glyph unicode="&#x2022;" d="M176 670q0 70 26.5 130t71.5 106t105.5 73t130.5 27t130 -27t106.5 -73t73 -106.5t26.5 -129.5q0 -70 -26.5 -130.5t-73 -105.5t-106.5 -71.5t-130 -26.5t-130.5 26.5t-105.5 71.5t-71.5 105.5t-26.5 130.5z" />
<glyph unicode="&#x2026;" horiz-adv-x="2048" d="M176 0l31 139h143l-31 -139h-143zM858 0l31 139h143l-31 -139h-143zM1540 0l31 139h143l-31 -139h-143z" />
<glyph unicode="&#x202f;" horiz-adv-x="362" />
<glyph unicode="&#x2039;" horiz-adv-x="454" d="M96 471l260 406h99l-246 -406l72 -405h-97z" />
<glyph unicode="&#x203a;" horiz-adv-x="454" d="M4 66l246 405l-72 406h96l88 -406l-260 -405h-98z" />
<glyph unicode="&#x205f;" horiz-adv-x="452" />
<glyph unicode="&#x20ac;" d="M45 522l37 78h108q6 41 14.5 82t18.5 82h-131l37 78h117q29 96 71.5 189t103 166t142.5 118t187 45q92 0 152.5 -56.5t76.5 -132.5h4l33 168h102l-80 -397h-102q4 25 8 47.5t4 44.5q0 102 -52 169t-157 67q-84 0 -146.5 -41t-108.5 -104.5t-75.5 -138.5t-50.5 -144h510 l-39 -78h-491q-10 -41 -18.5 -82t-14.5 -82h445l-39 -78h-416q-4 -29 -6 -57.5t-2 -56.5q0 -61 10 -122t37.5 -109t74 -77.5t119.5 -29.5q43 0 85 14t81 42t69 66.5t48 88.5h102q-25 -80 -69.5 -137.5t-102 -94.5t-121 -53t-122.5 -16q-94 0 -156.5 33.5t-100.5 92 t-53.5 133t-15.5 158.5q0 31 2 63t6 62h-135z" />
<glyph unicode="&#x2122;" horiz-adv-x="2027" d="M168 1249v90h655v-90h-276v-753h-103v753h-276zM975 496v843h174l272 -680l265 680h174v-843h-103v753h-4l-305 -753h-62l-305 753h-4v-753h-102z" />
<glyph unicode="&#x25fc;" horiz-adv-x="921" d="M0 0v922h922v-922h-922z" />
<glyph unicode="&#xfb01;" d="M-53 0l18 78h162l162 766h-178l16 78h178l23 108q37 160 130 245t283 85q78 0 129.5 -21.5t82 -54.5t43 -68.5t12.5 -64.5q0 -25 -1 -37t-6 -29h-112q2 8 3 20.5t1 41.5q0 18 -9.5 39.5t-29.5 40t-52 31t-75 12.5q-236 0 -287 -248l-20 -100h543l-179 -844h136l-15 -78 h-413l16 78h162l161 766h-428l-161 -766h202l-18 -78h-479z" />
<glyph unicode="&#xfb02;" d="M-53 0l18 78h162l162 766h-178l16 78h178l23 108q18 80 49 141.5t80 103.5t119.5 63.5t168.5 21.5q150 0 302 -41l-263 -1241h136l-15 -78h-413l16 78h162l248 1175q-37 6 -78 11.5t-95 5.5q-76 0 -128 -14.5t-86.5 -45t-56 -78t-34.5 -110.5l-20 -100h213l-17 -78h-213 l-161 -766h202l-18 -78h-479z" />
</font>
</defs>
</svg>
