<?xml version="1.0" standalone="no"?>
<!DOCTYPE svg PUBLIC "-//W3C//DTD SVG 1.1//EN" "http://www.w3.org/Graphics/SVG/1.1/DTD/svg11.dtd" >
<svg xmlns="http://www.w3.org/2000/svg">
<metadata></metadata>
<defs>
<font id="serifabold" horiz-adv-x="1138" >
<font-face units-per-em="2048" ascent="1638" descent="-410" />
<missing-glyph horiz-adv-x="569" />
<glyph unicode="&#xfb01;" horiz-adv-x="1253" d="M47 0v184h133v590h-133v184h133v84q0 98 38 166t104.5 110t155.5 60.5t194 18.5q78 0 148.5 -16.5t124.5 -53.5t88 -95t40 -140h-297q-10 66 -43 93t-106 27q-88 0 -131 -51t-43 -117v-86h620v-774h133v-184h-518v184h113v590h-348v-590h112v-184h-518z" />
<glyph unicode="&#xfb02;" horiz-adv-x="1253" d="M47 0v184h133v590h-133v184h133v84q0 98 38 166t104.5 110t155.5 60.5t194 18.5q86 0 193.5 -7.5t207.5 -17.5v-1188h133v-184h-518v184h113v1022q-51 4 -87 5t-87 1q-88 0 -131 -51t-43 -117v-86h174v-184h-174v-590h112v-184h-518z" />
<glyph horiz-adv-x="2048" />
<glyph horiz-adv-x="2048" />
<glyph unicode="&#xd;" horiz-adv-x="569" />
<glyph unicode=" "  horiz-adv-x="569" />
<glyph unicode="&#x09;" horiz-adv-x="569" />
<glyph unicode="&#xa0;" horiz-adv-x="569" />
<glyph unicode="!" horiz-adv-x="798" d="M246 1339h307l-61 -954h-185zM250 0v272h299v-272h-299z" />
<glyph unicode="&#x22;" d="M297 774v565h205v-565h-205zM637 774v565h205v-565h-205z" />
<glyph unicode="#" d="M100 385l23 164h164l35 242h-164l22 163h164l53 385h164l-53 -385h203l53 385h164l-54 -385h164l-24 -163h-160l-37 -242h164l-23 -164h-163l-54 -385h-163l53 385h-203l-53 -385h-164l53 385h-164zM451 549h202l35 242h-203z" />
<glyph unicode="$" d="M51 0v451h246q0 -160 66.5 -227.5t220.5 -67.5q37 0 75.5 11t71.5 32.5t53.5 54.5t20.5 74q0 102 -55.5 151t-138.5 76t-180 45t-180 56t-138.5 112t-55.5 211q0 94 32 166t87 120t130 73.5t163 29.5v160h195v-185q43 -14 79.5 -40.5t69.5 -71.5h4v108h236v-417h-246 q-8 135 -66.5 198.5t-197.5 63.5q-86 0 -149.5 -40t-63.5 -134q0 -78 56 -117t140 -63.5t182.5 -47t182.5 -66.5t140 -124t56 -217q0 -92 -32.5 -166t-90 -126t-135 -81t-165.5 -31v-155h-195v176q-53 12 -98 40.5t-80 78.5h-4v-111h-236z" />
<glyph unicode="%" horiz-adv-x="1820" d="M150 1016q0 160 82.5 256t248.5 96t249 -96t83 -256q0 -78 -21.5 -142.5t-63.5 -110.5t-104.5 -72.5t-142.5 -26.5q-164 0 -247.5 98t-83.5 254zM317 -41l1016 1421h172l-1013 -1421h-175zM344 1016q0 -35 5 -72t19.5 -67.5t41 -50t71.5 -19.5q43 0 70 19.5t42 50 t20 67.5t5 72q0 37 -4 73.5t-18 66.5t-42 49.5t-73 19.5t-71.5 -19.5t-41 -50.5t-19.5 -67.5t-5 -71.5zM1008 324q0 160 83 256t248 96q166 0 249 -96.5t83 -255.5q0 -78 -21.5 -142.5t-63.5 -110.5t-104.5 -73t-142.5 -27q-164 0 -247.5 98.5t-83.5 254.5zM1202 324 q0 -35 5 -72t19.5 -67.5t41 -50t71.5 -19.5q43 0 70 19.5t42 50t20.5 67.5t5.5 72q0 37 -4.5 73.5t-18.5 66.5t-42 49t-73 19t-71.5 -19t-41 -50t-19.5 -67.5t-5 -71.5z" />
<glyph unicode="&#x26;" horiz-adv-x="1593" d="M82 375q0 154 68.5 246t203.5 151q-57 59 -93 122.5t-38 149.5q0 88 36 149.5t93.5 100.5t131 56.5t151.5 17.5t146.5 -18.5t118.5 -58.5t80 -101.5t30 -147.5q0 -61 -21.5 -110t-57.5 -90t-82 -74t-97 -59l278 -281q33 41 56.5 88t27.5 100h-115v195h496v-195h-149 q-10 -98 -51.5 -187t-108.5 -161l69 -73h240v-195h-389l-102 100q-51 -43 -105.5 -68.5t-111 -38.5t-114 -17.5t-114.5 -4.5q-96 0 -182 23.5t-151.5 73t-104.5 125t-39 182.5zM365 373q0 -51 19 -92t53 -69t78 -42t93 -14q72 0 132.5 26.5t117.5 71.5l-334 342 q-68 -41 -113.5 -87t-45.5 -136zM479 1051q0 -53 35 -94.5t70 -84.5q25 12 54.5 32t55 43.5t43 49t17.5 54.5q0 66 -41.5 99.5t-104.5 33.5q-57 0 -93 -35t-36 -98z" />
<glyph unicode="'" horiz-adv-x="569" d="M182 774v565h205v-565h-205z" />
<glyph unicode="(" horiz-adv-x="681" d="M137 592q0 236 80 461t205 426h205q-66 -109 -114 -214.5t-79 -213t-46 -221t-15 -238.5q0 -215 62.5 -437.5t191.5 -400.5h-205q-123 186 -204 399.5t-81 438.5z" />
<glyph unicode=")" horiz-adv-x="681" d="M55 -246q66 109 114 214.5t79 213t46 221t15 238.5q0 215 -62.5 437t-191.5 401h205q123 -186 204 -399.5t81 -438.5q0 -236 -80 -461t-205 -426h-205z" />
<glyph unicode="*" d="M215 1014l57 184l224 -94l-21 235h197l-25 -235l215 94l62 -184l-236 -56l160 -172l-156 -114l-125 198l-125 -198l-153 114l160 172z" />
<glyph unicode="+" horiz-adv-x="1228" d="M96 416v205h416v415h205v-415h416v-205h-416v-416h-205v416h-416z" />
<glyph unicode="," horiz-adv-x="569" d="M135 0v299h299v-299l-102 -266h-185l103 266h-115z" />
<glyph unicode="-" horiz-adv-x="681" d="M100 449v204h482v-204h-482z" />
<glyph unicode="." horiz-adv-x="569" d="M135 0v299h299v-299h-299z" />
<glyph unicode="/" horiz-adv-x="796" d="M37 -29l518 1397h205l-518 -1397h-205z" />
<glyph unicode="0" d="M76 670q0 125 21.5 249.5t76.5 224t151.5 162t243.5 62.5t243.5 -62.5t152 -162t77 -224t21.5 -249.5t-21.5 -250t-77 -224.5t-151.5 -162t-244 -62.5q-147 0 -243.5 62.5t-151.5 162t-76.5 224.5t-21.5 250zM358 670q0 -102 7.5 -193.5t30 -161t63.5 -109.5t110 -40 q70 0 111 40t63.5 109.5t29.5 160.5t7 194q0 102 -7 193t-29.5 161t-63.5 110t-111 40t-110.5 -40t-63 -110t-30 -161t-7.5 -193z" />
<glyph unicode="1" d="M213 879v256q78 49 147.5 99t137.5 105h282v-1144h205v-195h-682v195h205v903q-68 -61 -142.5 -114.5t-152.5 -104.5z" />
<glyph unicode="2" d="M72 0v260q66 59 170 145.5t211 186.5q57 51 109 103.5t91 104.5t61.5 103t20.5 103q0 76 -49 122t-125 46q-55 0 -91 -20.5t-57.5 -54.5t-30.5 -77t-11 -90h-283q2 133 42 218t106.5 133t156.5 66.5t195 18.5q92 0 171 -24.5t136 -73.5t90 -124t33 -173q2 -70 -34 -143.5 t-93 -146.5t-130 -142.5t-145.5 -133t-136 -117.5t-104.5 -95h418v174h245v-369h-966z" />
<glyph unicode="3" d="M76 383h282q-2 -98 44.5 -157.5t148.5 -59.5q96 0 153.5 54t57.5 151q0 76 -23.5 118.5t-63.5 64t-94.5 27t-113.5 5.5v205q55 -4 105.5 2t90 28.5t63.5 62.5t24 105q0 96 -51.5 140.5t-141.5 44.5q-96 0 -138 -62.5t-44 -150.5h-283q-2 106 37 183t106.5 127t155.5 73.5 t182 23.5q92 0 176.5 -20.5t146.5 -64.5t99 -115.5t37 -174.5q0 -131 -73.5 -209.5t-204.5 -91.5v-4q127 -10 208.5 -94t81.5 -219q0 -102 -36.5 -178t-103 -126.5t-158 -75t-199.5 -24.5q-96 0 -181 19.5t-149.5 67.5t-102.5 127t-38 198z" />
<glyph unicode="4" d="M43 330v252l555 757h328v-815h164v-194h-164v-135h153v-195h-610v195h184v135h-610zM252 524h401v545h-4z" />
<glyph unicode="5" d="M119 348h282q6 -90 49.5 -136t135.5 -46q55 0 93 22.5t60.5 59.5t32.5 85t10 101q0 51 -10 100.5t-32.5 88.5t-61.5 62.5t-96 23.5q-78 0 -129.5 -52.5t-51.5 -130.5h-272v813h870v-194h-598v-365h5q49 66 118.5 94.5t153.5 28.5q98 0 172 -38t121 -102.5t70.5 -147.5 t23.5 -175q0 -84 -23.5 -168t-80 -150.5t-152.5 -108.5t-244 -42q-88 0 -170 22.5t-143.5 69t-98 118t-34.5 167.5z" />
<glyph unicode="6" d="M80 627q0 141 22.5 274t82 237.5t163 167t266.5 62.5q184 0 299 -84t129 -270h-282q-2 82 -41 126t-117 44t-124 -47t-70.5 -115t-32.5 -144.5t-13 -134.5h5q59 80 128.5 111t176.5 31q94 0 165.5 -39t121 -103.5t75 -146.5t25.5 -170q0 -121 -36 -207t-100.5 -141 t-155.5 -81t-204 -26q-152 0 -246 51.5t-147 140.5t-71.5 207.5t-18.5 256.5zM362 434q0 -51 10.5 -101t35 -89t66.5 -63.5t108 -24.5q57 0 96 26.5t63.5 68.5t34.5 92t10 99q0 51 -11 98.5t-35.5 82t-64.5 56t-97 21.5q-59 0 -99.5 -23.5t-67 -62.5t-38 -86t-11.5 -94z" />
<glyph unicode="7" d="M94 909v430h961v-225q-74 -139 -139.5 -275.5t-124 -272.5t-112.5 -277.5t-106 -288.5h-299q117 293 246 579.5t283 565.5h-463v-236h-246z" />
<glyph unicode="8" d="M90 375q0 61 22.5 116.5t60.5 97.5t90 68.5t112 32.5v4q-121 23 -189.5 91.5t-68.5 195.5q0 100 35.5 174t97 121t144.5 69.5t177 22.5t177 -22.5t144.5 -69.5t97.5 -121t36 -174q0 -129 -71.5 -197.5t-192.5 -91.5v-2q129 -23 208 -100.5t79 -214.5q0 -113 -35 -189.5 t-98.5 -125t-151.5 -69t-193 -20.5q-106 0 -195 18.5t-152.5 64.5t-98.5 124t-35 197zM362 379q0 -104 52.5 -163.5t156.5 -59.5q100 0 152.5 62.5t52.5 160.5t-51 158.5t-154 60.5q-104 0 -156.5 -59.5t-52.5 -159.5zM373 981q0 -199 198 -199q199 0 199 199 q0 203 -199 203q-198 0 -198 -203z" />
<glyph unicode="9" d="M80 913q0 119 36 205t100.5 141.5t155.5 82t203 26.5q152 0 246 -51t147.5 -140.5t72 -208t18.5 -255.5q0 -141 -22.5 -274.5t-82 -238t-164 -167t-266.5 -62.5q-184 0 -298.5 83t-129.5 272h283q2 -82 41 -126t117 -44t124 47t70.5 114.5t32.5 143.5t12 135h-4 q-59 -80 -129 -110.5t-176 -30.5q-94 0 -166 38.5t-121 103.5t-74.5 146.5t-25.5 169.5zM352 897q0 -51 11.5 -98t36 -82t64.5 -56.5t97 -21.5t98 23.5t68 62.5t38 86t11 94q0 51 -10 101.5t-34.5 89.5t-66.5 63.5t-108 24.5q-57 0 -96 -27t-63.5 -68.5t-35 -92t-10.5 -99.5 z" />
<glyph unicode=":" horiz-adv-x="569" d="M135 0v299h299v-299h-299zM135 659v299h299v-299h-299z" />
<glyph unicode=";" horiz-adv-x="569" d="M135 0v299h299v-299l-102 -266h-185l103 266h-115zM135 659v299h299v-299h-299z" />
<glyph unicode="&#x3c;" horiz-adv-x="1228" d="M113 432v172l1003 432v-205l-721 -313l721 -313v-205z" />
<glyph unicode="=" horiz-adv-x="1228" d="M96 193v204h1037v-204h-1037zM96 639v205h1037v-205h-1037z" />
<glyph unicode="&#x3e;" horiz-adv-x="1228" d="M113 0v205l721 313l-721 313v205l1003 -432v-172z" />
<glyph unicode="?" horiz-adv-x="1024" d="M72 958q0 221 117.5 315.5t336.5 94.5q82 0 160 -21.5t136.5 -64.5t94 -108.5t35.5 -151.5q0 -55 -14 -99t-37.5 -81t-53.5 -68t-61 -59q-31 -29 -61.5 -58.5t-53 -63.5t-36.5 -74t-14 -89v-45h-256v72q0 45 3 81.5t17 73.5t41 75t74 87q43 43 74.5 76t53 62.5t32 60.5 t10.5 71q0 66 -40 103t-110 37q-53 0 -83.5 -16.5t-48 -46t-25 -70.5t-9.5 -93h-282zM342 0v272h299v-272h-299z" />
<glyph unicode="@" horiz-adv-x="1638" d="M141 670q0 150 56.5 276.5t152.5 221t225.5 147.5t274.5 53q125 0 241.5 -40t207 -114.5t144.5 -179t54 -233.5q0 -150 -55.5 -253.5t-131 -167t-155.5 -91t-127 -27.5q-41 0 -71.5 24.5t-30.5 73.5h-4q-37 -41 -89.5 -69.5t-105.5 -28.5q-59 0 -113.5 25.5t-95.5 68.5 t-64.5 100.5t-23.5 123.5q0 86 28.5 168.5t80 147.5t124 104.5t162.5 39.5q143 0 222 -125l24 99h160l-105 -473l-9 -36t-5 -37t6 -29.5t23 -12.5q39 0 76.5 22.5t68.5 64.5t49.5 103.5t18.5 139.5q0 115 -39 201.5t-106.5 146t-161 90.5t-201.5 31q-121 0 -219.5 -42 t-168 -117t-106.5 -177.5t-37 -222.5q0 -125 41 -226.5t115 -174t176.5 -111.5t224.5 -39q115 0 214.5 40t170.5 111h164q-98 -141 -241.5 -218t-317.5 -77q-150 0 -280.5 52.5t-229 145.5t-155 221t-56.5 280zM614 608q0 -78 41 -125t119 -47q49 0 88 22.5t67.5 60.5t44 85 t15.5 96q0 76 -39.5 121t-105.5 45q-53 0 -95 -22.5t-72 -59t-46.5 -83t-16.5 -93.5z" />
<glyph unicode="A" horiz-adv-x="1593" d="M39 0v195h113l473 1144h348l469 -1144h112v-195h-575v195h168l-88 215h-555l-84 -215h168v-195h-549zM580 604h405l-201 514z" />
<glyph unicode="B" horiz-adv-x="1366" d="M57 0v195h168v950h-168v194h643q92 0 186.5 -6t171.5 -36.5t125 -97t48 -187.5q0 -270 -275 -305v-5q63 -2 121 -25.5t101 -65.5t68.5 -97t25.5 -123q0 -152 -61.5 -231.5t-151.5 -115.5t-190.5 -40t-180.5 -4h-631zM508 195h188q66 0 120 7t92 29.5t59.5 63.5t21.5 108 q0 72 -25.5 111t-66.5 57.5t-93 21.5t-106 3h-190v-401zM508 780h162q51 0 100 7.5t89 28t64.5 58t24.5 99.5q0 61 -24.5 95t-63.5 51.5t-87 21.5t-95 4h-170v-365z" />
<glyph unicode="C" horiz-adv-x="1478" d="M90 659q0 154 40 284t120 224.5t199.5 147.5t279.5 53q121 0 218 -39t165 -141l4 -4v155h256v-495h-256q-2 154 -95 242t-243 88q-113 0 -187.5 -46.5t-119.5 -122t-63.5 -172t-18.5 -196.5q0 -96 23.5 -182t74 -150.5t128 -101.5t184.5 -37q61 0 116.5 21.5t96.5 60.5 t65.5 94t26.5 121h272q-2 -141 -57 -235.5t-140 -151t-188.5 -81t-202.5 -24.5q-176 0 -307 53.5t-218 145.5t-130 218t-43 271z" />
<glyph unicode="D" horiz-adv-x="1593" d="M57 0v195h168v950h-168v194h731q33 0 96.5 -4t140.5 -24.5t156 -62.5t144.5 -115.5t106.5 -186t41 -274.5q0 -168 -51.5 -294t-144.5 -210t-226 -126t-295 -42h-699zM508 195h227q219 0 329 128t110 347q0 217 -108 346t-331 129h-227v-950z" />
<glyph unicode="E" horiz-adv-x="1366" d="M57 0v195h168v950h-168v194h1217v-401h-236v207h-530v-365h203v183h215v-547h-215v180h-203v-401h530v243h236v-438h-1217z" />
<glyph unicode="F" horiz-adv-x="1366" d="M57 0v195h168v950h-168v194h1217v-448h-236v254h-530v-391h188v178h215v-547h-215v184h-188v-374h199v-195h-650z" />
<glyph unicode="G" horiz-adv-x="1593" d="M90 659q0 154 40 284t120 224.5t199.5 147.5t279.5 53q129 0 235.5 -37t172.5 -123h4v131h256v-471h-256q-4 78 -33 135.5t-77 95.5t-112.5 56.5t-140.5 18.5q-113 0 -187.5 -46.5t-119.5 -122t-63.5 -172t-18.5 -196.5q0 -96 23.5 -182t74 -150.5t128 -101.5t184.5 -37 q72 0 133 22.5t107 63.5t73 101.5t29 138.5h-203v194h604v-194h-133v-492h-256v152h-4q-55 -96 -155.5 -138.5t-205.5 -42.5q-176 0 -307 53.5t-218 145.5t-130 218t-43 271z" />
<glyph unicode="H" horiz-adv-x="1593" d="M57 0v195h168v950h-168v194h645v-194h-194v-365h577v365h-194v194h645v-194h-168v-950h168v-195h-645v195h194v391h-577v-391h194v-195h-645z" />
<glyph unicode="I" horiz-adv-x="794" d="M88 0v195h168v950h-168v194h619v-194h-168v-950h168v-195h-619z" />
<glyph unicode="J" d="M68 401v48h282v-41q0 -43 4 -87.5t19.5 -78t47.5 -55t87 -21.5q59 0 98 48t39 146v785h-215v194h651v-194h-153v-739q0 -68 -11.5 -145t-56.5 -141.5t-136 -106.5t-253 -42q-121 0 -199.5 31t-124 87t-62.5 136t-17 176z" />
<glyph unicode="K" horiz-adv-x="1480" d="M57 0v195h168v950h-168v194h619v-194h-168v-424l422 424h-123v194h579v-194h-122l-430 -434l466 -516h123v-195h-628v195h153l-440 489v-489h168v-195h-619z" />
<glyph unicode="L" horiz-adv-x="1251" d="M57 0v195h168v950h-168v194h666v-194h-215v-950h440v276h246v-471h-1137z" />
<glyph unicode="M" horiz-adv-x="1933" d="M59 0v195h168v950h-168v194h623l283 -993h4l278 993h627v-194h-168v-950h168v-195h-594v195h154v950h-4l-336 -1145h-291l-336 1145h-4v-950h153v-195h-557z" />
<glyph unicode="N" horiz-adv-x="1595" d="M41 0v195h168v950h-168v194h569l516 -995h4v801h-167v194h591v-194h-168v-1145h-372l-545 1034h-4v-839h168v-195h-592z" />
<glyph unicode="O" horiz-adv-x="1593" d="M90 670q0 152 47 279.5t137.5 221t221.5 145.5t301 52t301 -52t221 -145.5t137 -221.5t47 -279q0 -152 -47 -280t-137 -221t-221 -145.5t-301 -52.5t-301 52.5t-221.5 145.5t-137.5 221t-47 280zM389 670q0 -109 23.5 -201t73 -159.5t126 -105.5t185.5 -38t185.5 38 t125.5 105.5t72.5 159.5t23.5 201q0 106 -23.5 198.5t-72.5 160t-126 106.5t-185 39q-109 0 -185.5 -39t-126 -106.5t-73 -160t-23.5 -198.5z" />
<glyph unicode="P" horiz-adv-x="1366" d="M57 0v195h185v950h-185v194h723q80 0 164 -12t153.5 -54t114.5 -124t45 -219q0 -129 -36.5 -212t-100 -132t-151.5 -67.5t-189 -18.5h-256v-305h215v-195h-682zM524 694h152q59 0 113.5 7.5t95.5 31t65.5 67.5t24.5 115q0 86 -26.5 133.5t-70.5 69t-99.5 24.5t-112.5 3 h-142v-451z" />
<glyph unicode="Q" horiz-adv-x="1593" d="M90 670q0 152 47 279.5t137.5 221t221.5 145.5t301 52t301 -52t221 -145.5t137 -221.5t47 -279q0 -55 -14 -126t-48 -139.5t-93.5 -128t-147.5 -96.5q29 12 50.5 13.5t52.5 1.5h258v-195h-504q-68 0 -133.5 -14.5t-126.5 -14.5q-170 0 -301 52.5t-221.5 145.5t-137.5 221 t-47 280zM389 670q0 -109 23.5 -201t73 -159.5t126 -105.5t185.5 -38t185.5 38t125.5 105.5t72.5 159.5t23.5 201q0 106 -23.5 198.5t-72.5 160t-126 106.5t-185 39q-109 0 -185.5 -39t-126 -106.5t-73 -160t-23.5 -198.5z" />
<glyph unicode="R" horiz-adv-x="1478" d="M57 0v195h185v950h-185v194h766q90 0 173 -11t147.5 -50t102.5 -113.5t38 -203.5q0 -68 -23.5 -123.5t-64.5 -95.5t-97.5 -63.5t-121.5 -29.5v-4q68 -4 112 -29.5t74.5 -65.5t50 -90t35.5 -104l49 -161h134v-195h-371l-111 373q-12 39 -27.5 72.5t-40 58t-60.5 38 t-87 13.5h-211v-360h168v-195h-635zM524 750h217q45 0 92.5 8t87.5 29.5t65.5 61.5t25.5 103q0 59 -19.5 97t-51.5 59.5t-73 29t-86 7.5h-258v-395z" />
<glyph unicode="S" horiz-adv-x="1253" d="M109 0v451h245q0 -160 66.5 -227.5t220.5 -67.5q37 0 76 11t71.5 32.5t53 54.5t20.5 74q0 102 -55 151t-138 76t-180.5 45t-180.5 56t-138 112t-55 211q0 98 33.5 171t92 121t137.5 72.5t171 24.5q98 0 179 -26.5t142 -110.5h4v108h236v-417h-246q-8 135 -66.5 198.5 t-197.5 63.5q-86 0 -149.5 -40t-63.5 -134q0 -78 56.5 -117t140.5 -63.5t182 -47t182 -66.5t140.5 -124t56.5 -217q0 -94 -34 -169t-93.5 -127t-138 -80t-170.5 -28q-53 0 -103.5 4.5t-96.5 19.5t-87 41.5t-74 74.5h-4v-111h-235z" />
<glyph unicode="T" horiz-adv-x="1363" d="M72 877v462h1220v-462h-235v268h-234v-950h195v-195h-672v195h195v950h-234v-268h-235z" />
<glyph unicode="U" horiz-adv-x="1478" d="M33 1145v194h610v-194h-184v-586q0 -43 3 -109.5t28.5 -130t86 -108.5t175.5 -45q123 0 184 47t86 110.5t25 130v105.5v586h-185v194h584v-194h-143v-680q0 -102 -41 -192.5t-114 -157t-174.5 -105.5t-221.5 -39q-125 0 -216.5 24.5t-156 66.5t-103 94.5t-61 106.5 t-31 107.5t-8.5 94.5v680h-143z" />
<glyph unicode="V" horiz-adv-x="1593" d="M39 1145v194h612v-194h-184l340 -869l338 869h-184v194h593v-194h-122l-474 -1145h-329l-467 1145h-123z" />
<glyph unicode="W" horiz-adv-x="2045" d="M43 1145v194h557v-194h-184l176 -846h4l260 1040h365l245 -1040h4l191 846h-184v194h526v-194h-92l-283 -1145h-352l-252 1057h-4l-262 -1057h-352l-271 1145h-92z" />
<glyph unicode="X" horiz-adv-x="1478" d="M35 0v195h92l436 493l-411 457h-93v194h603v-194h-154l246 -287l254 287h-154v194h565v-194h-92l-414 -457l439 -493h92v-195h-619v195h174l-276 321l-279 -321h174v-195h-583z" />
<glyph unicode="Y" horiz-adv-x="1480" d="M33 1145v194h618v-194h-174l277 -422l278 422h-174v194h590v-194h-113l-454 -666v-284h194v-195h-672v195h195v284l-453 666h-112z" />
<glyph unicode="Z" horiz-adv-x="1368" d="M90 0v250l825 895h-567v-246h-235v440h1142v-245l-835 -899h622v270h236v-465h-1188z" />
<glyph unicode="[" horiz-adv-x="681" d="M168 -246v1725h430v-154h-215v-1417h215v-154h-430z" />
<glyph unicode="\" horiz-adv-x="796" d="M37 1368h205l518 -1397h-205z" />
<glyph unicode="]" horiz-adv-x="681" d="M84 -92h215v1417h-215v154h430v-1725h-430v154z" />
<glyph unicode="^" horiz-adv-x="1228" d="M160 590l364 749h185l360 -749h-195l-258 545l-262 -545h-194z" />
<glyph unicode="_" horiz-adv-x="1024" d="M0 -154h1024v-102h-1024v102z" />
<glyph unicode="`" horiz-adv-x="569" d="M-27 1382h283l168 -297h-174z" />
<glyph unicode="a" d="M76 279q0 119 53 184t134 96t179.5 37t188.5 6h96v74q0 84 -54.5 115.5t-129.5 31.5q-80 0 -127 -35.5t-54 -119.5h-256q6 102 48.5 165.5t107 97.5t146 45t165.5 11q117 0 195 -24.5t126 -75.5t68.5 -131t20.5 -189v-383h123v-184h-375v139h-4q-63 -96 -136 -132 t-181 -36q-68 0 -128.5 19.5t-106.5 57.5t-72.5 95.5t-26.5 135.5zM332 287q0 -68 41 -99.5t104 -31.5q121 0 187 80q64 77 63 195v7h-131q-53 0 -100 -5t-84 -21.5t-58.5 -46t-21.5 -78.5z" />
<glyph unicode="b" horiz-adv-x="1251" d="M57 0v184h133v1000h-133v184h406v-549l4 4q41 78 121 121t176 43q94 0 173 -31.5t136 -97t89 -164t32 -229.5q0 -96 -25.5 -185.5t-77 -158t-129 -109.5t-182.5 -41q-125 0 -201.5 42t-136.5 147h-4v-160h-381zM446 494q0 -76 12.5 -136.5t42 -103.5t80 -65.5 t128.5 -22.5q88 0 145 79t57 234q0 59 -11 115.5t-36.5 100.5t-69.5 71t-110 27q-63 0 -108.5 -25t-74 -65.5t-42 -95t-13.5 -113.5z" />
<glyph unicode="c" horiz-adv-x="1024" d="M57 459q0 113 24.5 209t77 166.5t136.5 111.5t201 41q80 0 149.5 -36t110.5 -103h4v110h205v-370h-215q-4 102 -47.5 158.5t-149.5 56.5q-63 0 -104 -29t-66 -75t-34 -102t-9 -114q0 -59 9 -115.5t34 -101.5t67 -72.5t109 -27.5q72 0 122 45t56 123h246q-8 -92 -44 -160 t-93.5 -113t-132 -67.5t-156.5 -22.5q-141 0 -237.5 46t-155 118t-83 158t-24.5 166z" />
<glyph unicode="d" horiz-adv-x="1251" d="M57 465q0 131 32 229.5t89.5 164t136 97t172.5 31.5q123 0 193 -50t104 -120h4v367h-133v184h406v-1184h133v-184h-379v160h-4q-33 -51 -65.5 -87t-72.5 -58.5t-89 -33t-113 -10.5q-104 0 -182 41t-129 109.5t-77 158t-26 185.5zM340 479q0 -156 57.5 -234.5t145.5 -78.5 q76 0 127 22.5t80.5 65.5t42 103.5t12.5 136.5q0 59 -13.5 113.5t-42 95t-73.5 65.5t-109 25q-66 0 -109.5 -27t-69.5 -71t-37 -100t-11 -116z" />
<glyph unicode="e" d="M80 492q0 113 37 204.5t103.5 156.5t159.5 99.5t208 34.5q86 0 162.5 -24.5t137 -71.5t101.5 -115.5t58 -157.5q10 -57 11 -111t1 -106h-697q0 -115 62.5 -180t177.5 -65q72 0 120 31.5t69 109.5h256q-16 -86 -58.5 -148.5t-103 -101.5t-135 -57.5t-156.5 -18.5 q-252 0 -383 140.5t-131 380.5zM362 575h424q0 104 -52 166t-159 62q-104 0 -158.5 -64.5t-54.5 -163.5z" />
<glyph unicode="f" horiz-adv-x="796" d="M88 0v184h174v590h-174v184h174v107q0 57 15.5 116.5t57.5 106.5t114.5 78t189.5 31q45 0 91 -6.5t91 -12.5v-202q-23 6 -46 11t-50 5q-41 0 -76 -4t-60.5 -20.5t-39.5 -47t-14 -86.5v-76h215v-184h-215v-590h174v-184h-621z" />
<glyph unicode="g" horiz-adv-x="1251" d="M57 479q0 106 24.5 198.5t78 160t136.5 106.5t200 39t190.5 -48t122.5 -124h4v147h381v-184h-133v-686q0 -92 -25.5 -176t-84 -148.5t-157 -102.5t-241.5 -38q-213 0 -324.5 73t-122.5 245h297q2 -43 18.5 -70t41 -41t55.5 -18.5t64 -4.5q45 0 82.5 20.5t65.5 53.5t43 76 t15 88v109q-35 -37 -65.5 -64t-66 -43t-82 -24.5t-107.5 -8.5q-96 0 -173 38t-129 102.5t-80 148.5t-28 176zM340 489q0 -55 14.5 -106t44 -89t72.5 -61.5t100 -23.5q63 0 107.5 23.5t72 63.5t41 92t13.5 112q0 55 -12.5 107t-39 92t-70.5 64.5t-108 24.5 q-66 0 -109.5 -25.5t-72 -67.5t-41 -95.5t-12.5 -110.5z" />
<glyph unicode="h" horiz-adv-x="1251" d="M33 0v184h133v1000h-133v184h405v-549h4q47 90 125 129t176 39q342 0 342 -350v-453h134v-184h-529v184h123v410q0 61 -14.5 100t-37 60.5t-49 30t-50.5 8.5q-59 0 -102.5 -26t-70 -62.5t-39 -77.5t-12.5 -70v-373h123v-184h-528z" />
<glyph unicode="i" horiz-adv-x="681" d="M72 0v184h133v590h-133v184h405v-774h133v-184h-538zM195 1096v272h282v-272h-282z" />
<glyph unicode="j" horiz-adv-x="569" d="M0 -182q18 -2 34 -2q69 0 97 28q35 35 35 138v792h-133v184h405v-981q0 -90 -12 -156.5t-46 -110.5t-91.5 -65.5t-147.5 -21.5q-35 0 -70.5 5t-70.5 10v180zM156 1096v272h282v-272h-282z" />
<glyph unicode="k" horiz-adv-x="1253" d="M49 0v184h133v1000h-133v184h406v-817l282 219v4h-129v184h543v-184h-102l-232 -172l275 -418h112v-184h-520v184h113l-170 265l-172 -136v-129h112v-184h-518z" />
<glyph unicode="l" horiz-adv-x="681" d="M72 0v184h133v1000h-133v184h405v-1184h133v-184h-538z" />
<glyph unicode="m" horiz-adv-x="1935" d="M51 0v184h133v590h-133v184h381v-161h4q49 92 135 141t191 49q111 0 188.5 -38t130.5 -140q49 92 128 135t182 43q80 0 144 -17.5t112.5 -54t75 -96t28.5 -143.5v-492h133v-184h-528v184h123v416q0 39 -8.5 74t-28 61.5t-51 42t-76.5 15.5q-55 0 -95 -20.5t-66 -55.5 t-38 -79t-12 -93v-361h123v-184h-518v184h122v416q0 74 -41.5 133.5t-125.5 59.5q-55 0 -94.5 -24t-65 -60.5t-36.5 -82.5t-11 -91v-351h123v-184h-529z" />
<glyph unicode="n" horiz-adv-x="1368" d="M92 0v184h133v590h-133v184h381v-161h4q49 92 135 141t191 49q94 0 159.5 -24.5t106.5 -72.5t58.5 -119t17.5 -161v-426h133v-184h-528v184h122v416q0 74 -42 133.5t-125 59.5q-55 0 -94.5 -24t-65 -60.5t-36.5 -82.5t-11 -91v-351h123v-184h-529z" />
<glyph unicode="o" d="M57 479q0 119 38 214t105.5 160t161.5 99.5t207 34.5t207 -34.5t162 -99.5t105.5 -160t37.5 -214q0 -121 -37.5 -215t-105.5 -158.5t-162 -99.5t-207 -35t-207 35t-161.5 99.5t-105.5 158.5t-38 215zM340 479q0 -57 11 -113.5t38 -100.5t71 -71.5t109 -27.5 q66 0 110 27.5t70.5 71.5t38 100.5t11.5 113.5t-11.5 112.5t-38 100.5t-70.5 73t-110 28t-109.5 -28t-70.5 -73t-38 -100.5t-11 -112.5z" />
<glyph unicode="p" horiz-adv-x="1251" d="M57 -164h133v938h-133v184h381v-170h4q59 104 137 151.5t185 47.5q94 0 173 -31.5t136 -97t89 -164t32 -229.5q0 -96 -25.5 -185.5t-77 -158t-129 -109.5t-182.5 -41q-53 0 -97 7.5t-81 26t-69.5 50t-65.5 78.5h-4v-297h147v-184h-553v184zM446 494q0 -76 12.5 -136.5 t42 -103.5t80 -65.5t128.5 -22.5q88 0 145 79t57 234q0 59 -11 115.5t-36.5 100.5t-69.5 71t-110 27q-63 0 -108.5 -25t-74 -65.5t-42 -95t-13.5 -113.5z" />
<glyph unicode="q" horiz-adv-x="1251" d="M57 465q0 131 32 229.5t89.5 164t136 97t172.5 31.5q106 0 184.5 -47t137.5 -152h4v170h381v-184h-133v-938h133v-184h-553v184h147v297h-4q-33 -47 -65.5 -78.5t-69.5 -50t-81 -26t-97 -7.5q-104 0 -182 41t-129 109.5t-77 158t-26 185.5zM340 479q0 -156 57.5 -234.5 t145.5 -78.5q76 0 127 22.5t80.5 65.5t42 103.5t12.5 136.5q0 59 -13.5 113.5t-42 95t-73.5 65.5t-109 25q-66 0 -109.5 -27t-69.5 -71t-37 -100t-11 -116z" />
<glyph unicode="r" horiz-adv-x="909" d="M92 0v184h133v590h-133v184h387v-186h4q43 92 116 153.5t179 61.5q61 0 117 -12v-223q-29 8 -60.5 9t-62.5 1q-68 0 -118 -23.5t-83.5 -63.5t-51 -95.5t-21.5 -116.5v-279h164v-184h-570z" />
<glyph unicode="s" horiz-adv-x="1024" d="M92 692q0 76 30 131.5t78 92t109.5 54t126.5 17.5q84 0 147.5 -27.5t110.5 -101.5h4v100h205v-317h-215q0 86 -50 124t-126 38q-20 0 -46 -3t-48.5 -14.5t-37.5 -32t-15 -53.5q0 -49 42 -69.5t105 -32.5t136 -23.5t136.5 -42t105.5 -90t42 -163.5q0 -63 -24.5 -120 t-68.5 -98t-107.5 -65.5t-141.5 -24.5q-109 0 -176.5 36t-108.5 95h-4v-102h-205v338h215q0 -90 60.5 -136t144.5 -46q23 0 47.5 4t46 16t35.5 33.5t14 56.5q0 49 -42 70.5t-105 34t-136 24t-136.5 42t-105.5 90t-42 165.5z" />
<glyph unicode="t" horiz-adv-x="796" d="M20 774v184h154v187l272 96v-283h256v-184h-256v-463q0 -27 1.5 -52.5t9.5 -45.5t23.5 -33.5t45.5 -13.5q29 0 45.5 16.5t24.5 39t10 46t2 39.5h164v-26q0 -145 -62 -224q-68 -86 -239 -86q-68 0 -123 22.5t-94 60.5t-59.5 88.5t-20.5 103.5v528h-154z" />
<glyph unicode="u" horiz-adv-x="1251" d="M33 774v184h405v-600q0 -74 42 -133t126 -59q55 0 94 22.5t65 59.5t37 83t11 93v350h-123v184h395v-774h134v-184h-381v162h-4q-49 -92 -135.5 -141.5t-190.5 -49.5q-190 0 -266 97.5t-76 279.5v426h-133z" />
<glyph unicode="v" horiz-adv-x="1253" d="M35 774v184h536v-184h-143l209 -551l213 551h-143v184h512v-184h-103l-328 -774h-327l-324 774h-102z" />
<glyph unicode="w" horiz-adv-x="1820" d="M29 774v184h499v-184h-133l146 -559h4l188 743h379l188 -743h5l145 559h-133v184h475v-184h-92l-240 -774h-358l-189 768h-4l-196 -768h-359l-233 774h-92z" />
<glyph unicode="x" horiz-adv-x="1253" d="M57 0v184h93l303 312l-275 278h-92v184h498v-184h-92l155 -166l152 166h-92v184h467v-184h-93l-278 -276l301 -314h92v-184h-526v184h123l-187 195l-182 -195h123v-184h-490z" />
<glyph unicode="y" horiz-adv-x="1251" d="M31 774v184h536v-184h-143l211 -489l219 489h-143v184h510v-184h-93l-456 -932q-27 -59 -55.5 -101t-66.5 -67.5t-86 -38t-116 -12.5q-41 0 -79 4t-76 11v194q31 -4 64.5 -9t78.5 -5q59 0 97 52t61 124l-371 780h-92z" />
<glyph unicode="z" horiz-adv-x="1140" d="M113 0v215l561 559h-324v-143h-225v327h891v-204l-567 -570h354v164h225v-348h-915z" />
<glyph unicode="{" horiz-adv-x="681" d="M39 530v175q27 0 59.5 9t62 30.5t50 57.5t20.5 87v313q0 70 27 122t64.5 86t82 51.5t78.5 17.5h179v-154h-115q-37 0 -58.5 -14.5t-34 -36t-15.5 -48t-3 -50.5v-316q0 -76 -22.5 -122t-55 -71.5t-66.5 -35.5t-54 -13v-4q20 -4 54 -13t66.5 -34.5t55 -71.5t22.5 -122v-316 q0 -25 3 -51t15.5 -47.5t34 -36t58.5 -14.5h115v-154h-179q-35 0 -79 17.5t-81.5 51.5t-64.5 86t-27 122v315q0 51 -20.5 87t-50 57.5t-62 30.5t-59.5 9z" />
<glyph unicode="|" horiz-adv-x="454" d="M125 -512v2048h205v-2048h-205z" />
<glyph unicode="}" horiz-adv-x="681" d="M20 -92h115q37 0 58.5 14.5t34 36t15.5 48t3 50.5v316q0 76 22.5 122t55 71.5t65.5 34.5t55 13v4q-23 2 -55.5 12.5t-65 36t-55 71.5t-22.5 122v316q0 25 -3 51t-15.5 47.5t-34 36t-58.5 14.5h-115v154h179q35 0 79 -17.5t81.5 -51.5t64.5 -86t27 -122v-315 q0 -51 20.5 -87t50 -57.5t62 -31t59.5 -9.5v-174q-27 0 -59.5 -9t-62 -30.5t-50 -57.5t-20.5 -87v-313q0 -70 -27 -122t-64.5 -86t-82 -51.5t-78.5 -17.5h-179v154z" />
<glyph unicode="~" horiz-adv-x="1228" d="M164 510q16 29 38.5 58.5t51.5 54t66.5 40t87.5 15.5q57 0 114.5 -20.5t112.5 -45.5q53 -27 101 -47t87 -20q57 0 97.5 45t74.5 96l70 -158q-23 -31 -46.5 -60.5t-52 -54t-64.5 -39t-81 -14.5q-59 0 -107 20.5t-96 47.5q-47 25 -99 45.5t-120 20.5q-33 0 -57.5 -12.5 t-45 -33t-34.5 -46t-26 -50.5z" />
<glyph unicode="&#xa1;" horiz-adv-x="798" d="M246 -348l61 954h185l61 -954h-307zM252 713v272h299v-272h-299z" />
<glyph unicode="&#xa2;" d="M106 459q0 106 22 199.5t70 163t122.5 113.5t179.5 52v156h164v-180q92 -33 141 -115h4v110h205v-370h-215q-4 102 -47 158.5t-150 56.5q-63 0 -104 -29t-65.5 -75t-34 -102t-9.5 -114q0 -59 9.5 -115.5t34 -101.5t66.5 -72.5t109 -27.5q72 0 122 45t56 123h246 q-6 -84 -37.5 -147.5t-81 -108.5t-113 -71.5t-136.5 -35.5v-155h-164v159q-111 18 -186.5 69.5t-122 120t-66 145.5t-19.5 149z" />
<glyph unicode="&#xa3;" d="M51 0v195h154v428h-154v194h154v123q0 225 120.5 326.5t338.5 101.5q197 0 310 -91t113 -302h-272q0 94 -35 146.5t-131 52.5q-53 0 -86 -22t-52 -55.5t-26.5 -75.5t-7.5 -85v-119h225v-194h-225v-428h326v215h246v-410h-998z" />
<glyph unicode="&#xa4;" d="M45 258l115 119q-47 55 -73 131t-26 162q0 84 24 162.5t75 132.5l-115 112l113 117l114 -111q53 43 134 69t163 26q86 0 165 -26t132 -69l109 111l119 -117l-111 -112q47 -49 70.5 -129t23.5 -166q0 -84 -23.5 -162t-70.5 -131l111 -119l-119 -113l-109 117 q-51 -47 -130 -73.5t-167 -26.5q-86 0 -164.5 25.5t-132.5 74.5l-114 -117zM276 670q0 -61 23 -116.5t62.5 -97.5t93 -65.5t114.5 -23.5q63 0 117.5 24.5t93.5 66.5t60.5 97t21.5 115q0 59 -21.5 114.5t-60.5 97.5t-93 66.5t-118 24.5q-61 0 -114.5 -24.5t-93 -65.5 t-62.5 -96.5t-23 -116.5z" />
<glyph unicode="&#xa5;" d="M4 1145v194h504v-194h-139l198 -387h33l199 387h-140v194h474v-194h-93l-198 -369h198v-164h-286l-49 -92v-39h335v-164h-335v-122h194v-195h-661v195h194v122h-336v164h336v39l-49 92h-287v164h199l-199 369h-92z" />
<glyph unicode="&#xa6;" horiz-adv-x="454" d="M125 -358v716h205v-716h-205zM125 666v716h205v-716h-205z" />
<glyph unicode="&#xa7;" d="M127 575q0 86 48 145.5t124 88.5q-78 33 -112.5 92.5t-34.5 145.5q0 88 34.5 148t92 99t132 56.5t152.5 17.5q80 0 157 -17.5t137.5 -57.5t95 -104.5t32.5 -156.5h-256q2 84 -49 118t-137 34q-25 0 -48.5 -5t-43 -16.5t-31.5 -30t-12 -47.5q0 -51 34.5 -71.5t73.5 -34.5 q80 -31 162 -60.5t166 -66.5q78 -37 123 -91t45 -147q0 -86 -45 -147t-133 -88q86 -41 123.5 -101.5t37.5 -158.5q0 -90 -31.5 -154.5t-86 -106.5t-127 -62.5t-154.5 -20.5q-92 0 -174 13t-144.5 51t-99.5 106.5t-37 177.5h256q0 -86 48.5 -125t138.5 -39q25 0 52.5 6 t51 19.5t37.5 35t14 52.5q0 33 -11 55.5t-29.5 36.5t-43 24.5t-53.5 20.5q-80 27 -156.5 53.5t-144.5 59.5q-80 37 -127 99t-47 154zM373 625q0 -51 33.5 -81t82 -50.5t98.5 -34t85 -31.5q33 23 63.5 52.5t30.5 72.5q0 47 -37 78t-87 52.5t-102.5 37.5t-82.5 35 q-35 -29 -59.5 -56.5t-24.5 -74.5z" />
<glyph unicode="&#xa8;" horiz-adv-x="569" d="M-37 1128v236h225v-236h-225zM381 1128v236h225v-236h-225z" />
<glyph unicode="&#xa9;" horiz-adv-x="1638" d="M121 670q0 143 55 271t149.5 222t221.5 149.5t272 55.5q143 0 271.5 -55.5t222.5 -149.5t149.5 -222t55.5 -271q0 -145 -55.5 -272.5t-149.5 -221.5t-222 -149.5t-272 -55.5q-145 0 -272 55.5t-221.5 149.5t-149.5 221.5t-55 272.5zM315 670q0 -121 37 -221.5t104.5 -172 t160 -111.5t202.5 -40q117 0 210 42t158.5 115.5t100.5 173t35 214.5q0 121 -38 221t-104.5 172t-158.5 111.5t-203 39.5t-203 -39.5t-159.5 -111.5t-104.5 -172t-37 -221zM455 672q0 88 26.5 162.5t76.5 129t122 85t162 30.5q129 0 221 -72.5t113 -213.5h-154 q-12 68 -63.5 100.5t-116.5 32.5q-98 0 -150.5 -70t-52.5 -182q0 -53 14.5 -100.5t42 -82t67.5 -55t89 -20.5q72 0 121 35.5t55 103.5h154q-23 -141 -117 -217t-219 -76q-90 0 -162 32t-123 87t-78.5 130t-27.5 161z" />
<glyph unicode="&#xaa;" horiz-adv-x="737" d="M23 958q0 70 36.5 109t92 57.5t119 22.5t116.5 4h64v29q-4 47 -36 61t-79 14q-102 0 -109 -73h-184q4 59 31.5 96t71.5 56.5t98.5 26.5t111.5 7q137 0 208 -54t71 -194v-202h80v-123h-260v84h-4q-37 -55 -84.5 -76t-120.5 -21q-45 0 -85 11.5t-71 33t-49 55t-18 76.5z M207 965q12 -59 86 -60q80 0 119 38t39 95h-78q-66 0 -114 -16t-52 -57z" />
<glyph unicode="&#xab;" d="M197 477l172 402h204l-172 -402l172 -401h-204zM565 477l172 402h205l-172 -402l172 -401h-205z" />
<glyph unicode="&#xac;" horiz-adv-x="1228" d="M96 639v205h1037v-625h-205v420h-832z" />
<glyph unicode="&#xad;" horiz-adv-x="681" d="M100 449v204h482v-204h-482z" />
<glyph unicode="&#xae;" horiz-adv-x="1638" d="M121 670q0 143 55 271t149.5 222t221.5 149.5t272 55.5q143 0 271.5 -55.5t222.5 -149.5t149.5 -222t55.5 -271q0 -145 -55.5 -272.5t-149.5 -221.5t-222 -149.5t-272 -55.5q-145 0 -272 55.5t-221.5 149.5t-149.5 221.5t-55 272.5zM315 670q0 -121 37 -221.5t104.5 -172 t160 -111.5t202.5 -40q117 0 210 42t158.5 115.5t100.5 173t35 214.5q0 121 -38 221t-104.5 172t-158.5 111.5t-203 39.5t-203 -39.5t-159.5 -111.5t-104.5 -172t-37 -221zM541 287v768h290q147 0 227.5 -50.5t80.5 -179.5q0 -106 -56.5 -152t-148.5 -52l203 -334h-168 l-185 325h-79v-325h-164zM705 735h135q59 0 97 17.5t38 87.5q0 31 -14.5 49t-37 27.5t-49 12.5t-51.5 3h-118v-197z" />
<glyph unicode="&#xaf;" horiz-adv-x="569" d="M-61 1182v133h692v-133h-692z" />
<glyph unicode="&#xb0;" horiz-adv-x="819" d="M100 1059q0 63 25 119.5t66.5 98.5t98 66.5t120.5 24.5q63 0 119.5 -24.5t98.5 -66.5t66.5 -98.5t24.5 -119.5t-24.5 -119.5t-66.5 -98.5t-98.5 -66.5t-119.5 -24.5t-120 24.5t-98.5 66.5t-66.5 98.5t-25 119.5zM223 1059q0 -78 54.5 -132.5t132.5 -54.5t132 54.5 t54 132.5t-54.5 132t-131.5 54q-78 0 -132.5 -54t-54.5 -132z" />
<glyph unicode="&#xb1;" horiz-adv-x="1228" d="M96 12v205h1037v-205h-1037zM96 559v205h416v272h205v-272h416v-205h-416v-272h-205v272h-416z" />
<glyph unicode="&#xb2;" horiz-adv-x="737" d="M47 543v159q41 31 109.5 82.5t138.5 110.5q76 63 130 124.5t52 119.5q0 47 -30.5 71.5t-77.5 24.5q-35 0 -57.5 -11.5t-36 -29.5t-18.5 -43t-7 -49h-195q2 80 29 131t71 82t104 42t128 11q61 0 112.5 -15.5t90.5 -45t60.5 -73.5t21.5 -101q2 -63 -48.5 -131t-119 -129.5 t-139 -112.5t-107.5 -84h258v102h174v-235h-643z" />
<glyph unicode="&#xb3;" horiz-adv-x="737" d="M47 784h195q-2 -55 26.5 -87.5t93.5 -32.5q59 0 96.5 28.5t37.5 81.5q0 39 -19.5 62.5t-49.5 34t-63.5 13.5t-62.5 3v133q37 0 69.5 4t59.5 16.5t42 35t15 61.5q0 53 -30.5 75.5t-89.5 22.5q-61 0 -87 -34t-28 -83h-195q0 63 27 110.5t71 78t102 46t120 15.5 q61 0 116.5 -13.5t97.5 -41t66.5 -70.5t24.5 -104q0 -80 -50 -127t-138 -56h2v-4q86 -4 140 -54t54 -122q0 -61 -24.5 -107t-69.5 -77t-105.5 -46.5t-130.5 -15.5q-63 0 -119.5 12.5t-99.5 42t-68.5 79t-25.5 120.5z" />
<glyph unicode="&#xb4;" horiz-adv-x="569" d="M137 1085l168 297h283l-277 -297h-174z" />
<glyph unicode="&#xb6;" horiz-adv-x="1269" d="M88 967q0 106 37 178t102.5 115t155.5 61t197 18h581v-1585h-205v1422h-215v-1422h-204v854q-215 0 -332 97.5t-117 261.5z" />
<glyph unicode="&#xb7;" horiz-adv-x="569" d="M135 532q0 61 44 105.5t106 44.5q61 0 105 -44t44 -106q0 -61 -44 -105t-105 -44t-105.5 44t-44.5 105z" />
<glyph unicode="&#xb8;" horiz-adv-x="569" d="M29 -403l43 84q33 -18 70.5 -26.5t72.5 -8.5q41 0 77 12t36 55q0 39 -29 58.5t-59 19.5q-23 0 -44.5 -3t-41.5 -13l-39 51l129 174h98l-102 -125l4 -4q18 4 38.5 8t43.5 4q72 0 119 -43t47 -110q0 -49 -23 -82t-59.5 -54.5t-81.5 -30.5t-90 -9q-53 0 -106.5 10t-102.5 33 z" />
<glyph unicode="&#xb9;" horiz-adv-x="737" d="M135 1075v162q47 29 92 58.5t92 60.5h197v-680h127v-133h-450v133h129v536q-41 -41 -89.5 -73.5t-97.5 -63.5z" />
<glyph unicode="&#xba;" horiz-adv-x="737" d="M31 1075q0 139 94 216t244 77t244 -77t94 -216t-94.5 -216t-243.5 -77q-150 0 -244 77t-94 216zM225 1075q0 -29 7.5 -57.5t24.5 -51t44 -37t68 -14.5q39 0 66.5 14.5t45 37t24.5 51.5t7 57q0 29 -7 57.5t-24.5 51t-45 37t-66.5 14.5q-41 0 -68 -14.5t-44 -37t-24.5 -51 t-7.5 -57.5z" />
<glyph unicode="&#xbb;" d="M197 76l172 401l-172 402h204l172 -402l-172 -401h-204zM565 76l172 401l-172 402h205l172 -402l-172 -401h-205z" />
<glyph unicode="&#xbc;" horiz-adv-x="1710" d="M102 1075v162q47 29 92.5 58.5t92.5 60.5h196v-680h127v-133h-450v133h129v536q-41 -41 -89 -73.5t-98 -63.5zM492 -41l546 1421h156l-547 -1421h-155zM913 238v120l365 451h225v-459h105v-112h-105v-105h99v-133h-412v133h119v105h-396zM1065 350h244v295h-4z" />
<glyph unicode="&#xbd;" horiz-adv-x="1710" d="M80 1075v162q47 29 92 58.5t92 60.5h197v-680h127v-133h-451v133h129v536q-41 -41 -89 -73.5t-97 -63.5zM449 -41l546 1421h156l-547 -1421h-155zM987 0v160q41 31 109.5 82t138.5 110q76 63 130 125t52 119q0 47 -30.5 71.5t-77.5 24.5q-35 0 -57.5 -11t-36 -29.5 t-18.5 -43t-7 -49.5h-195q2 80 29 131t71 82t104.5 42t127.5 11q61 0 112.5 -15t90.5 -45t60.5 -74t21.5 -101q2 -63 -48.5 -131t-119 -129.5t-139 -112.5t-107.5 -84h258v103h174v-236h-643z" />
<glyph unicode="&#xbe;" horiz-adv-x="1708" d="M47 784h195q-2 -55 26.5 -87.5t93.5 -32.5q59 0 96.5 28.5t37.5 81.5q0 39 -19.5 62.5t-49.5 34t-63.5 13.5t-62.5 3v133q37 0 69.5 4t59.5 16.5t42 35t15 61.5q0 53 -30.5 75.5t-89.5 22.5q-61 0 -87 -34t-28 -83h-195q0 63 27 110.5t71 78t102 46t120 15.5 q61 0 116.5 -13.5t97.5 -41t66.5 -70.5t24.5 -104q0 -80 -50 -127t-138 -56h2v-4q86 -4 140 -54t54 -122q0 -61 -24.5 -107t-69.5 -77t-105.5 -46.5t-130.5 -15.5q-63 0 -119.5 12.5t-99.5 42t-68.5 79t-25.5 120.5zM526 -41l547 1421h156l-547 -1421h-156zM967 238v120 l364 451h225v-459h105v-112h-105v-105h99v-133h-412v133h119v105h-395zM1118 350h244v295h-4z" />
<glyph unicode="&#xbf;" horiz-adv-x="1024" d="M72 -31q0 55 14 99.5t37.5 81t53.5 67.5t61 59q31 29 61.5 59t53 63.5t36.5 73.5t14 89v45h256v-71q0 -45 -3 -82t-17 -74t-41 -75t-74 -87q-43 -43 -74.5 -75.5t-53 -62.5t-32 -60.5t-10.5 -71.5q0 -66 40 -103t110 -37q51 0 82.5 16.5t49 46.5t25 71t9.5 92h282 q0 -221 -117.5 -315.5t-336.5 -94.5q-84 0 -161 21.5t-135.5 64.5t-94 108.5t-35.5 151.5zM383 713v272h299v-272h-299z" />
<glyph unicode="&#xc0;" horiz-adv-x="1593" d="M39 0v195h113l473 1144h348l469 -1144h112v-195h-575v195h168l-88 215h-555l-84 -215h168v-195h-549zM485 1763h283l168 -297h-174zM580 604h405l-201 514z" />
<glyph unicode="&#xc1;" horiz-adv-x="1593" d="M39 0v195h113l473 1144h348l469 -1144h112v-195h-575v195h168l-88 215h-555l-84 -215h168v-195h-549zM580 604h405l-201 514zM649 1466l168 297h283l-277 -297h-174z" />
<glyph unicode="&#xc2;" horiz-adv-x="1593" d="M39 0v195h113l473 1144h348l469 -1144h112v-195h-575v195h168l-88 215h-555l-84 -215h168v-195h-549zM473 1466l223 297h209l215 -297h-184l-137 175l-142 -175h-184zM580 604h405l-201 514z" />
<glyph unicode="&#xc3;" horiz-adv-x="1593" d="M39 0v195h113l473 1144h348l469 -1144h112v-195h-575v195h168l-88 215h-555l-84 -215h168v-195h-549zM432 1479q6 47 23.5 91t45 79t67.5 56.5t94 21.5q41 0 79.5 -12.5t75.5 -26.5q39 -16 76 -28.5t74 -12.5t60.5 32.5t31.5 65.5h102q-4 -45 -20.5 -90t-44 -81 t-67.5 -58.5t-89 -22.5q-47 0 -87 12.5t-77 28.5q-35 14 -69.5 26.5t-71.5 12.5q-43 0 -65.5 -29.5t-34.5 -64.5h-103zM580 604h405l-201 514z" />
<glyph unicode="&#xc4;" horiz-adv-x="1593" d="M39 0v195h113l473 1144h348l469 -1144h112v-195h-575v195h168l-88 215h-555l-84 -215h168v-195h-549zM475 1509v236h225v-236h-225zM580 604h405l-201 514zM893 1509v236h225v-236h-225z" />
<glyph unicode="&#xc5;" horiz-adv-x="1593" d="M39 0v195h113l473 1144h348l469 -1144h112v-195h-575v195h168l-88 215h-555l-84 -215h168v-195h-549zM578 1655q0 45 17 85t47 69.5t70 47t85 17.5t86 -17.5t69.5 -47t46 -69.5t17.5 -85q0 -47 -17.5 -87t-46 -68.5t-69.5 -46t-86 -17.5t-85 17.5t-70 46t-47 68.5t-17 87 zM580 604h405l-201 514zM680 1655q0 -47 35 -82t82 -35q49 0 82.5 35t33.5 82t-33.5 82t-82.5 35q-47 0 -82 -35t-35 -82z" />
<glyph unicode="&#xc6;" horiz-adv-x="2048" d="M39 0v195h111l571 1144h1235v-401h-236v207h-546l40 -365h181v181h215v-545h-215v180h-160l51 -401h434v243h236v-438h-1125v195h185l-25 215h-465l-104 -215h168v-195h-551zM623 604h346l-64 572h-4z" />
<glyph unicode="&#xc7;" horiz-adv-x="1478" d="M90 659q0 154 40 284t120 224.5t199.5 147.5t279.5 53q121 0 218 -39t165 -141l4 -4v155h256v-495h-256q-2 154 -95 242t-243 88q-113 0 -187.5 -46.5t-119.5 -122t-63.5 -172t-18.5 -196.5q0 -96 23.5 -182t74 -150.5t128 -101.5t184.5 -37q61 0 116.5 21.5t96.5 60.5 t65.5 94t26.5 121h272q-2 -141 -57 -235.5t-140 -151t-188.5 -81t-202.5 -24.5h-14l-80 -96l4 -4q18 4 39 8t43 4q72 0 119 -43t47 -110q0 -49 -22.5 -82t-59.5 -54.5t-82 -30.5t-90 -9q-53 0 -106.5 10t-102.5 33l43 84q33 -18 71 -26.5t73 -8.5q41 0 76.5 12t35.5 55 q0 39 -28.5 58.5t-59.5 19.5q-23 0 -44 -3t-42 -13l-39 51l113 151q-150 14 -261.5 73t-185 150t-109.5 207.5t-36 251.5z" />
<glyph unicode="&#xc8;" horiz-adv-x="1366" d="M57 0v195h168v950h-168v194h1217v-401h-236v207h-530v-365h203v183h215v-547h-215v180h-203v-401h530v243h236v-438h-1217zM372 1763h283l168 -297h-174z" />
<glyph unicode="&#xc9;" horiz-adv-x="1366" d="M57 0v195h168v950h-168v194h1217v-401h-236v207h-530v-365h203v183h215v-547h-215v180h-203v-401h530v243h236v-438h-1217zM536 1466l168 297h283l-277 -297h-174z" />
<glyph unicode="&#xca;" horiz-adv-x="1366" d="M57 0v195h168v950h-168v194h1217v-401h-236v207h-530v-365h203v183h215v-547h-215v180h-203v-401h530v243h236v-438h-1217zM360 1466l223 297h209l215 -297h-184l-137 175l-142 -175h-184z" />
<glyph unicode="&#xcb;" horiz-adv-x="1366" d="M57 0v195h168v950h-168v194h1217v-401h-236v207h-530v-365h203v183h215v-547h-215v180h-203v-401h530v243h236v-438h-1217zM362 1509v236h225v-236h-225zM780 1509v236h225v-236h-225z" />
<glyph unicode="&#xcc;" horiz-adv-x="794" d="M88 0v195h168v950h-168v194h619v-194h-168v-950h168v-195h-619zM110 1763h283l168 -297h-174z" />
<glyph unicode="&#xcd;" horiz-adv-x="794" d="M88 0v195h168v950h-168v194h619v-194h-168v-950h168v-195h-619zM250 1466l168 297h283l-277 -297h-174z" />
<glyph unicode="&#xce;" horiz-adv-x="794" d="M74 1466l223 297h209l215 -297h-184l-137 175l-142 -175h-184zM88 0v195h168v950h-168v194h619v-194h-168v-950h168v-195h-619z" />
<glyph unicode="&#xcf;" horiz-adv-x="794" d="M76 1509v236h225v-236h-225zM88 0v195h168v950h-168v194h619v-194h-168v-950h168v-195h-619zM494 1509v236h225v-236h-225z" />
<glyph unicode="&#xd0;" horiz-adv-x="1593" d="M57 0v195h168v423h-168v185h168v342h-168v194h731q33 0 96.5 -4t140.5 -24.5t156 -62.5t144.5 -115.5t106.5 -186t41 -274.5q0 -168 -51.5 -294t-144.5 -210t-226 -126t-295 -42h-699zM508 195h227q219 0 329 128t110 347q0 217 -108 346t-331 129h-227v-342h272v-185 h-272v-423z" />
<glyph unicode="&#xd1;" horiz-adv-x="1595" d="M41 0v195h168v950h-168v194h569l516 -995h4v801h-167v194h591v-194h-168v-1145h-372l-545 1034h-4v-839h168v-195h-592zM434 1479q6 47 23.5 91t45 79t67.5 56.5t94 21.5q41 0 79.5 -12.5t75.5 -26.5q39 -16 76 -28.5t74 -12.5t60.5 32.5t31.5 65.5h102q-4 -45 -20.5 -90 t-44 -81t-67.5 -58.5t-89 -22.5q-47 0 -87 12.5t-77 28.5q-35 14 -69.5 26.5t-71.5 12.5q-43 0 -65.5 -29.5t-34.5 -64.5h-103z" />
<glyph unicode="&#xd2;" horiz-adv-x="1593" d="M90 670q0 152 47 279.5t137.5 221t221.5 145.5t301 52t301 -52t221 -145.5t137 -221.5t47 -279q0 -152 -47 -280t-137 -221t-221 -145.5t-301 -52.5t-301 52.5t-221.5 145.5t-137.5 221t-47 280zM389 670q0 -109 23.5 -201t73 -159.5t126 -105.5t185.5 -38t185.5 38 t125.5 105.5t72.5 159.5t23.5 201q0 106 -23.5 198.5t-72.5 160t-126 106.5t-185 39q-109 0 -185.5 -39t-126 -106.5t-73 -160t-23.5 -198.5zM485 1763h283l168 -297h-174z" />
<glyph unicode="&#xd3;" horiz-adv-x="1593" d="M90 670q0 152 47 279.5t137.5 221t221.5 145.5t301 52t301 -52t221 -145.5t137 -221.5t47 -279q0 -152 -47 -280t-137 -221t-221 -145.5t-301 -52.5t-301 52.5t-221.5 145.5t-137.5 221t-47 280zM389 670q0 -109 23.5 -201t73 -159.5t126 -105.5t185.5 -38t185.5 38 t125.5 105.5t72.5 159.5t23.5 201q0 106 -23.5 198.5t-72.5 160t-126 106.5t-185 39q-109 0 -185.5 -39t-126 -106.5t-73 -160t-23.5 -198.5zM649 1466l168 297h283l-277 -297h-174z" />
<glyph unicode="&#xd4;" horiz-adv-x="1593" d="M90 670q0 152 47 279.5t137.5 221t221.5 145.5t301 52t301 -52t221 -145.5t137 -221.5t47 -279q0 -152 -47 -280t-137 -221t-221 -145.5t-301 -52.5t-301 52.5t-221.5 145.5t-137.5 221t-47 280zM389 670q0 -109 23.5 -201t73 -159.5t126 -105.5t185.5 -38t185.5 38 t125.5 105.5t72.5 159.5t23.5 201q0 106 -23.5 198.5t-72.5 160t-126 106.5t-185 39q-109 0 -185.5 -39t-126 -106.5t-73 -160t-23.5 -198.5zM473 1466l223 297h209l215 -297h-184l-137 175l-142 -175h-184z" />
<glyph unicode="&#xd5;" horiz-adv-x="1593" d="M90 670q0 152 47 279.5t137.5 221t221.5 145.5t301 52t301 -52t221 -145.5t137 -221.5t47 -279q0 -152 -47 -280t-137 -221t-221 -145.5t-301 -52.5t-301 52.5t-221.5 145.5t-137.5 221t-47 280zM389 670q0 -109 23.5 -201t73 -159.5t126 -105.5t185.5 -38t185.5 38 t125.5 105.5t72.5 159.5t23.5 201q0 106 -23.5 198.5t-72.5 160t-126 106.5t-185 39q-109 0 -185.5 -39t-126 -106.5t-73 -160t-23.5 -198.5zM432 1479q6 47 23.5 91t45 79t67.5 56.5t94 21.5q41 0 79.5 -12.5t75.5 -26.5q39 -16 76 -28.5t74 -12.5t60.5 32.5t31.5 65.5h102 q-4 -45 -20.5 -90t-44 -81t-67.5 -58.5t-89 -22.5q-47 0 -87 12.5t-77 28.5q-35 14 -69.5 26.5t-71.5 12.5q-43 0 -65.5 -29.5t-34.5 -64.5h-103z" />
<glyph unicode="&#xd6;" horiz-adv-x="1593" d="M90 670q0 152 47 279.5t137.5 221t221.5 145.5t301 52t301 -52t221 -145.5t137 -221.5t47 -279q0 -152 -47 -280t-137 -221t-221 -145.5t-301 -52.5t-301 52.5t-221.5 145.5t-137.5 221t-47 280zM389 670q0 -109 23.5 -201t73 -159.5t126 -105.5t185.5 -38t185.5 38 t125.5 105.5t72.5 159.5t23.5 201q0 106 -23.5 198.5t-72.5 160t-126 106.5t-185 39q-109 0 -185.5 -39t-126 -106.5t-73 -160t-23.5 -198.5zM475 1509v236h225v-236h-225zM893 1509v236h225v-236h-225z" />
<glyph unicode="&#xd7;" d="M92 184l334 334l-334 334l146 145l331 -335l334 335l144 -145l-332 -334l332 -334l-144 -145l-334 334l-331 -334z" />
<glyph unicode="&#xd8;" horiz-adv-x="1593" d="M90 670q0 152 47 279.5t137.5 221t221.5 145.5t301 52q129 0 233.5 -29.5t190.5 -85.5l147 164l90 -80l-145 -161q94 -92 142 -222.5t48 -283.5q0 -152 -47 -280t-137 -221t-221 -145.5t-301 -52.5q-135 0 -247 34t-198 97l-149 -165l-92 75l151 170q-86 94 -129 218 t-43 270zM389 670q0 -82 13.5 -154t41.5 -131l621 694q-47 45 -113.5 70t-154.5 25q-109 0 -185.5 -39t-126 -106.5t-73 -160t-23.5 -198.5zM510 279q51 -53 120.5 -83t166.5 -30q109 0 185.5 38t125.5 105.5t72.5 159.5t23.5 201q0 92 -15 170t-50 141z" />
<glyph unicode="&#xd9;" horiz-adv-x="1478" d="M33 1145v194h610v-194h-184v-586q0 -43 3 -109.5t28.5 -130t86 -108.5t175.5 -45q123 0 184 47t86 110.5t25 130v105.5v586h-185v194h584v-194h-143v-680q0 -102 -41 -192.5t-114 -157t-174.5 -105.5t-221.5 -39q-125 0 -216.5 24.5t-156 66.5t-103 94.5t-61 106.5 t-31 107.5t-8.5 94.5v680h-143zM428 1763h283l168 -297h-174z" />
<glyph unicode="&#xda;" horiz-adv-x="1478" d="M33 1145v194h610v-194h-184v-586q0 -43 3 -109.5t28.5 -130t86 -108.5t175.5 -45q123 0 184 47t86 110.5t25 130v105.5v586h-185v194h584v-194h-143v-680q0 -102 -41 -192.5t-114 -157t-174.5 -105.5t-221.5 -39q-125 0 -216.5 24.5t-156 66.5t-103 94.5t-61 106.5 t-31 107.5t-8.5 94.5v680h-143zM592 1466l168 297h283l-277 -297h-174z" />
<glyph unicode="&#xdb;" horiz-adv-x="1478" d="M33 1145v194h610v-194h-184v-586q0 -43 3 -109.5t28.5 -130t86 -108.5t175.5 -45q123 0 184 47t86 110.5t25 130v105.5v586h-185v194h584v-194h-143v-680q0 -102 -41 -192.5t-114 -157t-174.5 -105.5t-221.5 -39q-125 0 -216.5 24.5t-156 66.5t-103 94.5t-61 106.5 t-31 107.5t-8.5 94.5v680h-143zM416 1466l223 297h209l215 -297h-184l-137 175l-142 -175h-184z" />
<glyph unicode="&#xdc;" horiz-adv-x="1478" d="M33 1145v194h610v-194h-184v-586q0 -43 3 -109.5t28.5 -130t86 -108.5t175.5 -45q123 0 184 47t86 110.5t25 130v105.5v586h-185v194h584v-194h-143v-680q0 -102 -41 -192.5t-114 -157t-174.5 -105.5t-221.5 -39q-125 0 -216.5 24.5t-156 66.5t-103 94.5t-61 106.5 t-31 107.5t-8.5 94.5v680h-143zM418 1509v236h225v-236h-225zM836 1509v236h225v-236h-225z" />
<glyph unicode="&#xdd;" horiz-adv-x="1480" d="M33 1145v194h618v-194h-174l277 -422l278 422h-174v194h590v-194h-113l-454 -666v-284h194v-195h-672v195h195v284l-453 666h-112zM594 1466l168 297h283l-277 -297h-174z" />
<glyph unicode="&#xde;" horiz-adv-x="1366" d="M57 0v195h185v950h-185v194h682v-194h-215v-113h205q41 0 95.5 -2t113.5 -12t116.5 -32.5t102.5 -62.5t72.5 -100.5t27.5 -146.5q0 -106 -36.5 -177t-100 -114t-151.5 -60.5t-189 -17.5h-256v-112h215v-195h-682zM524 492h152q59 0 113.5 6t95.5 24.5t65.5 49t24.5 79.5 q0 70 -26.5 110t-70.5 59.5t-99.5 23.5t-112.5 4h-142v-356z" />
<glyph unicode="&#xdf;" horiz-adv-x="1251" d="M61 0v184h134v836q0 104 38.5 176t106.5 116t156 64.5t186 20.5q82 0 160 -19.5t138 -62.5t96 -110.5t36 -162.5q0 -68 -24.5 -119t-66.5 -85.5t-95.5 -55t-110.5 -28.5v-4q78 -6 145.5 -31t118.5 -68t80 -105.5t29 -148.5q0 -121 -40 -199.5t-109.5 -124.5t-163 -62.5 t-199.5 -10.5v184q98 -6 163.5 52.5t65.5 158.5q0 72 -21.5 120t-61.5 77t-95 39t-123 6v205q100 -4 162.5 40t62.5 152q0 92 -49 135t-133 43q-82 0 -131 -52t-49 -165v-811h113v-184h-519z" />
<glyph unicode="&#xe0;" d="M76 279q0 119 53 184t134 96t179.5 37t188.5 6h96v74q0 84 -54.5 115.5t-129.5 31.5q-80 0 -127 -35.5t-54 -119.5h-256q6 102 48.5 165.5t107 97.5t146 45t165.5 11q117 0 195 -24.5t126 -75.5t68.5 -131t20.5 -189v-383h123v-184h-375v139h-4q-63 -96 -136 -132 t-181 -36q-68 0 -128.5 19.5t-106.5 57.5t-72.5 95.5t-26.5 135.5zM258 1382h283l168 -297h-174zM332 287q0 -68 41 -99.5t104 -31.5q121 0 186.5 79.5t63.5 202.5h-131q-53 0 -100 -5t-84 -21.5t-58.5 -46t-21.5 -78.5z" />
<glyph unicode="&#xe1;" d="M76 279q0 119 53 184t134 96t179.5 37t188.5 6h96v74q0 84 -54.5 115.5t-129.5 31.5q-80 0 -127 -35.5t-54 -119.5h-256q6 102 48.5 165.5t107 97.5t146 45t165.5 11q117 0 195 -24.5t126 -75.5t68.5 -131t20.5 -189v-383h123v-184h-375v139h-4q-63 -96 -136 -132 t-181 -36q-68 0 -128.5 19.5t-106.5 57.5t-72.5 95.5t-26.5 135.5zM332 287q0 -68 41 -99.5t104 -31.5q121 0 186.5 79.5t63.5 202.5h-131q-53 0 -100 -5t-84 -21.5t-58.5 -46t-21.5 -78.5zM422 1085l168 297h283l-277 -297h-174z" />
<glyph unicode="&#xe2;" d="M76 279q0 119 53 184t134 96t179.5 37t188.5 6h96v74q0 84 -54.5 115.5t-129.5 31.5q-80 0 -127 -35.5t-54 -119.5h-256q6 102 48.5 165.5t107 97.5t146 45t165.5 11q117 0 195 -24.5t126 -75.5t68.5 -131t20.5 -189v-383h123v-184h-375v139h-4q-63 -96 -136 -132 t-181 -36q-68 0 -128.5 19.5t-106.5 57.5t-72.5 95.5t-26.5 135.5zM246 1085l223 297h209l215 -297h-184l-137 175l-142 -175h-184zM332 287q0 -68 41 -99.5t104 -31.5q121 0 186.5 79.5t63.5 202.5h-131q-53 0 -100 -5t-84 -21.5t-58.5 -46t-21.5 -78.5z" />
<glyph unicode="&#xe3;" d="M76 279q0 119 53 184t134 96t179.5 37t188.5 6h96v74q0 84 -54.5 115.5t-129.5 31.5q-80 0 -127 -35.5t-54 -119.5h-256q6 102 48.5 165.5t107 97.5t146 45t165.5 11q117 0 195 -24.5t126 -75.5t68.5 -131t20.5 -189v-383h123v-184h-375v139h-4q-63 -96 -136 -132 t-181 -36q-68 0 -128.5 19.5t-106.5 57.5t-72.5 95.5t-26.5 135.5zM205 1098q6 47 23.5 91t45 79t67.5 56.5t94 21.5q41 0 79.5 -12.5t75.5 -26.5q39 -16 76 -28.5t74 -12.5t60.5 32.5t31.5 65.5h102q-4 -45 -20.5 -90t-44 -81t-67.5 -58.5t-89 -22.5q-47 0 -87 12.5 t-77 28.5q-35 14 -69.5 26.5t-71.5 12.5q-43 0 -65.5 -29.5t-34.5 -64.5h-103zM332 287q0 -68 41 -99.5t104 -31.5q121 0 186.5 79.5t63.5 202.5h-131q-53 0 -100 -5t-84 -21.5t-58.5 -46t-21.5 -78.5z" />
<glyph unicode="&#xe4;" d="M76 279q0 119 53 184t134 96t179.5 37t188.5 6h96v74q0 84 -54.5 115.5t-129.5 31.5q-80 0 -127 -35.5t-54 -119.5h-256q6 102 48.5 165.5t107 97.5t146 45t165.5 11q117 0 195 -24.5t126 -75.5t68.5 -131t20.5 -189v-383h123v-184h-375v139h-4q-63 -96 -136 -132 t-181 -36q-68 0 -128.5 19.5t-106.5 57.5t-72.5 95.5t-26.5 135.5zM248 1128v236h225v-236h-225zM332 287q0 -68 41 -99.5t104 -31.5q121 0 186.5 79.5t63.5 202.5h-131q-53 0 -100 -5t-84 -21.5t-58.5 -46t-21.5 -78.5zM666 1128v236h225v-236h-225z" />
<glyph unicode="&#xe5;" d="M76 279q0 119 53 184t134 96t179.5 37t188.5 6h96v74q0 84 -54.5 115.5t-129.5 31.5q-80 0 -127 -35.5t-54 -119.5h-256q6 102 48.5 165.5t107 97.5t146 45t165.5 11q117 0 195 -24.5t126 -75.5t68.5 -131t20.5 -189v-383h123v-184h-375v139h-4q-63 -96 -136 -132 t-181 -36q-68 0 -128.5 19.5t-106.5 57.5t-72.5 95.5t-26.5 135.5zM332 287q0 -68 41 -99.5t104 -31.5q121 0 186.5 79.5t63.5 202.5h-131q-53 0 -100 -5t-84 -21.5t-58.5 -46t-21.5 -78.5zM351 1274q0 45 17 85t47 69.5t70 47t85 17.5t86 -17.5t69.5 -47t46 -69.5t17.5 -85 q0 -47 -17.5 -87t-46 -68.5t-69.5 -46t-86 -17.5t-85 17.5t-70 46t-47 68.5t-17 87zM453 1274q0 -47 35 -82t82 -35q49 0 82.5 35t33.5 82t-33.5 82t-82.5 35q-47 0 -82 -35t-35 -82z" />
<glyph unicode="&#xe6;" horiz-adv-x="1708" d="M76 258q0 119 53 183.5t135 94t177.5 34.5t179.5 5h98v66q0 76 -44 119t-136 43q-66 0 -111 -31t-51 -94h-256q2 88 39 147.5t96 95t133 51t150 15.5q49 0 99 -8t93 -27.5t77 -54.5t52 -88q25 53 64 88t85 54.5t99 27.5t109 8q131 0 213.5 -49t129 -131t61.5 -187.5 t9 -218.5h-655q2 -53 13 -97t33.5 -77.5t60.5 -52t94 -18.5q70 0 126 31.5t64 109.5h256q-6 -86 -43 -148.5t-95.5 -101.5t-132 -57.5t-151.5 -18.5q-68 0 -127 9.5t-108.5 34t-90 66.5t-73.5 107q-51 -121 -147.5 -169t-225.5 -48q-160 0 -256 71t-96 216zM332 274 q0 -35 14 -57t37 -36.5t53.5 -19.5t61.5 -5q57 0 99 21.5t68.5 56t40 78.5t13.5 89h-86q-53 0 -106.5 -2t-96.5 -14t-70.5 -37.5t-27.5 -73.5zM975 575h399q-2 47 -12 89.5t-32.5 73t-59.5 48t-92 17.5q-49 0 -86 -19.5t-62.5 -51.5t-39 -73t-15.5 -84z" />
<glyph unicode="&#xe7;" horiz-adv-x="1024" d="M57 459q0 113 24.5 209t77 166.5t136.5 111.5t201 41q80 0 149.5 -36t110.5 -103h4v110h205v-370h-215q-4 104 -48 157q-47 57 -149 58q-63 0 -104 -29t-66 -75t-34 -102t-9 -114q0 -59 9 -115.5t34 -101.5t67 -72.5t109 -27.5q72 0 122 45t56 123h246q-8 -92 -44 -160 t-93.5 -113t-132 -67.5t-156.5 -22.5h-10l-80 -96l4 -4q18 4 38.5 8t43.5 4q72 0 119 -43t47 -110q0 -49 -22.5 -82t-59.5 -54.5t-82 -30.5t-90 -9q-53 0 -106.5 10t-102.5 33l43 84q33 -18 71 -26.5t72 -8.5q41 0 77 12t36 55q0 39 -28.5 58.5t-59.5 19.5q-23 0 -44.5 -3 t-41.5 -13l-39 51l115 154q-113 16 -190 66t-123 117.5t-66.5 145.5t-20.5 150z" />
<glyph unicode="&#xe8;" d="M80 492q0 113 37 204.5t103.5 156.5t159.5 99.5t208 34.5q86 0 162.5 -24.5t137 -71.5t101.5 -115.5t58 -157.5q10 -57 11 -111t1 -106h-697q0 -115 62.5 -180t177.5 -65q72 0 120 31.5t69 109.5h256q-16 -86 -58.5 -148.5t-103 -101.5t-135 -57.5t-156.5 -18.5 q-252 0 -383 140.5t-131 380.5zM258 1382h283l168 -297h-174zM362 575h424q0 104 -52 166t-159 62q-104 0 -158.5 -64.5t-54.5 -163.5z" />
<glyph unicode="&#xe9;" d="M80 492q0 113 37 204.5t103.5 156.5t159.5 99.5t208 34.5q86 0 162.5 -24.5t137 -71.5t101.5 -115.5t58 -157.5q10 -57 11 -111t1 -106h-697q0 -115 62.5 -180t177.5 -65q72 0 120 31.5t69 109.5h256q-16 -86 -58.5 -148.5t-103 -101.5t-135 -57.5t-156.5 -18.5 q-252 0 -383 140.5t-131 380.5zM362 575h424q0 104 -52 166t-159 62q-104 0 -158.5 -64.5t-54.5 -163.5zM422 1085l168 297h283l-277 -297h-174z" />
<glyph unicode="&#xea;" d="M80 492q0 113 37 204.5t103.5 156.5t159.5 99.5t208 34.5q86 0 162.5 -24.5t137 -71.5t101.5 -115.5t58 -157.5q10 -57 11 -111t1 -106h-697q0 -115 62.5 -180t177.5 -65q72 0 120 31.5t69 109.5h256q-16 -86 -58.5 -148.5t-103 -101.5t-135 -57.5t-156.5 -18.5 q-252 0 -383 140.5t-131 380.5zM246 1085l223 297h209l215 -297h-184l-137 175l-142 -175h-184zM362 575h424q0 104 -52 166t-159 62q-104 0 -158.5 -64.5t-54.5 -163.5z" />
<glyph unicode="&#xeb;" d="M80 492q0 113 37 204.5t103.5 156.5t159.5 99.5t208 34.5q86 0 162.5 -24.5t137 -71.5t101.5 -115.5t58 -157.5q10 -57 11 -111t1 -106h-697q0 -115 62.5 -180t177.5 -65q72 0 120 31.5t69 109.5h256q-16 -86 -58.5 -148.5t-103 -101.5t-135 -57.5t-156.5 -18.5 q-252 0 -383 140.5t-131 380.5zM248 1128v236h225v-236h-225zM362 575h424q0 104 -52 166t-159 62q-104 0 -158.5 -64.5t-54.5 -163.5zM666 1128v236h225v-236h-225z" />
<glyph unicode="&#xec;" horiz-adv-x="681" d="M30 1382h283l168 -297h-174zM72 0v184h133v590h-133v184h405v-774h133v-184h-538z" />
<glyph unicode="&#xed;" horiz-adv-x="681" d="M72 0v184h133v590h-133v184h405v-774h133v-184h-538zM194 1085l168 297h283l-277 -297h-174z" />
<glyph unicode="&#xee;" horiz-adv-x="681" d="M18 1085l223 297h209l215 -297h-184l-137 175l-142 -175h-184zM72 0v184h133v590h-133v184h405v-774h133v-184h-538z" />
<glyph unicode="&#xef;" horiz-adv-x="681" d="M20 1128v236h225v-236h-225zM72 0v184h133v590h-133v184h405v-774h133v-184h-538zM438 1128v236h225v-236h-225z" />
<glyph unicode="&#xf0;" d="M57 479q0 111 38 200t105.5 152.5t162 97.5t206.5 34q39 0 82 -12.5t90 -41.5l4 4q-27 76 -83 140.5t-132 117.5l-270 -131l-100 113l221 107q-59 37 -119.5 61.5t-114.5 36.5l111 117q176 -45 317 -121l252 121l101 -113l-205 -98q168 -125 263 -300.5t95 -402.5 q-6 -291 -140 -440.5t-372 -149.5q-113 0 -207 37t-161.5 104.5t-105.5 161t-38 205.5zM340 479q0 -57 11 -113.5t38 -100.5t71 -71.5t109 -27.5q66 0 110 27.5t70.5 71.5t38 100.5t11.5 113.5q0 51 -11.5 104.5t-38 96.5t-70.5 70.5t-110 27.5t-109.5 -27.5t-70.5 -70.5 t-38 -96.5t-11 -104.5z" />
<glyph unicode="&#xf1;" horiz-adv-x="1368" d="M92 0v184h133v590h-133v184h381v-161h4q49 92 135 141t191 49q94 0 159.5 -24.5t106.5 -72.5t58.5 -119t17.5 -161v-426h133v-184h-528v184h122v416q0 74 -42 133.5t-125 59.5q-55 0 -94.5 -24t-65 -60.5t-36.5 -82.5t-11 -91v-351h123v-184h-529zM319 1098q6 47 23.5 91 t45 79t67.5 56.5t94 21.5q41 0 79.5 -12.5t75.5 -26.5q39 -16 76 -28.5t74 -12.5t60.5 32.5t31.5 65.5h102q-4 -45 -20.5 -90t-44 -81t-67.5 -58.5t-89 -22.5q-47 0 -87 12.5t-77 28.5q-35 14 -69.5 26.5t-71.5 12.5q-43 0 -65.5 -29.5t-34.5 -64.5h-103z" />
<glyph unicode="&#xf2;" d="M57 479q0 119 38 214t105.5 160t161.5 99.5t207 34.5t207 -34.5t162 -99.5t105.5 -160t37.5 -214q0 -121 -37.5 -215t-105.5 -158.5t-162 -99.5t-207 -35t-207 35t-161.5 99.5t-105.5 158.5t-38 215zM258 1382h283l168 -297h-174zM340 479q0 -57 11 -113.5t38 -100.5 t71 -71.5t109 -27.5q66 0 110 27.5t70.5 71.5t38 100.5t11.5 113.5t-11.5 112.5t-38 100.5t-70.5 73t-110 28t-109.5 -28t-70.5 -73t-38 -100.5t-11 -112.5z" />
<glyph unicode="&#xf3;" d="M57 479q0 119 38 214t105.5 160t161.5 99.5t207 34.5t207 -34.5t162 -99.5t105.5 -160t37.5 -214q0 -121 -37.5 -215t-105.5 -158.5t-162 -99.5t-207 -35t-207 35t-161.5 99.5t-105.5 158.5t-38 215zM340 479q0 -57 11 -113.5t38 -100.5t71 -71.5t109 -27.5 q66 0 110 27.5t70.5 71.5t38 100.5t11.5 113.5t-11.5 112.5t-38 100.5t-70.5 73t-110 28t-109.5 -28t-70.5 -73t-38 -100.5t-11 -112.5zM422 1085l168 297h283l-277 -297h-174z" />
<glyph unicode="&#xf4;" d="M57 479q0 119 38 214t105.5 160t161.5 99.5t207 34.5t207 -34.5t162 -99.5t105.5 -160t37.5 -214q0 -121 -37.5 -215t-105.5 -158.5t-162 -99.5t-207 -35t-207 35t-161.5 99.5t-105.5 158.5t-38 215zM246 1085l223 297h209l215 -297h-184l-137 175l-142 -175h-184z M340 479q0 -57 11 -113.5t38 -100.5t71 -71.5t109 -27.5q66 0 110 27.5t70.5 71.5t38 100.5t11.5 113.5t-11.5 112.5t-38 100.5t-70.5 73t-110 28t-109.5 -28t-70.5 -73t-38 -100.5t-11 -112.5z" />
<glyph unicode="&#xf5;" d="M57 479q0 119 38 214t105.5 160t161.5 99.5t207 34.5t207 -34.5t162 -99.5t105.5 -160t37.5 -214q0 -121 -37.5 -215t-105.5 -158.5t-162 -99.5t-207 -35t-207 35t-161.5 99.5t-105.5 158.5t-38 215zM205 1098q6 47 23.5 91t45 79t67.5 56.5t94 21.5q41 0 79.5 -12.5 t75.5 -26.5q39 -16 76 -28.5t74 -12.5t60.5 32.5t31.5 65.5h102q-4 -45 -20.5 -90t-44 -81t-67.5 -58.5t-89 -22.5q-47 0 -87 12.5t-77 28.5q-35 14 -69.5 26.5t-71.5 12.5q-43 0 -65.5 -29.5t-34.5 -64.5h-103zM340 479q0 -57 11 -113.5t38 -100.5t71 -71.5t109 -27.5 q66 0 110 27.5t70.5 71.5t38 100.5t11.5 113.5t-11.5 112.5t-38 100.5t-70.5 73t-110 28t-109.5 -28t-70.5 -73t-38 -100.5t-11 -112.5z" />
<glyph unicode="&#xf6;" d="M57 479q0 119 38 214t105.5 160t161.5 99.5t207 34.5t207 -34.5t162 -99.5t105.5 -160t37.5 -214q0 -121 -37.5 -215t-105.5 -158.5t-162 -99.5t-207 -35t-207 35t-161.5 99.5t-105.5 158.5t-38 215zM248 1128v236h225v-236h-225zM340 479q0 -57 11 -113.5t38 -100.5 t71 -71.5t109 -27.5q66 0 110 27.5t70.5 71.5t38 100.5t11.5 113.5t-11.5 112.5t-38 100.5t-70.5 73t-110 28t-109.5 -28t-70.5 -73t-38 -100.5t-11 -112.5zM666 1128v236h225v-236h-225z" />
<glyph unicode="&#xf7;" horiz-adv-x="1228" d="M96 416v205h1037v-205h-1037zM473 117q0 57 41 99t100 42q57 0 99.5 -42t42.5 -99q0 -59 -42 -100.5t-100 -41.5q-59 0 -100 41.5t-41 100.5zM473 920q0 57 41 99t100 42q57 0 99.5 -42t42.5 -99q0 -59 -42 -100.5t-100 -41.5q-59 0 -100 41.5t-41 100.5z" />
<glyph unicode="&#xf8;" d="M29 -14l145 155q-55 66 -86 151t-31 187q0 119 38 214t105.5 160t162 99.5t206.5 34.5q180 0 308 -86l129 139l77 -71l-125 -135q59 -66 91 -155t32 -200q0 -115 -35.5 -208t-101 -159.5t-161 -103.5t-214.5 -37q-188 0 -319 101l-146 -158zM340 479q0 -74 18 -137 l361 389q-55 61 -150 62q-66 0 -109.5 -28t-70.5 -73t-38 -100t-11 -113zM408 242q27 -35 66.5 -55.5t94.5 -20.5q66 0 110 27.5t70.5 71.5t38 100.5t11.5 113.5q0 84 -25 156z" />
<glyph unicode="&#xf9;" horiz-adv-x="1251" d="M33 774v184h405v-600q0 -74 42 -133t126 -59q55 0 94 22.5t65 59.5t37 83t11 93v350h-123v184h395v-774h134v-184h-381v162h-4q-49 -92 -135.5 -141.5t-190.5 -49.5q-190 0 -266 97.5t-76 279.5v426h-133zM315 1382h283l168 -297h-174z" />
<glyph unicode="&#xfa;" horiz-adv-x="1251" d="M33 774v184h405v-600q0 -74 42 -133t126 -59q55 0 94 22.5t65 59.5t37 83t11 93v350h-123v184h395v-774h134v-184h-381v162h-4q-49 -92 -135.5 -141.5t-190.5 -49.5q-190 0 -266 97.5t-76 279.5v426h-133zM479 1085l168 297h283l-277 -297h-174z" />
<glyph unicode="&#xfb;" horiz-adv-x="1251" d="M33 774v184h405v-600q0 -74 42 -133t126 -59q55 0 94 22.5t65 59.5t37 83t11 93v350h-123v184h395v-774h134v-184h-381v162h-4q-49 -92 -135.5 -141.5t-190.5 -49.5q-190 0 -266 97.5t-76 279.5v426h-133zM303 1085l223 297h209l215 -297h-184l-137 175l-142 -175h-184z " />
<glyph unicode="&#xfc;" horiz-adv-x="1251" d="M33 774v184h405v-600q0 -74 42 -133t126 -59q55 0 94 22.5t65 59.5t37 83t11 93v350h-123v184h395v-774h134v-184h-381v162h-4q-49 -92 -135.5 -141.5t-190.5 -49.5q-190 0 -266 97.5t-76 279.5v426h-133zM305 1128v236h225v-236h-225zM723 1128v236h225v-236h-225z" />
<glyph unicode="&#xfd;" horiz-adv-x="1251" d="M31 774v184h536v-184h-143l211 -489l219 489h-143v184h510v-184h-93l-456 -932q-27 -59 -55.5 -101t-66.5 -67.5t-86 -38t-116 -12.5q-41 0 -79 4t-76 11v194q31 -4 64.5 -9t78.5 -5q59 0 97 52t61 124l-371 780h-92zM479 1085l168 297h283l-277 -297h-174z" />
<glyph unicode="&#xfe;" horiz-adv-x="1251" d="M57 -164h133v1348h-133v184h406v-539h4q41 74 115.5 116t181.5 42q94 0 173 -31.5t136 -97t89 -164t32 -229.5q0 -96 -25.5 -185.5t-77 -158t-129 -109.5t-182.5 -41q-53 0 -97 7.5t-81 26t-69.5 50t-65.5 78.5h-4v-297h147v-184h-553v184zM446 494q0 -76 12.5 -136.5 t42 -103.5t80 -65.5t128.5 -22.5q88 0 145 79t57 234q0 59 -11 115.5t-36.5 100.5t-69.5 71t-110 27q-63 0 -108.5 -25t-74 -65.5t-42 -95t-13.5 -113.5z" />
<glyph unicode="&#xff;" horiz-adv-x="1251" d="M31 774v184h536v-184h-143l211 -489l219 489h-143v184h510v-184h-93l-456 -932q-27 -59 -55.5 -101t-66.5 -67.5t-86 -38t-116 -12.5q-41 0 -79 4t-76 11v194q31 -4 64.5 -9t78.5 -5q59 0 97 52t61 124l-371 780h-92zM305 1128v236h225v-236h-225zM723 1128v236h225v-236 h-225z" />
<glyph unicode="&#x152;" horiz-adv-x="2048" d="M90 662q0 166 42 297t125 222t208 139t293 48q45 0 92 -4t98 -10q51 -4 106.5 -9.5t114.5 -5.5h773v-401h-236v207h-461v-365h152v183h215v-547h-215v180h-152v-401h461v243h236v-438h-773q-55 0 -110 -4t-109 -10q-55 -4 -109.5 -9.5t-109.5 -5.5q-166 0 -286.5 59.5 t-199.5 157t-117 221t-38 253.5zM389 655q0 -84 15.5 -171t57.5 -157.5t117.5 -115.5t196.5 -45q18 0 43 1t51.5 3t50 5t42.5 9v973q-82 16 -166 17q-121 0 -200 -41t-125 -111t-64.5 -165t-18.5 -202z" />
<glyph unicode="&#x153;" horiz-adv-x="1708" d="M57 479q0 121 35 215t98.5 160t152.5 99.5t200 33.5q53 0 106 -10t100.5 -32.5t85 -59.5t62.5 -88q47 104 139 147t199 43q70 0 126 -16.5t101 -43t76 -60t49 -66.5q39 -72 51.5 -176.5t12.5 -223.5h-627q0 -106 50 -175.5t151 -69.5q72 0 114.5 41t42.5 100h256 q-8 -88 -42.5 -149.5t-89 -100.5t-124 -57.5t-147.5 -18.5q-119 0 -199 37t-139 146q-57 -102 -152.5 -142.5t-201.5 -40.5q-111 0 -200 34t-152.5 99.5t-98.5 159.5t-35 215zM313 479q0 -61 11.5 -118.5t38 -103.5t70.5 -73.5t110 -27.5t109.5 27.5t70.5 73.5t38 103.5 t11 118.5q0 57 -11 112.5t-38 100.5t-70.5 73t-109.5 28t-110 -28t-70.5 -73t-38 -100t-11.5 -113zM1024 575h371q0 39 -8.5 78t-29 70t-54 50.5t-84.5 19.5q-49 0 -85 -19.5t-60.5 -50.5t-37 -70t-12.5 -78z" />
<glyph unicode="&#x178;" horiz-adv-x="1480" d="M33 1145v194h618v-194h-174l277 -422l278 422h-174v194h590v-194h-113l-454 -666v-284h194v-195h-672v195h195v284l-453 666h-112zM420 1509v236h225v-236h-225zM838 1509v236h225v-236h-225z" />
<glyph unicode="&#x2c6;" horiz-adv-x="569" d="M-39 1085l223 297h209l215 -297h-184l-137 175l-142 -175h-184z" />
<glyph unicode="&#x2dc;" horiz-adv-x="569" d="M-80 1098q6 47 23.5 91t45 79t67.5 56.5t94 21.5q41 0 79.5 -12.5t75.5 -26.5q39 -16 76 -28.5t74 -12.5t60.5 32.5t31.5 65.5h102q-4 -45 -20.5 -90t-44 -81t-67.5 -58.5t-89 -22.5q-47 0 -87 12.5t-77 28.5q-35 14 -69.5 26.5t-71.5 12.5q-43 0 -65.5 -29.5 t-34.5 -64.5h-103z" />
<glyph unicode="&#x2000;" horiz-adv-x="937" />
<glyph unicode="&#x2001;" horiz-adv-x="1874" />
<glyph unicode="&#x2002;" horiz-adv-x="937" />
<glyph unicode="&#x2003;" horiz-adv-x="1874" />
<glyph unicode="&#x2004;" horiz-adv-x="624" />
<glyph unicode="&#x2005;" horiz-adv-x="468" />
<glyph unicode="&#x2006;" horiz-adv-x="312" />
<glyph unicode="&#x2007;" horiz-adv-x="312" />
<glyph unicode="&#x2008;" horiz-adv-x="234" />
<glyph unicode="&#x2009;" horiz-adv-x="374" />
<glyph unicode="&#x200a;" horiz-adv-x="104" />
<glyph unicode="&#x2010;" horiz-adv-x="681" d="M100 449v204h482v-204h-482z" />
<glyph unicode="&#x2011;" horiz-adv-x="681" d="M100 449v204h482v-204h-482z" />
<glyph unicode="&#x2012;" horiz-adv-x="681" d="M100 449v204h482v-204h-482z" />
<glyph unicode="&#x2013;" horiz-adv-x="1024" d="M0 469v164h1024v-164h-1024z" />
<glyph unicode="&#x2014;" horiz-adv-x="2048" d="M0 469v164h2048v-164h-2048z" />
<glyph unicode="&#x2018;" horiz-adv-x="569" d="M135 774v299l103 266h184l-103 -266h115v-299h-299z" />
<glyph unicode="&#x2019;" horiz-adv-x="569" d="M135 1040v299h299v-299l-102 -266h-185l103 266h-115z" />
<glyph unicode="&#x201a;" horiz-adv-x="569" d="M135 0v299h299v-299l-102 -266h-185l103 266h-115z" />
<glyph unicode="&#x201c;" d="M164 774v299l102 266h185l-103 -266h115v-299h-299zM676 774v299l102 266h185l-103 -266h115v-299h-299z" />
<glyph unicode="&#x201d;" d="M164 1040v299h299v-299l-103 -266h-184l103 266h-115zM676 1040v299h299v-299l-103 -266h-184l103 266h-115z" />
<glyph unicode="&#x201e;" d="M164 0v299h299v-299l-103 -266h-184l103 266h-115zM676 0v299h299v-299l-103 -266h-184l103 266h-115z" />
<glyph unicode="&#x2022;" horiz-adv-x="1024" d="M176 672q0 66 27.5 126t74 106t106.5 74t126 28t127 -28t107.5 -74t74 -106.5t27.5 -125.5q0 -66 -27.5 -126.5t-74 -107.5t-108 -74.5t-126.5 -27.5q-66 0 -126 27.5t-106.5 73.5t-74 107.5t-27.5 127.5z" />
<glyph unicode="&#x2026;" horiz-adv-x="2048" d="M193 0v299h299v-299h-299zM874 0v299h300v-299h-300zM1556 0v299h299v-299h-299z" />
<glyph unicode="&#x202f;" horiz-adv-x="374" />
<glyph unicode="&#x2039;" horiz-adv-x="569" d="M96 477l172 402h205l-172 -402l172 -401h-205z" />
<glyph unicode="&#x203a;" horiz-adv-x="569" d="M96 76l172 401l-172 402h205l172 -402l-172 -401h-205z" />
<glyph unicode="&#x205f;" horiz-adv-x="468" />
<glyph unicode="&#x2122;" horiz-adv-x="2048" d="M98 1196v143h641v-143h-223v-647h-194v647h-224zM899 549v790h275l192 -499l188 499h275v-790h-184v555h-5l-204 -555h-144l-205 555h-4v-555h-184z" />
<glyph unicode="&#x25fc;" horiz-adv-x="962" d="M0 0v963h963v-963h-963z" />
</font>
</defs>
</svg>
